M48
; DRILL file {KiCad (6.0.1)} date Fri Oct  7 00:00:46 2022
; FORMAT={-:-/ absolute / inch / decimal}
; #@! TF.CreationDate,2022-10-07T00:00:46+07:00
; #@! TF.GenerationSoftware,Kicad,Pcbnew,(6.0.1)
; #@! TF.FileFunction,Plated,1,4,PTH
FMAT,2
INCH
; #@! TA.AperFunction,Plated,PTH,ViaDrill
T1C0.0118
; #@! TA.AperFunction,Plated,PTH,ComponentDrill
T2C0.0236
; #@! TA.AperFunction,Plated,PTH,ComponentDrill
T3C0.0394
%
G90
G05
T1
X7.1126Y-3.628
X7.1472Y-3.4071
X7.1508Y-3.5909
X7.185Y-3.7677
X7.1866Y-3.624
X7.1874Y-3.7193
X7.1894Y-3.9358
X7.2165Y-3.8346
X7.2448Y-4.5043
X7.2472Y-3.4071
X7.2583Y-3.9524
X7.2638Y-3.8701
X7.2669Y-4.4579
X7.2693Y-4.4894
X7.2728Y-4.4276
X7.2736Y-3.7642
X7.2756Y-3.8976
X7.2819Y-3.5508
X7.2972Y-3.4071
X7.3Y-3.7055
X7.3016Y-3.5736
X7.3047Y-3.9965
X7.3118Y-3.798
X7.3256Y-3.6043
X7.3425Y-3.8031
X7.3425Y-4.1457
X7.3492Y-3.9724
X7.3543Y-4.1732
X7.3559Y-3.6122
X7.374Y-4.1102
X7.3972Y-3.5071
X7.4098Y-3.6311
X7.4173Y-3.9528
X7.4213Y-4.2913
X7.4213Y-4.3189
X7.4252Y-4.3504
X7.4252Y-4.3819
X7.4252Y-4.4488
X7.4353Y-3.62
X7.4472Y-3.4571
X7.4472Y-3.5071
X7.4488Y-3.8228
X7.4567Y-3.5945
X7.4567Y-3.9213
X7.4803Y-3.8268
X7.4882Y-3.9134
X7.4921Y-4.0472
X7.4972Y-3.4571
X7.4972Y-3.5071
X7.5047Y-4.1339
X7.5118Y-4.2874
X7.513Y-3.6913
X7.5472Y-3.4571
X7.5472Y-3.5071
X7.5472Y-4.4071
X7.5551Y-3.9646
X7.5709Y-3.9921
X7.5831Y-4.2059
X7.5835Y-4.1531
X7.5984Y-3.9528
X7.6299Y-3.9488
X7.6472Y-3.6571
X7.6634Y-4.1201
X7.6642Y-4.315
X7.6654Y-4.1496
X7.6693Y-4.3622
X7.6693Y-4.3917
X7.6972Y-3.5071
X7.6972Y-3.5571
X7.6972Y-3.6071
X7.6988Y-4.4035
X7.7362Y-4.1772
X7.7362Y-4.2874
X7.7472Y-3.5071
X7.7472Y-3.5571
X7.7472Y-3.6071
X7.7913Y-4.122
X7.7913Y-4.2323
X7.7913Y-4.3425
X7.7972Y-3.5071
X7.7972Y-3.5571
X7.7972Y-3.6071
X7.8173Y-3.9154
X7.8201Y-3.9469
X7.8465Y-4.1732
X7.8465Y-4.2874
X7.8472Y-3.5071
X7.8472Y-3.5571
X7.8472Y-3.6071
X7.8472Y-3.6571
X7.8972Y-3.5571
X7.8972Y-3.6071
X7.8972Y-3.6571
X7.8976Y-4.4094
X7.9016Y-4.122
X7.9016Y-4.2323
X7.9016Y-4.3425
X7.9291Y-4.4161
X7.9472Y-3.6071
X7.9567Y-4.1732
X7.9567Y-4.2835
X7.9626Y-4.4114
X7.9665Y-3.8756
X7.9835Y-4.5067
X7.9921Y-3.9173
X7.9961Y-3.9449
X7.9972Y-3.5071
X8.0122Y-4.5063
X8.0197Y-4.1496
X8.0236Y-4.2244
X8.0699Y-3.5581
X8.0709Y-3.5876
X8.0728Y-3.7264
X8.0972Y-4.4571
X8.1102Y-4.1083
X8.1161Y-4.0787
X8.1319Y-3.5285
X8.1409Y-3.5945
X8.1469Y-4.2717
X8.1469Y-4.3571
X8.1472Y-4.4571
X8.1634Y-3.5285
X8.185Y-3.8228
X8.1969Y-4.2717
X8.1969Y-4.3571
X8.1972Y-3.4071
X8.1972Y-4.4571
X8.2165Y-3.8268
X8.2469Y-4.2717
X8.2469Y-4.3571
X8.2472Y-4.4571
X8.2559Y-3.7441
X8.2687Y-3.6132
X8.2835Y-4.0354
X8.2874Y-3.7441
X8.2969Y-4.2717
X8.2969Y-4.3571
X8.2972Y-4.4571
X8.3425Y-3.6614
X8.3469Y-4.2717
X8.3469Y-4.3571
X8.3472Y-3.4071
X8.3472Y-4.4571
X8.3969Y-4.3571
X8.3972Y-4.4571
X8.3976Y-4.2717
X8.4469Y-4.3571
X8.4472Y-4.4571
X8.4476Y-4.2717
X8.4969Y-4.2717
X8.4969Y-4.3571
X8.4972Y-4.4571
X8.5409Y-4.2476
X8.5409Y-4.3811
X8.5472Y-4.4571
X8.5906Y-4.252
X8.5906Y-4.3728
X8.5972Y-4.4571
X8.6228Y-4.3346
X8.628Y-4.285
T2
X7.1545Y-4.0394
X7.1545Y-4.0886
X7.1545Y-4.1378
X7.1545Y-4.187
X7.1545Y-4.2362
T3
X8.5591Y-4.315
T0
M30
