%TF.GenerationSoftware,KiCad,Pcbnew,(6.0.1)*%
%TF.CreationDate,2022-10-07T00:00:45+07:00*%
%TF.ProjectId,rak3172,72616b33-3137-4322-9e6b-696361645f70,rev?*%
%TF.SameCoordinates,Original*%
%TF.FileFunction,Copper,L1,Top*%
%TF.FilePolarity,Positive*%
%FSLAX46Y46*%
G04 Gerber Fmt 4.6, Leading zero omitted, Abs format (unit mm)*
G04 Created by KiCad (PCBNEW (6.0.1)) date 2022-10-07 00:00:45*
%MOMM*%
%LPD*%
G01*
G04 APERTURE LIST*
G04 Aperture macros list*
%AMRoundRect*
0 Rectangle with rounded corners*
0 $1 Rounding radius*
0 $2 $3 $4 $5 $6 $7 $8 $9 X,Y pos of 4 corners*
0 Add a 4 corners polygon primitive as box body*
4,1,4,$2,$3,$4,$5,$6,$7,$8,$9,$2,$3,0*
0 Add four circle primitives for the rounded corners*
1,1,$1+$1,$2,$3*
1,1,$1+$1,$4,$5*
1,1,$1+$1,$6,$7*
1,1,$1+$1,$8,$9*
0 Add four rect primitives between the rounded corners*
20,1,$1+$1,$2,$3,$4,$5,0*
20,1,$1+$1,$4,$5,$6,$7,0*
20,1,$1+$1,$6,$7,$8,$9,0*
20,1,$1+$1,$8,$9,$2,$3,0*%
%AMRotRect*
0 Rectangle, with rotation*
0 The origin of the aperture is its center*
0 $1 length*
0 $2 width*
0 $3 Rotation angle, in degrees counterclockwise*
0 Add horizontal line*
21,1,$1,$2,0,0,$3*%
%AMOutline5P*
0 Free polygon, 5 corners , with rotation*
0 The origin of the aperture is its center*
0 number of corners: always 5*
0 $1 to $10 corner X, Y*
0 $11 Rotation angle, in degrees counterclockwise*
0 create outline with 5 corners*
4,1,5,$1,$2,$3,$4,$5,$6,$7,$8,$9,$10,$1,$2,$11*%
%AMOutline6P*
0 Free polygon, 6 corners , with rotation*
0 The origin of the aperture is its center*
0 number of corners: always 6*
0 $1 to $12 corner X, Y*
0 $13 Rotation angle, in degrees counterclockwise*
0 create outline with 6 corners*
4,1,6,$1,$2,$3,$4,$5,$6,$7,$8,$9,$10,$11,$12,$1,$2,$13*%
%AMOutline7P*
0 Free polygon, 7 corners , with rotation*
0 The origin of the aperture is its center*
0 number of corners: always 7*
0 $1 to $14 corner X, Y*
0 $15 Rotation angle, in degrees counterclockwise*
0 create outline with 7 corners*
4,1,7,$1,$2,$3,$4,$5,$6,$7,$8,$9,$10,$11,$12,$13,$14,$1,$2,$15*%
%AMOutline8P*
0 Free polygon, 8 corners , with rotation*
0 The origin of the aperture is its center*
0 number of corners: always 8*
0 $1 to $16 corner X, Y*
0 $17 Rotation angle, in degrees counterclockwise*
0 create outline with 8 corners*
4,1,8,$1,$2,$3,$4,$5,$6,$7,$8,$9,$10,$11,$12,$13,$14,$15,$16,$1,$2,$17*%
%AMFreePoly0*
4,1,6,0.130000,0.115000,0.130000,-0.115000,-0.130000,-0.115000,-0.130000,0.275000,-0.020000,0.275000,0.130000,0.115000,0.130000,0.115000,$1*%
%AMFreePoly1*
4,1,6,0.130000,-0.115000,-0.130000,-0.115000,-0.130000,0.115000,0.020000,0.275000,0.130000,0.275000,0.130000,-0.115000,0.130000,-0.115000,$1*%
G04 Aperture macros list end*
%TA.AperFunction,SMDPad,CuDef*%
%ADD10R,0.350000X0.580000*%
%TD*%
%TA.AperFunction,SMDPad,CuDef*%
%ADD11R,0.580000X0.350000*%
%TD*%
%TA.AperFunction,ComponentPad*%
%ADD12C,2.000000*%
%TD*%
%TA.AperFunction,SMDPad,CuDef*%
%ADD13RoundRect,0.140000X0.140000X0.170000X-0.140000X0.170000X-0.140000X-0.170000X0.140000X-0.170000X0*%
%TD*%
%TA.AperFunction,SMDPad,CuDef*%
%ADD14C,1.000000*%
%TD*%
%TA.AperFunction,ComponentPad*%
%ADD15RoundRect,0.225000X0.475000X-0.225000X0.475000X0.225000X-0.475000X0.225000X-0.475000X-0.225000X0*%
%TD*%
%TA.AperFunction,ComponentPad*%
%ADD16O,1.400000X0.900000*%
%TD*%
%TA.AperFunction,SMDPad,CuDef*%
%ADD17RoundRect,0.140000X0.170000X-0.140000X0.170000X0.140000X-0.170000X0.140000X-0.170000X-0.140000X0*%
%TD*%
%TA.AperFunction,SMDPad,CuDef*%
%ADD18RoundRect,0.135000X0.135000X0.185000X-0.135000X0.185000X-0.135000X-0.185000X0.135000X-0.185000X0*%
%TD*%
%TA.AperFunction,SMDPad,CuDef*%
%ADD19Outline5P,-0.585000X0.185000X0.474000X0.185000X0.585000X0.074000X0.585000X-0.185000X-0.585000X-0.185000X0.000000*%
%TD*%
%TA.AperFunction,SMDPad,CuDef*%
%ADD20R,1.170000X0.370000*%
%TD*%
%TA.AperFunction,SMDPad,CuDef*%
%ADD21R,0.370000X1.170000*%
%TD*%
%TA.AperFunction,SMDPad,CuDef*%
%ADD22R,1.600000X1.600000*%
%TD*%
%TA.AperFunction,SMDPad,CuDef*%
%ADD23R,0.700000X0.600000*%
%TD*%
%TA.AperFunction,SMDPad,CuDef*%
%ADD24RoundRect,0.135000X0.185000X-0.135000X0.185000X0.135000X-0.185000X0.135000X-0.185000X-0.135000X0*%
%TD*%
%TA.AperFunction,SMDPad,CuDef*%
%ADD25RoundRect,0.140000X-0.140000X-0.170000X0.140000X-0.170000X0.140000X0.170000X-0.140000X0.170000X0*%
%TD*%
%TA.AperFunction,SMDPad,CuDef*%
%ADD26RoundRect,0.140000X-0.170000X0.140000X-0.170000X-0.140000X0.170000X-0.140000X0.170000X0.140000X0*%
%TD*%
%TA.AperFunction,SMDPad,CuDef*%
%ADD27RoundRect,0.135000X-0.135000X-0.185000X0.135000X-0.185000X0.135000X0.185000X-0.135000X0.185000X0*%
%TD*%
%TA.AperFunction,SMDPad,CuDef*%
%ADD28RoundRect,0.218750X-0.256250X0.218750X-0.256250X-0.218750X0.256250X-0.218750X0.256250X0.218750X0*%
%TD*%
%TA.AperFunction,SMDPad,CuDef*%
%ADD29RoundRect,0.150000X-0.587500X-0.150000X0.587500X-0.150000X0.587500X0.150000X-0.587500X0.150000X0*%
%TD*%
%TA.AperFunction,SMDPad,CuDef*%
%ADD30RotRect,0.520000X0.520000X225.000000*%
%TD*%
%TA.AperFunction,SMDPad,CuDef*%
%ADD31FreePoly0,180.000000*%
%TD*%
%TA.AperFunction,SMDPad,CuDef*%
%ADD32FreePoly1,180.000000*%
%TD*%
%TA.AperFunction,SMDPad,CuDef*%
%ADD33FreePoly0,0.000000*%
%TD*%
%TA.AperFunction,SMDPad,CuDef*%
%ADD34FreePoly1,0.000000*%
%TD*%
%TA.AperFunction,SMDPad,CuDef*%
%ADD35RoundRect,0.135000X-0.185000X0.135000X-0.185000X-0.135000X0.185000X-0.135000X0.185000X0.135000X0*%
%TD*%
%TA.AperFunction,SMDPad,CuDef*%
%ADD36C,0.250000*%
%TD*%
%TA.AperFunction,SMDPad,CuDef*%
%ADD37R,2.500000X2.500000*%
%TD*%
%TA.AperFunction,SMDPad,CuDef*%
%ADD38RoundRect,0.147500X-0.147500X-0.172500X0.147500X-0.172500X0.147500X0.172500X-0.147500X0.172500X0*%
%TD*%
%TA.AperFunction,SMDPad,CuDef*%
%ADD39RoundRect,0.250000X-0.425000X0.450000X-0.425000X-0.450000X0.425000X-0.450000X0.425000X0.450000X0*%
%TD*%
%TA.AperFunction,SMDPad,CuDef*%
%ADD40RotRect,0.520000X0.520000X45.000000*%
%TD*%
%TA.AperFunction,SMDPad,CuDef*%
%ADD41RoundRect,0.250000X0.450000X0.425000X-0.450000X0.425000X-0.450000X-0.425000X0.450000X-0.425000X0*%
%TD*%
%TA.AperFunction,SMDPad,CuDef*%
%ADD42RoundRect,0.218750X0.381250X-0.218750X0.381250X0.218750X-0.381250X0.218750X-0.381250X-0.218750X0*%
%TD*%
%TA.AperFunction,SMDPad,CuDef*%
%ADD43R,2.200000X1.050000*%
%TD*%
%TA.AperFunction,SMDPad,CuDef*%
%ADD44R,1.050000X1.000000*%
%TD*%
%TA.AperFunction,SMDPad,CuDef*%
%ADD45RoundRect,0.150000X0.150000X-0.587500X0.150000X0.587500X-0.150000X0.587500X-0.150000X-0.587500X0*%
%TD*%
%TA.AperFunction,SMDPad,CuDef*%
%ADD46RoundRect,0.237500X0.387500X0.237500X-0.387500X0.237500X-0.387500X-0.237500X0.387500X-0.237500X0*%
%TD*%
%TA.AperFunction,ViaPad*%
%ADD47C,0.600000*%
%TD*%
%TA.AperFunction,Conductor*%
%ADD48C,0.101600*%
%TD*%
%TA.AperFunction,Conductor*%
%ADD49C,0.203200*%
%TD*%
%TA.AperFunction,Conductor*%
%ADD50C,0.293370*%
%TD*%
%TA.AperFunction,Conductor*%
%ADD51C,0.177800*%
%TD*%
%TA.AperFunction,Conductor*%
%ADD52C,0.380000*%
%TD*%
%TA.AperFunction,Conductor*%
%ADD53C,0.146050*%
%TD*%
%TA.AperFunction,Conductor*%
%ADD54C,0.406400*%
%TD*%
%TA.AperFunction,Conductor*%
%ADD55C,0.095000*%
%TD*%
G04 APERTURE END LIST*
D10*
%TO.P,U7,14,SDA/SDI/SDIO*%
%TO.N,/IMU_SDI_P*%
X207600000Y-95175000D03*
%TO.P,U7,13,SCL/SPC*%
%TO.N,/IMU_SCK_P*%
X207100000Y-95175000D03*
%TO.P,U7,12,CS*%
%TO.N,IMU_CS*%
X206600000Y-95175000D03*
D11*
%TO.P,U7,11,NC*%
%TO.N,unconnected-(U7-Pad11)*%
X205925000Y-95000000D03*
%TO.P,U7,10,NC*%
%TO.N,unconnected-(U7-Pad10)*%
X205925000Y-94500000D03*
%TO.P,U7,9,INT2*%
%TO.N,IMU_INT2*%
X205925000Y-94000000D03*
%TO.P,U7,8,VDD*%
%TO.N,+3V3*%
X205925000Y-93500000D03*
D10*
%TO.P,U7,7,GND*%
%TO.N,GND*%
X206600000Y-93325000D03*
%TO.P,U7,6,GND*%
X207100000Y-93325000D03*
%TO.P,U7,5,VDDIO*%
%TO.N,+3V3*%
X207600000Y-93325000D03*
D11*
%TO.P,U7,4,INT1*%
%TO.N,IMU_INT1*%
X208275000Y-93500000D03*
%TO.P,U7,3,MSCL*%
%TO.N,/Magneto_SCL*%
X208275000Y-94000000D03*
%TO.P,U7,2,MSDA*%
%TO.N,/Magneto_SDA*%
X208275000Y-94500000D03*
%TO.P,U7,1,SDO/SA0*%
%TO.N,/IMU_SDO_P*%
X208275000Y-95000000D03*
%TD*%
D12*
%TO.P,ANT1,1,A*%
%TO.N,/ANTENNA*%
X217400000Y-109600000D03*
%TD*%
D13*
%TO.P,C19,1*%
%TO.N,+3V3*%
X190330000Y-111200000D03*
%TO.P,C19,2*%
%TO.N,GND*%
X189370000Y-111200000D03*
%TD*%
D14*
%TO.P,TP11,1,1*%
%TO.N,IMU_SDO*%
X195600000Y-98400000D03*
%TD*%
D15*
%TO.P,DEBUG1,1,Pin_1*%
%TO.N,GND*%
X181725000Y-107600000D03*
D16*
%TO.P,DEBUG1,2,Pin_2*%
%TO.N,SWCLK*%
X181725000Y-106350000D03*
%TO.P,DEBUG1,3,Pin_3*%
%TO.N,SWDIO*%
X181725000Y-105100000D03*
%TO.P,DEBUG1,4,Pin_4*%
%TO.N,NRST*%
X181725000Y-103850000D03*
%TO.P,DEBUG1,5,Pin_5*%
%TO.N,+3V3*%
X181725000Y-102600000D03*
%TD*%
D17*
%TO.P,C4,1*%
%TO.N,BOOT0*%
X210700000Y-98880000D03*
%TO.P,C4,2*%
%TO.N,GND*%
X210700000Y-97920000D03*
%TD*%
D18*
%TO.P,R18,1*%
%TO.N,BUZZER*%
X191210000Y-95900000D03*
%TO.P,R18,2*%
%TO.N,Net-(Q2-Pad1)*%
X190190000Y-95900000D03*
%TD*%
D19*
%TO.P,U2,1,SWDIO/A9*%
%TO.N,SWDIO*%
X193650000Y-103000000D03*
D20*
%TO.P,U2,2,SWCLK/A10*%
%TO.N,SWCLK*%
X193650000Y-103600000D03*
%TO.P,U2,3,VDD*%
%TO.N,+3V3*%
X193650000Y-104200000D03*
%TO.P,U2,4,VBAT*%
X193650000Y-104800000D03*
%TO.P,U2,5,PC13/WKUP2*%
%TO.N,CBR_SW*%
X193650000Y-105400000D03*
%TO.P,U2,6,VREF+*%
%TO.N,+3V3*%
X193650000Y-106000000D03*
%TO.P,U2,7,VDDA*%
X193650000Y-106600000D03*
%TO.P,U2,8,PA15/I2C2_SDA/A11*%
%TO.N,/VBAT_SENSE*%
X193650000Y-107200000D03*
%TO.P,U2,9,SPI2_MOSI/PB15*%
%TO.N,LED*%
X193650000Y-107800000D03*
%TO.P,U2,10,VFBSMPS*%
%TO.N,/VFBSMPS*%
X193650000Y-108400000D03*
%TO.P,U2,11,VDDMPS*%
%TO.N,+3V3*%
X193650000Y-109000000D03*
%TO.P,U2,12,GND*%
%TO.N,GND*%
X193650000Y-109600000D03*
%TO.P,U2,13,VLXSMPS*%
%TO.N,/VLXSMPS*%
X193650000Y-110200000D03*
%TO.P,U2,14,PB3/A2/SPI1_SCK/WKUP3*%
%TO.N,IMU_INT2*%
X193650000Y-110800000D03*
%TO.P,U2,15,PB4/A3/SPI1_MISO/A3*%
%TO.N,unconnected-(U2-Pad15)*%
X193650000Y-111400000D03*
%TO.P,U2,16,PB5/SPI1_MOSI*%
%TO.N,unconnected-(U2-Pad16)*%
X193650000Y-112000000D03*
D21*
%TO.P,U2,17,PB6/UART1_TX*%
%TO.N,GPS_RX*%
X194800000Y-113150000D03*
%TO.P,U2,18,PB7/UART1_RX*%
%TO.N,GPS_TX*%
X195400000Y-113150000D03*
%TO.P,U2,19,I2C1_SCL/PB8*%
%TO.N,1PPS*%
X196000000Y-113150000D03*
%TO.P,U2,20,I2C1_SDA/PB9*%
%TO.N,unconnected-(U2-Pad20)*%
X196600000Y-113150000D03*
%TO.P,U2,21,PC0/I2C3_SCL*%
%TO.N,unconnected-(U2-Pad21)*%
X197200000Y-113150000D03*
%TO.P,U2,22,PC1/I2C3_SDA/SPI2_MOSI*%
%TO.N,unconnected-(U2-Pad22)*%
X197800000Y-113150000D03*
%TO.P,U2,23,PC2/SPI2_MISO*%
%TO.N,unconnected-(U2-Pad23)*%
X198400000Y-113150000D03*
%TO.P,U2,24,PC3/SPI2_MOSI*%
%TO.N,unconnected-(U2-Pad24)*%
X199000000Y-113150000D03*
%TO.P,U2,25,PC4*%
%TO.N,unconnected-(U2-Pad25)*%
X199600000Y-113150000D03*
%TO.P,U2,26,PC5*%
%TO.N,unconnected-(U2-Pad26)*%
X200200000Y-113150000D03*
%TO.P,U2,27,PC6*%
%TO.N,IMU_INT1*%
X200800000Y-113150000D03*
%TO.P,U2,28,GND*%
%TO.N,GND*%
X201400000Y-113150000D03*
%TO.P,U2,29,PA2/UART2_TX*%
%TO.N,Net-(TP2-Pad1)*%
X202000000Y-113150000D03*
%TO.P,U2,30,PA3/UART2_RX*%
%TO.N,Net-(TP1-Pad1)*%
X202600000Y-113150000D03*
%TO.P,U2,31,PA4/SPI1_NSS*%
%TO.N,unconnected-(U2-Pad31)*%
X203200000Y-113150000D03*
%TO.P,U2,32,PA5/SPI1_SCK*%
%TO.N,unconnected-(U2-Pad32)*%
X203800000Y-113150000D03*
D20*
%TO.P,U2,33,PA6/SPI1_MISO*%
%TO.N,unconnected-(U2-Pad33)*%
X204950000Y-112000000D03*
%TO.P,U2,34,PA7/SPI1_MOSI*%
%TO.N,unconnected-(U2-Pad34)*%
X204950000Y-111400000D03*
%TO.P,U2,35,GND*%
%TO.N,GND*%
X204950000Y-110800000D03*
%TO.P,U2,36,GND*%
X204950000Y-110200000D03*
%TO.P,U2,37,RF*%
%TO.N,/RF*%
X204950000Y-109600000D03*
%TO.P,U2,38,GND*%
%TO.N,GND*%
X204950000Y-109000000D03*
%TO.P,U2,39,GND*%
X204950000Y-108400000D03*
%TO.P,U2,40,NC*%
%TO.N,unconnected-(U2-Pad40)*%
X204950000Y-107800000D03*
%TO.P,U2,41,NC*%
%TO.N,unconnected-(U2-Pad41)*%
X204950000Y-107200000D03*
%TO.P,U2,42,NC*%
%TO.N,unconnected-(U2-Pad42)*%
X204950000Y-106600000D03*
%TO.P,U2,43,BOOT0*%
%TO.N,BOOT0*%
X204950000Y-106000000D03*
%TO.P,U2,44,NRST*%
%TO.N,NRST*%
X204950000Y-105400000D03*
%TO.P,U2,45,NC*%
%TO.N,unconnected-(U2-Pad45)*%
X204950000Y-104800000D03*
%TO.P,U2,46,GND*%
%TO.N,GND*%
X204950000Y-104200000D03*
%TO.P,U2,47,GND*%
X204950000Y-103600000D03*
%TO.P,U2,48,I2C3_SDA/PB11*%
%TO.N,unconnected-(U2-Pad48)*%
X204950000Y-103000000D03*
D21*
%TO.P,U2,49,I2C3_SCL/PB10*%
%TO.N,unconnected-(U2-Pad49)*%
X203800000Y-101850000D03*
%TO.P,U2,50,PA9/I2C1_SCL*%
%TO.N,unconnected-(U2-Pad50)*%
X203200000Y-101850000D03*
%TO.P,U2,51,PA8/SPI2_SCK*%
%TO.N,unconnected-(U2-Pad51)*%
X202600000Y-101850000D03*
%TO.P,U2,52,GND*%
%TO.N,GND*%
X202000000Y-101850000D03*
%TO.P,U2,53,VDD_RFPA*%
%TO.N,+3V3*%
X201400000Y-101850000D03*
%TO.P,U2,54,VDD_RF*%
X200800000Y-101850000D03*
%TO.P,U2,55,VDD*%
X200200000Y-101850000D03*
%TO.P,U2,56,GND*%
%TO.N,GND*%
X199600000Y-101850000D03*
%TO.P,U2,57,PB1/A5*%
%TO.N,unconnected-(U2-Pad57)*%
X199000000Y-101850000D03*
%TO.P,U2,58,PB2/SPI1_NSS/A4*%
%TO.N,unconnected-(U2-Pad58)*%
X198400000Y-101850000D03*
%TO.P,U2,59,SPI2_NSS/PB12*%
%TO.N,IMU_CS*%
X197800000Y-101850000D03*
%TO.P,U2,60,A0/SPI2_SCK/PB13*%
%TO.N,IMU_SCK*%
X197200000Y-101850000D03*
%TO.P,U2,61,A1/SPI2_MISO/PB14*%
%TO.N,IMU_SDO*%
X196600000Y-101850000D03*
%TO.P,U2,62,PA10/SPI2_MOSI*%
%TO.N,IMU_SDI*%
X196000000Y-101850000D03*
%TO.P,U2,63,PA11/I2C2_SDA/A7*%
%TO.N,BUZZER*%
X195400000Y-101850000D03*
%TO.P,U2,64,PA12/I2C2_SCL/A8*%
%TO.N,Gate_GPS*%
X194800000Y-101850000D03*
D22*
%TO.P,U2,65,GND*%
%TO.N,GND*%
X196500000Y-104700000D03*
%TO.P,U2,66,GND*%
X199300000Y-104700000D03*
%TO.P,U2,67,GND*%
X202100000Y-104700000D03*
%TO.P,U2,68,GND*%
X196500000Y-107500000D03*
%TO.P,U2,69,GND*%
X199300000Y-107500000D03*
%TO.P,U2,70,GND*%
X202100000Y-107500000D03*
%TO.P,U2,71,GND*%
X196500000Y-110300000D03*
%TO.P,U2,72,GND*%
X199300000Y-110300000D03*
%TO.P,U2,73,GND*%
X202100000Y-110300000D03*
%TD*%
D23*
%TO.P,D3,1,K*%
%TO.N,+3V3*%
X193300000Y-89500000D03*
%TO.P,D3,2,A*%
%TO.N,/BUZZER-*%
X193300000Y-90900000D03*
%TD*%
D24*
%TO.P,R15,1*%
%TO.N,+3V3*%
X210000000Y-94060000D03*
%TO.P,R15,2*%
%TO.N,/Magneto_SCL*%
X210000000Y-93040000D03*
%TD*%
D25*
%TO.P,C21,2*%
%TO.N,GND*%
X181780000Y-96000000D03*
%TO.P,C21,1*%
%TO.N,+3V3*%
X180820000Y-96000000D03*
%TD*%
D26*
%TO.P,C13,1*%
%TO.N,/VFBSMPS*%
X189350000Y-108220000D03*
%TO.P,C13,2*%
%TO.N,GND*%
X189350000Y-109180000D03*
%TD*%
D25*
%TO.P,C30,1*%
%TO.N,+3V3*%
X205620000Y-92050000D03*
%TO.P,C30,2*%
%TO.N,GND*%
X206580000Y-92050000D03*
%TD*%
D14*
%TO.P,TP6,1,1*%
%TO.N,/Magneto_SDA*%
X209925000Y-96200000D03*
%TD*%
D27*
%TO.P,R17,1*%
%TO.N,/Q2_G*%
X187140000Y-97100000D03*
%TO.P,R17,2*%
%TO.N,+3V3*%
X188160000Y-97100000D03*
%TD*%
D24*
%TO.P,R6,1*%
%TO.N,LED*%
X188800000Y-107010000D03*
%TO.P,R6,2*%
%TO.N,Net-(D2-Pad2)*%
X188800000Y-105990000D03*
%TD*%
D26*
%TO.P,C11,1*%
%TO.N,+3V3*%
X190800000Y-106020000D03*
%TO.P,C11,2*%
%TO.N,GND*%
X190800000Y-106980000D03*
%TD*%
D28*
%TO.P,D1,2,A*%
%TO.N,Net-(D1-Pad2)*%
X181600000Y-93687500D03*
%TO.P,D1,1,K*%
%TO.N,GND*%
X181600000Y-92112500D03*
%TD*%
D26*
%TO.P,C7,2*%
%TO.N,GND*%
X185900000Y-93880000D03*
%TO.P,C7,1*%
%TO.N,+BATT*%
X185900000Y-92920000D03*
%TD*%
D29*
%TO.P,U4,3,GND*%
%TO.N,GND*%
X183237500Y-98300000D03*
%TO.P,U4,2,OUTPUT*%
%TO.N,CBR_SW*%
X181362500Y-99250000D03*
%TO.P,U4,1,VCC*%
%TO.N,+3V3*%
X181362500Y-97350000D03*
%TD*%
D30*
%TO.P,U3,5,NC*%
%TO.N,unconnected-(U3-Pad5)*%
X187400000Y-93400000D03*
D31*
%TO.P,U3,4,VIN*%
%TO.N,+BATT*%
X187725000Y-92915000D03*
D32*
%TO.P,U3,3,EN*%
X187075000Y-92915000D03*
D33*
%TO.P,U3,2,GND*%
%TO.N,GND*%
X187075000Y-93885000D03*
D34*
%TO.P,U3,1,VOUT*%
%TO.N,+3V3*%
X187725000Y-93885000D03*
%TD*%
D18*
%TO.P,R19,1*%
%TO.N,Net-(Q2-Pad1)*%
X191200000Y-91300000D03*
%TO.P,R19,2*%
%TO.N,GND*%
X190180000Y-91300000D03*
%TD*%
D35*
%TO.P,R3,1*%
%TO.N,+BATT*%
X189800000Y-105990000D03*
%TO.P,R3,2*%
%TO.N,/VBAT_SENSE*%
X189800000Y-107010000D03*
%TD*%
D18*
%TO.P,R8,1*%
%TO.N,GPS_TX*%
X190360000Y-112250000D03*
%TO.P,R8,2*%
%TO.N,/p_GPS_TX*%
X189340000Y-112250000D03*
%TD*%
D25*
%TO.P,C22,2*%
%TO.N,GND*%
X202330000Y-99250000D03*
%TO.P,C22,1*%
%TO.N,+3V3*%
X201370000Y-99250000D03*
%TD*%
D27*
%TO.P,R9,1*%
%TO.N,GPS_RX*%
X189340000Y-114250000D03*
%TO.P,R9,2*%
%TO.N,/p_GPS_RX*%
X190360000Y-114250000D03*
%TD*%
D14*
%TO.P,TP8,1,1*%
%TO.N,IMU_CS*%
X191400000Y-98400000D03*
%TD*%
D27*
%TO.P,R14,1*%
%TO.N,IMU_SDO*%
X199340000Y-97100000D03*
%TO.P,R14,2*%
%TO.N,/IMU_SDO_P*%
X200360000Y-97100000D03*
%TD*%
%TO.P,R12,1*%
%TO.N,IMU_SCK*%
X199340000Y-98100000D03*
%TO.P,R12,2*%
%TO.N,/IMU_SCK_P*%
X200360000Y-98100000D03*
%TD*%
D36*
%TO.P,U5,A1,GND*%
%TO.N,GND*%
X212000000Y-93750000D03*
%TO.P,U5,A2,SCL*%
%TO.N,/Magneto_SCL*%
X212400000Y-93750000D03*
%TO.P,U5,B1,VDD*%
%TO.N,+3V3*%
X212000000Y-94150000D03*
%TO.P,U5,B2,SDA*%
%TO.N,/Magneto_SDA*%
X212400000Y-94150000D03*
%TD*%
D37*
%TO.P,BZ1,1,-*%
%TO.N,+3V3*%
X196200000Y-86900000D03*
%TO.P,BZ1,2,+*%
%TO.N,/BUZZER-*%
X196200000Y-93900000D03*
%TO.P,BZ1,3*%
%TO.N,N/C*%
X203200000Y-93900000D03*
%TO.P,BZ1,4*%
X203200000Y-86900000D03*
%TD*%
D26*
%TO.P,C14,1*%
%TO.N,+3V3*%
X190100000Y-104020000D03*
%TO.P,C14,2*%
%TO.N,GND*%
X190100000Y-104980000D03*
%TD*%
D38*
%TO.P,L1,1,1*%
%TO.N,/RF*%
X207615000Y-109600000D03*
%TO.P,L1,2,2*%
%TO.N,/ANTENNA*%
X208585000Y-109600000D03*
%TD*%
D14*
%TO.P,TP7,1,1*%
%TO.N,/Magneto_SCL*%
X211900000Y-91300000D03*
%TD*%
%TO.P,TP5,1,1*%
%TO.N,/VFBSMPS*%
X187600000Y-108300000D03*
%TD*%
D39*
%TO.P,C32,1*%
%TO.N,/GPS_VDD*%
X185600000Y-97650000D03*
%TO.P,C32,2*%
%TO.N,GND*%
X185600000Y-100350000D03*
%TD*%
D35*
%TO.P,R1,1*%
%TO.N,+3V3*%
X211700000Y-97890000D03*
%TO.P,R1,2*%
%TO.N,BOOT0*%
X211700000Y-98910000D03*
%TD*%
D17*
%TO.P,C12,1*%
%TO.N,+3V3*%
X188700000Y-93880000D03*
%TO.P,C12,2*%
%TO.N,GND*%
X188700000Y-92920000D03*
%TD*%
D35*
%TO.P,R4,1*%
%TO.N,+3V3*%
X207700000Y-97890000D03*
%TO.P,R4,2*%
%TO.N,NRST*%
X207700000Y-98910000D03*
%TD*%
D13*
%TO.P,C33,1*%
%TO.N,+3V3*%
X208480000Y-91050000D03*
%TO.P,C33,2*%
%TO.N,GND*%
X207520000Y-91050000D03*
%TD*%
D27*
%TO.P,R7,2*%
%TO.N,CBR_SW*%
X181810000Y-100600000D03*
%TO.P,R7,1*%
%TO.N,+3V3*%
X180790000Y-100600000D03*
%TD*%
D40*
%TO.P,U1,5,NC*%
%TO.N,unconnected-(U1-Pad5)*%
X184400000Y-93400000D03*
D33*
%TO.P,U1,4,VM*%
%TO.N,GND*%
X184075000Y-93885000D03*
D34*
%TO.P,U1,3,VSS*%
%TO.N,-BATT*%
X184725000Y-93885000D03*
D31*
%TO.P,U1,2,VSS*%
X184725000Y-92915000D03*
D32*
%TO.P,U1,1,VDD*%
%TO.N,+BATT*%
X184075000Y-92915000D03*
%TD*%
D41*
%TO.P,C17,2*%
%TO.N,GND*%
X185950000Y-95500000D03*
%TO.P,C17,1*%
%TO.N,+3V3*%
X188650000Y-95500000D03*
%TD*%
D42*
%TO.P,L2,1,1*%
%TO.N,/VLXSMPS*%
X191850000Y-110562500D03*
%TO.P,L2,2,2*%
%TO.N,/VFBSMPS*%
X191850000Y-108437500D03*
%TD*%
D27*
%TO.P,R10,1*%
%TO.N,GND*%
X189340000Y-113250000D03*
%TO.P,R10,2*%
%TO.N,/p_GPS_RX*%
X190360000Y-113250000D03*
%TD*%
D13*
%TO.P,C24,2*%
%TO.N,GND*%
X199390000Y-100250000D03*
%TO.P,C24,1*%
%TO.N,+3V3*%
X200350000Y-100250000D03*
%TD*%
D27*
%TO.P,R13,1*%
%TO.N,IMU_SDI*%
X199340000Y-96100000D03*
%TO.P,R13,2*%
%TO.N,/IMU_SDI_P*%
X200360000Y-96100000D03*
%TD*%
D18*
%TO.P,R5,1*%
%TO.N,+3V3*%
X184410000Y-94900000D03*
%TO.P,R5,2*%
%TO.N,Net-(D1-Pad2)*%
X183390000Y-94900000D03*
%TD*%
D17*
%TO.P,C6,1*%
%TO.N,NRST*%
X208700000Y-98880000D03*
%TO.P,C6,2*%
%TO.N,GND*%
X208700000Y-97920000D03*
%TD*%
D29*
%TO.P,Q2,1,G*%
%TO.N,Net-(Q2-Pad1)*%
X190762500Y-92650000D03*
%TO.P,Q2,2,S*%
%TO.N,GND*%
X190762500Y-94550000D03*
%TO.P,Q2,3,D*%
%TO.N,/BUZZER-*%
X192637500Y-93600000D03*
%TD*%
D14*
%TO.P,TP10,1,1*%
%TO.N,IMU_SDI*%
X193500000Y-98400000D03*
%TD*%
D17*
%TO.P,C26,1*%
%TO.N,+3V3*%
X211000000Y-94030000D03*
%TO.P,C26,2*%
%TO.N,GND*%
X211000000Y-93070000D03*
%TD*%
D26*
%TO.P,C10,1*%
%TO.N,+3V3*%
X191100000Y-104020000D03*
%TO.P,C10,2*%
%TO.N,GND*%
X191100000Y-104980000D03*
%TD*%
%TO.P,C2,1*%
%TO.N,/RF*%
X206600000Y-109620000D03*
%TO.P,C2,2*%
%TO.N,GND*%
X206600000Y-110580000D03*
%TD*%
D14*
%TO.P,TP9,1,1*%
%TO.N,IMU_SCK*%
X197700000Y-98200000D03*
%TD*%
D13*
%TO.P,C31,1*%
%TO.N,+3V3*%
X208480000Y-92050000D03*
%TO.P,C31,2*%
%TO.N,GND*%
X207520000Y-92050000D03*
%TD*%
D43*
%TO.P,ANT2,2,GND*%
%TO.N,GND*%
X213975000Y-108125000D03*
X213975000Y-111075000D03*
D44*
%TO.P,ANT2,1,A*%
%TO.N,/ANTENNA*%
X212450000Y-109600000D03*
%TD*%
D26*
%TO.P,C9,1*%
%TO.N,+3V3*%
X191800000Y-106020000D03*
%TO.P,C9,2*%
%TO.N,GND*%
X191800000Y-106980000D03*
%TD*%
D13*
%TO.P,C23,1*%
%TO.N,+3V3*%
X200330000Y-99250000D03*
%TO.P,C23,2*%
%TO.N,GND*%
X199370000Y-99250000D03*
%TD*%
D45*
%TO.P,Q1,1,G*%
%TO.N,/Q2_G*%
X187500000Y-100537500D03*
%TO.P,Q1,2,D*%
%TO.N,/GPS_VDD*%
X189400000Y-100537500D03*
%TO.P,Q1,3,S*%
%TO.N,+3V3*%
X188450000Y-98662500D03*
%TD*%
D14*
%TO.P,TP2,1,1*%
%TO.N,Net-(TP2-Pad1)*%
X185500000Y-111400000D03*
%TD*%
D28*
%TO.P,D2,1,K*%
%TO.N,GND*%
X188800000Y-103162500D03*
%TO.P,D2,2,A*%
%TO.N,Net-(D2-Pad2)*%
X188800000Y-104737500D03*
%TD*%
D25*
%TO.P,C3,1*%
%TO.N,+BATT*%
X183820000Y-91900000D03*
%TO.P,C3,2*%
%TO.N,-BATT*%
X184780000Y-91900000D03*
%TD*%
D26*
%TO.P,C8,1*%
%TO.N,+3V3*%
X192100000Y-104020000D03*
%TO.P,C8,2*%
%TO.N,GND*%
X192100000Y-104980000D03*
%TD*%
D46*
%TO.P,SW2,1,1*%
%TO.N,+3V3*%
X211535232Y-106175000D03*
%TO.P,SW2,2*%
%TO.N,N/C*%
X207185232Y-106175000D03*
%TO.P,SW2,3,3*%
%TO.N,BOOT0*%
X211535232Y-104025000D03*
%TO.P,SW2,4*%
%TO.N,N/C*%
X207185232Y-104025000D03*
%TD*%
D25*
%TO.P,C20,1*%
%TO.N,+3V3*%
X201370000Y-100250000D03*
%TO.P,C20,2*%
%TO.N,GND*%
X202330000Y-100250000D03*
%TD*%
D26*
%TO.P,C1,1*%
%TO.N,/ANTENNA*%
X209600000Y-109620000D03*
%TO.P,C1,2*%
%TO.N,GND*%
X209600000Y-110580000D03*
%TD*%
D35*
%TO.P,R16,1*%
%TO.N,Gate_GPS*%
X190700000Y-100090000D03*
%TO.P,R16,2*%
%TO.N,/Q2_G*%
X190700000Y-101110000D03*
%TD*%
D24*
%TO.P,R2,1*%
%TO.N,BOOT0*%
X209700000Y-98910000D03*
%TO.P,R2,2*%
%TO.N,GND*%
X209700000Y-97890000D03*
%TD*%
D46*
%TO.P,SW1,1,1*%
%TO.N,GND*%
X211535232Y-102400000D03*
%TO.P,SW1,2*%
%TO.N,N/C*%
X207185232Y-102400000D03*
%TO.P,SW1,3,3*%
%TO.N,NRST*%
X211535232Y-100250000D03*
%TO.P,SW1,4*%
%TO.N,N/C*%
X207185232Y-100250000D03*
%TD*%
D14*
%TO.P,TP1,1,1*%
%TO.N,Net-(TP1-Pad1)*%
X185500000Y-113500000D03*
%TD*%
D26*
%TO.P,C5,2*%
%TO.N,GND*%
X183000000Y-93880000D03*
%TO.P,C5,1*%
%TO.N,+BATT*%
X183000000Y-92920000D03*
%TD*%
%TO.P,C16,1*%
%TO.N,/VFBSMPS*%
X190350000Y-108220000D03*
%TO.P,C16,2*%
%TO.N,GND*%
X190350000Y-109180000D03*
%TD*%
D27*
%TO.P,R11,1*%
%TO.N,+3V3*%
X211190000Y-95050000D03*
%TO.P,R11,2*%
%TO.N,/Magneto_SDA*%
X212210000Y-95050000D03*
%TD*%
D13*
%TO.P,C18,1*%
%TO.N,+3V3*%
X190330000Y-110200000D03*
%TO.P,C18,2*%
%TO.N,GND*%
X189370000Y-110200000D03*
%TD*%
D47*
%TO.N,GND*%
X218370000Y-113210000D03*
X217100000Y-113210000D03*
X215830000Y-113210000D03*
X214560000Y-113210000D03*
X213290000Y-113210000D03*
X212020000Y-113210000D03*
X212020000Y-86540000D03*
X210750000Y-113210000D03*
X209480000Y-113210000D03*
X208210000Y-113210000D03*
X208210000Y-86540000D03*
X206940000Y-113210000D03*
X205670000Y-113210000D03*
X203130000Y-89080000D03*
X201860000Y-91620000D03*
X200590000Y-92890000D03*
X200590000Y-91620000D03*
X200590000Y-90350000D03*
X199320000Y-92890000D03*
X199320000Y-91620000D03*
X199320000Y-90350000D03*
X199320000Y-89080000D03*
X198050000Y-91620000D03*
X198050000Y-90350000D03*
X198050000Y-89080000D03*
X196780000Y-91620000D03*
X196780000Y-90350000D03*
X196780000Y-89080000D03*
X195510000Y-91620000D03*
X195510000Y-90350000D03*
X195510000Y-89080000D03*
X194240000Y-92890000D03*
X191700000Y-111940000D03*
X191700000Y-89080000D03*
X191700000Y-87810000D03*
X190430000Y-89080000D03*
X190430000Y-87810000D03*
X189160000Y-89080000D03*
X189160000Y-87810000D03*
X187890000Y-89080000D03*
X185350000Y-86540000D03*
X184080000Y-86540000D03*
X181540000Y-86540000D03*
X219150000Y-108840000D03*
X218200000Y-108000000D03*
X219020000Y-110100000D03*
X218200000Y-111070000D03*
X216940000Y-107890000D03*
X215820000Y-108500000D03*
X216940000Y-111280000D03*
X210740000Y-108500000D03*
X212010000Y-108500000D03*
X208200000Y-108500000D03*
X209470000Y-108500000D03*
X206930000Y-108500000D03*
X208200000Y-110670000D03*
X210740000Y-110670000D03*
X214550000Y-110670000D03*
X213300000Y-108500000D03*
X214570000Y-108500000D03*
X215820000Y-110670000D03*
X213280000Y-110670000D03*
X212010000Y-110670000D03*
X209470000Y-110670000D03*
X206930000Y-110670000D03*
X182500000Y-95700000D03*
X184960000Y-90190000D03*
X186840000Y-91750000D03*
%TO.N,+BATT*%
X185460000Y-90770000D03*
%TO.N,-BATT*%
X186070000Y-91550000D03*
%TO.N,GND*%
X204975000Y-90375000D03*
%TO.N,+3V3*%
X205000000Y-91125000D03*
%TO.N,GND*%
X206550000Y-89625000D03*
X210025000Y-91775000D03*
%TO.N,IMU_INT1*%
X207350000Y-89625000D03*
%TO.N,+3V3*%
X210500000Y-95100000D03*
X207900000Y-97100000D03*
X189200000Y-97100000D03*
X186500000Y-96600000D03*
%TO.N,GND*%
X203800000Y-107300000D03*
X185720000Y-96470000D03*
X190800000Y-108900000D03*
X186500000Y-105300000D03*
X188500000Y-109700000D03*
X206150000Y-103600000D03*
X196500000Y-106100000D03*
X197900000Y-104700000D03*
X192300000Y-101400000D03*
X188600000Y-113000000D03*
X183300000Y-97400000D03*
X206780000Y-91300000D03*
X193800000Y-100300000D03*
X192620000Y-105490000D03*
X206000000Y-104350000D03*
X202100000Y-106000000D03*
X186670000Y-100900000D03*
X188400000Y-100400000D03*
X185540000Y-101510000D03*
X190830000Y-93760000D03*
X180660000Y-92150000D03*
X188855730Y-91949240D03*
X181630000Y-91210000D03*
X201400000Y-112170000D03*
X184360000Y-100390000D03*
X198630000Y-100250000D03*
X184730000Y-112460000D03*
X209700000Y-95100000D03*
X202350000Y-98440000D03*
X190620000Y-105000000D03*
X203510000Y-114460000D03*
X203000000Y-99500000D03*
X184750000Y-95610000D03*
X200700000Y-104700000D03*
X198560000Y-99450000D03*
X199300000Y-106000000D03*
X210400000Y-102500000D03*
X200700000Y-110300000D03*
X185420000Y-94120000D03*
X190000000Y-97200000D03*
X190200000Y-99400000D03*
X189400000Y-91300000D03*
X208700000Y-97200000D03*
X197900000Y-110300000D03*
X192610000Y-106830000D03*
X194800000Y-111550000D03*
X211900000Y-93000000D03*
X182540000Y-92050000D03*
X184018273Y-114409609D03*
X203100000Y-100200000D03*
X200700000Y-107500000D03*
X196500000Y-108900000D03*
X199300000Y-108900000D03*
X194650000Y-104650000D03*
X197900000Y-107500000D03*
X188210000Y-92230000D03*
X190300000Y-102800000D03*
X202100000Y-108800000D03*
X184800000Y-99000000D03*
X188600000Y-111300000D03*
X194670000Y-109600000D03*
X188500000Y-109000000D03*
X182560000Y-94470000D03*
X203700000Y-105400000D03*
X188600000Y-110500000D03*
%TO.N,/GPS_VDD*%
X189400000Y-99600000D03*
X184500000Y-98300000D03*
%TO.N,CBR_SW*%
X182610000Y-99970000D03*
X194700000Y-105400000D03*
%TO.N,/p_GPS_TX*%
X187300000Y-104400000D03*
%TO.N,/p_GPS_RX*%
X186800000Y-106000000D03*
%TO.N,Gate_GPS*%
X193000000Y-100400000D03*
X191900000Y-100700000D03*
%TO.N,Net-(TP1-Pad1)*%
X184640000Y-114030000D03*
X202780000Y-114470000D03*
%TO.N,Net-(TP2-Pad1)*%
X202250000Y-112050000D03*
X184580000Y-113230000D03*
%TO.N,IMU_INT2*%
X205050000Y-94650000D03*
X194800000Y-110800000D03*
%TO.N,1PPS*%
X195550000Y-111850000D03*
%TO.N,IMU_INT1*%
X200600000Y-112000000D03*
%TD*%
D48*
%TO.N,IMU_SCK*%
X199240000Y-98200000D02*
X199340000Y-98100000D01*
X197700000Y-98200000D02*
X199240000Y-98200000D01*
X197200001Y-98699999D02*
X197700000Y-98200000D01*
X197200000Y-101850000D02*
X197200001Y-98699999D01*
D49*
%TO.N,GND*%
X183300000Y-98237500D02*
X183237500Y-98300000D01*
X183300000Y-97400000D02*
X183300000Y-98237500D01*
X182080000Y-95700000D02*
X181780000Y-96000000D01*
X182500000Y-95700000D02*
X182080000Y-95700000D01*
D48*
%TO.N,CBR_SW*%
X181980000Y-100600000D02*
X182610000Y-99970000D01*
X181810000Y-100600000D02*
X181980000Y-100600000D01*
X181810000Y-99697500D02*
X181810000Y-100600000D01*
X181362500Y-99250000D02*
X181810000Y-99697500D01*
D50*
%TO.N,+3V3*%
X180790000Y-101390000D02*
X180790000Y-100600000D01*
X181725000Y-102325000D02*
X180790000Y-101390000D01*
X181725000Y-102600000D02*
X181725000Y-102325000D01*
X183480000Y-99880000D02*
X181362500Y-97762500D01*
X183480000Y-101760000D02*
X183480000Y-99880000D01*
X182640000Y-102600000D02*
X183480000Y-101760000D01*
X181725000Y-102600000D02*
X182640000Y-102600000D01*
X181362500Y-97762500D02*
X181362500Y-97350000D01*
D51*
X180820000Y-96807500D02*
X181362500Y-97350000D01*
X180820000Y-96000000D02*
X180820000Y-96807500D01*
D49*
X182062500Y-96650000D02*
X181362500Y-97350000D01*
X182660000Y-96650000D02*
X182062500Y-96650000D01*
%TO.N,+BATT*%
X187290000Y-90770000D02*
X185460000Y-90770000D01*
X187500000Y-90980000D02*
X187290000Y-90770000D01*
X187500000Y-92300000D02*
X187500000Y-90980000D01*
%TO.N,GND*%
X211000000Y-93070000D02*
X211830000Y-93070000D01*
X211830000Y-93070000D02*
X211900000Y-93000000D01*
%TO.N,+BATT*%
X183820000Y-91330000D02*
X183820000Y-91900000D01*
X184380000Y-90770000D02*
X183820000Y-91330000D01*
X185460000Y-90770000D02*
X184380000Y-90770000D01*
%TO.N,-BATT*%
X186070000Y-91550000D02*
X185130000Y-91550000D01*
X185130000Y-91550000D02*
X184780000Y-91900000D01*
%TO.N,+3V3*%
X205275000Y-91125000D02*
X205600000Y-90800000D01*
X205000000Y-91125000D02*
X205275000Y-91125000D01*
D48*
%TO.N,IMU_INT1*%
X208925000Y-89625000D02*
X207350000Y-89625000D01*
X210675000Y-91375000D02*
X208925000Y-89625000D01*
X210675000Y-92025000D02*
X210675000Y-91375000D01*
X210375000Y-92325000D02*
X210675000Y-92025000D01*
X209700000Y-92325000D02*
X210375000Y-92325000D01*
X209375000Y-92650000D02*
X209700000Y-92325000D01*
X209375000Y-93150000D02*
X209375000Y-92650000D01*
X209025000Y-93500000D02*
X209375000Y-93150000D01*
X208275000Y-93500000D02*
X209025000Y-93500000D01*
%TO.N,/Magneto_SCL*%
X211750000Y-92207106D02*
X211750000Y-91500000D01*
X211407106Y-92550000D02*
X211750000Y-92207106D01*
X210160000Y-93040000D02*
X210650000Y-92550000D01*
X210650000Y-92550000D02*
X211407106Y-92550000D01*
X210000000Y-93040000D02*
X210160000Y-93040000D01*
%TO.N,/IMU_SDO_P*%
X208900000Y-95100000D02*
X208800000Y-95000000D01*
X208900000Y-95400000D02*
X208900000Y-95100000D01*
X207200000Y-97100000D02*
X208900000Y-95400000D01*
X208800000Y-95000000D02*
X208275000Y-95000000D01*
%TO.N,/Magneto_SDA*%
X209200000Y-95475000D02*
X209925000Y-96200000D01*
X209200000Y-95033400D02*
X209200000Y-95475000D01*
X208666600Y-94500000D02*
X209200000Y-95033400D01*
X208275000Y-94500000D02*
X208666600Y-94500000D01*
D49*
%TO.N,+3V3*%
X210550000Y-95050000D02*
X210500000Y-95100000D01*
X211190000Y-95050000D02*
X210550000Y-95050000D01*
X207600000Y-97100000D02*
X207900000Y-97100000D01*
X206900000Y-97800000D02*
X207600000Y-97100000D01*
X206900000Y-97800000D02*
X207610000Y-97800000D01*
X201800000Y-97800000D02*
X206900000Y-97800000D01*
%TO.N,GND*%
X208730000Y-97890000D02*
X208700000Y-97920000D01*
X209700000Y-97890000D02*
X208730000Y-97890000D01*
X209730000Y-97920000D02*
X209700000Y-97890000D01*
X210700000Y-97920000D02*
X209730000Y-97920000D01*
D48*
%TO.N,/Magneto_SCL*%
X212400000Y-92150000D02*
X212400000Y-93750000D01*
X211750000Y-91500000D02*
X212400000Y-92150000D01*
X210000000Y-93040000D02*
X210210000Y-93040000D01*
%TO.N,+3V3*%
X211120000Y-94150000D02*
X211000000Y-94030000D01*
X212000000Y-94150000D02*
X211120000Y-94150000D01*
%TO.N,/Magneto_SCL*%
X210000000Y-93100000D02*
X210000000Y-93040000D01*
X209100000Y-94000000D02*
X210000000Y-93100000D01*
D49*
%TO.N,+3V3*%
X211000000Y-94860000D02*
X211190000Y-95050000D01*
X211000000Y-94030000D02*
X211000000Y-94860000D01*
X210970000Y-94060000D02*
X211000000Y-94030000D01*
X210000000Y-94060000D02*
X210970000Y-94060000D01*
D52*
%TO.N,/ANTENNA*%
X212450000Y-109600000D02*
X217800000Y-109600000D01*
X209600000Y-109620000D02*
X212430000Y-109620000D01*
X208585000Y-109600000D02*
X209580000Y-109600000D01*
D49*
%TO.N,+BATT*%
X183000000Y-92920000D02*
X183560000Y-92920000D01*
D48*
X180980000Y-92920000D02*
X183000000Y-92920000D01*
X189800000Y-105990000D02*
X189800000Y-106000000D01*
X188400000Y-106500000D02*
X187800000Y-105900000D01*
X185600000Y-105400000D02*
X185600000Y-108000000D01*
X187800000Y-104200000D02*
X187500000Y-103900000D01*
X187500000Y-103900000D02*
X187100000Y-103900000D01*
D49*
X185900000Y-92600000D02*
X185900000Y-92920000D01*
D48*
X181300000Y-109200000D02*
X180300000Y-108200000D01*
D49*
X187075000Y-92915000D02*
X187075000Y-92575000D01*
X187725000Y-92525000D02*
X187500000Y-92300000D01*
X183560000Y-92920000D02*
X183820000Y-92660000D01*
X187075000Y-92575000D02*
X186800000Y-92300000D01*
X183820000Y-92660000D02*
X184075000Y-92915000D01*
X187725000Y-92915000D02*
X187725000Y-92525000D01*
D48*
X189800000Y-106000000D02*
X189300000Y-106500000D01*
X187800000Y-105900000D02*
X187800000Y-104200000D01*
X185600000Y-108000000D02*
X184400000Y-109200000D01*
D49*
X186800000Y-92300000D02*
X186200000Y-92300000D01*
X183820000Y-91900000D02*
X183820000Y-92660000D01*
D48*
X189300000Y-106500000D02*
X188400000Y-106500000D01*
X187100000Y-103900000D02*
X185600000Y-105400000D01*
X184400000Y-109200000D02*
X181300000Y-109200000D01*
D49*
X186200000Y-92300000D02*
X185900000Y-92600000D01*
D48*
X180300000Y-108200000D02*
X180300000Y-93600000D01*
D49*
X187500000Y-92300000D02*
X186800000Y-92300000D01*
D48*
X180300000Y-93600000D02*
X180980000Y-92920000D01*
D49*
%TO.N,-BATT*%
X184885000Y-92915000D02*
X185200000Y-92600000D01*
X185200000Y-93600000D02*
X185200000Y-92600000D01*
X185200000Y-92600000D02*
X185200000Y-92320000D01*
X184725000Y-92915000D02*
X184885000Y-92915000D01*
X185200000Y-92320000D02*
X184780000Y-91900000D01*
X184915000Y-93885000D02*
X185200000Y-93600000D01*
X184725000Y-93885000D02*
X184915000Y-93885000D01*
D50*
%TO.N,+3V3*%
X194400000Y-104050000D02*
X195050000Y-104050000D01*
X190100000Y-104020000D02*
X191100000Y-104020000D01*
D49*
X188400000Y-98662500D02*
X188400000Y-97390000D01*
X190000000Y-92100000D02*
X189212720Y-92887280D01*
D48*
X211700000Y-97890000D02*
X211700000Y-98000000D01*
D49*
X201370000Y-98230000D02*
X201800000Y-97800000D01*
X193300000Y-87800000D02*
X193300000Y-89500000D01*
D50*
X190600000Y-110200000D02*
X191400000Y-109400000D01*
D49*
X188400000Y-97390000D02*
X188110000Y-97100000D01*
D53*
X207700000Y-97900000D02*
X207700000Y-97890000D01*
X211300000Y-98400000D02*
X208200000Y-98400000D01*
D48*
X212330000Y-97890000D02*
X211700000Y-97890000D01*
D49*
X205600000Y-90800000D02*
X205600000Y-92030000D01*
X190700000Y-90700000D02*
X190700000Y-91800000D01*
X191401448Y-89998552D02*
X190700000Y-90700000D01*
D53*
X185100000Y-94590000D02*
X185160000Y-94650000D01*
D49*
X193650000Y-106000000D02*
X192550000Y-106000000D01*
D50*
X192700000Y-109000000D02*
X193650000Y-109000000D01*
D49*
X201370000Y-99250000D02*
X201370000Y-100250000D01*
D50*
X181456353Y-108700000D02*
X180700000Y-107943647D01*
X192300000Y-109400000D02*
X192700000Y-109000000D01*
D49*
X192550000Y-106000000D02*
X191820000Y-106000000D01*
D50*
X192100000Y-104020000D02*
X192520000Y-104020000D01*
D49*
X199000000Y-86900000D02*
X204150000Y-92050000D01*
D50*
X195300000Y-104300000D02*
X195300000Y-105650000D01*
D49*
X196200000Y-86900000D02*
X194200000Y-86900000D01*
D53*
X208200000Y-98400000D02*
X207700000Y-97900000D01*
D49*
X211070000Y-94030000D02*
X211100000Y-94060000D01*
X188605000Y-96605000D02*
X189100000Y-97100000D01*
D50*
X190330000Y-110200000D02*
X190330000Y-111200000D01*
D48*
X205925000Y-92355000D02*
X205620000Y-92050000D01*
D50*
X193650000Y-104200000D02*
X194250000Y-104200000D01*
D49*
X192801448Y-89998552D02*
X191401448Y-89998552D01*
D50*
X187000000Y-103400000D02*
X185100000Y-105300000D01*
D49*
X188380000Y-94400000D02*
X188900000Y-93880000D01*
X201370000Y-99250000D02*
X201370000Y-98230000D01*
D50*
X180700000Y-107943647D02*
X180700000Y-103140000D01*
X194700000Y-109000000D02*
X193650000Y-109000000D01*
D49*
X189212720Y-92887280D02*
X189212720Y-93367280D01*
X188605000Y-96605000D02*
X188110000Y-97100000D01*
X206200000Y-90200000D02*
X205600000Y-90800000D01*
X187500000Y-94400000D02*
X187725000Y-94175000D01*
X188650000Y-94670000D02*
X188380000Y-94400000D01*
D53*
X211700000Y-98000000D02*
X211300000Y-98400000D01*
D49*
X201400000Y-100280000D02*
X201370000Y-100250000D01*
X207610000Y-97800000D02*
X207700000Y-97890000D01*
D53*
X184720000Y-94590000D02*
X184410000Y-94900000D01*
D49*
X194200000Y-86900000D02*
X193300000Y-87800000D01*
D50*
X185100000Y-107500000D02*
X183900000Y-108700000D01*
D49*
X200330000Y-100230000D02*
X200350000Y-100250000D01*
D50*
X181240000Y-102600000D02*
X181725000Y-102600000D01*
D49*
X208480000Y-91050000D02*
X208480000Y-92050000D01*
D53*
X184720000Y-94590000D02*
X185100000Y-94590000D01*
D49*
X190400000Y-92100000D02*
X190000000Y-92100000D01*
X204150000Y-92050000D02*
X205620000Y-92050000D01*
X200800000Y-100540000D02*
X201090000Y-100250000D01*
D48*
X212680000Y-98240000D02*
X212330000Y-97890000D01*
X207600000Y-93325000D02*
X207600000Y-92930000D01*
D49*
X192990000Y-104800000D02*
X192700000Y-104510000D01*
X193150000Y-106600000D02*
X192550000Y-106000000D01*
X192700000Y-104510000D02*
X192700000Y-104200000D01*
D48*
X212680000Y-105030232D02*
X212680000Y-98240000D01*
D49*
X186500000Y-96600000D02*
X187250000Y-95850000D01*
X208480000Y-90580000D02*
X208100000Y-90200000D01*
X193650000Y-106600000D02*
X193150000Y-106600000D01*
X189212720Y-93367280D02*
X188700000Y-93880000D01*
D50*
X192520000Y-104020000D02*
X192700000Y-104200000D01*
D49*
X200200000Y-101850000D02*
X200200000Y-100400000D01*
X188650000Y-95500000D02*
X188650000Y-94670000D01*
X188650000Y-95500000D02*
X188650000Y-96560000D01*
X190700000Y-91800000D02*
X190400000Y-92100000D01*
D50*
X185100000Y-105300000D02*
X185100000Y-107500000D01*
X187700000Y-103400000D02*
X187000000Y-103400000D01*
D49*
X188650000Y-96560000D02*
X188605000Y-96605000D01*
X187250000Y-95850000D02*
X187250000Y-94650000D01*
D50*
X194950000Y-106000000D02*
X193650000Y-106000000D01*
D49*
X187500000Y-94400000D02*
X188380000Y-94400000D01*
D48*
X205925000Y-93500000D02*
X205925000Y-92355000D01*
D49*
X200350000Y-100250000D02*
X201090000Y-100250000D01*
X200330000Y-99250000D02*
X200330000Y-100230000D01*
D50*
X183900000Y-108700000D02*
X181456353Y-108700000D01*
X190330000Y-110200000D02*
X190600000Y-110200000D01*
X191400000Y-109400000D02*
X192300000Y-109400000D01*
D49*
X200200000Y-100400000D02*
X200350000Y-100250000D01*
X182660000Y-96650000D02*
X184410000Y-94900000D01*
D50*
X180700000Y-103140000D02*
X181240000Y-102600000D01*
X188320000Y-104020000D02*
X187700000Y-103400000D01*
X190100000Y-104020000D02*
X188320000Y-104020000D01*
X192700000Y-104200000D02*
X193650000Y-104200000D01*
D49*
X193650000Y-104800000D02*
X192990000Y-104800000D01*
X193300000Y-89500000D02*
X192801448Y-89998552D01*
X196200000Y-86900000D02*
X199000000Y-86900000D01*
D50*
X195050000Y-104050000D02*
X195300000Y-104300000D01*
D49*
X201400000Y-101850000D02*
X201400000Y-100280000D01*
D53*
X185160000Y-94650000D02*
X187250000Y-94650000D01*
D49*
X191820000Y-106000000D02*
X191800000Y-106020000D01*
D50*
X195300000Y-108400000D02*
X194700000Y-109000000D01*
D49*
X205600000Y-92030000D02*
X205620000Y-92050000D01*
D50*
X195300000Y-105650000D02*
X194950000Y-106000000D01*
D49*
X190800000Y-106020000D02*
X191800000Y-106020000D01*
X208100000Y-90200000D02*
X206200000Y-90200000D01*
D50*
X191100000Y-104020000D02*
X192100000Y-104020000D01*
X194250000Y-104200000D02*
X194400000Y-104050000D01*
D49*
X208480000Y-91050000D02*
X208480000Y-90580000D01*
X189100000Y-97100000D02*
X189200000Y-97100000D01*
D53*
X187250000Y-94650000D02*
X187500000Y-94400000D01*
D49*
X187725000Y-94175000D02*
X187725000Y-93885000D01*
X201090000Y-100250000D02*
X201370000Y-100250000D01*
D50*
X195300000Y-105650000D02*
X195300000Y-108400000D01*
D48*
X207600000Y-92930000D02*
X208480000Y-92050000D01*
D49*
X200800000Y-101850000D02*
X200800000Y-100540000D01*
D48*
X211535232Y-106175000D02*
X212680000Y-105030232D01*
%TO.N,BOOT0*%
X205860000Y-106000000D02*
X206540000Y-105320000D01*
X210730000Y-98910000D02*
X210700000Y-98880000D01*
X212390000Y-103620000D02*
X212390000Y-99580000D01*
X211985000Y-104025000D02*
X212390000Y-103620000D01*
X204950000Y-106000000D02*
X205860000Y-106000000D01*
X210700000Y-98880000D02*
X209730000Y-98880000D01*
X209730000Y-98880000D02*
X209700000Y-98910000D01*
X211700000Y-98910000D02*
X210730000Y-98910000D01*
X211535232Y-104025000D02*
X211985000Y-104025000D01*
X206540000Y-105320000D02*
X210240232Y-105320000D01*
X211720000Y-98910000D02*
X211700000Y-98910000D01*
X210240232Y-105320000D02*
X211535232Y-104025000D01*
X212390000Y-99580000D02*
X211720000Y-98910000D01*
D49*
%TO.N,GND*%
X191800000Y-106980000D02*
X190800000Y-106980000D01*
X189020000Y-109180000D02*
X188500000Y-109700000D01*
X191800000Y-106980000D02*
X192460000Y-106980000D01*
X204200000Y-108400000D02*
X203800000Y-108000000D01*
X190520000Y-109180000D02*
X190800000Y-108900000D01*
D54*
X199300000Y-107500000D02*
X197900000Y-107500000D01*
D49*
X188850000Y-113250000D02*
X188600000Y-113000000D01*
X189370000Y-110200000D02*
X188900000Y-110200000D01*
X183000000Y-94030000D02*
X182560000Y-94470000D01*
X203800000Y-108000000D02*
X203800000Y-107300000D01*
X192460000Y-106980000D02*
X192610000Y-106830000D01*
X199370000Y-99250000D02*
X199370000Y-100230000D01*
D54*
X199300000Y-104700000D02*
X200700000Y-104700000D01*
X199300000Y-110300000D02*
X197900000Y-110300000D01*
D49*
X189370000Y-110200000D02*
X189370000Y-109200000D01*
X181600000Y-91240000D02*
X181630000Y-91210000D01*
X184400000Y-100350000D02*
X184360000Y-100390000D01*
D50*
X205850000Y-104200000D02*
X206000000Y-104350000D01*
D48*
X207100000Y-93325000D02*
X207100000Y-92470000D01*
D54*
X199300000Y-104700000D02*
X199300000Y-106000000D01*
D49*
X206780000Y-91300000D02*
X207270000Y-91790000D01*
X188900000Y-92920000D02*
X188900000Y-91993510D01*
X190180000Y-91300000D02*
X189400000Y-91300000D01*
X207270000Y-91790000D02*
X207270000Y-91800000D01*
X183005000Y-93885000D02*
X183000000Y-93880000D01*
X190100000Y-104980000D02*
X190600000Y-104980000D01*
D54*
X199300000Y-107500000D02*
X199300000Y-108900000D01*
D48*
X206600000Y-92070000D02*
X206580000Y-92050000D01*
D49*
X204950000Y-108400000D02*
X204200000Y-108400000D01*
X190762500Y-93827500D02*
X190830000Y-93760000D01*
X190350000Y-109180000D02*
X190520000Y-109180000D01*
D54*
X202100000Y-110300000D02*
X200700000Y-110300000D01*
D49*
X202330000Y-98460000D02*
X202350000Y-98440000D01*
X188680000Y-109180000D02*
X188500000Y-109000000D01*
X199600000Y-101850000D02*
X199600000Y-100460000D01*
X189340000Y-113250000D02*
X188850000Y-113250000D01*
X185500000Y-100350000D02*
X185500000Y-101470000D01*
X185900000Y-93880000D02*
X185660000Y-93880000D01*
X211535232Y-102400000D02*
X210500000Y-102400000D01*
X208700000Y-97920000D02*
X208700000Y-97200000D01*
X188900000Y-91993510D02*
X188855730Y-91949240D01*
X189370000Y-111200000D02*
X189370000Y-110200000D01*
X185950000Y-96240000D02*
X185720000Y-96470000D01*
X210500000Y-102400000D02*
X210400000Y-102500000D01*
X203000000Y-99500000D02*
X202750000Y-99250000D01*
X181600000Y-92112500D02*
X181600000Y-91240000D01*
X191100000Y-104980000D02*
X190640000Y-104980000D01*
X190300000Y-102800000D02*
X189937500Y-103162500D01*
X206780000Y-91300000D02*
X206780000Y-91850000D01*
D50*
X204950000Y-103600000D02*
X206150000Y-103600000D01*
D49*
X199600000Y-100460000D02*
X199390000Y-100250000D01*
X189350000Y-109180000D02*
X189020000Y-109180000D01*
D54*
X202100000Y-107500000D02*
X202100000Y-108800000D01*
D49*
X185500000Y-100350000D02*
X186120000Y-100350000D01*
D54*
X196500000Y-110300000D02*
X196500000Y-108900000D01*
D49*
X188700000Y-111200000D02*
X188600000Y-111300000D01*
D54*
X196500000Y-104700000D02*
X197900000Y-104700000D01*
D49*
X201400000Y-113150000D02*
X201400000Y-112170000D01*
D50*
X204950000Y-104200000D02*
X205850000Y-104200000D01*
D49*
X181600000Y-92112500D02*
X180697500Y-92112500D01*
X203100000Y-100200000D02*
X203050000Y-100250000D01*
X202000000Y-101850000D02*
X202000000Y-100580000D01*
D48*
X207100000Y-92470000D02*
X207520000Y-92050000D01*
D49*
X202000000Y-100580000D02*
X202330000Y-100250000D01*
X190640000Y-104980000D02*
X190620000Y-105000000D01*
X185500000Y-100350000D02*
X184400000Y-100350000D01*
X180697500Y-92112500D02*
X180660000Y-92150000D01*
X189350000Y-109180000D02*
X188680000Y-109180000D01*
X181600000Y-92112500D02*
X182477500Y-92112500D01*
X185500000Y-101470000D02*
X185540000Y-101510000D01*
X190762500Y-94550000D02*
X190762500Y-93827500D01*
X188900000Y-92920000D02*
X188210000Y-92230000D01*
X186120000Y-100350000D02*
X186670000Y-100900000D01*
X199370000Y-99250000D02*
X198760000Y-99250000D01*
D54*
X196500000Y-107500000D02*
X196500000Y-106100000D01*
D49*
X203050000Y-100250000D02*
X202330000Y-100250000D01*
X189937500Y-103162500D02*
X188800000Y-103162500D01*
X189370000Y-111200000D02*
X188700000Y-111200000D01*
X206780000Y-91300000D02*
X207030000Y-91050000D01*
X202330000Y-99250000D02*
X202330000Y-100250000D01*
X189370000Y-109200000D02*
X189350000Y-109180000D01*
X207030000Y-91050000D02*
X207520000Y-91050000D01*
X199370000Y-100230000D02*
X199390000Y-100250000D01*
X190600000Y-104980000D02*
X190620000Y-105000000D01*
X193650000Y-109600000D02*
X194670000Y-109600000D01*
X198760000Y-99250000D02*
X198560000Y-99450000D01*
X202750000Y-99250000D02*
X202330000Y-99250000D01*
D54*
X202100000Y-107500000D02*
X200700000Y-107500000D01*
X202100000Y-104700000D02*
X202100000Y-106000000D01*
D49*
X192610000Y-105490000D02*
X192620000Y-105490000D01*
X183000000Y-93880000D02*
X183000000Y-94030000D01*
X192100000Y-104980000D02*
X192610000Y-105490000D01*
X182477500Y-92112500D02*
X182540000Y-92050000D01*
X185660000Y-93880000D02*
X185420000Y-94120000D01*
X199390000Y-100250000D02*
X198630000Y-100250000D01*
X206780000Y-91850000D02*
X206580000Y-92050000D01*
X202330000Y-99250000D02*
X202330000Y-98460000D01*
X188900000Y-110200000D02*
X188600000Y-110500000D01*
X207270000Y-91800000D02*
X207520000Y-92050000D01*
X185950000Y-95500000D02*
X185950000Y-96240000D01*
X187075000Y-93885000D02*
X185905000Y-93885000D01*
X190350000Y-109180000D02*
X189350000Y-109180000D01*
D48*
X212000000Y-93100000D02*
X211900000Y-93000000D01*
X212000000Y-93750000D02*
X212000000Y-93100000D01*
D49*
X185905000Y-93885000D02*
X185900000Y-93880000D01*
D48*
X206600000Y-93325000D02*
X206600000Y-92070000D01*
D49*
X184075000Y-93885000D02*
X183005000Y-93885000D01*
D52*
%TO.N,/RF*%
X206600000Y-109620000D02*
X207595000Y-109620000D01*
X204950000Y-109600000D02*
X206580000Y-109600000D01*
X207595000Y-109620000D02*
X207615000Y-109600000D01*
D48*
%TO.N,NRST*%
X181725000Y-103850000D02*
X184640000Y-103850000D01*
X211535232Y-100250000D02*
X209370000Y-100250000D01*
X207700000Y-98910000D02*
X208670000Y-98910000D01*
X209370000Y-103410000D02*
X209370000Y-100250000D01*
X204110000Y-103350000D02*
X204110000Y-105160000D01*
X203600000Y-102840000D02*
X204110000Y-103350000D01*
X209370000Y-100250000D02*
X208700000Y-99580000D01*
X191530000Y-101970000D02*
X193540000Y-101970000D01*
X205830000Y-105400000D02*
X206390000Y-104840000D01*
X187320000Y-101720000D02*
X191280000Y-101720000D01*
X193540000Y-101970000D02*
X194410000Y-102840000D01*
X187310000Y-101710000D02*
X187320000Y-101720000D01*
X194410000Y-102840000D02*
X203600000Y-102840000D01*
X207940000Y-104840000D02*
X209370000Y-103410000D01*
X208700000Y-99580000D02*
X208700000Y-98880000D01*
X208670000Y-98910000D02*
X208700000Y-98880000D01*
X206390000Y-104840000D02*
X207940000Y-104840000D01*
X191280000Y-101720000D02*
X191530000Y-101970000D01*
X184640000Y-103850000D02*
X186780000Y-101710000D01*
X204350000Y-105400000D02*
X204950000Y-105400000D01*
X204950000Y-105400000D02*
X205830000Y-105400000D01*
X186780000Y-101710000D02*
X187310000Y-101710000D01*
X204110000Y-105160000D02*
X204350000Y-105400000D01*
D50*
%TO.N,/VFBSMPS*%
X191632500Y-108220000D02*
X191850000Y-108437500D01*
X189350000Y-108220000D02*
X190350000Y-108220000D01*
X187880000Y-108220000D02*
X187800000Y-108300000D01*
X189350000Y-108220000D02*
X187880000Y-108220000D01*
X193650000Y-108400000D02*
X191887500Y-108400000D01*
X191887500Y-108400000D02*
X191850000Y-108437500D01*
X190350000Y-108220000D02*
X191632500Y-108220000D01*
D49*
%TO.N,/GPS_VDD*%
X185150000Y-97650000D02*
X184500000Y-98300000D01*
X185500000Y-97650000D02*
X185150000Y-97650000D01*
X189400000Y-100487500D02*
X189350000Y-100537500D01*
X189400000Y-99600000D02*
X189400000Y-100487500D01*
D48*
%TO.N,Net-(D1-Pad2)*%
X182400000Y-95100000D02*
X183190000Y-95100000D01*
X181600000Y-93687500D02*
X182000000Y-94087500D01*
X182000000Y-94087500D02*
X182000000Y-94700000D01*
X183190000Y-95100000D02*
X183390000Y-94900000D01*
X182000000Y-94700000D02*
X182400000Y-95100000D01*
%TO.N,Net-(D2-Pad2)*%
X188800000Y-105990000D02*
X188800000Y-104737500D01*
%TO.N,SWCLK*%
X187600000Y-102300000D02*
X190700000Y-102300000D01*
X190700000Y-102300000D02*
X191800000Y-103400000D01*
X183550000Y-106350000D02*
X187600000Y-102300000D01*
X191800000Y-103400000D02*
X192500000Y-103400000D01*
X192700000Y-103600000D02*
X193650000Y-103600000D01*
X192500000Y-103400000D02*
X192700000Y-103600000D01*
X181725000Y-106350000D02*
X183550000Y-106350000D01*
%TO.N,SWDIO*%
X187270000Y-102030000D02*
X191230000Y-102030000D01*
X184200000Y-105100000D02*
X187270000Y-102030000D01*
X181725000Y-105100000D02*
X184200000Y-105100000D01*
X191230000Y-102030000D02*
X192200000Y-103000000D01*
X192200000Y-103000000D02*
X193650000Y-103000000D01*
D50*
%TO.N,/VLXSMPS*%
X192212500Y-110200000D02*
X191850000Y-110562500D01*
X193650000Y-110200000D02*
X192212500Y-110200000D01*
D48*
%TO.N,/Q2_G*%
X187450000Y-101250000D02*
X187700000Y-101500000D01*
X189700000Y-101500000D02*
X190090000Y-101110000D01*
X187090000Y-100177500D02*
X187450000Y-100537500D01*
X187450000Y-100537500D02*
X187450000Y-101250000D01*
X187700000Y-101500000D02*
X189700000Y-101500000D01*
X187090000Y-97100000D02*
X187090000Y-100177500D01*
X190090000Y-101110000D02*
X190700000Y-101110000D01*
%TO.N,/VBAT_SENSE*%
X192620000Y-107520000D02*
X192940000Y-107200000D01*
X192940000Y-107200000D02*
X193650000Y-107200000D01*
X189800000Y-107010000D02*
X189800000Y-107340000D01*
X189800000Y-107340000D02*
X189980000Y-107520000D01*
X189980000Y-107520000D02*
X192620000Y-107520000D01*
%TO.N,LED*%
X190660000Y-107800000D02*
X190630000Y-107770000D01*
X189040000Y-107770000D02*
X188800000Y-107530000D01*
X188800000Y-107530000D02*
X188800000Y-107010000D01*
X190630000Y-107770000D02*
X189040000Y-107770000D01*
X193650000Y-107800000D02*
X190660000Y-107800000D01*
%TO.N,CBR_SW*%
X193650000Y-105400000D02*
X194700000Y-105400000D01*
%TO.N,GPS_TX*%
X195400000Y-113150000D02*
X195400000Y-112676178D01*
X195136911Y-112413089D02*
X194486911Y-112413089D01*
X195400000Y-112676178D02*
X195136911Y-112413089D01*
X194486911Y-112413089D02*
X194060000Y-112840000D01*
X194060000Y-112840000D02*
X190950000Y-112840000D01*
X190950000Y-112840000D02*
X190360000Y-112250000D01*
%TO.N,/p_GPS_TX*%
X188100000Y-110300000D02*
X188100000Y-111600000D01*
X186600000Y-107300000D02*
X186600000Y-108800000D01*
X187300000Y-106600000D02*
X186600000Y-107300000D01*
X187300000Y-104400000D02*
X187300000Y-106600000D01*
X188100000Y-111600000D02*
X188750000Y-112250000D01*
X188750000Y-112250000D02*
X189340000Y-112250000D01*
X186600000Y-108800000D02*
X188100000Y-110300000D01*
D55*
%TO.N,GPS_RX*%
X194800000Y-113150000D02*
X193200000Y-114750000D01*
X189840000Y-114750000D02*
X189340000Y-114250000D01*
X193200000Y-114750000D02*
X189840000Y-114750000D01*
D48*
%TO.N,/p_GPS_RX*%
X186100000Y-109000000D02*
X186100000Y-106400000D01*
X188521920Y-113721920D02*
X188300000Y-113500000D01*
X187600000Y-111100000D02*
X187600000Y-110500000D01*
X188300000Y-113500000D02*
X187600000Y-112800000D01*
X187600000Y-112800000D02*
X187600000Y-111100000D01*
X187600000Y-110500000D02*
X186300000Y-109200000D01*
X186100000Y-106400000D02*
X186500000Y-106000000D01*
X190360000Y-114250000D02*
X189831920Y-113721920D01*
X186500000Y-106000000D02*
X186800000Y-106000000D01*
X190360000Y-114250000D02*
X190360000Y-113250000D01*
X186300000Y-109200000D02*
X186100000Y-109000000D01*
X189831920Y-113721920D02*
X188521920Y-113721920D01*
%TO.N,/Magneto_SDA*%
X209925000Y-96200000D02*
X211600000Y-96200000D01*
X212210000Y-95590000D02*
X212210000Y-95050000D01*
X211600000Y-96200000D02*
X212210000Y-95590000D01*
X212400000Y-94860000D02*
X212210000Y-95050000D01*
X212400000Y-94150000D02*
X212400000Y-94860000D01*
%TO.N,/IMU_SCK_P*%
X201500000Y-96000000D02*
X206800000Y-96000000D01*
X207100000Y-95700000D02*
X207100000Y-95175000D01*
X200900000Y-95400000D02*
X201500000Y-96000000D01*
X206800000Y-96000000D02*
X207100000Y-95700000D01*
X200300000Y-98100000D02*
X199800000Y-97600000D01*
X199800000Y-95800000D02*
X200200000Y-95400000D01*
X200360000Y-98100000D02*
X200300000Y-98100000D01*
X200200000Y-95400000D02*
X200900000Y-95400000D01*
X199800000Y-97600000D02*
X199800000Y-95800000D01*
%TO.N,IMU_SDI*%
X196000000Y-100900000D02*
X193500000Y-98400000D01*
X196000000Y-101850000D02*
X196000000Y-100900000D01*
X199340000Y-96100000D02*
X195800000Y-96100000D01*
X195800000Y-96100000D02*
X193500000Y-98400000D01*
%TO.N,/IMU_SDI_P*%
X207000000Y-96500000D02*
X200760000Y-96500000D01*
X200760000Y-96500000D02*
X200360000Y-96100000D01*
X207600000Y-95900000D02*
X207000000Y-96500000D01*
X207600000Y-95175000D02*
X207600000Y-95900000D01*
%TO.N,IMU_SDO*%
X196600000Y-99400000D02*
X195600000Y-98400000D01*
X199340000Y-97100000D02*
X196900000Y-97100000D01*
X196600000Y-101850000D02*
X196600000Y-99400000D01*
X196900000Y-97100000D02*
X195600000Y-98400000D01*
%TO.N,/IMU_SDO_P*%
X200360000Y-97100000D02*
X207200000Y-97100000D01*
%TO.N,/Magneto_SCL*%
X208275000Y-94000000D02*
X209100000Y-94000000D01*
%TO.N,Gate_GPS*%
X191290000Y-100090000D02*
X190700000Y-100090000D01*
X191900000Y-100700000D02*
X191290000Y-100090000D01*
X194450000Y-101850000D02*
X193000000Y-100400000D01*
X194800000Y-101850000D02*
X194450000Y-101850000D01*
%TO.N,Net-(TP1-Pad1)*%
X184970000Y-114030000D02*
X185500000Y-113500000D01*
X202600000Y-114290000D02*
X202600000Y-113150000D01*
X184640000Y-114030000D02*
X184970000Y-114030000D01*
X202780000Y-114470000D02*
X202600000Y-114290000D01*
%TO.N,Net-(TP2-Pad1)*%
X184580000Y-113230000D02*
X184670000Y-113230000D01*
X202250000Y-112050000D02*
X202250000Y-112900000D01*
X185500000Y-112400000D02*
X185500000Y-111400000D01*
X202250000Y-112900000D02*
X202000000Y-113150000D01*
X184670000Y-113230000D02*
X185500000Y-112400000D01*
%TO.N,IMU_CS*%
X190700000Y-95400000D02*
X190900000Y-95200000D01*
X206400000Y-95700000D02*
X206600000Y-95500000D01*
X206000000Y-95500000D02*
X206200000Y-95700000D01*
X197536911Y-102586911D02*
X194486911Y-102586911D01*
X190700000Y-96500000D02*
X190700000Y-95400000D01*
X197800000Y-101850000D02*
X197800000Y-102323822D01*
X199700000Y-94800000D02*
X201100000Y-94800000D01*
X191400000Y-98400000D02*
X191400000Y-97200000D01*
X197800000Y-102323822D02*
X197536911Y-102586911D01*
X194486911Y-102586911D02*
X191400000Y-99500000D01*
X191400000Y-97200000D02*
X190700000Y-96500000D01*
X206600000Y-95500000D02*
X206600000Y-95175000D01*
X201100000Y-94800000D02*
X201800000Y-95500000D01*
X190900000Y-95200000D02*
X192100000Y-95200000D01*
X192400000Y-95500000D02*
X199000000Y-95500000D01*
X192100000Y-95200000D02*
X192400000Y-95500000D01*
X201800000Y-95500000D02*
X206000000Y-95500000D01*
X199000000Y-95500000D02*
X199700000Y-94800000D01*
X206200000Y-95700000D02*
X206400000Y-95700000D01*
X191400000Y-99500000D02*
X191400000Y-98400000D01*
%TO.N,IMU_INT2*%
X205700000Y-94000000D02*
X205050000Y-94650000D01*
X194800000Y-110800000D02*
X193650000Y-110800000D01*
X205925000Y-94000000D02*
X205700000Y-94000000D01*
%TO.N,1PPS*%
X196000000Y-112300000D02*
X196000000Y-113150000D01*
X195550000Y-111850000D02*
X196000000Y-112300000D01*
%TO.N,IMU_INT1*%
X200800000Y-113150000D02*
X200800000Y-112200000D01*
X200800000Y-112200000D02*
X200600000Y-112000000D01*
%TO.N,Net-(Q2-Pad1)*%
X191200000Y-92212500D02*
X191200000Y-91300000D01*
X189700000Y-92980000D02*
X190030000Y-92650000D01*
X190190000Y-95570000D02*
X189700000Y-95080000D01*
X190190000Y-95900000D02*
X190190000Y-95570000D01*
X190762500Y-92650000D02*
X191200000Y-92212500D01*
X190030000Y-92650000D02*
X190762500Y-92650000D01*
X189700000Y-95080000D02*
X189700000Y-92980000D01*
%TO.N,BUZZER*%
X194100000Y-99700000D02*
X193100000Y-99700000D01*
X191900000Y-95900000D02*
X191210000Y-95900000D01*
X193100000Y-99700000D02*
X192500000Y-99100000D01*
X192500000Y-96500000D02*
X191900000Y-95900000D01*
X195400000Y-101000000D02*
X194100000Y-99700000D01*
X195400000Y-101850000D02*
X195400000Y-101000000D01*
X192500000Y-99100000D02*
X192500000Y-96500000D01*
D49*
%TO.N,/BUZZER-*%
X192937500Y-93900000D02*
X196200000Y-93900000D01*
X193300000Y-90900000D02*
X193300000Y-92937500D01*
X192637500Y-93600000D02*
X192937500Y-93900000D01*
X193300000Y-92937500D02*
X192637500Y-93600000D01*
%TD*%
%TA.AperFunction,Conductor*%
%TO.N,/RF*%
G36*
X206729294Y-109371463D02*
G01*
X206734134Y-109373739D01*
X206740108Y-109376490D01*
X206746038Y-109379163D01*
X206746096Y-109379189D01*
X206746110Y-109379195D01*
X206751925Y-109381760D01*
X206757770Y-109384280D01*
X206757773Y-109384281D01*
X206763582Y-109386727D01*
X206769354Y-109389100D01*
X206775091Y-109391400D01*
X206780795Y-109393629D01*
X206786467Y-109395787D01*
X206786515Y-109395805D01*
X206792109Y-109397875D01*
X206797723Y-109399895D01*
X206803310Y-109401848D01*
X206808836Y-109403722D01*
X206808850Y-109403726D01*
X206808873Y-109403734D01*
X206814364Y-109405539D01*
X206814413Y-109405555D01*
X206819931Y-109407311D01*
X206825430Y-109409004D01*
X206830910Y-109410635D01*
X206836375Y-109412204D01*
X206841825Y-109413714D01*
X206847263Y-109415163D01*
X206852689Y-109416555D01*
X206852728Y-109416565D01*
X206855712Y-109417300D01*
X206858107Y-109417890D01*
X206863516Y-109419168D01*
X206868920Y-109420391D01*
X206874320Y-109421560D01*
X206874349Y-109421566D01*
X206879697Y-109422672D01*
X206879715Y-109422675D01*
X206879718Y-109422676D01*
X206883862Y-109423493D01*
X206885115Y-109423740D01*
X206890458Y-109424743D01*
X206890513Y-109424753D01*
X206890562Y-109424762D01*
X206895911Y-109425716D01*
X206895914Y-109425716D01*
X206901319Y-109426630D01*
X206906731Y-109427496D01*
X206912151Y-109428315D01*
X206917580Y-109429088D01*
X206923021Y-109429816D01*
X206928276Y-109430475D01*
X206928475Y-109430500D01*
X206933944Y-109431141D01*
X206939430Y-109431741D01*
X206944934Y-109432300D01*
X206950458Y-109432819D01*
X206956004Y-109433300D01*
X206961573Y-109433742D01*
X206967168Y-109434148D01*
X206972790Y-109434519D01*
X206978440Y-109434854D01*
X206984121Y-109435156D01*
X206989834Y-109435426D01*
X206995580Y-109435664D01*
X207001363Y-109435871D01*
X207007183Y-109436049D01*
X207013041Y-109436199D01*
X207018941Y-109436321D01*
X207024883Y-109436417D01*
X207030869Y-109436487D01*
X207036902Y-109436533D01*
X207042982Y-109436555D01*
X207049111Y-109436556D01*
X207055291Y-109436535D01*
X207061525Y-109436493D01*
X207067813Y-109436433D01*
X207074157Y-109436354D01*
X207080559Y-109436258D01*
X207087021Y-109436146D01*
X207093545Y-109436018D01*
X207100131Y-109435877D01*
X207106783Y-109435723D01*
X207113501Y-109435556D01*
X207120288Y-109435379D01*
X207127144Y-109435191D01*
X207134073Y-109434994D01*
X207141075Y-109434790D01*
X207148152Y-109434579D01*
X207155307Y-109434361D01*
X207162540Y-109434139D01*
X207169854Y-109433913D01*
X207177249Y-109433684D01*
X207184729Y-109433453D01*
X207192294Y-109433222D01*
X207199947Y-109432991D01*
X207207689Y-109432761D01*
X207215521Y-109432533D01*
X207223446Y-109432309D01*
X207231465Y-109432089D01*
X207239581Y-109431874D01*
X207247794Y-109431666D01*
X207256106Y-109431466D01*
X207264519Y-109431273D01*
X207273036Y-109431091D01*
X207281657Y-109430918D01*
X207290384Y-109430758D01*
X207299220Y-109430609D01*
X207308165Y-109430475D01*
X207317221Y-109430355D01*
X207326391Y-109430251D01*
X207335676Y-109430163D01*
X207345078Y-109430093D01*
X207354598Y-109430042D01*
X207364238Y-109430010D01*
X207374000Y-109430000D01*
X207374000Y-109810000D01*
X207364238Y-109809989D01*
X207354598Y-109809957D01*
X207345078Y-109809906D01*
X207335676Y-109809836D01*
X207326391Y-109809748D01*
X207317221Y-109809644D01*
X207308165Y-109809524D01*
X207299220Y-109809390D01*
X207290384Y-109809241D01*
X207281657Y-109809081D01*
X207273036Y-109808908D01*
X207264519Y-109808726D01*
X207256106Y-109808533D01*
X207247794Y-109808333D01*
X207240354Y-109808145D01*
X207239591Y-109808125D01*
X207239581Y-109808125D01*
X207231476Y-109807910D01*
X207231465Y-109807910D01*
X207223446Y-109807690D01*
X207223446Y-109807686D01*
X207223437Y-109807690D01*
X207219275Y-109807572D01*
X207215530Y-109807466D01*
X207215521Y-109807466D01*
X207214402Y-109807433D01*
X207207695Y-109807238D01*
X207207689Y-109807238D01*
X207205737Y-109807180D01*
X207199952Y-109807008D01*
X207199947Y-109807008D01*
X207192298Y-109806777D01*
X207192294Y-109806777D01*
X207184729Y-109806546D01*
X207184729Y-109806544D01*
X207184725Y-109806546D01*
X207177249Y-109806315D01*
X207169854Y-109806086D01*
X207162540Y-109805860D01*
X207155307Y-109805638D01*
X207148152Y-109805420D01*
X207141075Y-109805209D01*
X207134073Y-109805005D01*
X207127144Y-109804808D01*
X207120288Y-109804620D01*
X207113501Y-109804443D01*
X207109682Y-109804348D01*
X207109680Y-109804348D01*
X207106783Y-109804276D01*
X207100131Y-109804122D01*
X207093545Y-109803981D01*
X207087021Y-109803853D01*
X207080559Y-109803741D01*
X207074157Y-109803645D01*
X207067813Y-109803566D01*
X207061525Y-109803506D01*
X207055291Y-109803464D01*
X207049111Y-109803443D01*
X207042982Y-109803444D01*
X207036902Y-109803466D01*
X207030869Y-109803512D01*
X207024883Y-109803582D01*
X207018941Y-109803678D01*
X207013041Y-109803800D01*
X207007183Y-109803950D01*
X207001363Y-109804128D01*
X206995580Y-109804335D01*
X206989834Y-109804573D01*
X206984121Y-109804843D01*
X206978440Y-109805145D01*
X206972790Y-109805480D01*
X206967168Y-109805851D01*
X206961573Y-109806257D01*
X206956004Y-109806699D01*
X206950458Y-109807180D01*
X206944934Y-109807699D01*
X206939430Y-109808258D01*
X206933944Y-109808858D01*
X206928475Y-109809499D01*
X206928384Y-109809510D01*
X206928379Y-109809511D01*
X206925788Y-109809836D01*
X206923021Y-109810183D01*
X206917580Y-109810911D01*
X206912151Y-109811684D01*
X206906731Y-109812503D01*
X206901319Y-109813369D01*
X206895914Y-109814283D01*
X206890562Y-109815237D01*
X206890513Y-109815246D01*
X206890458Y-109815256D01*
X206885115Y-109816259D01*
X206879718Y-109817323D01*
X206879697Y-109817327D01*
X206874349Y-109818433D01*
X206874320Y-109818439D01*
X206868920Y-109819608D01*
X206863516Y-109820831D01*
X206858107Y-109822109D01*
X206856630Y-109822473D01*
X206852728Y-109823434D01*
X206852689Y-109823444D01*
X206847263Y-109824836D01*
X206841825Y-109826285D01*
X206836375Y-109827795D01*
X206830910Y-109829364D01*
X206825430Y-109830995D01*
X206819931Y-109832688D01*
X206814413Y-109834444D01*
X206808873Y-109836265D01*
X206808850Y-109836273D01*
X206808836Y-109836277D01*
X206803310Y-109838151D01*
X206797723Y-109840104D01*
X206792109Y-109842124D01*
X206786515Y-109844194D01*
X206786467Y-109844212D01*
X206780795Y-109846370D01*
X206775091Y-109848599D01*
X206769354Y-109850899D01*
X206763582Y-109853272D01*
X206757773Y-109855718D01*
X206751925Y-109858239D01*
X206746110Y-109860804D01*
X206746096Y-109860810D01*
X206746038Y-109860836D01*
X206740108Y-109863509D01*
X206734134Y-109866260D01*
X206729293Y-109868536D01*
X206720350Y-109868955D01*
X206716206Y-109866381D01*
X206713250Y-109863538D01*
X206688556Y-109839791D01*
X206595357Y-109750166D01*
X206460000Y-109620000D01*
X206604973Y-109480586D01*
X206650825Y-109436493D01*
X206716206Y-109373619D01*
X206724545Y-109370354D01*
X206729294Y-109371463D01*
G37*
%TD.AperFunction*%
%TD*%
%TA.AperFunction,Conductor*%
%TO.N,/ANTENNA*%
G36*
X217401015Y-108603422D02*
G01*
X217403256Y-108606512D01*
X217897384Y-109594768D01*
X217898019Y-109603700D01*
X217897384Y-109605232D01*
X217403256Y-110593488D01*
X217396491Y-110599356D01*
X217392721Y-110599956D01*
X217359785Y-110599758D01*
X217359642Y-110599756D01*
X217339489Y-110599389D01*
X217320348Y-110599040D01*
X217320320Y-110599039D01*
X217281800Y-110597856D01*
X217244140Y-110596217D01*
X217243988Y-110596209D01*
X217207262Y-110594130D01*
X217207134Y-110594122D01*
X217197053Y-110593416D01*
X217171205Y-110591607D01*
X217171047Y-110591595D01*
X217135932Y-110588658D01*
X217135771Y-110588644D01*
X217101359Y-110585286D01*
X217101194Y-110585268D01*
X217067534Y-110581503D01*
X217067369Y-110581484D01*
X217034457Y-110577327D01*
X217034288Y-110577304D01*
X217002155Y-110572769D01*
X217001984Y-110572744D01*
X216970474Y-110567822D01*
X216970302Y-110567794D01*
X216939422Y-110562498D01*
X216939249Y-110562466D01*
X216909149Y-110556835D01*
X216908997Y-110556806D01*
X216879400Y-110550800D01*
X216879315Y-110550782D01*
X216850373Y-110544446D01*
X216850211Y-110544409D01*
X216821915Y-110537754D01*
X216821738Y-110537711D01*
X216794013Y-110530733D01*
X216793838Y-110530687D01*
X216766741Y-110523418D01*
X216766565Y-110523370D01*
X216739916Y-110515774D01*
X216739740Y-110515722D01*
X216713783Y-110507883D01*
X216713610Y-110507830D01*
X216688010Y-110499664D01*
X216687839Y-110499608D01*
X216676842Y-110495913D01*
X216662708Y-110491163D01*
X216638053Y-110482455D01*
X216637912Y-110482404D01*
X216613787Y-110473470D01*
X216613623Y-110473408D01*
X216589909Y-110464221D01*
X216589749Y-110464157D01*
X216566565Y-110454780D01*
X216566409Y-110454716D01*
X216543563Y-110445090D01*
X216543411Y-110445025D01*
X216520914Y-110435169D01*
X216520767Y-110435103D01*
X216498715Y-110425077D01*
X216498572Y-110425011D01*
X216476833Y-110414774D01*
X216476752Y-110414736D01*
X216455218Y-110404252D01*
X216434000Y-110393590D01*
X216413084Y-110382764D01*
X216392504Y-110371810D01*
X216392391Y-110371749D01*
X216384814Y-110367609D01*
X216372086Y-110360654D01*
X216351969Y-110349390D01*
X216332083Y-110338000D01*
X216312410Y-110326493D01*
X216292933Y-110314880D01*
X216273633Y-110303169D01*
X216254493Y-110291370D01*
X216254431Y-110291331D01*
X216235551Y-110279528D01*
X216235496Y-110279494D01*
X216216622Y-110267550D01*
X216216631Y-110267536D01*
X216216575Y-110267520D01*
X216197856Y-110255547D01*
X216197817Y-110255522D01*
X216179210Y-110243516D01*
X216179178Y-110243496D01*
X216160571Y-110231406D01*
X216160575Y-110231399D01*
X216160549Y-110231392D01*
X216142018Y-110219287D01*
X216123500Y-110207148D01*
X216105000Y-110195000D01*
X216086499Y-110182851D01*
X216067981Y-110170712D01*
X216049428Y-110158593D01*
X216030821Y-110146503D01*
X216012143Y-110134452D01*
X215993377Y-110122449D01*
X215974503Y-110110505D01*
X215955506Y-110098629D01*
X215936366Y-110086830D01*
X215917066Y-110075120D01*
X215897589Y-110063506D01*
X215877916Y-110051999D01*
X215858030Y-110040609D01*
X215837935Y-110029357D01*
X215837913Y-110029345D01*
X215817548Y-110018217D01*
X215796915Y-110007235D01*
X215775999Y-109996409D01*
X215754781Y-109985747D01*
X215733242Y-109975261D01*
X215711366Y-109964959D01*
X215689135Y-109954852D01*
X215666531Y-109944949D01*
X215643536Y-109935260D01*
X215620132Y-109925794D01*
X215596302Y-109916562D01*
X215572028Y-109907573D01*
X215547291Y-109898836D01*
X215522075Y-109890362D01*
X215496362Y-109882160D01*
X215470170Y-109874251D01*
X215470092Y-109874228D01*
X215459264Y-109871142D01*
X215443371Y-109866611D01*
X215416059Y-109859284D01*
X215388178Y-109852267D01*
X215388157Y-109852262D01*
X215359755Y-109845582D01*
X215359735Y-109845578D01*
X215359711Y-109845572D01*
X215330639Y-109839207D01*
X215330579Y-109839195D01*
X215330561Y-109839191D01*
X215300986Y-109833190D01*
X215300974Y-109833188D01*
X215300946Y-109833182D01*
X215270613Y-109827507D01*
X215239623Y-109822192D01*
X215208006Y-109817253D01*
X215207972Y-109817248D01*
X215207958Y-109817246D01*
X215175600Y-109812680D01*
X215142531Y-109808502D01*
X215108765Y-109804725D01*
X215108734Y-109804722D01*
X215074190Y-109801351D01*
X215038883Y-109798398D01*
X215038857Y-109798396D01*
X215038843Y-109798395D01*
X215019409Y-109797035D01*
X215002793Y-109795872D01*
X214965905Y-109793784D01*
X214965860Y-109793782D01*
X214965841Y-109793781D01*
X214928300Y-109792147D01*
X214928270Y-109792146D01*
X214928199Y-109792143D01*
X214928168Y-109792142D01*
X214889697Y-109790960D01*
X214889658Y-109790959D01*
X214889570Y-109790957D01*
X214889556Y-109790957D01*
X214867242Y-109790550D01*
X214850264Y-109790241D01*
X214821629Y-109790070D01*
X214813378Y-109786594D01*
X214810000Y-109778370D01*
X214810000Y-109421630D01*
X214813427Y-109413357D01*
X214821630Y-109409930D01*
X214850264Y-109409758D01*
X214867242Y-109409449D01*
X214889556Y-109409042D01*
X214889570Y-109409042D01*
X214889658Y-109409040D01*
X214889697Y-109409039D01*
X214928168Y-109407857D01*
X214928199Y-109407856D01*
X214928270Y-109407853D01*
X214928300Y-109407852D01*
X214965841Y-109406218D01*
X214965860Y-109406217D01*
X214965905Y-109406215D01*
X215002793Y-109404127D01*
X215019409Y-109402964D01*
X215038843Y-109401604D01*
X215038857Y-109401603D01*
X215038883Y-109401601D01*
X215074190Y-109398648D01*
X215108734Y-109395277D01*
X215108736Y-109395277D01*
X215108765Y-109395274D01*
X215142531Y-109391497D01*
X215142539Y-109391496D01*
X215144599Y-109391236D01*
X215175600Y-109387320D01*
X215207958Y-109382753D01*
X215207972Y-109382751D01*
X215208006Y-109382746D01*
X215239623Y-109377807D01*
X215270613Y-109372492D01*
X215300946Y-109366817D01*
X215300974Y-109366811D01*
X215300986Y-109366809D01*
X215330561Y-109360808D01*
X215330579Y-109360804D01*
X215330639Y-109360792D01*
X215359711Y-109354427D01*
X215359735Y-109354421D01*
X215359755Y-109354417D01*
X215388157Y-109347737D01*
X215388161Y-109347736D01*
X215388178Y-109347732D01*
X215416059Y-109340715D01*
X215443371Y-109333388D01*
X215443380Y-109333385D01*
X215443397Y-109333381D01*
X215459721Y-109328728D01*
X215470133Y-109325760D01*
X215496362Y-109317839D01*
X215522075Y-109309637D01*
X215547291Y-109301163D01*
X215572028Y-109292426D01*
X215596302Y-109283437D01*
X215620132Y-109274205D01*
X215643536Y-109264739D01*
X215666531Y-109255050D01*
X215689135Y-109245147D01*
X215711366Y-109235040D01*
X215733242Y-109224738D01*
X215754781Y-109214252D01*
X215775999Y-109203590D01*
X215796915Y-109192764D01*
X215817548Y-109181782D01*
X215837913Y-109170654D01*
X215837922Y-109170649D01*
X215837935Y-109170642D01*
X215858030Y-109159390D01*
X215877916Y-109148000D01*
X215897589Y-109136493D01*
X215917066Y-109124880D01*
X215936366Y-109113169D01*
X215955506Y-109101370D01*
X215974503Y-109089494D01*
X215993377Y-109077550D01*
X216012143Y-109065547D01*
X216030821Y-109053496D01*
X216049428Y-109041406D01*
X216067981Y-109029287D01*
X216086499Y-109017148D01*
X216105000Y-109005000D01*
X216123500Y-108992851D01*
X216142018Y-108980712D01*
X216160548Y-108968608D01*
X216160577Y-108968602D01*
X216160571Y-108968593D01*
X216179178Y-108956503D01*
X216179210Y-108956483D01*
X216197817Y-108944477D01*
X216197856Y-108944452D01*
X216216575Y-108932479D01*
X216216634Y-108932468D01*
X216216622Y-108932449D01*
X216235496Y-108920505D01*
X216235551Y-108920471D01*
X216254431Y-108908668D01*
X216254493Y-108908629D01*
X216273633Y-108896830D01*
X216273704Y-108896787D01*
X216292933Y-108885120D01*
X216293010Y-108885074D01*
X216312410Y-108873506D01*
X216312495Y-108873456D01*
X216331991Y-108862053D01*
X216332083Y-108861999D01*
X216351925Y-108850634D01*
X216352024Y-108850578D01*
X216372086Y-108839345D01*
X216372192Y-108839287D01*
X216392391Y-108828250D01*
X216392504Y-108828189D01*
X216412988Y-108817286D01*
X216413107Y-108817223D01*
X216434000Y-108806409D01*
X216434125Y-108806346D01*
X216455107Y-108795803D01*
X216455222Y-108795745D01*
X216476757Y-108785261D01*
X216486264Y-108780784D01*
X216498572Y-108774988D01*
X216498715Y-108774922D01*
X216520767Y-108764896D01*
X216520914Y-108764830D01*
X216543411Y-108754974D01*
X216543563Y-108754909D01*
X216566409Y-108745283D01*
X216566565Y-108745219D01*
X216589749Y-108735842D01*
X216589909Y-108735778D01*
X216613623Y-108726591D01*
X216613787Y-108726529D01*
X216637912Y-108717595D01*
X216638053Y-108717544D01*
X216662708Y-108708836D01*
X216676842Y-108704086D01*
X216687839Y-108700391D01*
X216688010Y-108700335D01*
X216700780Y-108696261D01*
X216713601Y-108692171D01*
X216713674Y-108692149D01*
X216739790Y-108684263D01*
X216739957Y-108684214D01*
X216766628Y-108676611D01*
X216793871Y-108669303D01*
X216794013Y-108669266D01*
X216821738Y-108662288D01*
X216821915Y-108662245D01*
X216850211Y-108655590D01*
X216850388Y-108655550D01*
X216879315Y-108649217D01*
X216879400Y-108649199D01*
X216908997Y-108643193D01*
X216909149Y-108643164D01*
X216939249Y-108637533D01*
X216939422Y-108637501D01*
X216970302Y-108632205D01*
X216970474Y-108632177D01*
X217001983Y-108627255D01*
X217002154Y-108627230D01*
X217034279Y-108622697D01*
X217034448Y-108622674D01*
X217067378Y-108618514D01*
X217067543Y-108618495D01*
X217101194Y-108614731D01*
X217101359Y-108614713D01*
X217135771Y-108611355D01*
X217135932Y-108611341D01*
X217171047Y-108608404D01*
X217171205Y-108608392D01*
X217198062Y-108606512D01*
X217207134Y-108605877D01*
X217207262Y-108605869D01*
X217243988Y-108603790D01*
X217244140Y-108603782D01*
X217244350Y-108603773D01*
X217281800Y-108602143D01*
X217320320Y-108600960D01*
X217320348Y-108600959D01*
X217339489Y-108600610D01*
X217359642Y-108600243D01*
X217359785Y-108600241D01*
X217392721Y-108600044D01*
X217401015Y-108603422D01*
G37*
%TD.AperFunction*%
%TD*%
%TA.AperFunction,Conductor*%
%TO.N,/ANTENNA*%
G36*
X212431176Y-109103779D02*
G01*
X212433521Y-109106761D01*
X212435934Y-109111140D01*
X212438902Y-109116526D01*
X212699800Y-109590008D01*
X212450000Y-110100000D01*
X212429459Y-110099921D01*
X212427324Y-110099913D01*
X212427234Y-110099912D01*
X212405197Y-110099657D01*
X212405104Y-110099656D01*
X212383417Y-110099233D01*
X212383323Y-110099231D01*
X212362032Y-110098645D01*
X212362033Y-110098603D01*
X212361936Y-110098642D01*
X212341253Y-110097900D01*
X212341158Y-110097857D01*
X212341156Y-110097897D01*
X212320741Y-110096994D01*
X212320641Y-110096989D01*
X212300701Y-110095936D01*
X212300600Y-110095930D01*
X212291099Y-110095346D01*
X212281056Y-110094728D01*
X212261833Y-110093375D01*
X212247602Y-110092245D01*
X212243052Y-110091884D01*
X212242945Y-110091875D01*
X212239168Y-110091540D01*
X212224546Y-110090244D01*
X212212569Y-110089072D01*
X212206538Y-110088481D01*
X212206429Y-110088470D01*
X212199064Y-110087679D01*
X212188742Y-110086571D01*
X212171372Y-110084539D01*
X212154343Y-110082382D01*
X212144068Y-110080979D01*
X212137760Y-110080118D01*
X212137648Y-110080103D01*
X212121275Y-110077706D01*
X212105216Y-110075194D01*
X212089460Y-110072571D01*
X212076932Y-110070358D01*
X212074029Y-110069845D01*
X212073916Y-110069824D01*
X212067471Y-110068620D01*
X212058824Y-110067004D01*
X212047746Y-110064820D01*
X212043945Y-110064071D01*
X212043833Y-110064048D01*
X212029401Y-110061056D01*
X212029289Y-110061033D01*
X212014912Y-110057905D01*
X212000781Y-110054687D01*
X211998188Y-110054070D01*
X211986966Y-110051400D01*
X211986858Y-110051374D01*
X211973283Y-110048008D01*
X211973176Y-110047981D01*
X211959863Y-110044546D01*
X211959759Y-110044519D01*
X211946538Y-110040978D01*
X211933500Y-110037360D01*
X211920651Y-110033671D01*
X211908023Y-110029928D01*
X211907968Y-110029912D01*
X211895487Y-110026100D01*
X211895398Y-110026072D01*
X211883238Y-110022251D01*
X211883151Y-110022223D01*
X211871024Y-110018309D01*
X211870943Y-110018283D01*
X211858929Y-110014308D01*
X211858851Y-110014282D01*
X211847056Y-110010287D01*
X211846983Y-110010262D01*
X211835236Y-110006197D01*
X211835168Y-110006173D01*
X211823565Y-110002078D01*
X211812000Y-109997920D01*
X211800529Y-109993727D01*
X211800476Y-109993707D01*
X211789191Y-109989520D01*
X211789144Y-109989503D01*
X211777834Y-109985251D01*
X211777837Y-109985243D01*
X211777793Y-109985235D01*
X211766627Y-109980987D01*
X211766598Y-109980959D01*
X211766592Y-109980974D01*
X211755406Y-109976677D01*
X211755375Y-109976665D01*
X211744268Y-109972362D01*
X211744245Y-109972353D01*
X211733167Y-109968034D01*
X211722106Y-109963699D01*
X211722098Y-109963691D01*
X211722096Y-109963695D01*
X211711043Y-109959349D01*
X211711043Y-109959348D01*
X211711039Y-109959347D01*
X211700000Y-109955000D01*
X211688956Y-109950650D01*
X211677903Y-109946304D01*
X211666832Y-109941965D01*
X211655731Y-109937637D01*
X211644593Y-109933322D01*
X211633407Y-109929025D01*
X211622165Y-109924748D01*
X211610855Y-109920496D01*
X211599476Y-109916274D01*
X211599470Y-109916272D01*
X211587999Y-109912080D01*
X211576434Y-109907921D01*
X211564763Y-109903802D01*
X211552979Y-109899724D01*
X211541071Y-109895691D01*
X211529031Y-109891707D01*
X211516847Y-109887775D01*
X211504512Y-109883899D01*
X211504500Y-109883895D01*
X211504484Y-109883890D01*
X211492015Y-109880082D01*
X211479348Y-109876328D01*
X211479337Y-109876325D01*
X211479311Y-109876317D01*
X211466544Y-109872652D01*
X211466499Y-109872639D01*
X211453461Y-109869021D01*
X211453425Y-109869011D01*
X211453413Y-109869008D01*
X211440273Y-109865488D01*
X211440245Y-109865481D01*
X211440223Y-109865475D01*
X211426777Y-109862006D01*
X211413111Y-109858617D01*
X211399218Y-109855312D01*
X211385087Y-109852094D01*
X211370766Y-109848978D01*
X211370756Y-109848976D01*
X211370710Y-109848966D01*
X211356096Y-109845936D01*
X211356075Y-109845932D01*
X211341175Y-109842995D01*
X211325999Y-109840160D01*
X211325978Y-109840156D01*
X211310570Y-109837433D01*
X211310539Y-109837428D01*
X211294783Y-109834805D01*
X211278724Y-109832293D01*
X211262351Y-109829896D01*
X211245656Y-109827617D01*
X211228627Y-109825460D01*
X211211257Y-109823428D01*
X211193535Y-109821525D01*
X211175453Y-109819755D01*
X211156999Y-109818120D01*
X211138166Y-109816624D01*
X211118943Y-109815271D01*
X211118937Y-109815271D01*
X211118928Y-109815270D01*
X211099322Y-109814064D01*
X211079291Y-109813006D01*
X211058843Y-109812102D01*
X211037967Y-109811354D01*
X211016655Y-109810767D01*
X210994895Y-109810343D01*
X210972680Y-109810086D01*
X210972468Y-109810085D01*
X210961655Y-109810044D01*
X210953395Y-109806586D01*
X210950000Y-109798344D01*
X210950000Y-109441653D01*
X210953427Y-109433380D01*
X210961653Y-109429953D01*
X210972507Y-109429910D01*
X210994548Y-109429645D01*
X211016131Y-109429207D01*
X211037267Y-109428599D01*
X211057965Y-109427826D01*
X211078171Y-109426893D01*
X211078177Y-109426893D01*
X211078234Y-109426890D01*
X211098073Y-109425796D01*
X211098084Y-109425795D01*
X211117524Y-109424544D01*
X211117528Y-109424544D01*
X211136564Y-109423141D01*
X211155214Y-109421589D01*
X211173482Y-109419891D01*
X211191379Y-109418052D01*
X211208847Y-109416082D01*
X211208914Y-109416074D01*
X211208965Y-109416068D01*
X211217754Y-109414986D01*
X211226097Y-109413960D01*
X211242936Y-109411715D01*
X211259442Y-109409341D01*
X211275625Y-109406842D01*
X211291492Y-109404222D01*
X211307055Y-109401483D01*
X211322323Y-109398630D01*
X211337281Y-109395670D01*
X211337304Y-109395665D01*
X211352010Y-109392593D01*
X211352016Y-109392592D01*
X211366395Y-109389427D01*
X211366448Y-109389415D01*
X211374006Y-109387668D01*
X211380606Y-109386143D01*
X211380630Y-109386137D01*
X211380677Y-109386126D01*
X211380697Y-109386121D01*
X211394515Y-109382773D01*
X211394538Y-109382767D01*
X211394563Y-109382761D01*
X211408258Y-109379290D01*
X211421725Y-109375729D01*
X211434973Y-109372080D01*
X211448010Y-109368347D01*
X211460848Y-109364533D01*
X211473495Y-109360642D01*
X211485961Y-109356677D01*
X211498255Y-109352641D01*
X211498294Y-109352628D01*
X211510344Y-109348554D01*
X211510361Y-109348548D01*
X211510388Y-109348539D01*
X211522367Y-109344373D01*
X211534163Y-109340162D01*
X211534204Y-109340147D01*
X211545907Y-109335863D01*
X211557487Y-109331527D01*
X211568952Y-109327140D01*
X211580311Y-109322707D01*
X211591576Y-109318231D01*
X211602755Y-109313715D01*
X211602816Y-109313690D01*
X211613792Y-109309189D01*
X211613806Y-109309183D01*
X211613857Y-109309162D01*
X211624892Y-109304577D01*
X211635871Y-109299961D01*
X211646801Y-109295320D01*
X211657693Y-109290656D01*
X211668556Y-109285973D01*
X211679401Y-109281274D01*
X211690235Y-109276562D01*
X211701069Y-109271842D01*
X211711908Y-109267117D01*
X211711914Y-109267117D01*
X211711913Y-109267115D01*
X211722775Y-109262387D01*
X211722776Y-109262389D01*
X211722785Y-109262383D01*
X211733666Y-109257659D01*
X211744595Y-109252936D01*
X211755542Y-109248234D01*
X211755571Y-109248221D01*
X211766604Y-109243517D01*
X211766607Y-109243524D01*
X211766640Y-109243502D01*
X211777704Y-109238829D01*
X211788832Y-109234178D01*
X211788879Y-109234158D01*
X211800140Y-109229509D01*
X211800192Y-109229488D01*
X211803571Y-109228112D01*
X211811496Y-109224885D01*
X211822957Y-109220289D01*
X211834532Y-109215725D01*
X211834561Y-109215714D01*
X211846158Y-109211225D01*
X211846230Y-109211197D01*
X211858012Y-109206726D01*
X211858089Y-109206697D01*
X211870036Y-109202259D01*
X211870117Y-109202230D01*
X211882102Y-109197878D01*
X211882126Y-109197869D01*
X211882162Y-109197856D01*
X211894450Y-109193503D01*
X211906909Y-109189202D01*
X211907002Y-109189171D01*
X211919480Y-109184980D01*
X211919575Y-109184948D01*
X211932343Y-109180781D01*
X211932442Y-109180749D01*
X211945409Y-109176645D01*
X211945463Y-109176628D01*
X211945511Y-109176614D01*
X211958563Y-109172614D01*
X211958666Y-109172582D01*
X211959784Y-109172251D01*
X211972107Y-109168599D01*
X211985773Y-109164689D01*
X211985880Y-109164659D01*
X211999717Y-109160843D01*
X212013889Y-109157083D01*
X212028317Y-109153406D01*
X212043012Y-109149815D01*
X212053883Y-109147273D01*
X212057911Y-109146331D01*
X212058024Y-109146305D01*
X212073240Y-109142906D01*
X212073353Y-109142882D01*
X212074692Y-109142597D01*
X212088791Y-109139594D01*
X212104647Y-109136383D01*
X212120792Y-109133280D01*
X212120906Y-109133259D01*
X212137253Y-109130285D01*
X212137366Y-109130265D01*
X212146538Y-109128689D01*
X212154137Y-109127384D01*
X212171306Y-109124607D01*
X212171418Y-109124590D01*
X212188717Y-109121964D01*
X212188772Y-109121956D01*
X212188828Y-109121947D01*
X212206711Y-109119407D01*
X212213573Y-109118499D01*
X212224902Y-109117000D01*
X212225010Y-109116986D01*
X212243520Y-109114713D01*
X212243628Y-109114700D01*
X212262619Y-109112547D01*
X212262724Y-109112536D01*
X212282050Y-109110522D01*
X212282156Y-109110512D01*
X212301781Y-109108646D01*
X212301884Y-109108636D01*
X212322115Y-109106893D01*
X212322216Y-109106885D01*
X212337702Y-109105686D01*
X212342818Y-109105290D01*
X212344011Y-109105208D01*
X212363840Y-109103845D01*
X212363937Y-109103838D01*
X212385503Y-109102536D01*
X212385599Y-109102531D01*
X212407431Y-109101394D01*
X212407526Y-109101389D01*
X212422760Y-109100719D01*
X212431176Y-109103779D01*
G37*
%TD.AperFunction*%
%TD*%
%TA.AperFunction,Conductor*%
%TO.N,/ANTENNA*%
G36*
X209729294Y-109371463D02*
G01*
X209734134Y-109373739D01*
X209740108Y-109376490D01*
X209746038Y-109379163D01*
X209746096Y-109379189D01*
X209746110Y-109379195D01*
X209751925Y-109381760D01*
X209757770Y-109384280D01*
X209757773Y-109384281D01*
X209763582Y-109386727D01*
X209769354Y-109389100D01*
X209775091Y-109391400D01*
X209780795Y-109393629D01*
X209786467Y-109395787D01*
X209786515Y-109395805D01*
X209792109Y-109397875D01*
X209797723Y-109399895D01*
X209803310Y-109401848D01*
X209808836Y-109403722D01*
X209808850Y-109403726D01*
X209808873Y-109403734D01*
X209814413Y-109405555D01*
X209819931Y-109407311D01*
X209825430Y-109409004D01*
X209830910Y-109410635D01*
X209836375Y-109412204D01*
X209841825Y-109413714D01*
X209847263Y-109415163D01*
X209852689Y-109416555D01*
X209852728Y-109416565D01*
X209855712Y-109417300D01*
X209858107Y-109417890D01*
X209863516Y-109419168D01*
X209868920Y-109420391D01*
X209874320Y-109421560D01*
X209874349Y-109421566D01*
X209879697Y-109422672D01*
X209879715Y-109422675D01*
X209879718Y-109422676D01*
X209885115Y-109423740D01*
X209890458Y-109424743D01*
X209890513Y-109424753D01*
X209890562Y-109424762D01*
X209895911Y-109425716D01*
X209895914Y-109425716D01*
X209901319Y-109426630D01*
X209906731Y-109427496D01*
X209912151Y-109428315D01*
X209917580Y-109429088D01*
X209923021Y-109429816D01*
X209928276Y-109430475D01*
X209928475Y-109430500D01*
X209933944Y-109431141D01*
X209936206Y-109431388D01*
X209939409Y-109431739D01*
X209939412Y-109431739D01*
X209939430Y-109431741D01*
X209944934Y-109432300D01*
X209950392Y-109432813D01*
X209950405Y-109432814D01*
X209950458Y-109432819D01*
X209955953Y-109433296D01*
X209956004Y-109433300D01*
X209956038Y-109433303D01*
X209960842Y-109433684D01*
X209961573Y-109433742D01*
X209967168Y-109434148D01*
X209967232Y-109434152D01*
X209967238Y-109434153D01*
X209972790Y-109434519D01*
X209978440Y-109434854D01*
X209984121Y-109435156D01*
X209989834Y-109435426D01*
X209995580Y-109435664D01*
X210001363Y-109435871D01*
X210007183Y-109436049D01*
X210012997Y-109436198D01*
X210013002Y-109436198D01*
X210013041Y-109436199D01*
X210018920Y-109436321D01*
X210018941Y-109436321D01*
X210018973Y-109436322D01*
X210024883Y-109436417D01*
X210030869Y-109436487D01*
X210036902Y-109436533D01*
X210042982Y-109436555D01*
X210049111Y-109436556D01*
X210055291Y-109436535D01*
X210061525Y-109436493D01*
X210067813Y-109436433D01*
X210074157Y-109436354D01*
X210080559Y-109436258D01*
X210087021Y-109436146D01*
X210093545Y-109436018D01*
X210100131Y-109435877D01*
X210106783Y-109435723D01*
X210113501Y-109435556D01*
X210120288Y-109435379D01*
X210127144Y-109435191D01*
X210134073Y-109434994D01*
X210141075Y-109434790D01*
X210148152Y-109434579D01*
X210155307Y-109434361D01*
X210162540Y-109434139D01*
X210169854Y-109433913D01*
X210177249Y-109433684D01*
X210184725Y-109433453D01*
X210184729Y-109433455D01*
X210184729Y-109433453D01*
X210192294Y-109433222D01*
X210192298Y-109433222D01*
X210199947Y-109432991D01*
X210199952Y-109432991D01*
X210206399Y-109432799D01*
X210207689Y-109432761D01*
X210207695Y-109432761D01*
X210214402Y-109432566D01*
X210215521Y-109432533D01*
X210215530Y-109432533D01*
X210219275Y-109432427D01*
X210223437Y-109432309D01*
X210223446Y-109432313D01*
X210223446Y-109432309D01*
X210231465Y-109432089D01*
X210231476Y-109432089D01*
X210239581Y-109431874D01*
X210239594Y-109431874D01*
X210243263Y-109431781D01*
X210247779Y-109431666D01*
X210247794Y-109431672D01*
X210247794Y-109431666D01*
X210256106Y-109431466D01*
X210256118Y-109431466D01*
X210263872Y-109431288D01*
X210264519Y-109431273D01*
X210264536Y-109431273D01*
X210268907Y-109431179D01*
X210273021Y-109431091D01*
X210273036Y-109431097D01*
X210273036Y-109431091D01*
X210281657Y-109430918D01*
X210281677Y-109430918D01*
X210289968Y-109430766D01*
X210290384Y-109430758D01*
X210290400Y-109430758D01*
X210294009Y-109430697D01*
X210299198Y-109430609D01*
X210299220Y-109430618D01*
X210299220Y-109430609D01*
X210308165Y-109430475D01*
X210308185Y-109430475D01*
X210317221Y-109430355D01*
X210317243Y-109430355D01*
X210326391Y-109430251D01*
X210326413Y-109430251D01*
X210330832Y-109430209D01*
X210335653Y-109430163D01*
X210335676Y-109430173D01*
X210335676Y-109430163D01*
X210345078Y-109430093D01*
X210345102Y-109430093D01*
X210354598Y-109430042D01*
X210354623Y-109430042D01*
X210362262Y-109430017D01*
X210370546Y-109433417D01*
X210374000Y-109441717D01*
X210374000Y-109798282D01*
X210370573Y-109806555D01*
X210362262Y-109809982D01*
X210354623Y-109809957D01*
X210354598Y-109809957D01*
X210345102Y-109809906D01*
X210345078Y-109809906D01*
X210335676Y-109809836D01*
X210335676Y-109809826D01*
X210335653Y-109809836D01*
X210330832Y-109809790D01*
X210326413Y-109809748D01*
X210326391Y-109809748D01*
X210317243Y-109809644D01*
X210317221Y-109809644D01*
X210308185Y-109809524D01*
X210308165Y-109809524D01*
X210299220Y-109809390D01*
X210299220Y-109809381D01*
X210299198Y-109809390D01*
X210294009Y-109809302D01*
X210290400Y-109809241D01*
X210290384Y-109809241D01*
X210289968Y-109809233D01*
X210281677Y-109809081D01*
X210281657Y-109809081D01*
X210273036Y-109808908D01*
X210273036Y-109808902D01*
X210273021Y-109808908D01*
X210268907Y-109808820D01*
X210264536Y-109808726D01*
X210264519Y-109808726D01*
X210263872Y-109808711D01*
X210256118Y-109808533D01*
X210256106Y-109808533D01*
X210247794Y-109808333D01*
X210247794Y-109808327D01*
X210247779Y-109808333D01*
X210243263Y-109808218D01*
X210239594Y-109808125D01*
X210239581Y-109808125D01*
X210231476Y-109807910D01*
X210231465Y-109807910D01*
X210223446Y-109807690D01*
X210223446Y-109807686D01*
X210223437Y-109807690D01*
X210219275Y-109807572D01*
X210215530Y-109807466D01*
X210215521Y-109807466D01*
X210214402Y-109807433D01*
X210207695Y-109807238D01*
X210207689Y-109807238D01*
X210205737Y-109807180D01*
X210199952Y-109807008D01*
X210199947Y-109807008D01*
X210192298Y-109806777D01*
X210192294Y-109806777D01*
X210184729Y-109806546D01*
X210184729Y-109806544D01*
X210184725Y-109806546D01*
X210177249Y-109806315D01*
X210169854Y-109806086D01*
X210162540Y-109805860D01*
X210155307Y-109805638D01*
X210148152Y-109805420D01*
X210141075Y-109805209D01*
X210134073Y-109805005D01*
X210127144Y-109804808D01*
X210120288Y-109804620D01*
X210113501Y-109804443D01*
X210106783Y-109804276D01*
X210100131Y-109804122D01*
X210093545Y-109803981D01*
X210087021Y-109803853D01*
X210080559Y-109803741D01*
X210074157Y-109803645D01*
X210067813Y-109803566D01*
X210061525Y-109803506D01*
X210055291Y-109803464D01*
X210049111Y-109803443D01*
X210042982Y-109803444D01*
X210036902Y-109803466D01*
X210030869Y-109803512D01*
X210024883Y-109803582D01*
X210018973Y-109803677D01*
X210018941Y-109803678D01*
X210018920Y-109803678D01*
X210013041Y-109803800D01*
X210013002Y-109803801D01*
X210012997Y-109803801D01*
X210007183Y-109803950D01*
X210001363Y-109804128D01*
X209995580Y-109804335D01*
X209989834Y-109804573D01*
X209984862Y-109804808D01*
X209984121Y-109804843D01*
X209978440Y-109805145D01*
X209972790Y-109805480D01*
X209967238Y-109805846D01*
X209967232Y-109805847D01*
X209967168Y-109805851D01*
X209961573Y-109806257D01*
X209956038Y-109806696D01*
X209956004Y-109806699D01*
X209955953Y-109806703D01*
X209950458Y-109807180D01*
X209950405Y-109807185D01*
X209950392Y-109807186D01*
X209945072Y-109807686D01*
X209944934Y-109807699D01*
X209939430Y-109808258D01*
X209933944Y-109808858D01*
X209928475Y-109809499D01*
X209928384Y-109809510D01*
X209928379Y-109809511D01*
X209925788Y-109809836D01*
X209923021Y-109810183D01*
X209917580Y-109810911D01*
X209912151Y-109811684D01*
X209906731Y-109812503D01*
X209901319Y-109813369D01*
X209895914Y-109814283D01*
X209890562Y-109815237D01*
X209890513Y-109815246D01*
X209890458Y-109815256D01*
X209885115Y-109816259D01*
X209879718Y-109817323D01*
X209879697Y-109817327D01*
X209874349Y-109818433D01*
X209874320Y-109818439D01*
X209868920Y-109819608D01*
X209863516Y-109820831D01*
X209858107Y-109822109D01*
X209855712Y-109822699D01*
X209852728Y-109823434D01*
X209852689Y-109823444D01*
X209847263Y-109824836D01*
X209841825Y-109826285D01*
X209836375Y-109827795D01*
X209830910Y-109829364D01*
X209825430Y-109830995D01*
X209819931Y-109832688D01*
X209814413Y-109834444D01*
X209808873Y-109836265D01*
X209808850Y-109836273D01*
X209808836Y-109836277D01*
X209803310Y-109838151D01*
X209797723Y-109840104D01*
X209792109Y-109842124D01*
X209786515Y-109844194D01*
X209786467Y-109844212D01*
X209780795Y-109846370D01*
X209775091Y-109848599D01*
X209769354Y-109850899D01*
X209763582Y-109853272D01*
X209757773Y-109855718D01*
X209751925Y-109858239D01*
X209746110Y-109860804D01*
X209746096Y-109860810D01*
X209746038Y-109860836D01*
X209740108Y-109863509D01*
X209734134Y-109866260D01*
X209729293Y-109868536D01*
X209720350Y-109868955D01*
X209716206Y-109866381D01*
X209657315Y-109809748D01*
X209595357Y-109750166D01*
X209460000Y-109620000D01*
X209604973Y-109480586D01*
X209650825Y-109436493D01*
X209716206Y-109373619D01*
X209724545Y-109370354D01*
X209729294Y-109371463D01*
G37*
%TD.AperFunction*%
%TD*%
%TA.AperFunction,Conductor*%
%TO.N,/RF*%
G36*
X206497685Y-109363101D02*
G01*
X206501646Y-109365969D01*
X206739644Y-109629974D01*
X206593826Y-109751441D01*
X206466530Y-109857479D01*
X206457980Y-109860141D01*
X206453340Y-109858705D01*
X206448849Y-109856199D01*
X206448772Y-109856156D01*
X206443060Y-109853035D01*
X206437385Y-109850001D01*
X206431743Y-109847052D01*
X206426133Y-109844188D01*
X206420554Y-109841407D01*
X206415004Y-109838708D01*
X206409482Y-109836090D01*
X206403986Y-109833552D01*
X206398549Y-109831109D01*
X206398547Y-109831108D01*
X206398513Y-109831093D01*
X206393064Y-109828712D01*
X206387636Y-109826407D01*
X206382227Y-109824177D01*
X206376836Y-109822022D01*
X206371499Y-109819954D01*
X206371476Y-109819945D01*
X206371462Y-109819940D01*
X206366102Y-109817930D01*
X206360756Y-109815990D01*
X206360708Y-109815973D01*
X206359194Y-109815443D01*
X206355421Y-109814120D01*
X206350097Y-109812319D01*
X206344780Y-109810586D01*
X206339471Y-109808918D01*
X206339426Y-109808904D01*
X206334167Y-109807316D01*
X206328939Y-109805799D01*
X206328926Y-109805795D01*
X206328866Y-109805778D01*
X206328863Y-109805777D01*
X206326989Y-109805255D01*
X206323568Y-109804303D01*
X206318270Y-109802889D01*
X206312971Y-109801536D01*
X206312955Y-109801532D01*
X206312928Y-109801525D01*
X206307731Y-109800258D01*
X206307670Y-109800243D01*
X206302364Y-109799008D01*
X206302331Y-109799001D01*
X206302321Y-109798998D01*
X206299282Y-109798325D01*
X206297052Y-109797830D01*
X206291733Y-109796708D01*
X206286405Y-109795642D01*
X206281066Y-109794629D01*
X206275744Y-109793673D01*
X206275724Y-109793670D01*
X206275715Y-109793668D01*
X206270350Y-109792760D01*
X206264970Y-109791902D01*
X206259573Y-109791093D01*
X206259562Y-109791091D01*
X206254157Y-109790332D01*
X206248721Y-109789618D01*
X206243264Y-109788951D01*
X206237783Y-109788328D01*
X206232277Y-109787748D01*
X206226748Y-109787211D01*
X206226745Y-109787211D01*
X206221184Y-109786716D01*
X206215594Y-109786260D01*
X206209973Y-109785844D01*
X206204319Y-109785466D01*
X206198630Y-109785124D01*
X206192906Y-109784819D01*
X206187144Y-109784548D01*
X206181342Y-109784310D01*
X206175500Y-109784104D01*
X206169616Y-109783930D01*
X206163687Y-109783786D01*
X206157713Y-109783670D01*
X206151692Y-109783583D01*
X206145622Y-109783522D01*
X206139502Y-109783486D01*
X206133330Y-109783475D01*
X206127105Y-109783487D01*
X206120824Y-109783521D01*
X206114487Y-109783576D01*
X206108091Y-109783651D01*
X206101636Y-109783745D01*
X206095119Y-109783856D01*
X206088539Y-109783984D01*
X206081895Y-109784127D01*
X206075184Y-109784284D01*
X206068406Y-109784454D01*
X206061558Y-109784636D01*
X206054640Y-109784829D01*
X206047649Y-109785031D01*
X206040583Y-109785242D01*
X206033442Y-109785460D01*
X206026224Y-109785684D01*
X206018927Y-109785914D01*
X206011549Y-109786147D01*
X206004089Y-109786383D01*
X205996546Y-109786621D01*
X205996543Y-109786621D01*
X205990824Y-109786800D01*
X205988917Y-109786860D01*
X205988912Y-109786860D01*
X205985702Y-109786959D01*
X205981209Y-109787098D01*
X205981202Y-109787095D01*
X205981202Y-109787098D01*
X205973398Y-109787334D01*
X205973390Y-109787334D01*
X205966381Y-109787541D01*
X205965504Y-109787567D01*
X205965497Y-109787567D01*
X205962842Y-109787644D01*
X205957532Y-109787797D01*
X205957519Y-109787792D01*
X205957519Y-109787797D01*
X205949440Y-109788021D01*
X205949428Y-109788021D01*
X205941267Y-109788239D01*
X205941253Y-109788239D01*
X205937132Y-109788344D01*
X205933010Y-109788449D01*
X205932997Y-109788444D01*
X205932997Y-109788449D01*
X205924629Y-109788652D01*
X205924611Y-109788652D01*
X205916608Y-109788834D01*
X205916162Y-109788844D01*
X205916147Y-109788844D01*
X205912688Y-109788918D01*
X205907615Y-109789026D01*
X205907594Y-109789017D01*
X205907594Y-109789026D01*
X205898923Y-109789195D01*
X205898905Y-109789195D01*
X205890609Y-109789344D01*
X205890147Y-109789352D01*
X205890127Y-109789352D01*
X205886110Y-109789417D01*
X205881289Y-109789495D01*
X205881266Y-109789485D01*
X205881266Y-109789495D01*
X205872277Y-109789622D01*
X205872254Y-109789622D01*
X205863559Y-109789727D01*
X205863180Y-109789732D01*
X205863159Y-109789732D01*
X205859151Y-109789773D01*
X205853997Y-109789826D01*
X205853971Y-109789815D01*
X205853971Y-109789826D01*
X205844651Y-109789900D01*
X205844626Y-109789900D01*
X205835216Y-109789955D01*
X205835189Y-109789955D01*
X205832551Y-109789964D01*
X205827741Y-109789981D01*
X205819456Y-109786583D01*
X205816000Y-109778281D01*
X205816000Y-109421715D01*
X205819427Y-109413442D01*
X205827739Y-109410015D01*
X205833720Y-109410035D01*
X205836178Y-109410043D01*
X205836200Y-109410043D01*
X205836596Y-109410045D01*
X205846082Y-109410095D01*
X205846106Y-109410095D01*
X205855887Y-109410167D01*
X205855887Y-109410177D01*
X205855910Y-109410167D01*
X205860818Y-109410213D01*
X205865520Y-109410257D01*
X205865543Y-109410257D01*
X205875057Y-109410365D01*
X205875077Y-109410365D01*
X205884467Y-109410488D01*
X205884490Y-109410488D01*
X205893784Y-109410628D01*
X205893784Y-109410637D01*
X205893804Y-109410628D01*
X205898602Y-109410709D01*
X205902942Y-109410782D01*
X205902961Y-109410782D01*
X205912005Y-109410949D01*
X205912024Y-109410949D01*
X205920974Y-109411129D01*
X205920974Y-109411137D01*
X205920992Y-109411129D01*
X205925512Y-109411227D01*
X205929794Y-109411320D01*
X205929812Y-109411320D01*
X205938541Y-109411523D01*
X205938541Y-109411529D01*
X205938555Y-109411523D01*
X205942583Y-109411622D01*
X205947147Y-109411734D01*
X205947164Y-109411734D01*
X205955667Y-109411955D01*
X205955680Y-109411955D01*
X205964093Y-109412183D01*
X205964093Y-109412189D01*
X205964107Y-109412183D01*
X205968888Y-109412319D01*
X205972394Y-109412418D01*
X205972405Y-109412418D01*
X205973226Y-109412442D01*
X205980608Y-109412659D01*
X205980617Y-109412659D01*
X205988731Y-109412904D01*
X205988731Y-109412908D01*
X205988741Y-109412904D01*
X205993141Y-109413041D01*
X205996741Y-109413153D01*
X205996750Y-109413153D01*
X205998071Y-109413195D01*
X206004669Y-109413406D01*
X206004674Y-109413406D01*
X206012501Y-109413660D01*
X206012507Y-109413660D01*
X206020244Y-109413915D01*
X206020249Y-109413915D01*
X206027903Y-109414170D01*
X206027903Y-109414171D01*
X206027906Y-109414170D01*
X206033579Y-109414361D01*
X206035470Y-109414424D01*
X206035471Y-109414424D01*
X206042954Y-109414676D01*
X206050354Y-109414925D01*
X206057675Y-109415170D01*
X206064916Y-109415411D01*
X206072080Y-109415645D01*
X206079170Y-109415873D01*
X206086187Y-109416093D01*
X206093132Y-109416305D01*
X206100008Y-109416506D01*
X206106817Y-109416697D01*
X206113561Y-109416877D01*
X206120241Y-109417044D01*
X206126859Y-109417197D01*
X206133418Y-109417336D01*
X206139919Y-109417459D01*
X206146364Y-109417566D01*
X206152755Y-109417655D01*
X206159094Y-109417726D01*
X206165383Y-109417777D01*
X206171624Y-109417809D01*
X206177818Y-109417819D01*
X206183968Y-109417806D01*
X206190075Y-109417771D01*
X206196142Y-109417711D01*
X206202170Y-109417626D01*
X206208160Y-109417515D01*
X206214116Y-109417377D01*
X206220039Y-109417211D01*
X206225931Y-109417016D01*
X206231794Y-109416791D01*
X206237629Y-109416535D01*
X206243439Y-109416247D01*
X206249225Y-109415926D01*
X206254990Y-109415571D01*
X206260735Y-109415182D01*
X206260896Y-109415170D01*
X206266426Y-109414759D01*
X206266452Y-109414757D01*
X206266462Y-109414756D01*
X206272173Y-109414294D01*
X206277871Y-109413794D01*
X206283556Y-109413256D01*
X206289231Y-109412678D01*
X206289405Y-109412659D01*
X206294854Y-109412064D01*
X206294877Y-109412061D01*
X206294897Y-109412059D01*
X206300557Y-109411398D01*
X206306213Y-109410695D01*
X206311866Y-109409949D01*
X206317519Y-109409158D01*
X206323173Y-109408322D01*
X206328829Y-109407439D01*
X206334491Y-109406508D01*
X206340160Y-109405530D01*
X206345838Y-109404502D01*
X206345839Y-109404502D01*
X206351526Y-109403424D01*
X206357227Y-109402294D01*
X206362942Y-109401112D01*
X206368674Y-109399877D01*
X206374425Y-109398588D01*
X206380195Y-109397244D01*
X206385988Y-109395844D01*
X206391805Y-109394387D01*
X206391853Y-109394374D01*
X206391884Y-109394367D01*
X206397647Y-109392871D01*
X206403492Y-109391304D01*
X206403554Y-109391287D01*
X206409418Y-109389662D01*
X206415350Y-109387967D01*
X206421293Y-109386217D01*
X206421316Y-109386210D01*
X206427317Y-109384390D01*
X206433356Y-109382506D01*
X206439433Y-109380557D01*
X206445552Y-109378543D01*
X206451715Y-109376462D01*
X206457922Y-109374313D01*
X206464176Y-109372096D01*
X206470478Y-109369809D01*
X206476832Y-109367451D01*
X206483238Y-109365022D01*
X206488732Y-109362894D01*
X206497685Y-109363101D01*
G37*
%TD.AperFunction*%
%TD*%
%TA.AperFunction,Conductor*%
%TO.N,/RF*%
G36*
X207475244Y-109348862D02*
G01*
X207577629Y-109434975D01*
X207752862Y-109582358D01*
X207756988Y-109590306D01*
X207753984Y-109599187D01*
X207525521Y-109850213D01*
X207509827Y-109867457D01*
X207501724Y-109871269D01*
X207496882Y-109870466D01*
X207490046Y-109867771D01*
X207490043Y-109867770D01*
X207482990Y-109865039D01*
X207476005Y-109862384D01*
X207469149Y-109859828D01*
X207469085Y-109859804D01*
X207462228Y-109857298D01*
X207455432Y-109854864D01*
X207448694Y-109852503D01*
X207448201Y-109852334D01*
X207442084Y-109850237D01*
X207442062Y-109850230D01*
X207442013Y-109850213D01*
X207435385Y-109847993D01*
X207428810Y-109845841D01*
X207422284Y-109843758D01*
X207415806Y-109841742D01*
X207409373Y-109839791D01*
X207402984Y-109837906D01*
X207396635Y-109836085D01*
X207390359Y-109834336D01*
X207390337Y-109834330D01*
X207390325Y-109834327D01*
X207384051Y-109832630D01*
X207377812Y-109830995D01*
X207371604Y-109829420D01*
X207365427Y-109827904D01*
X207359277Y-109826446D01*
X207353162Y-109825047D01*
X207353158Y-109825046D01*
X207353153Y-109825045D01*
X207347052Y-109823701D01*
X207340973Y-109822411D01*
X207334912Y-109821175D01*
X207328868Y-109819993D01*
X207322838Y-109818863D01*
X207316820Y-109817783D01*
X207310813Y-109816754D01*
X207304814Y-109815774D01*
X207298820Y-109814842D01*
X207292829Y-109813957D01*
X207286840Y-109813119D01*
X207280850Y-109812325D01*
X207274857Y-109811576D01*
X207268859Y-109810870D01*
X207262853Y-109810206D01*
X207256837Y-109809583D01*
X207250809Y-109809000D01*
X207244767Y-109808457D01*
X207244733Y-109808454D01*
X207244722Y-109808453D01*
X207243843Y-109808380D01*
X207238709Y-109807952D01*
X207232632Y-109807484D01*
X207226535Y-109807052D01*
X207220414Y-109806655D01*
X207214269Y-109806293D01*
X207208096Y-109805964D01*
X207201893Y-109805667D01*
X207195659Y-109805401D01*
X207189391Y-109805166D01*
X207183086Y-109804960D01*
X207176743Y-109804782D01*
X207170360Y-109804631D01*
X207163934Y-109804507D01*
X207157463Y-109804407D01*
X207150944Y-109804333D01*
X207144377Y-109804281D01*
X207137757Y-109804252D01*
X207131084Y-109804244D01*
X207124355Y-109804256D01*
X207117568Y-109804288D01*
X207110720Y-109804338D01*
X207109684Y-109804348D01*
X207109682Y-109804348D01*
X207109557Y-109804349D01*
X207109537Y-109804349D01*
X207103810Y-109804405D01*
X207096835Y-109804489D01*
X207089793Y-109804588D01*
X207082682Y-109804701D01*
X207075499Y-109804828D01*
X207068243Y-109804967D01*
X207060911Y-109805118D01*
X207053501Y-109805279D01*
X207046010Y-109805449D01*
X207038438Y-109805627D01*
X207030780Y-109805813D01*
X207023036Y-109806006D01*
X207015203Y-109806204D01*
X207007278Y-109806406D01*
X206999261Y-109806611D01*
X206991147Y-109806819D01*
X206982936Y-109807029D01*
X206982932Y-109807029D01*
X206974625Y-109807239D01*
X206974620Y-109807239D01*
X206970418Y-109807343D01*
X206966216Y-109807448D01*
X206966211Y-109807446D01*
X206966211Y-109807448D01*
X206957693Y-109807656D01*
X206957685Y-109807656D01*
X206949068Y-109807861D01*
X206949061Y-109807861D01*
X206947575Y-109807896D01*
X206940335Y-109808063D01*
X206931490Y-109808260D01*
X206922533Y-109808452D01*
X206913459Y-109808637D01*
X206904268Y-109808815D01*
X206894958Y-109808984D01*
X206885525Y-109809144D01*
X206875968Y-109809293D01*
X206866284Y-109809431D01*
X206856472Y-109809556D01*
X206846529Y-109809668D01*
X206836453Y-109809765D01*
X206826242Y-109809847D01*
X206815893Y-109809912D01*
X206805404Y-109809960D01*
X206794774Y-109809989D01*
X206784000Y-109810000D01*
X206784000Y-109430000D01*
X206794290Y-109430010D01*
X206804450Y-109430042D01*
X206814482Y-109430093D01*
X206824386Y-109430162D01*
X206834164Y-109430249D01*
X206843820Y-109430351D01*
X206853354Y-109430468D01*
X206862769Y-109430599D01*
X206872066Y-109430743D01*
X206881247Y-109430898D01*
X206890314Y-109431063D01*
X206899269Y-109431237D01*
X206908114Y-109431418D01*
X206916851Y-109431607D01*
X206925481Y-109431800D01*
X206934007Y-109431998D01*
X206942430Y-109432199D01*
X206950753Y-109432402D01*
X206950753Y-109432404D01*
X206950757Y-109432402D01*
X206958974Y-109432606D01*
X206958976Y-109432606D01*
X206967100Y-109432809D01*
X206967102Y-109432809D01*
X206975134Y-109433011D01*
X206983072Y-109433210D01*
X206990918Y-109433405D01*
X206998675Y-109433595D01*
X207006345Y-109433778D01*
X207013928Y-109433954D01*
X207021428Y-109434122D01*
X207028846Y-109434279D01*
X207036183Y-109434426D01*
X207043443Y-109434560D01*
X207050626Y-109434681D01*
X207057734Y-109434787D01*
X207064770Y-109434878D01*
X207071735Y-109434952D01*
X207078631Y-109435008D01*
X207085460Y-109435044D01*
X207092224Y-109435061D01*
X207098925Y-109435055D01*
X207105564Y-109435027D01*
X207112144Y-109434975D01*
X207118667Y-109434898D01*
X207125133Y-109434794D01*
X207131546Y-109434663D01*
X207137907Y-109434504D01*
X207144217Y-109434315D01*
X207150479Y-109434094D01*
X207156653Y-109433844D01*
X207156695Y-109433842D01*
X207156721Y-109433841D01*
X207162867Y-109433556D01*
X207168996Y-109433236D01*
X207169441Y-109433210D01*
X207175003Y-109432885D01*
X207175027Y-109432883D01*
X207175084Y-109432880D01*
X207181133Y-109432487D01*
X207187146Y-109432056D01*
X207187145Y-109432056D01*
X207187162Y-109432055D01*
X207190559Y-109431788D01*
X207193123Y-109431586D01*
X207193140Y-109431585D01*
X207198307Y-109431141D01*
X207199067Y-109431076D01*
X207204980Y-109430524D01*
X207210863Y-109429929D01*
X207216718Y-109429291D01*
X207222548Y-109428607D01*
X207228354Y-109427877D01*
X207234139Y-109427100D01*
X207239903Y-109426274D01*
X207245648Y-109425398D01*
X207251378Y-109424472D01*
X207257093Y-109423493D01*
X207262795Y-109422461D01*
X207268487Y-109421375D01*
X207274162Y-109420234D01*
X207274170Y-109420232D01*
X207274224Y-109420221D01*
X207274237Y-109420218D01*
X207279846Y-109419034D01*
X207285517Y-109417777D01*
X207291184Y-109416461D01*
X207291521Y-109416379D01*
X207296851Y-109415084D01*
X207296858Y-109415082D01*
X207296872Y-109415079D01*
X207302518Y-109413646D01*
X207308187Y-109412146D01*
X207313810Y-109410595D01*
X207313861Y-109410581D01*
X207318614Y-109409218D01*
X207319493Y-109408966D01*
X207319541Y-109408952D01*
X207325228Y-109407256D01*
X207325252Y-109407249D01*
X207330926Y-109405493D01*
X207330936Y-109405490D01*
X207336556Y-109403687D01*
X207336575Y-109403681D01*
X207336636Y-109403661D01*
X207342318Y-109401774D01*
X207342359Y-109401760D01*
X207348098Y-109399787D01*
X207353855Y-109397743D01*
X207359630Y-109395625D01*
X207365427Y-109393433D01*
X207371247Y-109391166D01*
X207377092Y-109388821D01*
X207377119Y-109388810D01*
X207382897Y-109386427D01*
X207382928Y-109386414D01*
X207382964Y-109386399D01*
X207388864Y-109383897D01*
X207394795Y-109381315D01*
X207400759Y-109378652D01*
X207406757Y-109375906D01*
X207406785Y-109375893D01*
X207406809Y-109375882D01*
X207412791Y-109373076D01*
X207412797Y-109373073D01*
X207418863Y-109370161D01*
X207424975Y-109367160D01*
X207431129Y-109364072D01*
X207431154Y-109364059D01*
X207431169Y-109364052D01*
X207437289Y-109360915D01*
X207437312Y-109360902D01*
X207437327Y-109360895D01*
X207443570Y-109357628D01*
X207449861Y-109354271D01*
X207456201Y-109350821D01*
X207462044Y-109347583D01*
X207470940Y-109346571D01*
X207475244Y-109348862D01*
G37*
%TD.AperFunction*%
%TD*%
%TA.AperFunction,Conductor*%
%TO.N,/ANTENNA*%
G36*
X209497685Y-109363101D02*
G01*
X209501646Y-109365969D01*
X209739644Y-109629974D01*
X209593826Y-109751441D01*
X209466530Y-109857479D01*
X209457980Y-109860141D01*
X209453340Y-109858705D01*
X209448849Y-109856199D01*
X209448772Y-109856156D01*
X209443060Y-109853035D01*
X209437385Y-109850001D01*
X209431743Y-109847052D01*
X209426133Y-109844188D01*
X209420554Y-109841407D01*
X209415004Y-109838708D01*
X209409482Y-109836090D01*
X209403986Y-109833552D01*
X209398549Y-109831109D01*
X209398547Y-109831108D01*
X209398513Y-109831093D01*
X209393064Y-109828712D01*
X209387636Y-109826407D01*
X209382227Y-109824177D01*
X209376836Y-109822022D01*
X209371499Y-109819954D01*
X209371476Y-109819945D01*
X209371462Y-109819940D01*
X209366102Y-109817930D01*
X209360756Y-109815990D01*
X209360708Y-109815973D01*
X209359073Y-109815400D01*
X209355421Y-109814120D01*
X209350097Y-109812319D01*
X209344780Y-109810586D01*
X209339471Y-109808918D01*
X209339426Y-109808904D01*
X209334167Y-109807316D01*
X209328939Y-109805799D01*
X209328926Y-109805795D01*
X209328866Y-109805778D01*
X209328863Y-109805777D01*
X209325475Y-109804834D01*
X209323568Y-109804303D01*
X209318270Y-109802889D01*
X209312971Y-109801536D01*
X209312955Y-109801532D01*
X209312928Y-109801525D01*
X209308726Y-109800501D01*
X209307670Y-109800243D01*
X209302364Y-109799008D01*
X209302331Y-109799001D01*
X209302321Y-109798998D01*
X209299282Y-109798325D01*
X209297052Y-109797830D01*
X209291733Y-109796708D01*
X209286405Y-109795642D01*
X209281066Y-109794629D01*
X209279919Y-109794423D01*
X209275744Y-109793673D01*
X209275724Y-109793670D01*
X209275715Y-109793668D01*
X209270350Y-109792760D01*
X209264970Y-109791902D01*
X209259573Y-109791093D01*
X209259562Y-109791091D01*
X209254157Y-109790332D01*
X209248721Y-109789618D01*
X209243264Y-109788951D01*
X209237783Y-109788328D01*
X209232277Y-109787748D01*
X209230713Y-109787596D01*
X209230708Y-109787596D01*
X209226745Y-109787211D01*
X209221184Y-109786716D01*
X209215594Y-109786260D01*
X209209973Y-109785844D01*
X209204319Y-109785466D01*
X209198630Y-109785124D01*
X209192906Y-109784819D01*
X209187144Y-109784548D01*
X209181342Y-109784310D01*
X209175500Y-109784104D01*
X209169616Y-109783930D01*
X209163687Y-109783786D01*
X209157713Y-109783670D01*
X209151692Y-109783583D01*
X209145622Y-109783522D01*
X209139502Y-109783486D01*
X209133330Y-109783475D01*
X209127105Y-109783487D01*
X209120824Y-109783521D01*
X209114487Y-109783576D01*
X209108091Y-109783651D01*
X209101636Y-109783745D01*
X209095119Y-109783856D01*
X209088539Y-109783984D01*
X209081895Y-109784127D01*
X209075184Y-109784284D01*
X209068406Y-109784454D01*
X209061558Y-109784636D01*
X209054640Y-109784829D01*
X209047649Y-109785031D01*
X209040583Y-109785242D01*
X209033442Y-109785460D01*
X209026224Y-109785684D01*
X209018927Y-109785914D01*
X209011549Y-109786147D01*
X209004089Y-109786383D01*
X208996546Y-109786621D01*
X208988917Y-109786860D01*
X208981202Y-109787098D01*
X208973398Y-109787334D01*
X208965504Y-109787567D01*
X208957519Y-109787797D01*
X208949440Y-109788021D01*
X208941267Y-109788239D01*
X208932997Y-109788449D01*
X208924629Y-109788652D01*
X208916162Y-109788844D01*
X208907594Y-109789026D01*
X208898923Y-109789195D01*
X208890147Y-109789352D01*
X208881266Y-109789495D01*
X208872277Y-109789622D01*
X208863180Y-109789732D01*
X208853971Y-109789826D01*
X208844651Y-109789900D01*
X208835216Y-109789955D01*
X208825666Y-109789988D01*
X208816000Y-109790000D01*
X208816000Y-109410000D01*
X208826165Y-109410010D01*
X208836200Y-109410043D01*
X208846106Y-109410095D01*
X208855887Y-109410167D01*
X208865543Y-109410257D01*
X208875077Y-109410365D01*
X208884490Y-109410488D01*
X208893784Y-109410628D01*
X208902961Y-109410782D01*
X208912024Y-109410949D01*
X208920974Y-109411129D01*
X208929812Y-109411320D01*
X208938541Y-109411523D01*
X208947164Y-109411734D01*
X208955680Y-109411955D01*
X208964093Y-109412183D01*
X208972405Y-109412418D01*
X208980617Y-109412659D01*
X208988731Y-109412904D01*
X208996750Y-109413153D01*
X209004674Y-109413406D01*
X209012507Y-109413660D01*
X209020249Y-109413915D01*
X209027903Y-109414170D01*
X209035471Y-109414424D01*
X209042954Y-109414676D01*
X209050354Y-109414925D01*
X209057675Y-109415170D01*
X209064916Y-109415411D01*
X209072080Y-109415645D01*
X209079170Y-109415873D01*
X209086187Y-109416093D01*
X209093132Y-109416305D01*
X209100008Y-109416506D01*
X209106817Y-109416697D01*
X209113561Y-109416877D01*
X209120241Y-109417044D01*
X209126859Y-109417197D01*
X209133418Y-109417336D01*
X209139919Y-109417459D01*
X209146364Y-109417566D01*
X209152755Y-109417655D01*
X209159094Y-109417726D01*
X209165383Y-109417777D01*
X209171624Y-109417809D01*
X209177818Y-109417819D01*
X209183968Y-109417806D01*
X209190075Y-109417771D01*
X209196142Y-109417711D01*
X209202170Y-109417626D01*
X209208160Y-109417515D01*
X209214116Y-109417377D01*
X209220039Y-109417211D01*
X209225931Y-109417016D01*
X209231794Y-109416791D01*
X209237629Y-109416535D01*
X209243439Y-109416247D01*
X209249225Y-109415926D01*
X209254990Y-109415571D01*
X209260735Y-109415182D01*
X209266462Y-109414756D01*
X209272173Y-109414294D01*
X209277871Y-109413794D01*
X209283556Y-109413256D01*
X209289231Y-109412678D01*
X209294897Y-109412059D01*
X209300557Y-109411398D01*
X209304636Y-109410891D01*
X209304639Y-109410891D01*
X209304950Y-109410852D01*
X209304954Y-109410852D01*
X209305514Y-109410782D01*
X209306213Y-109410695D01*
X209311866Y-109409949D01*
X209317519Y-109409158D01*
X209323173Y-109408322D01*
X209328829Y-109407439D01*
X209334491Y-109406508D01*
X209340160Y-109405530D01*
X209345838Y-109404502D01*
X209345839Y-109404502D01*
X209351526Y-109403424D01*
X209357227Y-109402294D01*
X209362942Y-109401112D01*
X209368674Y-109399877D01*
X209374425Y-109398588D01*
X209380195Y-109397244D01*
X209383381Y-109396474D01*
X209385914Y-109395862D01*
X209385923Y-109395860D01*
X209385988Y-109395844D01*
X209391805Y-109394387D01*
X209391853Y-109394374D01*
X209391884Y-109394367D01*
X209397647Y-109392871D01*
X209403492Y-109391304D01*
X209403554Y-109391287D01*
X209409418Y-109389662D01*
X209410688Y-109389299D01*
X209415350Y-109387967D01*
X209419391Y-109386777D01*
X209421293Y-109386217D01*
X209421316Y-109386210D01*
X209427317Y-109384390D01*
X209433356Y-109382506D01*
X209439433Y-109380557D01*
X209445552Y-109378543D01*
X209451715Y-109376462D01*
X209457922Y-109374313D01*
X209464176Y-109372096D01*
X209470478Y-109369809D01*
X209476832Y-109367451D01*
X209483238Y-109365022D01*
X209488732Y-109362894D01*
X209497685Y-109363101D01*
G37*
%TD.AperFunction*%
%TD*%
%TA.AperFunction,Conductor*%
%TO.N,/ANTENNA*%
G36*
X208720841Y-109337979D02*
G01*
X208726984Y-109340879D01*
X208733591Y-109343942D01*
X208740141Y-109346924D01*
X208746635Y-109349823D01*
X208753075Y-109352643D01*
X208759463Y-109355383D01*
X208765802Y-109358045D01*
X208772092Y-109360629D01*
X208778337Y-109363138D01*
X208784538Y-109365571D01*
X208790697Y-109367930D01*
X208796816Y-109370216D01*
X208802898Y-109372431D01*
X208808944Y-109374574D01*
X208814956Y-109376648D01*
X208820936Y-109378653D01*
X208820947Y-109378657D01*
X208826887Y-109380590D01*
X208832810Y-109382461D01*
X208838708Y-109384266D01*
X208844544Y-109385996D01*
X208844553Y-109385998D01*
X208844582Y-109386007D01*
X208850434Y-109387684D01*
X208850473Y-109387695D01*
X208850504Y-109387704D01*
X208856267Y-109389299D01*
X208862082Y-109390852D01*
X208867829Y-109392332D01*
X208867842Y-109392335D01*
X208867881Y-109392345D01*
X208873667Y-109393779D01*
X208879442Y-109395155D01*
X208885207Y-109396474D01*
X208890964Y-109397736D01*
X208896716Y-109398944D01*
X208902465Y-109400098D01*
X208908212Y-109401198D01*
X208913960Y-109402248D01*
X208914012Y-109402257D01*
X208919238Y-109403164D01*
X208919710Y-109403246D01*
X208925465Y-109404194D01*
X208925501Y-109404200D01*
X208927434Y-109404502D01*
X208931226Y-109405095D01*
X208936996Y-109405947D01*
X208942777Y-109406753D01*
X208942783Y-109406754D01*
X208942805Y-109406757D01*
X208948570Y-109407513D01*
X208954379Y-109408229D01*
X208960203Y-109408902D01*
X208966047Y-109409533D01*
X208966082Y-109409537D01*
X208969324Y-109409862D01*
X208971911Y-109410122D01*
X208977798Y-109410671D01*
X208983710Y-109411181D01*
X208989643Y-109411653D01*
X208989649Y-109411653D01*
X208995616Y-109412088D01*
X209001614Y-109412487D01*
X209007645Y-109412851D01*
X209013648Y-109413179D01*
X209013656Y-109413179D01*
X209013711Y-109413182D01*
X209019814Y-109413479D01*
X209025955Y-109413745D01*
X209032138Y-109413981D01*
X209038363Y-109414187D01*
X209044634Y-109414364D01*
X209050951Y-109414514D01*
X209057317Y-109414637D01*
X209063734Y-109414735D01*
X209070205Y-109414809D01*
X209076730Y-109414859D01*
X209083312Y-109414888D01*
X209089953Y-109414895D01*
X209096656Y-109414883D01*
X209103421Y-109414851D01*
X209110252Y-109414801D01*
X209117150Y-109414735D01*
X209124116Y-109414652D01*
X209131154Y-109414555D01*
X209138265Y-109414445D01*
X209145452Y-109414321D01*
X209152715Y-109414186D01*
X209160058Y-109414041D01*
X209167482Y-109413886D01*
X209174989Y-109413723D01*
X209182581Y-109413552D01*
X209190261Y-109413375D01*
X209198030Y-109413193D01*
X209205890Y-109413007D01*
X209213844Y-109412818D01*
X209221893Y-109412626D01*
X209221896Y-109412626D01*
X209230039Y-109412434D01*
X209230041Y-109412434D01*
X209238285Y-109412241D01*
X209238291Y-109412241D01*
X209246632Y-109412050D01*
X209246638Y-109412050D01*
X209255083Y-109411861D01*
X209255092Y-109411861D01*
X209263639Y-109411676D01*
X209263646Y-109411676D01*
X209267008Y-109411605D01*
X209272292Y-109411494D01*
X209272302Y-109411498D01*
X209272302Y-109411494D01*
X209281075Y-109411318D01*
X209281086Y-109411318D01*
X209289959Y-109411148D01*
X209289972Y-109411148D01*
X209298957Y-109410986D01*
X209298972Y-109410986D01*
X209301336Y-109410946D01*
X209304639Y-109410891D01*
X209304643Y-109410891D01*
X209308070Y-109410833D01*
X209317301Y-109410689D01*
X209326651Y-109410555D01*
X209336123Y-109410434D01*
X209345719Y-109410325D01*
X209355440Y-109410230D01*
X209365288Y-109410150D01*
X209375267Y-109410086D01*
X209385377Y-109410038D01*
X209395620Y-109410009D01*
X209406000Y-109410000D01*
X209406000Y-109790000D01*
X209395620Y-109789990D01*
X209385377Y-109789961D01*
X209375267Y-109789913D01*
X209365288Y-109789849D01*
X209355440Y-109789769D01*
X209345719Y-109789674D01*
X209336123Y-109789565D01*
X209326651Y-109789444D01*
X209317301Y-109789310D01*
X209308070Y-109789166D01*
X209298957Y-109789013D01*
X209289959Y-109788851D01*
X209281075Y-109788681D01*
X209272302Y-109788505D01*
X209263639Y-109788323D01*
X209255083Y-109788138D01*
X209246632Y-109787949D01*
X209238285Y-109787758D01*
X209230306Y-109787571D01*
X209230302Y-109787571D01*
X209230039Y-109787565D01*
X209221896Y-109787373D01*
X209221893Y-109787373D01*
X209213844Y-109787181D01*
X209205890Y-109786992D01*
X209198030Y-109786806D01*
X209190261Y-109786624D01*
X209182581Y-109786447D01*
X209174989Y-109786276D01*
X209167482Y-109786113D01*
X209160058Y-109785958D01*
X209152715Y-109785813D01*
X209145452Y-109785678D01*
X209138265Y-109785554D01*
X209131154Y-109785444D01*
X209124116Y-109785347D01*
X209117150Y-109785264D01*
X209110252Y-109785198D01*
X209103421Y-109785148D01*
X209096656Y-109785116D01*
X209089953Y-109785104D01*
X209083312Y-109785111D01*
X209076730Y-109785140D01*
X209070205Y-109785190D01*
X209063734Y-109785264D01*
X209057317Y-109785362D01*
X209050951Y-109785485D01*
X209044634Y-109785635D01*
X209038363Y-109785812D01*
X209032138Y-109786018D01*
X209025955Y-109786254D01*
X209019814Y-109786520D01*
X209013711Y-109786817D01*
X209013656Y-109786820D01*
X209013648Y-109786820D01*
X209007645Y-109787148D01*
X209001614Y-109787512D01*
X208995616Y-109787911D01*
X208989649Y-109788346D01*
X208989643Y-109788346D01*
X208983710Y-109788818D01*
X208977798Y-109789328D01*
X208971911Y-109789877D01*
X208969324Y-109790137D01*
X208966082Y-109790462D01*
X208966047Y-109790466D01*
X208960203Y-109791097D01*
X208954379Y-109791770D01*
X208948570Y-109792486D01*
X208942805Y-109793242D01*
X208942783Y-109793245D01*
X208942777Y-109793246D01*
X208936996Y-109794052D01*
X208931226Y-109794904D01*
X208928231Y-109795372D01*
X208925501Y-109795799D01*
X208925465Y-109795805D01*
X208919710Y-109796753D01*
X208913960Y-109797751D01*
X208908212Y-109798801D01*
X208902465Y-109799901D01*
X208896716Y-109801055D01*
X208890964Y-109802263D01*
X208885207Y-109803525D01*
X208879442Y-109804844D01*
X208873667Y-109806220D01*
X208867881Y-109807654D01*
X208867842Y-109807664D01*
X208867829Y-109807667D01*
X208862082Y-109809147D01*
X208856267Y-109810700D01*
X208850504Y-109812295D01*
X208850473Y-109812304D01*
X208850434Y-109812315D01*
X208844582Y-109813992D01*
X208844553Y-109814001D01*
X208844544Y-109814003D01*
X208838708Y-109815733D01*
X208832810Y-109817538D01*
X208826887Y-109819409D01*
X208820947Y-109821342D01*
X208820936Y-109821346D01*
X208814956Y-109823351D01*
X208808944Y-109825425D01*
X208802898Y-109827568D01*
X208796816Y-109829783D01*
X208790697Y-109832069D01*
X208784538Y-109834428D01*
X208778337Y-109836861D01*
X208772092Y-109839370D01*
X208765802Y-109841954D01*
X208759463Y-109844616D01*
X208753075Y-109847356D01*
X208746635Y-109850176D01*
X208740141Y-109853075D01*
X208733591Y-109856057D01*
X208726984Y-109859120D01*
X208720841Y-109862020D01*
X208711896Y-109862453D01*
X208707736Y-109859873D01*
X208446269Y-109608433D01*
X208442681Y-109600229D01*
X208446269Y-109591567D01*
X208707737Y-109340126D01*
X208716076Y-109336861D01*
X208720841Y-109337979D01*
G37*
%TD.AperFunction*%
%TD*%
%TA.AperFunction,Conductor*%
%TO.N,/ANTENNA*%
G36*
X212472566Y-109100092D02*
G01*
X212472664Y-109100093D01*
X212494707Y-109100367D01*
X212494807Y-109100369D01*
X212516286Y-109100818D01*
X212516387Y-109100820D01*
X212537610Y-109101448D01*
X212537713Y-109101452D01*
X212558288Y-109102243D01*
X212558394Y-109102247D01*
X212578744Y-109103214D01*
X212578851Y-109103220D01*
X212598580Y-109104338D01*
X212598689Y-109104344D01*
X212618168Y-109105631D01*
X212618280Y-109105639D01*
X212637288Y-109107077D01*
X212637400Y-109107086D01*
X212656085Y-109108680D01*
X212656198Y-109108691D01*
X212674327Y-109110416D01*
X212674444Y-109110427D01*
X212692393Y-109112316D01*
X212692509Y-109112329D01*
X212710057Y-109114354D01*
X212715999Y-109115101D01*
X212727311Y-109116524D01*
X212727430Y-109116540D01*
X212741473Y-109118452D01*
X212744222Y-109118827D01*
X212744305Y-109118838D01*
X212747703Y-109119337D01*
X212760763Y-109121254D01*
X212760883Y-109121272D01*
X212773954Y-109123329D01*
X212777110Y-109123826D01*
X212777158Y-109123834D01*
X212783482Y-109124898D01*
X212793034Y-109126506D01*
X212793154Y-109126527D01*
X212808735Y-109129317D01*
X212808858Y-109129340D01*
X212824114Y-109132240D01*
X212839132Y-109135259D01*
X212839232Y-109135280D01*
X212853919Y-109138395D01*
X212854021Y-109138417D01*
X212858835Y-109139491D01*
X212868424Y-109141631D01*
X212868544Y-109141658D01*
X212882801Y-109144997D01*
X212896830Y-109148437D01*
X212910576Y-109151958D01*
X212910648Y-109151977D01*
X212924185Y-109155593D01*
X212935799Y-109158820D01*
X212937500Y-109159293D01*
X212937611Y-109159325D01*
X212950607Y-109163075D01*
X212950715Y-109163107D01*
X212963495Y-109166929D01*
X212963600Y-109166960D01*
X212976345Y-109170902D01*
X212976448Y-109170935D01*
X212988848Y-109174896D01*
X212988947Y-109174928D01*
X213001207Y-109178965D01*
X213001302Y-109178996D01*
X213013533Y-109183139D01*
X213013624Y-109183171D01*
X213025525Y-109187312D01*
X213025612Y-109187342D01*
X213037548Y-109191601D01*
X213037630Y-109191631D01*
X213049352Y-109195912D01*
X213049429Y-109195941D01*
X213060958Y-109200244D01*
X213061031Y-109200271D01*
X213072596Y-109204675D01*
X213072662Y-109204701D01*
X213083995Y-109209096D01*
X213084047Y-109209146D01*
X213084057Y-109209120D01*
X213095422Y-109213601D01*
X213095478Y-109213624D01*
X213106701Y-109218117D01*
X213106751Y-109218137D01*
X213117862Y-109222644D01*
X213117906Y-109222662D01*
X213129004Y-109227217D01*
X213129043Y-109227233D01*
X213140091Y-109231814D01*
X213140123Y-109231827D01*
X213151155Y-109236439D01*
X213151180Y-109236450D01*
X213162130Y-109241058D01*
X213162150Y-109241066D01*
X213173115Y-109245704D01*
X213173128Y-109245710D01*
X213184062Y-109250350D01*
X213195000Y-109255000D01*
X213205937Y-109259649D01*
X213216884Y-109264295D01*
X213227849Y-109268933D01*
X213238844Y-109273560D01*
X213249876Y-109278172D01*
X213260956Y-109282766D01*
X213272093Y-109287337D01*
X213283297Y-109291882D01*
X213294577Y-109296398D01*
X213305942Y-109300880D01*
X213317403Y-109305324D01*
X213328968Y-109309728D01*
X213340647Y-109314087D01*
X213352451Y-109318398D01*
X213364387Y-109322657D01*
X213376466Y-109326860D01*
X213388697Y-109331003D01*
X213401090Y-109335084D01*
X213413654Y-109339097D01*
X213426399Y-109343039D01*
X213439335Y-109346908D01*
X213452470Y-109350698D01*
X213465814Y-109354406D01*
X213479377Y-109358029D01*
X213493169Y-109361562D01*
X213507198Y-109365002D01*
X213507222Y-109365008D01*
X213507239Y-109365012D01*
X213514755Y-109366772D01*
X213521475Y-109368346D01*
X213536009Y-109371589D01*
X213536059Y-109371600D01*
X213548750Y-109374291D01*
X213550809Y-109374728D01*
X213550869Y-109374740D01*
X213565865Y-109377756D01*
X213565909Y-109377765D01*
X213581246Y-109380679D01*
X213596903Y-109383483D01*
X213596916Y-109383485D01*
X213596948Y-109383491D01*
X213612864Y-109386169D01*
X213629138Y-109388731D01*
X213645737Y-109391167D01*
X213662668Y-109393473D01*
X213679942Y-109395645D01*
X213697568Y-109397679D01*
X213715495Y-109399566D01*
X213715555Y-109399572D01*
X213733914Y-109401320D01*
X213733954Y-109401323D01*
X213733960Y-109401324D01*
X213752627Y-109402916D01*
X213752673Y-109402920D01*
X213771782Y-109404365D01*
X213791310Y-109405655D01*
X213811241Y-109406785D01*
X213811248Y-109406785D01*
X213821426Y-109407268D01*
X213831534Y-109407749D01*
X213831558Y-109407750D01*
X213831605Y-109407752D01*
X213852389Y-109408551D01*
X213852398Y-109408551D01*
X213852410Y-109408552D01*
X213873536Y-109409177D01*
X213873554Y-109409177D01*
X213873612Y-109409179D01*
X213895270Y-109409632D01*
X213895281Y-109409632D01*
X213917407Y-109409907D01*
X213928348Y-109409952D01*
X213936607Y-109413413D01*
X213940000Y-109421652D01*
X213940000Y-109778347D01*
X213936573Y-109786620D01*
X213928348Y-109790047D01*
X213917407Y-109790092D01*
X213895281Y-109790367D01*
X213895270Y-109790367D01*
X213873612Y-109790820D01*
X213873554Y-109790822D01*
X213873536Y-109790822D01*
X213852410Y-109791447D01*
X213852398Y-109791448D01*
X213852389Y-109791448D01*
X213831605Y-109792247D01*
X213831558Y-109792249D01*
X213831534Y-109792250D01*
X213821427Y-109792730D01*
X213811248Y-109793214D01*
X213811241Y-109793214D01*
X213791310Y-109794344D01*
X213771782Y-109795634D01*
X213752653Y-109797081D01*
X213733958Y-109798676D01*
X213733948Y-109798677D01*
X213733914Y-109798680D01*
X213715555Y-109800427D01*
X213715502Y-109800433D01*
X213715486Y-109800434D01*
X213697568Y-109802320D01*
X213679942Y-109804354D01*
X213662668Y-109806526D01*
X213645737Y-109808832D01*
X213629138Y-109811268D01*
X213612864Y-109813830D01*
X213596903Y-109816516D01*
X213581246Y-109819320D01*
X213565885Y-109822240D01*
X213565855Y-109822246D01*
X213550852Y-109825262D01*
X213550809Y-109825271D01*
X213545123Y-109826477D01*
X213536059Y-109828399D01*
X213536009Y-109828410D01*
X213521475Y-109831653D01*
X213514755Y-109833227D01*
X213507239Y-109834987D01*
X213507222Y-109834991D01*
X213507198Y-109834997D01*
X213493169Y-109838437D01*
X213479377Y-109841970D01*
X213465814Y-109845593D01*
X213452470Y-109849301D01*
X213439335Y-109853091D01*
X213426399Y-109856960D01*
X213413654Y-109860902D01*
X213401090Y-109864915D01*
X213388697Y-109868996D01*
X213376466Y-109873139D01*
X213364387Y-109877342D01*
X213352451Y-109881601D01*
X213340647Y-109885912D01*
X213328968Y-109890271D01*
X213317403Y-109894675D01*
X213305942Y-109899120D01*
X213294577Y-109903601D01*
X213283297Y-109908117D01*
X213272093Y-109912662D01*
X213260956Y-109917233D01*
X213249876Y-109921827D01*
X213238844Y-109926439D01*
X213227849Y-109931066D01*
X213216884Y-109935704D01*
X213205937Y-109940350D01*
X213205936Y-109940350D01*
X213195000Y-109944999D01*
X213184062Y-109949648D01*
X213184056Y-109949651D01*
X213173128Y-109954289D01*
X213173115Y-109954295D01*
X213162150Y-109958933D01*
X213162130Y-109958941D01*
X213151180Y-109963549D01*
X213151155Y-109963560D01*
X213140123Y-109968172D01*
X213129043Y-109972766D01*
X213117906Y-109977337D01*
X213106751Y-109981862D01*
X213106702Y-109981882D01*
X213095422Y-109986398D01*
X213095365Y-109986420D01*
X213084119Y-109990855D01*
X213084057Y-109990880D01*
X213072596Y-109995324D01*
X213072530Y-109995349D01*
X213061031Y-109999728D01*
X213060958Y-109999755D01*
X213049429Y-110004058D01*
X213049352Y-110004087D01*
X213037630Y-110008368D01*
X213037548Y-110008398D01*
X213025612Y-110012657D01*
X213025525Y-110012687D01*
X213013624Y-110016828D01*
X213013533Y-110016860D01*
X213001302Y-110021003D01*
X213001207Y-110021034D01*
X212988947Y-110025071D01*
X212988848Y-110025103D01*
X212976448Y-110029064D01*
X212976345Y-110029097D01*
X212963600Y-110033039D01*
X212963495Y-110033070D01*
X212950715Y-110036892D01*
X212950607Y-110036924D01*
X212937611Y-110040674D01*
X212937500Y-110040706D01*
X212924195Y-110044403D01*
X212924148Y-110044416D01*
X212910648Y-110048022D01*
X212910576Y-110048041D01*
X212896830Y-110051562D01*
X212886664Y-110054055D01*
X212882919Y-110054973D01*
X212882801Y-110055002D01*
X212868544Y-110058341D01*
X212868424Y-110058368D01*
X212858835Y-110060508D01*
X212854021Y-110061582D01*
X212853919Y-110061604D01*
X212839250Y-110064715D01*
X212839130Y-110064740D01*
X212824114Y-110067760D01*
X212809095Y-110070614D01*
X212808874Y-110070656D01*
X212808752Y-110070679D01*
X212793154Y-110073472D01*
X212793034Y-110073493D01*
X212783482Y-110075101D01*
X212777158Y-110076165D01*
X212777110Y-110076173D01*
X212773954Y-110076670D01*
X212760883Y-110078727D01*
X212760763Y-110078745D01*
X212747703Y-110080662D01*
X212744305Y-110081161D01*
X212744222Y-110081172D01*
X212741473Y-110081547D01*
X212727430Y-110083459D01*
X212727311Y-110083475D01*
X212715999Y-110084898D01*
X212710057Y-110085645D01*
X212692509Y-110087670D01*
X212692392Y-110087683D01*
X212674439Y-110089572D01*
X212674324Y-110089583D01*
X212656200Y-110091309D01*
X212656085Y-110091320D01*
X212637346Y-110092918D01*
X212628050Y-110093621D01*
X212618279Y-110094360D01*
X212618168Y-110094368D01*
X212598689Y-110095655D01*
X212598580Y-110095661D01*
X212578851Y-110096779D01*
X212578744Y-110096785D01*
X212558394Y-110097752D01*
X212558288Y-110097756D01*
X212537713Y-110098547D01*
X212537610Y-110098551D01*
X212516387Y-110099179D01*
X212516286Y-110099181D01*
X212494807Y-110099630D01*
X212494707Y-110099632D01*
X212472664Y-110099906D01*
X212472567Y-110099907D01*
X212464523Y-110099940D01*
X212450000Y-110100000D01*
X212200000Y-109600000D01*
X212446751Y-109106498D01*
X212453516Y-109100630D01*
X212457263Y-109100030D01*
X212472566Y-109100092D01*
G37*
%TD.AperFunction*%
%TD*%
%TA.AperFunction,Conductor*%
%TO.N,GND*%
G36*
X206550330Y-107005003D02*
G01*
X206690957Y-107045860D01*
X206690963Y-107045861D01*
X206697134Y-107047654D01*
X206718812Y-107049360D01*
X206730840Y-107050307D01*
X206730849Y-107050307D01*
X206733297Y-107050500D01*
X207184866Y-107050500D01*
X207637166Y-107050499D01*
X207656374Y-107048988D01*
X207666912Y-107048159D01*
X207666913Y-107048159D01*
X207673330Y-107047654D01*
X207820133Y-107005003D01*
X207855287Y-107000000D01*
X210865177Y-107000000D01*
X210900330Y-107005003D01*
X211040957Y-107045860D01*
X211040963Y-107045861D01*
X211047134Y-107047654D01*
X211068812Y-107049360D01*
X211080840Y-107050307D01*
X211080849Y-107050307D01*
X211083297Y-107050500D01*
X211534866Y-107050500D01*
X211987166Y-107050499D01*
X212006374Y-107048988D01*
X212016912Y-107048159D01*
X212016913Y-107048159D01*
X212023330Y-107047654D01*
X212170133Y-107005003D01*
X212205287Y-107000000D01*
X212968689Y-107000000D01*
X213036810Y-107020002D01*
X213050519Y-107030189D01*
X213068868Y-107045860D01*
X213174556Y-107136126D01*
X213362448Y-107251267D01*
X213367018Y-107253160D01*
X213367020Y-107253161D01*
X213561466Y-107333703D01*
X213566039Y-107335597D01*
X213780315Y-107387040D01*
X213986831Y-107403293D01*
X213988028Y-107403434D01*
X213988629Y-107403434D01*
X213991755Y-107403680D01*
X214000000Y-107404986D01*
X214021689Y-107401551D01*
X214041398Y-107400000D01*
X218958602Y-107400000D01*
X218978311Y-107401551D01*
X219000000Y-107404986D01*
X219009794Y-107403435D01*
X219019708Y-107403435D01*
X219019708Y-107404333D01*
X219035351Y-107403984D01*
X219119407Y-107413454D01*
X219146911Y-107419731D01*
X219246933Y-107454730D01*
X219272349Y-107466970D01*
X219324916Y-107500000D01*
X219362077Y-107523350D01*
X219384135Y-107540942D01*
X219459058Y-107615865D01*
X219476650Y-107637923D01*
X219533030Y-107727650D01*
X219545270Y-107753067D01*
X219580269Y-107853089D01*
X219586546Y-107880593D01*
X219596016Y-107964649D01*
X219595667Y-107980292D01*
X219596565Y-107980292D01*
X219596565Y-107990206D01*
X219595014Y-108000000D01*
X219596565Y-108009792D01*
X219598449Y-108021687D01*
X219600000Y-108041398D01*
X219600000Y-113958602D01*
X219598449Y-113978311D01*
X219595014Y-114000000D01*
X219596565Y-114009794D01*
X219596565Y-114019708D01*
X219595667Y-114019708D01*
X219596016Y-114035351D01*
X219586546Y-114119407D01*
X219580269Y-114146911D01*
X219545270Y-114246933D01*
X219533030Y-114272350D01*
X219476650Y-114362077D01*
X219459058Y-114384135D01*
X219384135Y-114459058D01*
X219362077Y-114476650D01*
X219272350Y-114533030D01*
X219246933Y-114545270D01*
X219146911Y-114580269D01*
X219119407Y-114586546D01*
X219035351Y-114596016D01*
X219019708Y-114595667D01*
X219019708Y-114596565D01*
X219009794Y-114596565D01*
X219000000Y-114595014D01*
X218978311Y-114598449D01*
X218958602Y-114600000D01*
X204126000Y-114600000D01*
X204057879Y-114579998D01*
X204011386Y-114526342D01*
X204000000Y-114474000D01*
X204000000Y-114245731D01*
X204020002Y-114177610D01*
X204073658Y-114131117D01*
X204091257Y-114125812D01*
X204091078Y-114125261D01*
X204100507Y-114122198D01*
X204110304Y-114120646D01*
X204223342Y-114063050D01*
X204313050Y-113973342D01*
X204370646Y-113860304D01*
X204385500Y-113766519D01*
X204385499Y-112711500D01*
X204405501Y-112643379D01*
X204459157Y-112596886D01*
X204511499Y-112585500D01*
X205521831Y-112585499D01*
X205566518Y-112585499D01*
X205571412Y-112584724D01*
X205650506Y-112572198D01*
X205650508Y-112572197D01*
X205660304Y-112570646D01*
X205773342Y-112513050D01*
X205863050Y-112423342D01*
X205920646Y-112310304D01*
X205935500Y-112216519D01*
X205935499Y-111783482D01*
X205934724Y-111778586D01*
X205925400Y-111719710D01*
X205925400Y-111680292D01*
X205934725Y-111621412D01*
X205935500Y-111616519D01*
X205935499Y-111183482D01*
X205920646Y-111089696D01*
X205863050Y-110976658D01*
X205773342Y-110886950D01*
X205660304Y-110829354D01*
X205650515Y-110827804D01*
X205650513Y-110827803D01*
X205622282Y-110823332D01*
X205566519Y-110814500D01*
X204950125Y-110814500D01*
X204333482Y-110814501D01*
X204328589Y-110815276D01*
X204328588Y-110815276D01*
X204249494Y-110827802D01*
X204249492Y-110827803D01*
X204239696Y-110829354D01*
X204184653Y-110857400D01*
X204183203Y-110858139D01*
X204113427Y-110871243D01*
X204047642Y-110844543D01*
X204006735Y-110786516D01*
X204000000Y-110745872D01*
X204000000Y-110634786D01*
X216039717Y-110634786D01*
X216039724Y-110634790D01*
X216040279Y-110633899D01*
X216040256Y-110633925D01*
X216039717Y-110634786D01*
X204000000Y-110634786D01*
X204000000Y-110254128D01*
X204020002Y-110186007D01*
X204073658Y-110139514D01*
X204143932Y-110129410D01*
X204183202Y-110141861D01*
X204239696Y-110170646D01*
X204249485Y-110172196D01*
X204249487Y-110172197D01*
X204276849Y-110176530D01*
X204333481Y-110185500D01*
X204865060Y-110185500D01*
X204881504Y-110186578D01*
X204889382Y-110187615D01*
X204911299Y-110190500D01*
X206060722Y-110190500D01*
X206128843Y-110210502D01*
X206136901Y-110216137D01*
X206162172Y-110235319D01*
X206299860Y-110289833D01*
X206388005Y-110300500D01*
X206599860Y-110300500D01*
X206811994Y-110300499D01*
X206815751Y-110300044D01*
X206815757Y-110300044D01*
X206892107Y-110290805D01*
X206900140Y-110289833D01*
X206907663Y-110286855D01*
X206907665Y-110286854D01*
X206986038Y-110255824D01*
X207037828Y-110235319D01*
X207042378Y-110231865D01*
X207110195Y-110216165D01*
X207179058Y-110241588D01*
X207183224Y-110244750D01*
X207195956Y-110254414D01*
X207203937Y-110257574D01*
X207203939Y-110257575D01*
X207270018Y-110283737D01*
X207335555Y-110309685D01*
X207343593Y-110310658D01*
X207343594Y-110310658D01*
X207363998Y-110313127D01*
X207424926Y-110320500D01*
X207805074Y-110320500D01*
X207866002Y-110313127D01*
X207886406Y-110310658D01*
X207886407Y-110310658D01*
X207894445Y-110309685D01*
X207951918Y-110286930D01*
X208026059Y-110257576D01*
X208026062Y-110257574D01*
X208034044Y-110254414D01*
X208039161Y-110250530D01*
X208107309Y-110234749D01*
X208160704Y-110250427D01*
X208165956Y-110254414D01*
X208173938Y-110257574D01*
X208173941Y-110257576D01*
X208248082Y-110286930D01*
X208305555Y-110309685D01*
X208313593Y-110310658D01*
X208313594Y-110310658D01*
X208333998Y-110313127D01*
X208394926Y-110320500D01*
X208775074Y-110320500D01*
X208836002Y-110313127D01*
X208856406Y-110310658D01*
X208856407Y-110310658D01*
X208864445Y-110309685D01*
X208929982Y-110283737D01*
X208996061Y-110257575D01*
X208996063Y-110257574D01*
X209004044Y-110254414D01*
X209016776Y-110244750D01*
X209020942Y-110241588D01*
X209087296Y-110216336D01*
X209157648Y-110231885D01*
X209162172Y-110235319D01*
X209299860Y-110289833D01*
X209388005Y-110300500D01*
X209599860Y-110300500D01*
X209811994Y-110300499D01*
X209815751Y-110300044D01*
X209815757Y-110300044D01*
X209892107Y-110290805D01*
X209900140Y-110289833D01*
X209907663Y-110286855D01*
X209907665Y-110286854D01*
X210024219Y-110240707D01*
X210037828Y-110235319D01*
X210044672Y-110230124D01*
X210050701Y-110226727D01*
X210112555Y-110210500D01*
X210997854Y-110210500D01*
X211000305Y-110210524D01*
X211002857Y-110210574D01*
X211006822Y-110210651D01*
X211007721Y-110210672D01*
X211017388Y-110210938D01*
X211024795Y-110211143D01*
X211025825Y-110211176D01*
X211037618Y-110211598D01*
X211042292Y-110211766D01*
X211043142Y-110211799D01*
X211059414Y-110212518D01*
X211060451Y-110212569D01*
X211076079Y-110213395D01*
X211077162Y-110213457D01*
X211091945Y-110214366D01*
X211093056Y-110214439D01*
X211107766Y-110215474D01*
X211108898Y-110215559D01*
X211118681Y-110216336D01*
X211122986Y-110216678D01*
X211123939Y-110216757D01*
X211137881Y-110217992D01*
X211138815Y-110218080D01*
X211152101Y-110219381D01*
X211153278Y-110219502D01*
X211166079Y-110220877D01*
X211167255Y-110221009D01*
X211179690Y-110222463D01*
X211180868Y-110222606D01*
X211192886Y-110224129D01*
X211194060Y-110224283D01*
X211205707Y-110225873D01*
X211206916Y-110226044D01*
X211218255Y-110227704D01*
X211219478Y-110227889D01*
X211225186Y-110228782D01*
X211230389Y-110229596D01*
X211231539Y-110229782D01*
X211236497Y-110230607D01*
X211242387Y-110231588D01*
X211243597Y-110231796D01*
X211253884Y-110233613D01*
X211254896Y-110233797D01*
X211265217Y-110235725D01*
X211266291Y-110235932D01*
X211276307Y-110237906D01*
X211277388Y-110238124D01*
X211287159Y-110240150D01*
X211288098Y-110240350D01*
X211297402Y-110242374D01*
X211297563Y-110242409D01*
X211298747Y-110242673D01*
X211307867Y-110244750D01*
X211308994Y-110245012D01*
X211318327Y-110247232D01*
X211319144Y-110247430D01*
X211328190Y-110249673D01*
X211329244Y-110249940D01*
X211337970Y-110252192D01*
X211339063Y-110252480D01*
X211347701Y-110254794D01*
X211348686Y-110255063D01*
X211357318Y-110257458D01*
X211358391Y-110257761D01*
X211366760Y-110260163D01*
X211367806Y-110260468D01*
X211376244Y-110262969D01*
X211377235Y-110263267D01*
X211385715Y-110265856D01*
X211386508Y-110266102D01*
X211395096Y-110268800D01*
X211395885Y-110269052D01*
X211404380Y-110271794D01*
X211405094Y-110272027D01*
X211413783Y-110274902D01*
X211414458Y-110275128D01*
X211423191Y-110278085D01*
X211423727Y-110278269D01*
X211431313Y-110280895D01*
X211432351Y-110281254D01*
X211433023Y-110281488D01*
X211441845Y-110284601D01*
X211442474Y-110284826D01*
X211451398Y-110288035D01*
X211451978Y-110288245D01*
X211461148Y-110291596D01*
X211461671Y-110291789D01*
X211470484Y-110295060D01*
X211470974Y-110295243D01*
X211480477Y-110298815D01*
X211480796Y-110298935D01*
X211489753Y-110302342D01*
X211490406Y-110302591D01*
X211490779Y-110302734D01*
X211500597Y-110306505D01*
X211500943Y-110306639D01*
X211505986Y-110308593D01*
X211510776Y-110310449D01*
X211521110Y-110314478D01*
X211521289Y-110314616D01*
X211521312Y-110314557D01*
X211531777Y-110318658D01*
X211531771Y-110318674D01*
X211531911Y-110318711D01*
X211542586Y-110322908D01*
X211553410Y-110327171D01*
X211553440Y-110327183D01*
X211564479Y-110331530D01*
X211564416Y-110331690D01*
X211564608Y-110331771D01*
X211564673Y-110331607D01*
X211575726Y-110335953D01*
X211575636Y-110336181D01*
X211576062Y-110336354D01*
X211576153Y-110336121D01*
X211582202Y-110338492D01*
X211583607Y-110339412D01*
X211584879Y-110339927D01*
X211585104Y-110340036D01*
X211584973Y-110340306D01*
X211625315Y-110366707D01*
X211686658Y-110428050D01*
X211799696Y-110485646D01*
X211809485Y-110487196D01*
X211809487Y-110487197D01*
X211836849Y-110491530D01*
X211893481Y-110500500D01*
X212449887Y-110500500D01*
X213006518Y-110500499D01*
X213011412Y-110499724D01*
X213090506Y-110487198D01*
X213090508Y-110487197D01*
X213100304Y-110485646D01*
X213213342Y-110428050D01*
X213293823Y-110347569D01*
X213333694Y-110320678D01*
X213340330Y-110317861D01*
X213340334Y-110317859D01*
X213340417Y-110318054D01*
X213340621Y-110317995D01*
X213340528Y-110317776D01*
X213351466Y-110313127D01*
X213351490Y-110313117D01*
X213352140Y-110312841D01*
X213362132Y-110308593D01*
X213362210Y-110308563D01*
X213362209Y-110308561D01*
X213373156Y-110303915D01*
X213373168Y-110303943D01*
X213373301Y-110303853D01*
X213383002Y-110299750D01*
X213383215Y-110299660D01*
X213393472Y-110295344D01*
X213393740Y-110295231D01*
X213403346Y-110291215D01*
X213403687Y-110291074D01*
X213413334Y-110287074D01*
X213413750Y-110286902D01*
X213422974Y-110283116D01*
X213423211Y-110283019D01*
X213432575Y-110279220D01*
X213433105Y-110279007D01*
X213441887Y-110275491D01*
X213442503Y-110275246D01*
X213451309Y-110271774D01*
X213451965Y-110271517D01*
X213460523Y-110268198D01*
X213461157Y-110267954D01*
X213469720Y-110264693D01*
X213470495Y-110264401D01*
X213473533Y-110263267D01*
X213478901Y-110261263D01*
X213479670Y-110260980D01*
X213487827Y-110258001D01*
X213488703Y-110257685D01*
X213496810Y-110254792D01*
X213497753Y-110254459D01*
X213505794Y-110251662D01*
X213506752Y-110251333D01*
X213514981Y-110248546D01*
X213515974Y-110248214D01*
X213520723Y-110246650D01*
X213524193Y-110245507D01*
X213524990Y-110245248D01*
X213533054Y-110242673D01*
X213534006Y-110242374D01*
X213542297Y-110239810D01*
X213543414Y-110239470D01*
X213547837Y-110238147D01*
X213551600Y-110237022D01*
X213552597Y-110236729D01*
X213560926Y-110234326D01*
X213562028Y-110234014D01*
X213570344Y-110231703D01*
X213571560Y-110231371D01*
X213577856Y-110229689D01*
X213580056Y-110229101D01*
X213581172Y-110228810D01*
X213587220Y-110227260D01*
X213589823Y-110226594D01*
X213591057Y-110226285D01*
X213599776Y-110224146D01*
X213601008Y-110223850D01*
X213605955Y-110222692D01*
X213605977Y-110222686D01*
X213609980Y-110221748D01*
X213611296Y-110221447D01*
X213620424Y-110219411D01*
X213621717Y-110219130D01*
X213628036Y-110217790D01*
X213628129Y-110217770D01*
X213631101Y-110217140D01*
X213632394Y-110216873D01*
X213642023Y-110214937D01*
X213643325Y-110214682D01*
X213644604Y-110214439D01*
X213653199Y-110212805D01*
X213654478Y-110212569D01*
X213664716Y-110210736D01*
X213665946Y-110210522D01*
X213676746Y-110208704D01*
X213677775Y-110208537D01*
X213686349Y-110207187D01*
X213688538Y-110206843D01*
X213689813Y-110206649D01*
X213701120Y-110204989D01*
X213702337Y-110204817D01*
X213714096Y-110203215D01*
X213715231Y-110203066D01*
X213727201Y-110201561D01*
X213728444Y-110201412D01*
X213740887Y-110199977D01*
X213742131Y-110199839D01*
X213747472Y-110199277D01*
X213754802Y-110198505D01*
X213756016Y-110198384D01*
X213769316Y-110197118D01*
X213770470Y-110197014D01*
X213784363Y-110195829D01*
X213785152Y-110195765D01*
X213799417Y-110194686D01*
X213800575Y-110194605D01*
X213815212Y-110193637D01*
X213816326Y-110193568D01*
X213831465Y-110192710D01*
X213832526Y-110192655D01*
X213834362Y-110192567D01*
X213840430Y-110192279D01*
X213840430Y-110192281D01*
X213840440Y-110192278D01*
X213848268Y-110191907D01*
X213849266Y-110191864D01*
X213865624Y-110191235D01*
X213866558Y-110191203D01*
X213874355Y-110190973D01*
X213883123Y-110190714D01*
X213884199Y-110190687D01*
X213889649Y-110190573D01*
X213891782Y-110190528D01*
X213894419Y-110190500D01*
X214859748Y-110190500D01*
X214862044Y-110190521D01*
X214864278Y-110190562D01*
X214879150Y-110190833D01*
X214880627Y-110190870D01*
X214909326Y-110191752D01*
X214912485Y-110191849D01*
X214914086Y-110191908D01*
X214924804Y-110192374D01*
X214945114Y-110193258D01*
X214946628Y-110193333D01*
X214976768Y-110195039D01*
X214978367Y-110195141D01*
X214991480Y-110196059D01*
X214991485Y-110196059D01*
X215007402Y-110197173D01*
X215009015Y-110197297D01*
X215037233Y-110199656D01*
X215038971Y-110199814D01*
X215066198Y-110202471D01*
X215067965Y-110202656D01*
X215083120Y-110204351D01*
X215094384Y-110205611D01*
X215096096Y-110205815D01*
X215121702Y-110209050D01*
X215123420Y-110209280D01*
X215146357Y-110212516D01*
X215148277Y-110212787D01*
X215150024Y-110213046D01*
X215174090Y-110216806D01*
X215175803Y-110217087D01*
X215199196Y-110221099D01*
X215200843Y-110221394D01*
X215223446Y-110225623D01*
X215225277Y-110225980D01*
X215247145Y-110230417D01*
X215249040Y-110230817D01*
X215270291Y-110235470D01*
X215272185Y-110235900D01*
X215280715Y-110237906D01*
X215292678Y-110240720D01*
X215294488Y-110241161D01*
X215314516Y-110246201D01*
X215316252Y-110246652D01*
X215335748Y-110251883D01*
X215337510Y-110252370D01*
X215349596Y-110255815D01*
X215349614Y-110255820D01*
X215349701Y-110255845D01*
X215356542Y-110257795D01*
X215358424Y-110258347D01*
X215376831Y-110263905D01*
X215378699Y-110264485D01*
X215383888Y-110266140D01*
X215396712Y-110270231D01*
X215398441Y-110270797D01*
X215416050Y-110276714D01*
X215417824Y-110277325D01*
X215427535Y-110280755D01*
X215435110Y-110283430D01*
X215436883Y-110284072D01*
X215453656Y-110290284D01*
X215455412Y-110290949D01*
X215472010Y-110297379D01*
X215473735Y-110298062D01*
X215490047Y-110304659D01*
X215491727Y-110305353D01*
X215507822Y-110312134D01*
X215509385Y-110312805D01*
X215525342Y-110319797D01*
X215526888Y-110320487D01*
X215542639Y-110327648D01*
X215544098Y-110328323D01*
X215559827Y-110335730D01*
X215561164Y-110336370D01*
X215576744Y-110343955D01*
X215578028Y-110344590D01*
X215593628Y-110352430D01*
X215594877Y-110353067D01*
X215610376Y-110361089D01*
X215611658Y-110361762D01*
X215627027Y-110369942D01*
X215628204Y-110370576D01*
X215643856Y-110379129D01*
X215644898Y-110379706D01*
X215660497Y-110388440D01*
X215661308Y-110388899D01*
X215677111Y-110397951D01*
X215677987Y-110398458D01*
X215693680Y-110407637D01*
X215694594Y-110408177D01*
X215710454Y-110417634D01*
X215711267Y-110418123D01*
X215727387Y-110427903D01*
X215728027Y-110428295D01*
X215744315Y-110438336D01*
X215744924Y-110438714D01*
X215761200Y-110448889D01*
X215761664Y-110449181D01*
X215778464Y-110459812D01*
X215778983Y-110460143D01*
X215795870Y-110470945D01*
X215796285Y-110471211D01*
X215813170Y-110482105D01*
X215813514Y-110482328D01*
X215831372Y-110493932D01*
X215848688Y-110505242D01*
X215862737Y-110514451D01*
X215866854Y-110517150D01*
X215866940Y-110517207D01*
X215885430Y-110529349D01*
X215885444Y-110529358D01*
X215903944Y-110541506D01*
X215904207Y-110541678D01*
X215922725Y-110553817D01*
X215923263Y-110554169D01*
X215941794Y-110566274D01*
X215941612Y-110566552D01*
X215942452Y-110567099D01*
X215942633Y-110566821D01*
X215961240Y-110578911D01*
X215961583Y-110579129D01*
X215961588Y-110579134D01*
X215961719Y-110579218D01*
X215961708Y-110579235D01*
X215962279Y-110579717D01*
X215962340Y-110579622D01*
X215980947Y-110591628D01*
X215981951Y-110592274D01*
X215981990Y-110592299D01*
X215982326Y-110592514D01*
X216001045Y-110604487D01*
X216000916Y-110604688D01*
X216002593Y-110605761D01*
X216002723Y-110605555D01*
X216021511Y-110617445D01*
X216021757Y-110617599D01*
X216023515Y-110618699D01*
X216021116Y-110622533D01*
X216021118Y-110622534D01*
X216023513Y-110618703D01*
X216042393Y-110630506D01*
X216041293Y-110632266D01*
X216041296Y-110632267D01*
X216042393Y-110630506D01*
X216042395Y-110630503D01*
X216044589Y-110631870D01*
X216063729Y-110643669D01*
X216066131Y-110645138D01*
X216085431Y-110656849D01*
X216088085Y-110658446D01*
X216107562Y-110670059D01*
X216107752Y-110670171D01*
X216110281Y-110671664D01*
X216110455Y-110671767D01*
X216130128Y-110683274D01*
X216133278Y-110685097D01*
X216153164Y-110696487D01*
X216156548Y-110698404D01*
X216176665Y-110709668D01*
X216176745Y-110709712D01*
X216176841Y-110709766D01*
X216180117Y-110711578D01*
X216180280Y-110711668D01*
X216193008Y-110718623D01*
X216193020Y-110718629D01*
X216200597Y-110722769D01*
X216202380Y-110723737D01*
X216202493Y-110723798D01*
X216204563Y-110724908D01*
X216225143Y-110735862D01*
X216226939Y-110736805D01*
X216228979Y-110737876D01*
X216229051Y-110737914D01*
X216229216Y-110738000D01*
X216250132Y-110748826D01*
X216254401Y-110751003D01*
X216254578Y-110751092D01*
X216254653Y-110751130D01*
X216273975Y-110760839D01*
X216275619Y-110761665D01*
X216280124Y-110763893D01*
X216293621Y-110770464D01*
X216301637Y-110774367D01*
X216301658Y-110774377D01*
X216306421Y-110776654D01*
X216304753Y-110780143D01*
X216304775Y-110780150D01*
X216306420Y-110776657D01*
X216328159Y-110786894D01*
X216330949Y-110788195D01*
X216331092Y-110788261D01*
X216333161Y-110789209D01*
X216355213Y-110799235D01*
X216356931Y-110800011D01*
X216357078Y-110800077D01*
X216360401Y-110801551D01*
X216382898Y-110811407D01*
X216386135Y-110812808D01*
X216386274Y-110812868D01*
X216386333Y-110812893D01*
X216388213Y-110813691D01*
X216388249Y-110813706D01*
X216411095Y-110823332D01*
X216414428Y-110824718D01*
X216414567Y-110824775D01*
X216414586Y-110824783D01*
X216414742Y-110824847D01*
X216416584Y-110825598D01*
X216439768Y-110834975D01*
X216441193Y-110835548D01*
X216441353Y-110835612D01*
X216445410Y-110837209D01*
X216464341Y-110844543D01*
X216468951Y-110846329D01*
X216469212Y-110846430D01*
X216471185Y-110847185D01*
X216472174Y-110847563D01*
X216472338Y-110847625D01*
X216474877Y-110848576D01*
X216499002Y-110857510D01*
X216500700Y-110858131D01*
X216501734Y-110858509D01*
X216501999Y-110858605D01*
X216504702Y-110859572D01*
X216504755Y-110859591D01*
X216504840Y-110859621D01*
X216504853Y-110859626D01*
X216529254Y-110868244D01*
X216529495Y-110868329D01*
X216535284Y-110870324D01*
X216538019Y-110871243D01*
X216549418Y-110875074D01*
X216549357Y-110875255D01*
X216549381Y-110875261D01*
X216549441Y-110875082D01*
X216560438Y-110878777D01*
X216563350Y-110879743D01*
X216563521Y-110879799D01*
X216563529Y-110879802D01*
X216565529Y-110880448D01*
X216566451Y-110880746D01*
X216566520Y-110880768D01*
X216591774Y-110888824D01*
X216591859Y-110888851D01*
X216592051Y-110888912D01*
X216596442Y-110890285D01*
X216596615Y-110890338D01*
X216598142Y-110890802D01*
X216623972Y-110898603D01*
X216624045Y-110898625D01*
X216624099Y-110898641D01*
X216626402Y-110899329D01*
X216626578Y-110899381D01*
X216630268Y-110900452D01*
X216656723Y-110907993D01*
X216656794Y-110908013D01*
X216656917Y-110908048D01*
X216657193Y-110908125D01*
X216661163Y-110909233D01*
X216661208Y-110909245D01*
X216661318Y-110909276D01*
X216661494Y-110909324D01*
X216663102Y-110909758D01*
X216690199Y-110917027D01*
X216690353Y-110917068D01*
X216690379Y-110917075D01*
X216692032Y-110917514D01*
X216692149Y-110917545D01*
X216692324Y-110917591D01*
X216692569Y-110917654D01*
X216696136Y-110918573D01*
X216696257Y-110918604D01*
X216696383Y-110918636D01*
X216716920Y-110923805D01*
X216724024Y-110925593D01*
X216724108Y-110925614D01*
X216727309Y-110926405D01*
X216727486Y-110926448D01*
X216730337Y-110927130D01*
X216730378Y-110927140D01*
X216758547Y-110933765D01*
X216758633Y-110933785D01*
X216758882Y-110933843D01*
X216758926Y-110933853D01*
X216761081Y-110934352D01*
X216761146Y-110934367D01*
X216761308Y-110934404D01*
X216761523Y-110934452D01*
X216764745Y-110935173D01*
X216764803Y-110935186D01*
X216764831Y-110935192D01*
X216793773Y-110941528D01*
X216793887Y-110941553D01*
X216795830Y-110941971D01*
X216796447Y-110942104D01*
X216796532Y-110942122D01*
X216799851Y-110942810D01*
X216829448Y-110948816D01*
X216829565Y-110948839D01*
X216829644Y-110948855D01*
X216832530Y-110949423D01*
X216834033Y-110949719D01*
X216834185Y-110949748D01*
X216835594Y-110950014D01*
X216865694Y-110955645D01*
X216866495Y-110955794D01*
X216866668Y-110955826D01*
X216866777Y-110955845D01*
X216866856Y-110955860D01*
X216871762Y-110956734D01*
X216871865Y-110956752D01*
X216902688Y-110962038D01*
X216906032Y-110962597D01*
X216906204Y-110962625D01*
X216907417Y-110962819D01*
X216908538Y-110962998D01*
X216908603Y-110963008D01*
X216908741Y-110963030D01*
X216940251Y-110967952D01*
X216944120Y-110968537D01*
X216944162Y-110968543D01*
X216944221Y-110968552D01*
X216944230Y-110968553D01*
X216944291Y-110968562D01*
X216946256Y-110968844D01*
X216978389Y-110973379D01*
X216980347Y-110973650D01*
X216980516Y-110973673D01*
X216981596Y-110973815D01*
X216984171Y-110974153D01*
X216984333Y-110974174D01*
X216992836Y-110975248D01*
X217017022Y-110978303D01*
X217017077Y-110978310D01*
X217017245Y-110978331D01*
X217017446Y-110978355D01*
X217017525Y-110978365D01*
X217021541Y-110978850D01*
X217021593Y-110978856D01*
X217021611Y-110978858D01*
X217021776Y-110978877D01*
X217023070Y-110979024D01*
X217056730Y-110982789D01*
X217057784Y-110982906D01*
X217057860Y-110982914D01*
X217057980Y-110982927D01*
X217062511Y-110983395D01*
X217075810Y-110984693D01*
X217096727Y-110986734D01*
X217096787Y-110986740D01*
X217096923Y-110986753D01*
X217097012Y-110986761D01*
X217097146Y-110986774D01*
X217099889Y-110987027D01*
X217101119Y-110987140D01*
X217101280Y-110987154D01*
X217102593Y-110987266D01*
X217137528Y-110990188D01*
X217137547Y-110990190D01*
X217137708Y-110990203D01*
X217140735Y-110990444D01*
X217140814Y-110990451D01*
X217140872Y-110990455D01*
X217140912Y-110990458D01*
X217143264Y-110990630D01*
X217143271Y-110990630D01*
X217143279Y-110990631D01*
X217153611Y-110991354D01*
X217169105Y-110992439D01*
X217169108Y-110992439D01*
X217179189Y-110993145D01*
X217182183Y-110993343D01*
X217182311Y-110993351D01*
X217184655Y-110993491D01*
X217221381Y-110995570D01*
X217222964Y-110995656D01*
X217223116Y-110995664D01*
X217226748Y-110995839D01*
X217264408Y-110997478D01*
X217267250Y-110997583D01*
X217269241Y-110997657D01*
X217269336Y-110997660D01*
X217269521Y-110997667D01*
X217308041Y-110998850D01*
X217307888Y-111003819D01*
X217307906Y-111003820D01*
X217308041Y-110998850D01*
X217308041Y-110998838D01*
X217313056Y-110998974D01*
X217313405Y-110998980D01*
X217313433Y-110998981D01*
X217332181Y-110999323D01*
X217332206Y-110999323D01*
X217346983Y-110999593D01*
X217349264Y-110999655D01*
X217388821Y-111001106D01*
X217458585Y-111003664D01*
X217458589Y-111003664D01*
X217463749Y-111003853D01*
X217468869Y-111003197D01*
X217468871Y-111003197D01*
X217545747Y-110993349D01*
X217692178Y-110974591D01*
X217697126Y-110973106D01*
X217697133Y-110973105D01*
X217907811Y-110909898D01*
X217907810Y-110909898D01*
X217912761Y-110908413D01*
X218119574Y-110807096D01*
X218307062Y-110673363D01*
X218470190Y-110510803D01*
X218477594Y-110500500D01*
X218601559Y-110327983D01*
X218601561Y-110327980D01*
X218604577Y-110323783D01*
X218607084Y-110318712D01*
X218660565Y-110210500D01*
X218706615Y-110117325D01*
X218722112Y-110066320D01*
X218772059Y-109901927D01*
X218772060Y-109901921D01*
X218773563Y-109896975D01*
X218803622Y-109668649D01*
X218805300Y-109600000D01*
X218786430Y-109370478D01*
X218740936Y-109189362D01*
X218731585Y-109152132D01*
X218731585Y-109152131D01*
X218730326Y-109147120D01*
X218671465Y-109011747D01*
X218640556Y-108940661D01*
X218640554Y-108940658D01*
X218638496Y-108935924D01*
X218545633Y-108792380D01*
X218516215Y-108746906D01*
X218516213Y-108746903D01*
X218513405Y-108742563D01*
X218501006Y-108728936D01*
X218361890Y-108576051D01*
X218361889Y-108576050D01*
X218358412Y-108572229D01*
X218354361Y-108569030D01*
X218354357Y-108569026D01*
X218181735Y-108432697D01*
X218181730Y-108432693D01*
X218177681Y-108429496D01*
X218173165Y-108427003D01*
X218173162Y-108427001D01*
X217980589Y-108320695D01*
X217980585Y-108320693D01*
X217976065Y-108318198D01*
X217971196Y-108316474D01*
X217971192Y-108316472D01*
X217763853Y-108243049D01*
X217763849Y-108243048D01*
X217758978Y-108241323D01*
X217753885Y-108240416D01*
X217753882Y-108240415D01*
X217644738Y-108220974D01*
X217532250Y-108200937D01*
X217445802Y-108199881D01*
X217307141Y-108198186D01*
X217307139Y-108198186D01*
X217301971Y-108198123D01*
X217283195Y-108200996D01*
X217268790Y-108202359D01*
X217264784Y-108202507D01*
X217264762Y-108202508D01*
X217264407Y-108202521D01*
X217226957Y-108204151D01*
X217226957Y-108204152D01*
X217223116Y-108204335D01*
X217223008Y-108204341D01*
X217222919Y-108204345D01*
X217221381Y-108204429D01*
X217184655Y-108206508D01*
X217182311Y-108206648D01*
X217182183Y-108206656D01*
X217182177Y-108206656D01*
X217179461Y-108206836D01*
X217179204Y-108206853D01*
X217170132Y-108207488D01*
X217170130Y-108207488D01*
X217143273Y-108209368D01*
X217140912Y-108209541D01*
X217140775Y-108209551D01*
X217140725Y-108209555D01*
X217137708Y-108209796D01*
X217137547Y-108209809D01*
X217137528Y-108209811D01*
X217102593Y-108212733D01*
X217101280Y-108212845D01*
X217101119Y-108212859D01*
X217099889Y-108212972D01*
X217097146Y-108213225D01*
X217097012Y-108213238D01*
X217096923Y-108213246D01*
X217096787Y-108213259D01*
X217096727Y-108213265D01*
X217083980Y-108214509D01*
X217062511Y-108216604D01*
X217057980Y-108217072D01*
X217057874Y-108217084D01*
X217057784Y-108217093D01*
X217056730Y-108217210D01*
X217023079Y-108220974D01*
X217021785Y-108221121D01*
X217021620Y-108221140D01*
X217021491Y-108221156D01*
X217021427Y-108221163D01*
X217017417Y-108221647D01*
X217017361Y-108221654D01*
X217017245Y-108221668D01*
X217003994Y-108223342D01*
X216984479Y-108225807D01*
X216984315Y-108225828D01*
X216980507Y-108226328D01*
X216980338Y-108226351D01*
X216978391Y-108226621D01*
X216946266Y-108231154D01*
X216944290Y-108231437D01*
X216944119Y-108231462D01*
X216944102Y-108231465D01*
X216944078Y-108231468D01*
X216941294Y-108231890D01*
X216940248Y-108232048D01*
X216908739Y-108236970D01*
X216908599Y-108236992D01*
X216908569Y-108236997D01*
X216906204Y-108237374D01*
X216906032Y-108237402D01*
X216902688Y-108237961D01*
X216871865Y-108243247D01*
X216871762Y-108243265D01*
X216866856Y-108244139D01*
X216866777Y-108244154D01*
X216866668Y-108244173D01*
X216866495Y-108244205D01*
X216865694Y-108244354D01*
X216835594Y-108249985D01*
X216834185Y-108250251D01*
X216834033Y-108250280D01*
X216832530Y-108250576D01*
X216829644Y-108251144D01*
X216829565Y-108251160D01*
X216829448Y-108251183D01*
X216799851Y-108257189D01*
X216796532Y-108257877D01*
X216796447Y-108257895D01*
X216794756Y-108258259D01*
X216793796Y-108258466D01*
X216793769Y-108258472D01*
X216764842Y-108264805D01*
X216762216Y-108265389D01*
X216762039Y-108265429D01*
X216761868Y-108265468D01*
X216758945Y-108266142D01*
X216758633Y-108266214D01*
X216746606Y-108269043D01*
X216730378Y-108272859D01*
X216730337Y-108272869D01*
X216729504Y-108273068D01*
X216727559Y-108273533D01*
X216727490Y-108273550D01*
X216727486Y-108273551D01*
X216727309Y-108273594D01*
X216724108Y-108274385D01*
X216724024Y-108274406D01*
X216696522Y-108281328D01*
X216696383Y-108281363D01*
X216693155Y-108282190D01*
X216693013Y-108282227D01*
X216692955Y-108282242D01*
X216692890Y-108282259D01*
X216690234Y-108282962D01*
X216662991Y-108290270D01*
X216660084Y-108291074D01*
X216657240Y-108291861D01*
X216657178Y-108291878D01*
X216656970Y-108291936D01*
X216630299Y-108299539D01*
X216627339Y-108300395D01*
X216627172Y-108300444D01*
X216624162Y-108301340D01*
X216598254Y-108309163D01*
X216598181Y-108309185D01*
X216598158Y-108309192D01*
X216598036Y-108309194D01*
X216598046Y-108309227D01*
X216592265Y-108311020D01*
X216592207Y-108311038D01*
X216592034Y-108311092D01*
X216579213Y-108315182D01*
X216579205Y-108315184D01*
X216566435Y-108319258D01*
X216563521Y-108320200D01*
X216563480Y-108320214D01*
X216563416Y-108320234D01*
X216563385Y-108320244D01*
X216563350Y-108320256D01*
X216560438Y-108321222D01*
X216549441Y-108324917D01*
X216549252Y-108324356D01*
X216549227Y-108324357D01*
X216549418Y-108324925D01*
X216535284Y-108329675D01*
X216529495Y-108331670D01*
X216529279Y-108331746D01*
X216529254Y-108331755D01*
X216504853Y-108340373D01*
X216504840Y-108340378D01*
X216504755Y-108340408D01*
X216504702Y-108340427D01*
X216501999Y-108341394D01*
X216501734Y-108341490D01*
X216500720Y-108341861D01*
X216499002Y-108342489D01*
X216474877Y-108351423D01*
X216472338Y-108352374D01*
X216472174Y-108352436D01*
X216472112Y-108352460D01*
X216472106Y-108352462D01*
X216469212Y-108353569D01*
X216469136Y-108353598D01*
X216469124Y-108353603D01*
X216445410Y-108362790D01*
X216441353Y-108364387D01*
X216441193Y-108364451D01*
X216441119Y-108364481D01*
X216441078Y-108364497D01*
X216439768Y-108365024D01*
X216416584Y-108374401D01*
X216414742Y-108375152D01*
X216414428Y-108375281D01*
X216411095Y-108376667D01*
X216388249Y-108386293D01*
X216386287Y-108387126D01*
X216386135Y-108387191D01*
X216382898Y-108388592D01*
X216360401Y-108398448D01*
X216357078Y-108399922D01*
X216356931Y-108399988D01*
X216355213Y-108400764D01*
X216333161Y-108410790D01*
X216331092Y-108411738D01*
X216330949Y-108411804D01*
X216330842Y-108411854D01*
X216328156Y-108413106D01*
X216315848Y-108418902D01*
X216306341Y-108423379D01*
X216301747Y-108425578D01*
X216301694Y-108425604D01*
X216301669Y-108425616D01*
X216280134Y-108436100D01*
X216279795Y-108436268D01*
X216275514Y-108438389D01*
X216275513Y-108438387D01*
X216273872Y-108435075D01*
X216273855Y-108435087D01*
X216275513Y-108438387D01*
X216254531Y-108448930D01*
X216254097Y-108449148D01*
X216253972Y-108449211D01*
X216250133Y-108451172D01*
X216229240Y-108461986D01*
X216225952Y-108463708D01*
X216225833Y-108463771D01*
X216225045Y-108464189D01*
X216204561Y-108475092D01*
X216202493Y-108476201D01*
X216202380Y-108476262D01*
X216200591Y-108477233D01*
X216180397Y-108488267D01*
X216180393Y-108488268D01*
X216180392Y-108488269D01*
X216180392Y-108488270D01*
X216180187Y-108488382D01*
X216180081Y-108488440D01*
X216176667Y-108490330D01*
X216156605Y-108501563D01*
X216155085Y-108502418D01*
X216154986Y-108502474D01*
X216153117Y-108503538D01*
X216153007Y-108503601D01*
X216133275Y-108514903D01*
X216130043Y-108516778D01*
X216130042Y-108516775D01*
X216130041Y-108516775D01*
X216110546Y-108528178D01*
X216109687Y-108528682D01*
X216109602Y-108528732D01*
X216107550Y-108529948D01*
X216088150Y-108541516D01*
X216087868Y-108541684D01*
X216087791Y-108541730D01*
X216085442Y-108543144D01*
X216066213Y-108554811D01*
X216063627Y-108550549D01*
X216063613Y-108550557D01*
X216066213Y-108554812D01*
X216063729Y-108556330D01*
X216044678Y-108568074D01*
X216044380Y-108568259D01*
X216042395Y-108569496D01*
X216042393Y-108569493D01*
X216040442Y-108566362D01*
X216040438Y-108566365D01*
X216042393Y-108569493D01*
X216023513Y-108581296D01*
X216022433Y-108579568D01*
X216022432Y-108579569D01*
X216023515Y-108581300D01*
X216021757Y-108582400D01*
X216021511Y-108582554D01*
X216002723Y-108594444D01*
X216002581Y-108594220D01*
X216000902Y-108595288D01*
X216001045Y-108595512D01*
X215982326Y-108607485D01*
X215981990Y-108607700D01*
X215981951Y-108607725D01*
X215980947Y-108608371D01*
X215962340Y-108620377D01*
X215962292Y-108620302D01*
X215961758Y-108620757D01*
X215961568Y-108620878D01*
X215961436Y-108620963D01*
X215961240Y-108621088D01*
X215942633Y-108633178D01*
X215942448Y-108632893D01*
X215941612Y-108633439D01*
X215941797Y-108633723D01*
X215923267Y-108645827D01*
X215922725Y-108646182D01*
X215904207Y-108658321D01*
X215903932Y-108658501D01*
X215885432Y-108670650D01*
X215885432Y-108670651D01*
X215867285Y-108682566D01*
X215867206Y-108682618D01*
X215848821Y-108694670D01*
X215831372Y-108706067D01*
X215813382Y-108717757D01*
X215813170Y-108717894D01*
X215796285Y-108728788D01*
X215795870Y-108729054D01*
X215778983Y-108739856D01*
X215778464Y-108740187D01*
X215761664Y-108750818D01*
X215761224Y-108751095D01*
X215746807Y-108760108D01*
X215744846Y-108761334D01*
X215744183Y-108761745D01*
X215727929Y-108771765D01*
X215727400Y-108772089D01*
X215711402Y-108781795D01*
X215710638Y-108782255D01*
X215694563Y-108791840D01*
X215693648Y-108792380D01*
X215677951Y-108801561D01*
X215677025Y-108802098D01*
X215661290Y-108811110D01*
X215660499Y-108811558D01*
X215644898Y-108820293D01*
X215643886Y-108820854D01*
X215628204Y-108829423D01*
X215627027Y-108830057D01*
X215611658Y-108838237D01*
X215610376Y-108838910D01*
X215594877Y-108846932D01*
X215593628Y-108847569D01*
X215578028Y-108855409D01*
X215576744Y-108856044D01*
X215561164Y-108863629D01*
X215559827Y-108864269D01*
X215544098Y-108871676D01*
X215542639Y-108872351D01*
X215526888Y-108879512D01*
X215525342Y-108880202D01*
X215509385Y-108887194D01*
X215507822Y-108887865D01*
X215491727Y-108894646D01*
X215490047Y-108895340D01*
X215473735Y-108901937D01*
X215472010Y-108902620D01*
X215455412Y-108909050D01*
X215453656Y-108909715D01*
X215436883Y-108915927D01*
X215435110Y-108916569D01*
X215429036Y-108918714D01*
X215417824Y-108922674D01*
X215416050Y-108923285D01*
X215398439Y-108929203D01*
X215396707Y-108929770D01*
X215378670Y-108935524D01*
X215376821Y-108936098D01*
X215358354Y-108941674D01*
X215356552Y-108942204D01*
X215350076Y-108944050D01*
X215350072Y-108944051D01*
X215350072Y-108944050D01*
X215350044Y-108944058D01*
X215350036Y-108944060D01*
X215337655Y-108947589D01*
X215335759Y-108948114D01*
X215316303Y-108953333D01*
X215314484Y-108953806D01*
X215294405Y-108958859D01*
X215292681Y-108959279D01*
X215285741Y-108960911D01*
X215272185Y-108964099D01*
X215270291Y-108964529D01*
X215249040Y-108969182D01*
X215247145Y-108969582D01*
X215225277Y-108974019D01*
X215223446Y-108974376D01*
X215200842Y-108978605D01*
X215199218Y-108978896D01*
X215175827Y-108982908D01*
X215174054Y-108983199D01*
X215150001Y-108986956D01*
X215148166Y-108987228D01*
X215123518Y-108990707D01*
X215121694Y-108990951D01*
X215096188Y-108994172D01*
X215094415Y-108994383D01*
X215067956Y-108997344D01*
X215066196Y-108997528D01*
X215057719Y-108998355D01*
X215038969Y-109000185D01*
X215037235Y-109000343D01*
X215009015Y-109002702D01*
X215007402Y-109002826D01*
X214991485Y-109003940D01*
X214991480Y-109003940D01*
X214978367Y-109004858D01*
X214976768Y-109004960D01*
X214946628Y-109006666D01*
X214945114Y-109006741D01*
X214924804Y-109007625D01*
X214914086Y-109008091D01*
X214912485Y-109008150D01*
X214909326Y-109008247D01*
X214880627Y-109009129D01*
X214879150Y-109009166D01*
X214864239Y-109009438D01*
X214861989Y-109009479D01*
X214859693Y-109009500D01*
X213894467Y-109009500D01*
X213891830Y-109009472D01*
X213889701Y-109009427D01*
X213884199Y-109009312D01*
X213883117Y-109009285D01*
X213866618Y-109008797D01*
X213865506Y-109008759D01*
X213849368Y-109008139D01*
X213848216Y-109008090D01*
X213846111Y-109007990D01*
X213840439Y-109007720D01*
X213840394Y-109007718D01*
X213840262Y-109007712D01*
X213838703Y-109007638D01*
X213832718Y-109007354D01*
X213831566Y-109007294D01*
X213816368Y-109006433D01*
X213815274Y-109006366D01*
X213800613Y-109005398D01*
X213799467Y-109005316D01*
X213785332Y-109004247D01*
X213784124Y-109004150D01*
X213770468Y-109002985D01*
X213769239Y-109002874D01*
X213756075Y-109001621D01*
X213754822Y-109001496D01*
X213742103Y-109000157D01*
X213740851Y-109000018D01*
X213728424Y-108998584D01*
X213727157Y-108998432D01*
X213722390Y-108997833D01*
X213715215Y-108996931D01*
X213714097Y-108996784D01*
X213702339Y-108995183D01*
X213701128Y-108995011D01*
X213689850Y-108993356D01*
X213688610Y-108993168D01*
X213680382Y-108991872D01*
X213677849Y-108991473D01*
X213676555Y-108991262D01*
X213666102Y-108989504D01*
X213664780Y-108989274D01*
X213654431Y-108987420D01*
X213653154Y-108987185D01*
X213643350Y-108985323D01*
X213642027Y-108985064D01*
X213641708Y-108985000D01*
X213632257Y-108983099D01*
X213631189Y-108982879D01*
X213621603Y-108980845D01*
X213620550Y-108980617D01*
X213611238Y-108978539D01*
X213610023Y-108978261D01*
X213605981Y-108977314D01*
X213605977Y-108977313D01*
X213605955Y-108977307D01*
X213605923Y-108977300D01*
X213605909Y-108977296D01*
X213604215Y-108976900D01*
X213601008Y-108976149D01*
X213599776Y-108975853D01*
X213591057Y-108973714D01*
X213589823Y-108973405D01*
X213587220Y-108972739D01*
X213581172Y-108971189D01*
X213580056Y-108970898D01*
X213575131Y-108969582D01*
X213571560Y-108968628D01*
X213570344Y-108968296D01*
X213562028Y-108965985D01*
X213560926Y-108965673D01*
X213552597Y-108963270D01*
X213551600Y-108962977D01*
X213544691Y-108960911D01*
X213543414Y-108960529D01*
X213542297Y-108960189D01*
X213534006Y-108957625D01*
X213533054Y-108957326D01*
X213524990Y-108954751D01*
X213524193Y-108954492D01*
X213520102Y-108953145D01*
X213515974Y-108951785D01*
X213514981Y-108951453D01*
X213506752Y-108948666D01*
X213505766Y-108948328D01*
X213504416Y-108947858D01*
X213497728Y-108945531D01*
X213496810Y-108945207D01*
X213488703Y-108942314D01*
X213487827Y-108941998D01*
X213479670Y-108939019D01*
X213478833Y-108938710D01*
X213470509Y-108935603D01*
X213469739Y-108935313D01*
X213460927Y-108931957D01*
X213460580Y-108931824D01*
X213451891Y-108928455D01*
X213451531Y-108928314D01*
X213442487Y-108924747D01*
X213441931Y-108924526D01*
X213432868Y-108920898D01*
X213423343Y-108917033D01*
X213422974Y-108916883D01*
X213413750Y-108913097D01*
X213413334Y-108912925D01*
X213403687Y-108908925D01*
X213403346Y-108908784D01*
X213393740Y-108904768D01*
X213393472Y-108904655D01*
X213383215Y-108900339D01*
X213383002Y-108900249D01*
X213373301Y-108896146D01*
X213373170Y-108896058D01*
X213373159Y-108896085D01*
X213362275Y-108891466D01*
X213362217Y-108891419D01*
X213362209Y-108891438D01*
X213351495Y-108886884D01*
X213351488Y-108886881D01*
X213340557Y-108882234D01*
X213340320Y-108882133D01*
X213333691Y-108879320D01*
X213293820Y-108852428D01*
X213213342Y-108771950D01*
X213100304Y-108714354D01*
X213090515Y-108712804D01*
X213090513Y-108712803D01*
X213063151Y-108708470D01*
X213006519Y-108699500D01*
X212450113Y-108699500D01*
X211893482Y-108699501D01*
X211888589Y-108700276D01*
X211888588Y-108700276D01*
X211809494Y-108712802D01*
X211809492Y-108712803D01*
X211799696Y-108714354D01*
X211686658Y-108771950D01*
X211596950Y-108861658D01*
X211595922Y-108863676D01*
X211547884Y-108902265D01*
X211542400Y-108904655D01*
X211541322Y-108905125D01*
X211541306Y-108905132D01*
X211530472Y-108909852D01*
X211530406Y-108909880D01*
X211519870Y-108914463D01*
X211519801Y-108914493D01*
X211509854Y-108918803D01*
X211499999Y-108923052D01*
X211499707Y-108923177D01*
X211490213Y-108927242D01*
X211489869Y-108927389D01*
X211484250Y-108929775D01*
X211480195Y-108931497D01*
X211478904Y-108932040D01*
X211470808Y-108935443D01*
X211470328Y-108935644D01*
X211461702Y-108939228D01*
X211461171Y-108939447D01*
X211452194Y-108943129D01*
X211451649Y-108943351D01*
X211448387Y-108944669D01*
X211442963Y-108946860D01*
X211442286Y-108947131D01*
X211434243Y-108950326D01*
X211433550Y-108950599D01*
X211425187Y-108953864D01*
X211424396Y-108954170D01*
X211416248Y-108957288D01*
X211415391Y-108957612D01*
X211407436Y-108960590D01*
X211406570Y-108960911D01*
X211398688Y-108963796D01*
X211397784Y-108964123D01*
X211397212Y-108964327D01*
X211389928Y-108966927D01*
X211388966Y-108967266D01*
X211381109Y-108969999D01*
X211380170Y-108970322D01*
X211372149Y-108973034D01*
X211371397Y-108973284D01*
X211363596Y-108975845D01*
X211363506Y-108975875D01*
X211362384Y-108976237D01*
X211354615Y-108978707D01*
X211353506Y-108979054D01*
X211350301Y-108980041D01*
X211345672Y-108981465D01*
X211344594Y-108981791D01*
X211340314Y-108983063D01*
X211336564Y-108984177D01*
X211335367Y-108984526D01*
X211327379Y-108986813D01*
X211326208Y-108987142D01*
X211317989Y-108989406D01*
X211316922Y-108989694D01*
X211308564Y-108991904D01*
X211307471Y-108992188D01*
X211298896Y-108994360D01*
X211297689Y-108994659D01*
X211293603Y-108995649D01*
X211289183Y-108996720D01*
X211287872Y-108997030D01*
X211284127Y-108997895D01*
X211284016Y-108997922D01*
X211283954Y-108997936D01*
X211283923Y-108997944D01*
X211279076Y-108999064D01*
X211277862Y-108999337D01*
X211268741Y-109001346D01*
X211267525Y-109001608D01*
X211258103Y-109003576D01*
X211256983Y-109003803D01*
X211247369Y-109005706D01*
X211246184Y-109005934D01*
X211236117Y-109007815D01*
X211235020Y-109008014D01*
X211224954Y-109009785D01*
X211223658Y-109010006D01*
X211213119Y-109011747D01*
X211211948Y-109011935D01*
X211201008Y-109013624D01*
X211199926Y-109013785D01*
X211188622Y-109015410D01*
X211187398Y-109015579D01*
X211175765Y-109017131D01*
X211174681Y-109017270D01*
X211169035Y-109017964D01*
X211168921Y-109017978D01*
X211168770Y-109017996D01*
X211162667Y-109018748D01*
X211161414Y-109018896D01*
X211149103Y-109020284D01*
X211147927Y-109020410D01*
X211135160Y-109021722D01*
X211133948Y-109021841D01*
X211120655Y-109023077D01*
X211119477Y-109023181D01*
X211105716Y-109024326D01*
X211104905Y-109024389D01*
X211090427Y-109025456D01*
X211089465Y-109025522D01*
X211074761Y-109026468D01*
X211073607Y-109026537D01*
X211058553Y-109027367D01*
X211057433Y-109027424D01*
X211041786Y-109028147D01*
X211040673Y-109028193D01*
X211024690Y-109028790D01*
X211023604Y-109028826D01*
X211006855Y-109029307D01*
X211005810Y-109029333D01*
X211001695Y-109029417D01*
X210998885Y-109029474D01*
X210996331Y-109029500D01*
X210112555Y-109029500D01*
X210050701Y-109013273D01*
X210044672Y-109009876D01*
X210037828Y-109004681D01*
X209900140Y-108950167D01*
X209811995Y-108939500D01*
X209600140Y-108939500D01*
X209388006Y-108939501D01*
X209384249Y-108939956D01*
X209384243Y-108939956D01*
X209326388Y-108946957D01*
X209299860Y-108950167D01*
X209175426Y-108999433D01*
X209104728Y-109005912D01*
X209052868Y-108982645D01*
X209004044Y-108945586D01*
X208996063Y-108942426D01*
X208996061Y-108942425D01*
X208921915Y-108913069D01*
X208864445Y-108890315D01*
X208856407Y-108889342D01*
X208856406Y-108889342D01*
X208825061Y-108885549D01*
X208775074Y-108879500D01*
X208394926Y-108879500D01*
X208344939Y-108885549D01*
X208313594Y-108889342D01*
X208313593Y-108889342D01*
X208305555Y-108890315D01*
X208258908Y-108908784D01*
X208173941Y-108942424D01*
X208173938Y-108942426D01*
X208165956Y-108945586D01*
X208160839Y-108949470D01*
X208092691Y-108965251D01*
X208039296Y-108949573D01*
X208034044Y-108945586D01*
X208026062Y-108942426D01*
X208026059Y-108942424D01*
X207941092Y-108908784D01*
X207894445Y-108890315D01*
X207886407Y-108889342D01*
X207886406Y-108889342D01*
X207855061Y-108885549D01*
X207805074Y-108879500D01*
X207424926Y-108879500D01*
X207374939Y-108885549D01*
X207343594Y-108889342D01*
X207343593Y-108889342D01*
X207335555Y-108890315D01*
X207278085Y-108913069D01*
X207203939Y-108942425D01*
X207203937Y-108942426D01*
X207195956Y-108945586D01*
X207147132Y-108982645D01*
X207080781Y-109007897D01*
X207024574Y-108999433D01*
X206900140Y-108950167D01*
X206811995Y-108939500D01*
X206600140Y-108939500D01*
X206388006Y-108939501D01*
X206384249Y-108939956D01*
X206384243Y-108939956D01*
X206326388Y-108946957D01*
X206299860Y-108950167D01*
X206292337Y-108953145D01*
X206292335Y-108953146D01*
X206172348Y-109000652D01*
X206125965Y-109009500D01*
X204911299Y-109009500D01*
X204894233Y-109011747D01*
X204881503Y-109013423D01*
X204865056Y-109014501D01*
X204333482Y-109014501D01*
X204328589Y-109015276D01*
X204328588Y-109015276D01*
X204249494Y-109027802D01*
X204249492Y-109027803D01*
X204239696Y-109029354D01*
X204183203Y-109058139D01*
X204113427Y-109071243D01*
X204047642Y-109044543D01*
X204006735Y-108986516D01*
X204000000Y-108945872D01*
X204000000Y-108516157D01*
X216129681Y-108516157D01*
X216129951Y-108516619D01*
X216129682Y-108516156D01*
X216129681Y-108516157D01*
X204000000Y-108516157D01*
X204000000Y-108454128D01*
X204020002Y-108386007D01*
X204073658Y-108339514D01*
X204143932Y-108329410D01*
X204183202Y-108341861D01*
X204239696Y-108370646D01*
X204249485Y-108372196D01*
X204249487Y-108372197D01*
X204268960Y-108375281D01*
X204333481Y-108385500D01*
X204949875Y-108385500D01*
X205566518Y-108385499D01*
X205571412Y-108384724D01*
X205650506Y-108372198D01*
X205650508Y-108372197D01*
X205660304Y-108370646D01*
X205672463Y-108364451D01*
X205716797Y-108341861D01*
X205773342Y-108313050D01*
X205863050Y-108223342D01*
X205875349Y-108199204D01*
X217226721Y-108199204D01*
X217226957Y-108204151D01*
X217226742Y-108199204D01*
X217226721Y-108199204D01*
X205875349Y-108199204D01*
X205920646Y-108110304D01*
X205935500Y-108016519D01*
X205935499Y-107583482D01*
X205925976Y-107523350D01*
X205925400Y-107519710D01*
X205925400Y-107480292D01*
X205934725Y-107421412D01*
X205935500Y-107416519D01*
X205935499Y-107125999D01*
X205955501Y-107057880D01*
X206009156Y-107011387D01*
X206061499Y-107000000D01*
X206515177Y-107000000D01*
X206550330Y-107005003D01*
G37*
%TD.AperFunction*%
%TD*%
M02*
