%TF.GenerationSoftware,KiCad,Pcbnew,(6.0.1)*%
%TF.CreationDate,2022-10-07T00:00:46+07:00*%
%TF.ProjectId,rak3172,72616b33-3137-4322-9e6b-696361645f70,rev?*%
%TF.SameCoordinates,Original*%
%TF.FileFunction,Copper,L4,Bot*%
%TF.FilePolarity,Positive*%
%FSLAX46Y46*%
G04 Gerber Fmt 4.6, Leading zero omitted, Abs format (unit mm)*
G04 Created by KiCad (PCBNEW (6.0.1)) date 2022-10-07 00:00:46*
%MOMM*%
%LPD*%
G01*
G04 APERTURE LIST*
G04 Aperture macros list*
%AMRoundRect*
0 Rectangle with rounded corners*
0 $1 Rounding radius*
0 $2 $3 $4 $5 $6 $7 $8 $9 X,Y pos of 4 corners*
0 Add a 4 corners polygon primitive as box body*
4,1,4,$2,$3,$4,$5,$6,$7,$8,$9,$2,$3,0*
0 Add four circle primitives for the rounded corners*
1,1,$1+$1,$2,$3*
1,1,$1+$1,$4,$5*
1,1,$1+$1,$6,$7*
1,1,$1+$1,$8,$9*
0 Add four rect primitives between the rounded corners*
20,1,$1+$1,$2,$3,$4,$5,0*
20,1,$1+$1,$4,$5,$6,$7,0*
20,1,$1+$1,$6,$7,$8,$9,0*
20,1,$1+$1,$8,$9,$2,$3,0*%
G04 Aperture macros list end*
%TA.AperFunction,SMDPad,CuDef*%
%ADD10O,2.500000X1.000000*%
%TD*%
%TA.AperFunction,ComponentPad*%
%ADD11C,2.000000*%
%TD*%
%TA.AperFunction,SMDPad,CuDef*%
%ADD12R,1.800000X0.800000*%
%TD*%
%TA.AperFunction,SMDPad,CuDef*%
%ADD13R,2.900000X1.800000*%
%TD*%
%TA.AperFunction,ComponentPad*%
%ADD14RoundRect,0.225000X0.475000X-0.225000X0.475000X0.225000X-0.475000X0.225000X-0.475000X-0.225000X0*%
%TD*%
%TA.AperFunction,ComponentPad*%
%ADD15O,1.400000X0.900000*%
%TD*%
%TA.AperFunction,SMDPad,CuDef*%
%ADD16RoundRect,0.140000X0.140000X0.170000X-0.140000X0.170000X-0.140000X-0.170000X0.140000X-0.170000X0*%
%TD*%
%TA.AperFunction,ViaPad*%
%ADD17C,0.600000*%
%TD*%
%TA.AperFunction,Conductor*%
%ADD18C,0.101600*%
%TD*%
%TA.AperFunction,Conductor*%
%ADD19C,0.177800*%
%TD*%
%TA.AperFunction,Conductor*%
%ADD20C,0.203200*%
%TD*%
G04 APERTURE END LIST*
D10*
%TO.P,U6,1,RXD1*%
%TO.N,/p_GPS_RX*%
X188750000Y-106350000D03*
%TO.P,U6,2,TXD1*%
%TO.N,/p_GPS_TX*%
X188750000Y-103810000D03*
%TO.P,U6,3,GND*%
%TO.N,GND*%
X188750000Y-101270000D03*
%TO.P,U6,4,VCC*%
%TO.N,/GPS_VDD*%
X188750000Y-98730000D03*
%TO.P,U6,5,V_BCKP*%
%TO.N,+3V3*%
X188750000Y-96190000D03*
%TO.P,U6,6,1PPS*%
%TO.N,1PPS*%
X188750000Y-93650000D03*
%TO.P,U6,7,NC*%
%TO.N,unconnected-(U6-Pad7)*%
X204250000Y-93650000D03*
%TO.P,U6,8,NC*%
%TO.N,unconnected-(U6-Pad8)*%
X204250000Y-96190000D03*
%TO.P,U6,9,NC*%
%TO.N,unconnected-(U6-Pad9)*%
X204250000Y-98730000D03*
%TO.P,U6,10,RESET*%
%TO.N,/GPS_VDD*%
X204250000Y-101270000D03*
%TO.P,U6,11,EX_ANT*%
%TO.N,unconnected-(U6-Pad11)*%
X204250000Y-103810000D03*
%TO.P,U6,12,GND*%
%TO.N,GND*%
X204250000Y-106350000D03*
%TD*%
D11*
%TO.P,ANT1,1,A*%
%TO.N,/ANTENNA*%
X217400000Y-109600000D03*
%TD*%
D12*
%TO.P,BAT2,1,Pin_1*%
%TO.N,-BATT*%
X208437500Y-101650000D03*
%TO.P,BAT2,2,Pin_2*%
%TO.N,+BATT*%
X208437500Y-102900000D03*
D13*
%TO.P,BAT2,M1*%
%TO.N,N/C*%
X210587500Y-99100000D03*
%TO.P,BAT2,M2*%
X210587500Y-105450000D03*
%TD*%
%TO.P,BAT1,M2*%
%TO.N,N/C*%
X210650000Y-96800000D03*
%TO.P,BAT1,M1*%
X210650000Y-90450000D03*
D12*
%TO.P,BAT1,2,Pin_2*%
%TO.N,-BATT*%
X208500000Y-94250000D03*
%TO.P,BAT1,1,Pin_1*%
%TO.N,+BATT*%
X208500000Y-93000000D03*
%TD*%
D14*
%TO.P,DEBUG1,1,Pin_1*%
%TO.N,GND*%
X181725000Y-107600000D03*
D15*
%TO.P,DEBUG1,2,Pin_2*%
%TO.N,SWCLK*%
X181725000Y-106350000D03*
%TO.P,DEBUG1,3,Pin_3*%
%TO.N,SWDIO*%
X181725000Y-105100000D03*
%TO.P,DEBUG1,4,Pin_4*%
%TO.N,NRST*%
X181725000Y-103850000D03*
%TO.P,DEBUG1,5,Pin_5*%
%TO.N,+3V3*%
X181725000Y-102600000D03*
%TD*%
D16*
%TO.P,C27,1*%
%TO.N,+3V3*%
X186600000Y-95600000D03*
%TO.P,C27,2*%
%TO.N,GND*%
X185640000Y-95600000D03*
%TD*%
%TO.P,C29,1*%
%TO.N,/GPS_VDD*%
X186600000Y-99000000D03*
%TO.P,C29,2*%
%TO.N,GND*%
X185640000Y-99000000D03*
%TD*%
%TO.P,C28,1*%
%TO.N,/GPS_VDD*%
X186580000Y-100000000D03*
%TO.P,C28,2*%
%TO.N,GND*%
X185620000Y-100000000D03*
%TD*%
D17*
%TO.N,GND*%
X218370000Y-113210000D03*
X217100000Y-113210000D03*
X215830000Y-113210000D03*
X214560000Y-113210000D03*
X213290000Y-113210000D03*
X212020000Y-113210000D03*
X212020000Y-86540000D03*
X210750000Y-113210000D03*
X209480000Y-113210000D03*
X208210000Y-113210000D03*
X208210000Y-86540000D03*
X206940000Y-113210000D03*
X205670000Y-113210000D03*
X203130000Y-89080000D03*
X201860000Y-91620000D03*
X200590000Y-92890000D03*
X200590000Y-91620000D03*
X200590000Y-90350000D03*
X199320000Y-92890000D03*
X199320000Y-91620000D03*
X199320000Y-90350000D03*
X199320000Y-89080000D03*
X198050000Y-91620000D03*
X198050000Y-90350000D03*
X198050000Y-89080000D03*
X196780000Y-91620000D03*
X196780000Y-90350000D03*
X196780000Y-89080000D03*
X195510000Y-91620000D03*
X195510000Y-90350000D03*
X195510000Y-89080000D03*
X194240000Y-92890000D03*
X191700000Y-111940000D03*
X191700000Y-89080000D03*
X191700000Y-87810000D03*
X190430000Y-89080000D03*
X190430000Y-87810000D03*
X189160000Y-89080000D03*
X189160000Y-87810000D03*
X187890000Y-89080000D03*
X185350000Y-86540000D03*
X184080000Y-86540000D03*
X181540000Y-86540000D03*
X219150000Y-108840000D03*
X218200000Y-108000000D03*
X219020000Y-110100000D03*
X218200000Y-111070000D03*
X216940000Y-107890000D03*
X215820000Y-108500000D03*
X216940000Y-111280000D03*
X210740000Y-108500000D03*
X212010000Y-108500000D03*
X208200000Y-108500000D03*
X209470000Y-108500000D03*
X206930000Y-108500000D03*
X208200000Y-110670000D03*
X210740000Y-110670000D03*
X214550000Y-110670000D03*
X213300000Y-108500000D03*
X214570000Y-108500000D03*
X215820000Y-110670000D03*
X213280000Y-110670000D03*
X212010000Y-110670000D03*
X209470000Y-110670000D03*
X206930000Y-110670000D03*
X182500000Y-95700000D03*
X184960000Y-90190000D03*
X186840000Y-91750000D03*
%TO.N,+BATT*%
X185460000Y-90770000D03*
%TO.N,-BATT*%
X186070000Y-91550000D03*
%TO.N,GND*%
X204975000Y-90375000D03*
%TO.N,+3V3*%
X205000000Y-91125000D03*
%TO.N,GND*%
X206550000Y-89625000D03*
X210025000Y-91775000D03*
%TO.N,IMU_INT1*%
X207350000Y-89625000D03*
%TO.N,+3V3*%
X210500000Y-95100000D03*
X207900000Y-97100000D03*
X189200000Y-97100000D03*
X186500000Y-96600000D03*
%TO.N,GND*%
X203800000Y-107300000D03*
X185720000Y-96470000D03*
X190800000Y-108900000D03*
X186500000Y-105300000D03*
X188500000Y-109700000D03*
X206150000Y-103600000D03*
X196500000Y-106100000D03*
X197900000Y-104700000D03*
X192300000Y-101400000D03*
X188600000Y-113000000D03*
X183300000Y-97400000D03*
X206780000Y-91300000D03*
X193800000Y-100300000D03*
X192620000Y-105490000D03*
X206000000Y-104350000D03*
X202100000Y-106000000D03*
X186670000Y-100900000D03*
X188400000Y-100400000D03*
X185540000Y-101510000D03*
X190830000Y-93760000D03*
X180660000Y-92150000D03*
X188855730Y-91949240D03*
X181630000Y-91210000D03*
X201400000Y-112170000D03*
X184360000Y-100390000D03*
X198630000Y-100250000D03*
X184730000Y-112460000D03*
X209700000Y-95100000D03*
X202350000Y-98440000D03*
X190620000Y-105000000D03*
X203510000Y-114460000D03*
X203000000Y-99500000D03*
X184750000Y-95610000D03*
X200700000Y-104700000D03*
X198560000Y-99450000D03*
X199300000Y-106000000D03*
X210400000Y-102500000D03*
X200700000Y-110300000D03*
X185420000Y-94120000D03*
X190000000Y-97200000D03*
X190200000Y-99400000D03*
X189400000Y-91300000D03*
X208700000Y-97200000D03*
X197900000Y-110300000D03*
X192610000Y-106830000D03*
X194800000Y-111550000D03*
X211900000Y-93000000D03*
X182540000Y-92050000D03*
X184018273Y-114409609D03*
X203100000Y-100200000D03*
X200700000Y-107500000D03*
X196500000Y-108900000D03*
X199300000Y-108900000D03*
X194650000Y-104650000D03*
X197900000Y-107500000D03*
X188210000Y-92230000D03*
X190300000Y-102800000D03*
X202100000Y-108800000D03*
X184800000Y-99000000D03*
X188600000Y-111300000D03*
X194670000Y-109600000D03*
X188500000Y-109000000D03*
X182560000Y-94470000D03*
X203700000Y-105400000D03*
X188600000Y-110500000D03*
%TO.N,/GPS_VDD*%
X189400000Y-99600000D03*
X184500000Y-98300000D03*
%TO.N,CBR_SW*%
X182610000Y-99970000D03*
X194700000Y-105400000D03*
%TO.N,/p_GPS_TX*%
X187300000Y-104400000D03*
%TO.N,/p_GPS_RX*%
X186800000Y-106000000D03*
%TO.N,Gate_GPS*%
X193000000Y-100400000D03*
X191900000Y-100700000D03*
%TO.N,Net-(TP1-Pad1)*%
X184640000Y-114030000D03*
X202780000Y-114470000D03*
%TO.N,Net-(TP2-Pad1)*%
X202250000Y-112050000D03*
X184580000Y-113230000D03*
%TO.N,IMU_INT2*%
X205050000Y-94650000D03*
X194800000Y-110800000D03*
%TO.N,1PPS*%
X195550000Y-111850000D03*
%TO.N,IMU_INT1*%
X200600000Y-112000000D03*
%TD*%
D18*
%TO.N,1PPS*%
X187450000Y-94950000D02*
X188750000Y-93650000D01*
X183950000Y-94950000D02*
X187450000Y-94950000D01*
X180660000Y-98240000D02*
X183950000Y-94950000D01*
X180660000Y-108360000D02*
X180660000Y-98240000D01*
X186200000Y-113700000D02*
X185300000Y-112800000D01*
X185300000Y-112800000D02*
X185300000Y-111750000D01*
X185300000Y-111750000D02*
X183850000Y-110300000D01*
X186250000Y-113650000D02*
X186200000Y-113700000D01*
X193750000Y-113650000D02*
X186250000Y-113650000D01*
X183850000Y-110300000D02*
X182600000Y-110300000D01*
X182600000Y-110300000D02*
X180660000Y-108360000D01*
X195550000Y-111850000D02*
X193750000Y-113650000D01*
D19*
%TO.N,-BATT*%
X186210000Y-91410000D02*
X186070000Y-91550000D01*
X186210000Y-90430000D02*
X186210000Y-91410000D01*
X185970000Y-90190000D02*
X186210000Y-90430000D01*
X185970000Y-88160000D02*
X185970000Y-90190000D01*
X187590000Y-86540000D02*
X185970000Y-88160000D01*
X205390000Y-86540000D02*
X187590000Y-86540000D01*
X208020000Y-89170000D02*
X205390000Y-86540000D01*
X208020000Y-91480000D02*
X208020000Y-89170000D01*
X207060000Y-92440000D02*
X208020000Y-91480000D01*
X207060000Y-93700000D02*
X207060000Y-92440000D01*
X207610000Y-94250000D02*
X207060000Y-93700000D01*
X208500000Y-94250000D02*
X207610000Y-94250000D01*
%TO.N,+BATT*%
X185540000Y-90690000D02*
X185460000Y-90770000D01*
X185540000Y-87970000D02*
X185540000Y-90690000D01*
X187460000Y-86050000D02*
X185540000Y-87970000D01*
X208500000Y-93000000D02*
X208500000Y-88900000D01*
X208500000Y-88900000D02*
X205650000Y-86050000D01*
X205650000Y-86050000D02*
X187460000Y-86050000D01*
X210640000Y-93000000D02*
X208500000Y-93000000D01*
X212660000Y-95020000D02*
X210640000Y-93000000D01*
X210900000Y-103300000D02*
X212660000Y-101540000D01*
X212660000Y-101540000D02*
X212660000Y-95020000D01*
X210120000Y-103300000D02*
X210900000Y-103300000D01*
X209720000Y-102900000D02*
X210120000Y-103300000D01*
X208437500Y-102900000D02*
X209720000Y-102900000D01*
%TO.N,-BATT*%
X211010000Y-94250000D02*
X208500000Y-94250000D01*
X212330000Y-100220000D02*
X212330000Y-95570000D01*
X210900000Y-101650000D02*
X212330000Y-100220000D01*
X208437500Y-101650000D02*
X210900000Y-101650000D01*
X212330000Y-95570000D02*
X211010000Y-94250000D01*
D18*
%TO.N,IMU_INT1*%
X198300000Y-112000000D02*
X200600000Y-112000000D01*
X196700000Y-110400000D02*
X198300000Y-112000000D01*
X195200000Y-110200000D02*
X195400000Y-110400000D01*
X194100000Y-110200000D02*
X195200000Y-110200000D01*
X194000000Y-110100000D02*
X194100000Y-110200000D01*
X194000000Y-108100000D02*
X194000000Y-110100000D01*
X195800000Y-106300000D02*
X194000000Y-108100000D01*
X195800000Y-103600000D02*
X195800000Y-106300000D01*
X196700000Y-102700000D02*
X195800000Y-103600000D01*
X205700000Y-102700000D02*
X196700000Y-102700000D01*
X206650000Y-101750000D02*
X205700000Y-102700000D01*
X206650000Y-95300000D02*
X206650000Y-101750000D01*
X206025000Y-94675000D02*
X206650000Y-95300000D01*
X206025000Y-93275000D02*
X206025000Y-94675000D01*
X204275000Y-91525000D02*
X206025000Y-93275000D01*
X195400000Y-110400000D02*
X196700000Y-110400000D01*
X204275000Y-89925000D02*
X204275000Y-91525000D01*
X205075000Y-89125000D02*
X204275000Y-89925000D01*
X207125000Y-89125000D02*
X205075000Y-89125000D01*
X207350000Y-89350000D02*
X207125000Y-89125000D01*
X207350000Y-89625000D02*
X207350000Y-89350000D01*
D20*
%TO.N,+3V3*%
X206400000Y-92725000D02*
X206400000Y-92525000D01*
X206400000Y-92525000D02*
X205000000Y-91125000D01*
X206400000Y-94225000D02*
X206400000Y-92725000D01*
X207900000Y-95725000D02*
X206400000Y-94225000D01*
X207900000Y-96500000D02*
X207900000Y-95725000D01*
X209950000Y-95650000D02*
X210500000Y-95100000D01*
X208750000Y-95650000D02*
X209950000Y-95650000D01*
X207900000Y-96500000D02*
X208750000Y-95650000D01*
X207900000Y-97100000D02*
X207900000Y-96500000D01*
X189200000Y-97100000D02*
X189200000Y-96640000D01*
X187190000Y-96190000D02*
X188750000Y-96190000D01*
X186600000Y-96500000D02*
X186500000Y-96600000D01*
X189200000Y-96640000D02*
X188750000Y-96190000D01*
X186600000Y-95600000D02*
X187190000Y-96190000D01*
X186600000Y-95600000D02*
X186600000Y-96500000D01*
%TO.N,GND*%
X185640000Y-99000000D02*
X184800000Y-99000000D01*
X185640000Y-95600000D02*
X185640000Y-96390000D01*
X188750000Y-100750000D02*
X188750000Y-100770000D01*
X185640000Y-99000000D02*
X185640000Y-99980000D01*
X204250000Y-106850000D02*
X203800000Y-107300000D01*
X184760000Y-95600000D02*
X184750000Y-95610000D01*
X204250000Y-105950000D02*
X204250000Y-106850000D01*
X188400000Y-100400000D02*
X188750000Y-100750000D01*
X203700000Y-105400000D02*
X204250000Y-105950000D01*
X185640000Y-99980000D02*
X185620000Y-100000000D01*
X185640000Y-96390000D02*
X185720000Y-96470000D01*
X185640000Y-95600000D02*
X184760000Y-95600000D01*
%TO.N,/GPS_VDD*%
X184500000Y-98300000D02*
X185900000Y-98300000D01*
X189400000Y-99200000D02*
X189400000Y-99600000D01*
X188750000Y-98550000D02*
X189400000Y-99200000D01*
X199630000Y-98230000D02*
X202670000Y-101270000D01*
X186600000Y-99000000D02*
X186870000Y-98730000D01*
X186870000Y-98730000D02*
X188750000Y-98730000D01*
X189400000Y-99380000D02*
X188750000Y-98730000D01*
X189400000Y-99600000D02*
X189400000Y-99380000D01*
X185900000Y-98300000D02*
X186600000Y-99000000D01*
X188750000Y-98730000D02*
X189250000Y-98230000D01*
X189250000Y-98230000D02*
X199630000Y-98230000D01*
X186580000Y-100000000D02*
X186580000Y-99020000D01*
X202670000Y-101270000D02*
X204250000Y-101270000D01*
X186580000Y-99020000D02*
X186600000Y-99000000D01*
D18*
%TO.N,CBR_SW*%
X191650000Y-104900000D02*
X194200000Y-104900000D01*
X184350000Y-104050000D02*
X185950000Y-104050000D01*
X182610000Y-100910000D02*
X184000000Y-102300000D01*
X190898089Y-105548089D02*
X190950000Y-105600000D01*
X184000000Y-102300000D02*
X184000000Y-103700000D01*
X187448089Y-105548089D02*
X190898089Y-105548089D01*
X190950000Y-105600000D02*
X191650000Y-104900000D01*
X184000000Y-103700000D02*
X184350000Y-104050000D01*
X194200000Y-104900000D02*
X194700000Y-105400000D01*
X185950000Y-104050000D02*
X187448089Y-105548089D01*
X182610000Y-99970000D02*
X182610000Y-100910000D01*
%TO.N,/p_GPS_TX*%
X187300000Y-104400000D02*
X187890000Y-103810000D01*
X187890000Y-103810000D02*
X188750000Y-103810000D01*
%TO.N,/p_GPS_RX*%
X187150000Y-106350000D02*
X188750000Y-106350000D01*
X186800000Y-106000000D02*
X187150000Y-106350000D01*
%TO.N,Gate_GPS*%
X191900000Y-100700000D02*
X192200000Y-100400000D01*
X192200000Y-100400000D02*
X193000000Y-100400000D01*
%TO.N,Net-(TP1-Pad1)*%
X202780000Y-114470000D02*
X202600000Y-114650000D01*
X201700000Y-114650000D02*
X185260000Y-114650000D01*
X185260000Y-114650000D02*
X184640000Y-114030000D01*
X202600000Y-114650000D02*
X201700000Y-114650000D01*
%TO.N,Net-(TP2-Pad1)*%
X184580000Y-113230000D02*
X184900000Y-113230000D01*
X185890000Y-114220000D02*
X201280000Y-114220000D01*
X202250000Y-113250000D02*
X202250000Y-112050000D01*
X184900000Y-113230000D02*
X185890000Y-114220000D01*
X201280000Y-114220000D02*
X202250000Y-113250000D01*
%TO.N,IMU_INT2*%
X206100000Y-101600000D02*
X206100000Y-95300000D01*
X193900000Y-107500000D02*
X194000000Y-107500000D01*
X194000000Y-107500000D02*
X195300000Y-106200000D01*
X205450000Y-102250000D02*
X206100000Y-101600000D01*
X194000000Y-110800000D02*
X193600000Y-110400000D01*
X194800000Y-110800000D02*
X194000000Y-110800000D01*
X195300000Y-106200000D02*
X195300000Y-103300000D01*
X196350000Y-102250000D02*
X205450000Y-102250000D01*
X193600000Y-110400000D02*
X193600000Y-107800000D01*
X206100000Y-95300000D02*
X205450000Y-94650000D01*
X193600000Y-107800000D02*
X193900000Y-107500000D01*
X195300000Y-103300000D02*
X196350000Y-102250000D01*
X205450000Y-94650000D02*
X205050000Y-94650000D01*
%TD*%
M02*
