%TF.GenerationSoftware,KiCad,Pcbnew,(6.0.1)*%
%TF.CreationDate,2022-10-07T00:00:46+07:00*%
%TF.ProjectId,rak3172,72616b33-3137-4322-9e6b-696361645f70,rev?*%
%TF.SameCoordinates,Original*%
%TF.FileFunction,Legend,Bot*%
%TF.FilePolarity,Positive*%
%FSLAX46Y46*%
G04 Gerber Fmt 4.6, Leading zero omitted, Abs format (unit mm)*
G04 Created by KiCad (PCBNEW (6.0.1)) date 2022-10-07 00:00:46*
%MOMM*%
%LPD*%
G01*
G04 APERTURE LIST*
G04 Aperture macros list*
%AMRoundRect*
0 Rectangle with rounded corners*
0 $1 Rounding radius*
0 $2 $3 $4 $5 $6 $7 $8 $9 X,Y pos of 4 corners*
0 Add a 4 corners polygon primitive as box body*
4,1,4,$2,$3,$4,$5,$6,$7,$8,$9,$2,$3,0*
0 Add four circle primitives for the rounded corners*
1,1,$1+$1,$2,$3*
1,1,$1+$1,$4,$5*
1,1,$1+$1,$6,$7*
1,1,$1+$1,$8,$9*
0 Add four rect primitives between the rounded corners*
20,1,$1+$1,$2,$3,$4,$5,0*
20,1,$1+$1,$4,$5,$6,$7,0*
20,1,$1+$1,$6,$7,$8,$9,0*
20,1,$1+$1,$8,$9,$2,$3,0*%
G04 Aperture macros list end*
%ADD10C,0.150000*%
%ADD11C,0.127000*%
%ADD12C,0.200000*%
%ADD13C,0.120000*%
%ADD14O,2.600000X1.100000*%
%ADD15C,2.100000*%
%ADD16RoundRect,0.050000X0.900000X0.400000X-0.900000X0.400000X-0.900000X-0.400000X0.900000X-0.400000X0*%
%ADD17RoundRect,0.050000X1.450000X0.900000X-1.450000X0.900000X-1.450000X-0.900000X1.450000X-0.900000X0*%
%ADD18RoundRect,0.275000X0.475000X-0.225000X0.475000X0.225000X-0.475000X0.225000X-0.475000X-0.225000X0*%
%ADD19O,1.500000X1.000000*%
%ADD20RoundRect,0.190000X0.140000X0.170000X-0.140000X0.170000X-0.140000X-0.170000X0.140000X-0.170000X0*%
G04 APERTURE END LIST*
D10*
%TO.C,U6*%
X190276904Y-111837380D02*
X190276904Y-112646904D01*
X190229285Y-112742142D01*
X190181666Y-112789761D01*
X190086428Y-112837380D01*
X189895952Y-112837380D01*
X189800714Y-112789761D01*
X189753095Y-112742142D01*
X189705476Y-112646904D01*
X189705476Y-111837380D01*
X188800714Y-111837380D02*
X188991190Y-111837380D01*
X189086428Y-111885000D01*
X189134047Y-111932619D01*
X189229285Y-112075476D01*
X189276904Y-112265952D01*
X189276904Y-112646904D01*
X189229285Y-112742142D01*
X189181666Y-112789761D01*
X189086428Y-112837380D01*
X188895952Y-112837380D01*
X188800714Y-112789761D01*
X188753095Y-112742142D01*
X188705476Y-112646904D01*
X188705476Y-112408809D01*
X188753095Y-112313571D01*
X188800714Y-112265952D01*
X188895952Y-112218333D01*
X189086428Y-112218333D01*
X189181666Y-112265952D01*
X189229285Y-112313571D01*
X189276904Y-112408809D01*
%TO.C,BAT2*%
X206728571Y-101085714D02*
X206776190Y-101228571D01*
X206823809Y-101276190D01*
X206919047Y-101323809D01*
X207061904Y-101323809D01*
X207157142Y-101276190D01*
X207204761Y-101228571D01*
X207252380Y-101133333D01*
X207252380Y-100752380D01*
X206252380Y-100752380D01*
X206252380Y-101085714D01*
X206300000Y-101180952D01*
X206347619Y-101228571D01*
X206442857Y-101276190D01*
X206538095Y-101276190D01*
X206633333Y-101228571D01*
X206680952Y-101180952D01*
X206728571Y-101085714D01*
X206728571Y-100752380D01*
X206966666Y-101704761D02*
X206966666Y-102180952D01*
X207252380Y-101609523D02*
X206252380Y-101942857D01*
X207252380Y-102276190D01*
X206252380Y-102466666D02*
X206252380Y-103038095D01*
X207252380Y-102752380D02*
X206252380Y-102752380D01*
X206347619Y-103323809D02*
X206300000Y-103371428D01*
X206252380Y-103466666D01*
X206252380Y-103704761D01*
X206300000Y-103800000D01*
X206347619Y-103847619D01*
X206442857Y-103895238D01*
X206538095Y-103895238D01*
X206680952Y-103847619D01*
X207252380Y-103276190D01*
X207252380Y-103895238D01*
%TO.C,BAT1*%
X206628571Y-92385714D02*
X206676190Y-92528571D01*
X206723809Y-92576190D01*
X206819047Y-92623809D01*
X206961904Y-92623809D01*
X207057142Y-92576190D01*
X207104761Y-92528571D01*
X207152380Y-92433333D01*
X207152380Y-92052380D01*
X206152380Y-92052380D01*
X206152380Y-92385714D01*
X206200000Y-92480952D01*
X206247619Y-92528571D01*
X206342857Y-92576190D01*
X206438095Y-92576190D01*
X206533333Y-92528571D01*
X206580952Y-92480952D01*
X206628571Y-92385714D01*
X206628571Y-92052380D01*
X206866666Y-93004761D02*
X206866666Y-93480952D01*
X207152380Y-92909523D02*
X206152380Y-93242857D01*
X207152380Y-93576190D01*
X206152380Y-93766666D02*
X206152380Y-94338095D01*
X207152380Y-94052380D02*
X206152380Y-94052380D01*
X207152380Y-95195238D02*
X207152380Y-94623809D01*
X207152380Y-94909523D02*
X206152380Y-94909523D01*
X206295238Y-94814285D01*
X206390476Y-94719047D01*
X206438095Y-94623809D01*
%TO.C,C27*%
X184522514Y-95890285D02*
X184561219Y-95928990D01*
X184677333Y-95967695D01*
X184754742Y-95967695D01*
X184870857Y-95928990D01*
X184948266Y-95851580D01*
X184986971Y-95774171D01*
X185025676Y-95619352D01*
X185025676Y-95503238D01*
X184986971Y-95348419D01*
X184948266Y-95271009D01*
X184870857Y-95193600D01*
X184754742Y-95154895D01*
X184677333Y-95154895D01*
X184561219Y-95193600D01*
X184522514Y-95232304D01*
X184212876Y-95232304D02*
X184174171Y-95193600D01*
X184096761Y-95154895D01*
X183903238Y-95154895D01*
X183825828Y-95193600D01*
X183787123Y-95232304D01*
X183748419Y-95309714D01*
X183748419Y-95387123D01*
X183787123Y-95503238D01*
X184251580Y-95967695D01*
X183748419Y-95967695D01*
X183477485Y-95154895D02*
X182935619Y-95154895D01*
X183283961Y-95967695D01*
%TO.C,C29*%
X184522514Y-99190285D02*
X184561219Y-99228990D01*
X184677333Y-99267695D01*
X184754742Y-99267695D01*
X184870857Y-99228990D01*
X184948266Y-99151580D01*
X184986971Y-99074171D01*
X185025676Y-98919352D01*
X185025676Y-98803238D01*
X184986971Y-98648419D01*
X184948266Y-98571009D01*
X184870857Y-98493600D01*
X184754742Y-98454895D01*
X184677333Y-98454895D01*
X184561219Y-98493600D01*
X184522514Y-98532304D01*
X184212876Y-98532304D02*
X184174171Y-98493600D01*
X184096761Y-98454895D01*
X183903238Y-98454895D01*
X183825828Y-98493600D01*
X183787123Y-98532304D01*
X183748419Y-98609714D01*
X183748419Y-98687123D01*
X183787123Y-98803238D01*
X184251580Y-99267695D01*
X183748419Y-99267695D01*
X183361371Y-99267695D02*
X183206552Y-99267695D01*
X183129142Y-99228990D01*
X183090438Y-99190285D01*
X183013028Y-99074171D01*
X182974323Y-98919352D01*
X182974323Y-98609714D01*
X183013028Y-98532304D01*
X183051733Y-98493600D01*
X183129142Y-98454895D01*
X183283961Y-98454895D01*
X183361371Y-98493600D01*
X183400076Y-98532304D01*
X183438780Y-98609714D01*
X183438780Y-98803238D01*
X183400076Y-98880647D01*
X183361371Y-98919352D01*
X183283961Y-98958057D01*
X183129142Y-98958057D01*
X183051733Y-98919352D01*
X183013028Y-98880647D01*
X182974323Y-98803238D01*
%TO.C,C28*%
X184522514Y-100290285D02*
X184561219Y-100328990D01*
X184677333Y-100367695D01*
X184754742Y-100367695D01*
X184870857Y-100328990D01*
X184948266Y-100251580D01*
X184986971Y-100174171D01*
X185025676Y-100019352D01*
X185025676Y-99903238D01*
X184986971Y-99748419D01*
X184948266Y-99671009D01*
X184870857Y-99593600D01*
X184754742Y-99554895D01*
X184677333Y-99554895D01*
X184561219Y-99593600D01*
X184522514Y-99632304D01*
X184212876Y-99632304D02*
X184174171Y-99593600D01*
X184096761Y-99554895D01*
X183903238Y-99554895D01*
X183825828Y-99593600D01*
X183787123Y-99632304D01*
X183748419Y-99709714D01*
X183748419Y-99787123D01*
X183787123Y-99903238D01*
X184251580Y-100367695D01*
X183748419Y-100367695D01*
X183283961Y-99903238D02*
X183361371Y-99864533D01*
X183400076Y-99825828D01*
X183438780Y-99748419D01*
X183438780Y-99709714D01*
X183400076Y-99632304D01*
X183361371Y-99593600D01*
X183283961Y-99554895D01*
X183129142Y-99554895D01*
X183051733Y-99593600D01*
X183013028Y-99632304D01*
X182974323Y-99709714D01*
X182974323Y-99748419D01*
X183013028Y-99825828D01*
X183051733Y-99864533D01*
X183129142Y-99903238D01*
X183283961Y-99903238D01*
X183361371Y-99941942D01*
X183400076Y-99980647D01*
X183438780Y-100058057D01*
X183438780Y-100212876D01*
X183400076Y-100290285D01*
X183361371Y-100328990D01*
X183283961Y-100367695D01*
X183129142Y-100367695D01*
X183051733Y-100328990D01*
X183013028Y-100290285D01*
X182974323Y-100212876D01*
X182974323Y-100058057D01*
X183013028Y-99980647D01*
X183051733Y-99941942D01*
X183129142Y-99903238D01*
D11*
%TO.C,U6*%
X188425000Y-92425000D02*
X188425000Y-92600000D01*
X188425000Y-108575000D02*
X188425000Y-107400000D01*
X204575000Y-108575000D02*
X204575000Y-107400000D01*
X188425000Y-108575000D02*
X204575000Y-108575000D01*
X204575000Y-92425000D02*
X204575000Y-92600000D01*
X204575000Y-92425000D02*
X188425000Y-92425000D01*
D12*
X187200000Y-107500000D02*
G75*
G03*
X187200000Y-107500000I-100000J0D01*
G01*
D13*
%TO.C,BAT2*%
X209237500Y-100500000D02*
X209237500Y-100100000D01*
X208437500Y-100500000D02*
X208437500Y-101100000D01*
X212237500Y-105900000D02*
X212837500Y-105900000D01*
X212837500Y-98650000D02*
X212837500Y-105900000D01*
X209237500Y-104050000D02*
X208437500Y-104050000D01*
X208437500Y-104050000D02*
X208437500Y-103450000D01*
X209237500Y-104050000D02*
X209237500Y-104450000D01*
X209237500Y-100500000D02*
X208437500Y-100500000D01*
X212237500Y-98650000D02*
X212837500Y-98650000D01*
%TO.C,BAT1*%
X212300000Y-90000000D02*
X212900000Y-90000000D01*
X209300000Y-91850000D02*
X208500000Y-91850000D01*
X209300000Y-95400000D02*
X209300000Y-95800000D01*
X208500000Y-95400000D02*
X208500000Y-94800000D01*
X209300000Y-95400000D02*
X208500000Y-95400000D01*
X212900000Y-90000000D02*
X212900000Y-97250000D01*
X212300000Y-97250000D02*
X212900000Y-97250000D01*
X208500000Y-91850000D02*
X208500000Y-92450000D01*
X209300000Y-91850000D02*
X209300000Y-91450000D01*
%TO.C,C27*%
X186227836Y-95240000D02*
X186012164Y-95240000D01*
X186227836Y-95960000D02*
X186012164Y-95960000D01*
%TO.C,C29*%
X186227836Y-99360000D02*
X186012164Y-99360000D01*
X186227836Y-98640000D02*
X186012164Y-98640000D01*
%TO.C,G\u002A\u002A\u002A*%
G36*
X195029193Y-111295749D02*
G01*
X195038402Y-111207189D01*
X195039743Y-111197100D01*
X195058033Y-111088406D01*
X195082858Y-110982850D01*
X195114036Y-110880649D01*
X195151384Y-110782020D01*
X195194722Y-110687180D01*
X195243867Y-110596345D01*
X195298637Y-110509732D01*
X195358851Y-110427557D01*
X195424326Y-110350038D01*
X195494881Y-110277391D01*
X195570334Y-110209832D01*
X195650503Y-110147579D01*
X195735206Y-110090848D01*
X195824261Y-110039856D01*
X195917487Y-109994820D01*
X196014701Y-109955955D01*
X196115722Y-109923480D01*
X196164506Y-109910291D01*
X196240751Y-109892596D01*
X196316672Y-109878796D01*
X196394733Y-109868466D01*
X196477395Y-109861183D01*
X196481487Y-109860918D01*
X196509780Y-109859721D01*
X196543440Y-109859152D01*
X196580637Y-109859173D01*
X196619539Y-109859747D01*
X196658318Y-109860837D01*
X196695142Y-109862406D01*
X196728181Y-109864417D01*
X196755603Y-109866832D01*
X196797923Y-109872046D01*
X196899239Y-109889668D01*
X196998396Y-109914217D01*
X197094991Y-109945538D01*
X197188624Y-109983475D01*
X197278894Y-110027872D01*
X197365399Y-110078573D01*
X197447739Y-110135423D01*
X197492585Y-110168935D01*
X197502376Y-110149525D01*
X197521426Y-110116380D01*
X197551840Y-110076347D01*
X197587626Y-110041324D01*
X197628363Y-110011654D01*
X197673630Y-109987681D01*
X197723005Y-109969748D01*
X197727233Y-109968540D01*
X197732415Y-109967166D01*
X197737823Y-109965971D01*
X197743981Y-109964941D01*
X197751410Y-109964060D01*
X197760632Y-109963314D01*
X197772169Y-109962688D01*
X197786543Y-109962167D01*
X197804277Y-109961737D01*
X197825891Y-109961382D01*
X197851908Y-109961088D01*
X197882850Y-109960840D01*
X197919239Y-109960624D01*
X197961597Y-109960423D01*
X198010446Y-109960225D01*
X198066308Y-109960013D01*
X198379946Y-109958836D01*
X198379946Y-112950460D01*
X198098225Y-112950460D01*
X198043406Y-112950443D01*
X197995490Y-112950375D01*
X197953900Y-112950224D01*
X197918057Y-112949959D01*
X197887382Y-112949547D01*
X197861297Y-112948957D01*
X197839223Y-112948157D01*
X197820581Y-112947116D01*
X197804793Y-112945801D01*
X197791281Y-112944181D01*
X197779466Y-112942225D01*
X197768768Y-112939900D01*
X197758611Y-112937175D01*
X197748414Y-112934019D01*
X197737600Y-112930398D01*
X197718435Y-112923339D01*
X197671712Y-112901147D01*
X197628410Y-112872821D01*
X197587493Y-112837721D01*
X197578196Y-112828263D01*
X197561609Y-112809446D01*
X197545188Y-112788732D01*
X197530249Y-112767900D01*
X197518110Y-112748732D01*
X197510085Y-112733006D01*
X197505084Y-112720877D01*
X197474412Y-112744707D01*
X197430094Y-112777795D01*
X197345368Y-112834002D01*
X197257284Y-112883529D01*
X197165763Y-112926409D01*
X197070726Y-112962675D01*
X196972093Y-112992358D01*
X196869784Y-113015490D01*
X196763720Y-113032105D01*
X196762828Y-113032214D01*
X196736386Y-113034719D01*
X196703941Y-113036668D01*
X196666949Y-113038059D01*
X196626867Y-113038893D01*
X196585149Y-113039169D01*
X196543250Y-113038886D01*
X196502627Y-113038046D01*
X196464735Y-113036646D01*
X196431028Y-113034688D01*
X196402963Y-113032171D01*
X196364113Y-113027402D01*
X196254155Y-113009539D01*
X196148552Y-112985665D01*
X196047046Y-112955687D01*
X195949377Y-112919513D01*
X195855289Y-112877051D01*
X195764521Y-112828208D01*
X195676817Y-112772892D01*
X195633779Y-112742501D01*
X195552864Y-112678517D01*
X195477136Y-112609228D01*
X195406729Y-112534865D01*
X195341777Y-112455656D01*
X195282415Y-112371834D01*
X195228777Y-112283626D01*
X195180998Y-112191264D01*
X195139213Y-112094978D01*
X195103556Y-111994996D01*
X195074162Y-111891551D01*
X195051164Y-111784870D01*
X195034699Y-111675186D01*
X195032730Y-111657669D01*
X195025754Y-111570459D01*
X195022851Y-111479595D01*
X195023651Y-111415501D01*
X196061358Y-111415501D01*
X196061382Y-111487153D01*
X196068682Y-111557057D01*
X196083295Y-111625445D01*
X196105257Y-111692550D01*
X196134605Y-111758603D01*
X196138416Y-111766090D01*
X196158869Y-111803450D01*
X196180087Y-111836911D01*
X196203493Y-111868417D01*
X196230510Y-111899913D01*
X196262563Y-111933343D01*
X196271172Y-111941870D01*
X196303716Y-111972338D01*
X196334745Y-111998100D01*
X196366169Y-112020547D01*
X196399897Y-112041069D01*
X196437837Y-112061059D01*
X196464262Y-112073536D01*
X196529731Y-112099012D01*
X196596044Y-112117093D01*
X196663450Y-112127808D01*
X196732199Y-112131190D01*
X196802537Y-112127269D01*
X196874715Y-112116077D01*
X196910677Y-112107715D01*
X196975875Y-112086897D01*
X197038450Y-112059524D01*
X197097480Y-112026026D01*
X197152043Y-111986831D01*
X197189824Y-111953814D01*
X197236547Y-111904499D01*
X197277723Y-111850506D01*
X197313142Y-111792289D01*
X197342597Y-111730300D01*
X197365880Y-111664993D01*
X197382783Y-111596822D01*
X197393098Y-111526240D01*
X197396617Y-111453701D01*
X197394248Y-111392369D01*
X197385252Y-111321300D01*
X197369757Y-111252817D01*
X197347992Y-111187308D01*
X197320185Y-111125163D01*
X197286564Y-111066769D01*
X197247357Y-111012516D01*
X197202792Y-110962792D01*
X197153097Y-110917986D01*
X197098501Y-110878486D01*
X197039230Y-110844681D01*
X197030000Y-110840124D01*
X196986989Y-110820873D01*
X196944077Y-110805255D01*
X196898748Y-110792436D01*
X196848487Y-110781586D01*
X196842304Y-110780546D01*
X196821018Y-110778099D01*
X196794631Y-110776237D01*
X196764910Y-110774984D01*
X196733620Y-110774364D01*
X196702527Y-110774399D01*
X196673397Y-110775113D01*
X196647997Y-110776529D01*
X196628092Y-110778671D01*
X196596020Y-110784168D01*
X196527580Y-110800626D01*
X196463566Y-110822990D01*
X196403532Y-110851486D01*
X196347034Y-110886343D01*
X196293628Y-110927788D01*
X196242868Y-110976050D01*
X196201395Y-111024053D01*
X196162533Y-111079971D01*
X196129600Y-111140123D01*
X196102826Y-111204025D01*
X196082442Y-111271195D01*
X196068678Y-111341149D01*
X196068573Y-111341870D01*
X196061358Y-111415501D01*
X195023651Y-111415501D01*
X195024003Y-111387288D01*
X195029193Y-111295749D01*
G37*
G36*
X203292672Y-114201246D02*
G01*
X202271547Y-114201246D01*
X202273781Y-114164514D01*
X202280336Y-114094835D01*
X202294339Y-114013504D01*
X202315015Y-113935576D01*
X202342406Y-113860921D01*
X202376556Y-113789406D01*
X202417507Y-113720899D01*
X202436771Y-113692903D01*
X202487197Y-113628736D01*
X202542675Y-113570157D01*
X202603222Y-113517150D01*
X202668854Y-113469698D01*
X202679087Y-113463090D01*
X202750002Y-113422352D01*
X202823730Y-113388559D01*
X202900002Y-113361808D01*
X202978547Y-113342196D01*
X203059092Y-113329821D01*
X203059942Y-113329745D01*
X203068413Y-113329360D01*
X203083114Y-113328976D01*
X203102958Y-113328611D01*
X203126857Y-113328283D01*
X203153726Y-113328008D01*
X203182475Y-113327806D01*
X203292672Y-113327203D01*
X203292672Y-114201246D01*
G37*
G36*
X192366189Y-109955394D02*
G01*
X192381499Y-109955704D01*
X192416010Y-109957839D01*
X192454694Y-109961757D01*
X192495543Y-109967179D01*
X192536547Y-109973823D01*
X192575698Y-109981407D01*
X192610986Y-109989651D01*
X192648420Y-110000146D01*
X192729310Y-110028357D01*
X192807046Y-110063099D01*
X192881291Y-110104021D01*
X192951712Y-110150769D01*
X193017974Y-110202991D01*
X193079741Y-110260336D01*
X193136679Y-110322450D01*
X193188452Y-110388981D01*
X193234726Y-110459578D01*
X193275165Y-110533887D01*
X193309436Y-110611556D01*
X193337202Y-110692233D01*
X193358128Y-110775566D01*
X193362717Y-110798634D01*
X193366619Y-110820360D01*
X193369843Y-110841418D01*
X193372469Y-110862834D01*
X193374578Y-110885633D01*
X193376250Y-110910841D01*
X193377567Y-110939482D01*
X193378608Y-110972582D01*
X193379455Y-111011166D01*
X193380187Y-111056260D01*
X193382453Y-111213425D01*
X193617917Y-110815459D01*
X193640275Y-110777690D01*
X193669978Y-110727573D01*
X193698751Y-110679094D01*
X193726329Y-110632693D01*
X193752449Y-110588812D01*
X193776848Y-110547891D01*
X193799261Y-110510372D01*
X193819427Y-110476695D01*
X193837080Y-110447302D01*
X193851958Y-110422634D01*
X193863796Y-110403132D01*
X193872332Y-110389236D01*
X193877302Y-110381388D01*
X193895506Y-110354912D01*
X193946789Y-110289377D01*
X194003418Y-110228874D01*
X194064977Y-110173672D01*
X194131050Y-110124039D01*
X194201221Y-110080246D01*
X194275074Y-110042562D01*
X194352193Y-110011255D01*
X194432162Y-109986596D01*
X194514565Y-109968854D01*
X194527825Y-109966720D01*
X194542548Y-109964663D01*
X194558137Y-109962860D01*
X194575105Y-109961297D01*
X194593965Y-109959961D01*
X194615229Y-109958838D01*
X194639412Y-109957915D01*
X194667025Y-109957178D01*
X194698583Y-109956613D01*
X194734597Y-109956209D01*
X194775580Y-109955950D01*
X194822046Y-109955823D01*
X194874508Y-109955815D01*
X194933479Y-109955912D01*
X194999471Y-109956101D01*
X195343098Y-109957238D01*
X194830717Y-110738667D01*
X194817245Y-110759215D01*
X194771829Y-110828525D01*
X194727572Y-110896122D01*
X194684650Y-110961736D01*
X194643238Y-111025098D01*
X194603511Y-111085939D01*
X194565644Y-111143989D01*
X194529812Y-111198977D01*
X194496191Y-111250635D01*
X194464955Y-111298692D01*
X194436281Y-111342879D01*
X194410342Y-111382927D01*
X194387315Y-111418565D01*
X194367375Y-111449524D01*
X194350696Y-111475534D01*
X194337454Y-111496326D01*
X194327823Y-111511630D01*
X194321981Y-111521176D01*
X194320100Y-111524694D01*
X194320514Y-111525400D01*
X194324351Y-111531445D01*
X194332052Y-111543395D01*
X194343433Y-111560966D01*
X194358307Y-111583873D01*
X194376491Y-111611834D01*
X194397797Y-111644565D01*
X194422043Y-111681780D01*
X194449041Y-111723197D01*
X194478608Y-111768532D01*
X194510557Y-111817499D01*
X194544705Y-111869817D01*
X194580865Y-111925200D01*
X194618853Y-111983366D01*
X194658483Y-112044029D01*
X194699570Y-112106906D01*
X194741930Y-112171713D01*
X194785376Y-112238166D01*
X195248887Y-112947038D01*
X194516449Y-112944256D01*
X194463705Y-112934353D01*
X194419473Y-112925157D01*
X194338933Y-112903351D01*
X194262474Y-112875613D01*
X194189345Y-112841617D01*
X194118800Y-112801035D01*
X194050089Y-112753541D01*
X194033546Y-112740662D01*
X193998063Y-112710380D01*
X193961758Y-112676239D01*
X193926482Y-112640096D01*
X193894087Y-112603809D01*
X193866425Y-112569236D01*
X193861787Y-112562769D01*
X193851192Y-112547105D01*
X193836952Y-112525279D01*
X193819191Y-112497488D01*
X193798032Y-112463930D01*
X193773597Y-112424802D01*
X193746011Y-112380303D01*
X193715397Y-112330629D01*
X193681877Y-112275979D01*
X193645575Y-112216550D01*
X193606615Y-112152540D01*
X193382453Y-111783650D01*
X193380418Y-112437694D01*
X193378383Y-113091739D01*
X193369897Y-113144483D01*
X193361001Y-113193512D01*
X193339747Y-113280933D01*
X193312194Y-113364274D01*
X193278272Y-113443678D01*
X193237907Y-113519289D01*
X193191027Y-113591248D01*
X193137561Y-113659701D01*
X193077436Y-113724789D01*
X193060960Y-113741020D01*
X193024101Y-113775294D01*
X192987827Y-113805817D01*
X192949819Y-113834482D01*
X192907757Y-113863180D01*
X192886661Y-113876588D01*
X192812528Y-113917994D01*
X192734680Y-113953077D01*
X192653673Y-113981659D01*
X192570060Y-114003564D01*
X192484395Y-114018612D01*
X192397234Y-114026628D01*
X192348294Y-114029105D01*
X192348294Y-109955355D01*
X192366189Y-109955394D01*
G37*
G36*
X198680824Y-111395437D02*
G01*
X198680624Y-111353553D01*
X198680442Y-111307079D01*
X198680279Y-111255805D01*
X198680133Y-111199521D01*
X198680003Y-111138017D01*
X198679889Y-111071081D01*
X198679791Y-110998504D01*
X198679706Y-110920075D01*
X198679636Y-110835584D01*
X198679578Y-110744820D01*
X198679532Y-110647574D01*
X198679498Y-110543634D01*
X198679475Y-110432791D01*
X198679461Y-110314833D01*
X198679457Y-110189551D01*
X198679457Y-108813172D01*
X198690027Y-108804079D01*
X198692575Y-108802097D01*
X198705589Y-108796273D01*
X198719322Y-108795464D01*
X198730890Y-108799962D01*
X198732409Y-108801351D01*
X198738696Y-108808155D01*
X198748221Y-108819157D01*
X198759982Y-108833191D01*
X198772981Y-108849090D01*
X198799740Y-108881683D01*
X198880629Y-108974613D01*
X198966967Y-109066156D01*
X199057231Y-109154796D01*
X199149898Y-109239016D01*
X199243443Y-109317300D01*
X199248593Y-109321411D01*
X199346849Y-109396036D01*
X199448141Y-109465974D01*
X199551927Y-109530980D01*
X199657664Y-109590808D01*
X199764808Y-109645212D01*
X199872817Y-109693946D01*
X199981147Y-109736766D01*
X200089256Y-109773423D01*
X200196600Y-109803674D01*
X200302636Y-109827272D01*
X200406822Y-109843971D01*
X200415557Y-109845018D01*
X200437591Y-109847307D01*
X200463374Y-109849643D01*
X200490379Y-109851803D01*
X200516078Y-109853566D01*
X200550204Y-109855863D01*
X200642046Y-109864212D01*
X200728316Y-109875494D01*
X200810105Y-109889918D01*
X200888509Y-109907695D01*
X200964620Y-109929035D01*
X201039531Y-109954148D01*
X201088991Y-109973111D01*
X201183568Y-110015388D01*
X201274614Y-110064166D01*
X201361819Y-110119193D01*
X201444875Y-110180216D01*
X201523474Y-110246982D01*
X201597307Y-110319239D01*
X201666066Y-110396734D01*
X201729442Y-110479215D01*
X201787127Y-110566429D01*
X201815503Y-110614523D01*
X201867293Y-110712798D01*
X201912149Y-110813204D01*
X201949971Y-110915424D01*
X201980659Y-111019142D01*
X202004115Y-111124041D01*
X202020238Y-111229805D01*
X202028929Y-111336117D01*
X202029233Y-111343999D01*
X202029614Y-111373490D01*
X202029158Y-111408160D01*
X202027943Y-111446259D01*
X202026049Y-111486037D01*
X202023555Y-111525746D01*
X202020540Y-111563634D01*
X202017083Y-111597953D01*
X202010267Y-111651120D01*
X201990585Y-111764488D01*
X201964307Y-111874444D01*
X201931471Y-111980886D01*
X201892120Y-112083717D01*
X201846293Y-112182836D01*
X201794030Y-112278144D01*
X201735372Y-112369541D01*
X201670359Y-112456927D01*
X201655899Y-112474444D01*
X201629597Y-112504344D01*
X201599615Y-112536580D01*
X201567336Y-112569768D01*
X201534140Y-112602529D01*
X201501409Y-112633481D01*
X201470523Y-112661242D01*
X201442865Y-112684431D01*
X201420073Y-112702076D01*
X201389633Y-112724464D01*
X201356328Y-112747970D01*
X201321895Y-112771412D01*
X201288073Y-112793611D01*
X201256598Y-112813386D01*
X201229207Y-112829558D01*
X201203980Y-112843472D01*
X201109176Y-112890381D01*
X201009829Y-112931392D01*
X200906123Y-112966447D01*
X200798244Y-112995488D01*
X200686376Y-113018456D01*
X200570706Y-113035295D01*
X200567150Y-113035695D01*
X200541272Y-113037982D01*
X200509550Y-113039946D01*
X200473433Y-113041561D01*
X200434370Y-113042805D01*
X200393811Y-113043653D01*
X200353206Y-113044082D01*
X200314002Y-113044066D01*
X200277651Y-113043583D01*
X200245600Y-113042608D01*
X200219299Y-113041117D01*
X200175630Y-113037342D01*
X200067060Y-113023933D01*
X199962780Y-113004991D01*
X199861980Y-112980300D01*
X199763848Y-112949644D01*
X199667571Y-112912809D01*
X199572337Y-112869580D01*
X199564493Y-112865714D01*
X199468327Y-112813934D01*
X199376632Y-112756368D01*
X199289613Y-112693305D01*
X199207473Y-112625034D01*
X199130417Y-112551843D01*
X199058649Y-112474024D01*
X198992374Y-112391863D01*
X198931797Y-112305652D01*
X198877120Y-112215678D01*
X198828549Y-112122231D01*
X198786288Y-112025600D01*
X198750542Y-111926075D01*
X198721514Y-111823944D01*
X198699409Y-111719497D01*
X198684432Y-111613023D01*
X198684021Y-111608145D01*
X198683592Y-111600585D01*
X198683190Y-111590538D01*
X198682813Y-111577796D01*
X198682461Y-111562147D01*
X198682133Y-111543381D01*
X198681828Y-111521288D01*
X198681545Y-111495658D01*
X198681284Y-111466279D01*
X198681174Y-111451024D01*
X199697737Y-111451024D01*
X199698364Y-111484755D01*
X199704444Y-111559003D01*
X199716935Y-111629737D01*
X199735778Y-111696794D01*
X199760912Y-111760010D01*
X199792278Y-111819223D01*
X199829814Y-111874271D01*
X199873461Y-111924990D01*
X199899113Y-111950645D01*
X199932180Y-111980230D01*
X199965543Y-112005641D01*
X200001225Y-112028389D01*
X200041253Y-112049980D01*
X200070323Y-112063603D01*
X200133564Y-112087164D01*
X200200030Y-112104116D01*
X200269286Y-112114360D01*
X200340892Y-112117797D01*
X200388514Y-112116280D01*
X200458408Y-112108322D01*
X200525345Y-112093759D01*
X200589010Y-112072836D01*
X200649087Y-112045795D01*
X200705258Y-112012881D01*
X200757210Y-111974337D01*
X200804625Y-111930406D01*
X200847188Y-111881333D01*
X200884583Y-111827360D01*
X200916494Y-111768731D01*
X200942605Y-111705690D01*
X200962601Y-111638480D01*
X200973463Y-111583942D01*
X200981064Y-111518445D01*
X200983577Y-111451181D01*
X200981012Y-111383989D01*
X200973376Y-111318709D01*
X200960681Y-111257180D01*
X200959810Y-111253834D01*
X200939789Y-111189189D01*
X200914853Y-111129781D01*
X200884564Y-111074809D01*
X200848482Y-111023471D01*
X200806170Y-110974966D01*
X200800117Y-110968751D01*
X200751706Y-110924161D01*
X200700622Y-110886114D01*
X200646272Y-110854300D01*
X200588061Y-110828411D01*
X200525396Y-110808136D01*
X200457683Y-110793166D01*
X200442918Y-110791063D01*
X200417689Y-110788748D01*
X200388303Y-110787092D01*
X200356694Y-110786127D01*
X200324797Y-110785883D01*
X200294544Y-110786391D01*
X200267870Y-110787683D01*
X200246707Y-110789789D01*
X200178457Y-110802703D01*
X200111677Y-110822229D01*
X200049012Y-110847888D01*
X199990654Y-110879545D01*
X199936796Y-110917066D01*
X199887630Y-110960317D01*
X199843348Y-111009162D01*
X199804143Y-111063467D01*
X199770207Y-111123098D01*
X199745732Y-111177872D01*
X199724535Y-111241082D01*
X199709559Y-111307278D01*
X199700670Y-111377059D01*
X199697737Y-111451024D01*
X198681174Y-111451024D01*
X198681044Y-111432943D01*
X198680824Y-111395437D01*
G37*
G36*
X203560230Y-109955360D02*
G01*
X203570228Y-109955734D01*
X203585544Y-109956609D01*
X203604244Y-109957865D01*
X203624395Y-109959383D01*
X203682081Y-109965523D01*
X203769064Y-109980897D01*
X203853633Y-110003394D01*
X203935643Y-110032961D01*
X204014950Y-110069542D01*
X204091409Y-110113082D01*
X204164873Y-110163527D01*
X204206394Y-110196342D01*
X204270615Y-110254670D01*
X204329325Y-110317914D01*
X204382335Y-110385749D01*
X204429459Y-110457847D01*
X204470508Y-110533882D01*
X204505296Y-110613525D01*
X204533635Y-110696451D01*
X204555338Y-110782331D01*
X204570217Y-110870840D01*
X204570359Y-110872042D01*
X204571247Y-110883412D01*
X204572088Y-110901187D01*
X204572885Y-110925492D01*
X204573639Y-110956453D01*
X204574353Y-110994195D01*
X204575029Y-111038845D01*
X204575670Y-111090527D01*
X204576276Y-111149367D01*
X204576851Y-111215491D01*
X204577397Y-111289024D01*
X204577770Y-111342879D01*
X204578172Y-111399009D01*
X204578550Y-111448502D01*
X204578916Y-111491840D01*
X204579283Y-111529506D01*
X204579662Y-111561982D01*
X204580067Y-111589751D01*
X204580509Y-111613295D01*
X204581001Y-111633098D01*
X204581554Y-111649642D01*
X204582181Y-111663410D01*
X204582895Y-111674884D01*
X204583706Y-111684547D01*
X204584629Y-111692882D01*
X204585674Y-111700371D01*
X204586855Y-111707498D01*
X204588183Y-111714744D01*
X204594106Y-111744058D01*
X204609351Y-111804451D01*
X204627745Y-111858840D01*
X204649635Y-111907950D01*
X204675369Y-111952505D01*
X204705293Y-111993231D01*
X204739757Y-112030852D01*
X204753616Y-112043897D01*
X204797155Y-112078005D01*
X204845063Y-112106020D01*
X204897242Y-112127907D01*
X204953595Y-112143630D01*
X205014025Y-112153151D01*
X205078433Y-112156436D01*
X205116128Y-112155536D01*
X205155614Y-112151765D01*
X205191751Y-112144778D01*
X205226538Y-112134276D01*
X205243638Y-112127662D01*
X205286365Y-112105764D01*
X205324695Y-112077766D01*
X205358603Y-112043699D01*
X205388066Y-112003594D01*
X205413061Y-111957482D01*
X205433561Y-111905394D01*
X205449545Y-111847360D01*
X205450424Y-111843482D01*
X205452334Y-111835185D01*
X205454101Y-111827480D01*
X205455731Y-111820068D01*
X205457229Y-111812647D01*
X205458602Y-111804916D01*
X205459856Y-111796574D01*
X205460996Y-111787320D01*
X205462029Y-111776853D01*
X205462959Y-111764872D01*
X205463795Y-111751076D01*
X205464540Y-111735163D01*
X205465202Y-111716834D01*
X205465786Y-111695786D01*
X205466298Y-111671719D01*
X205466744Y-111644332D01*
X205467130Y-111613323D01*
X205467462Y-111578392D01*
X205467745Y-111539238D01*
X205467987Y-111495559D01*
X205468192Y-111447054D01*
X205468367Y-111393423D01*
X205468518Y-111334365D01*
X205468650Y-111269578D01*
X205468769Y-111198761D01*
X205468882Y-111121614D01*
X205468995Y-111037835D01*
X205469112Y-110947123D01*
X205469241Y-110849177D01*
X205470441Y-109955355D01*
X205487092Y-109955355D01*
X205493470Y-109955447D01*
X205513825Y-109956422D01*
X205538766Y-109958300D01*
X205566251Y-109960880D01*
X205594237Y-109963959D01*
X205620683Y-109967337D01*
X205643547Y-109970811D01*
X205666638Y-109974985D01*
X205752408Y-109995242D01*
X205835367Y-110022447D01*
X205915273Y-110056475D01*
X205991886Y-110097202D01*
X206064963Y-110144503D01*
X206134265Y-110198253D01*
X206199549Y-110258327D01*
X206224407Y-110284014D01*
X206282062Y-110350966D01*
X206333207Y-110421650D01*
X206377760Y-110495889D01*
X206415641Y-110573505D01*
X206446767Y-110654318D01*
X206471057Y-110738152D01*
X206488431Y-110824827D01*
X206498806Y-110914165D01*
X206499382Y-110925238D01*
X206499938Y-110943823D01*
X206500420Y-110968653D01*
X206500831Y-110999153D01*
X206501172Y-111034749D01*
X206501444Y-111074867D01*
X206501651Y-111118933D01*
X206501794Y-111166372D01*
X206501874Y-111216611D01*
X206501894Y-111269076D01*
X206501855Y-111323191D01*
X206501759Y-111378384D01*
X206501608Y-111434080D01*
X206501405Y-111489705D01*
X206501150Y-111544685D01*
X206500845Y-111598445D01*
X206500493Y-111650412D01*
X206500095Y-111700011D01*
X206499654Y-111746668D01*
X206499170Y-111789809D01*
X206498646Y-111828861D01*
X206498084Y-111863248D01*
X206497486Y-111892397D01*
X206496853Y-111915734D01*
X206496187Y-111932684D01*
X206495490Y-111942673D01*
X206482246Y-112040528D01*
X206465000Y-112133128D01*
X206443648Y-112220253D01*
X206418005Y-112302440D01*
X206387881Y-112380226D01*
X206353090Y-112454149D01*
X206313444Y-112524746D01*
X206268756Y-112592554D01*
X206224894Y-112649960D01*
X206166876Y-112714803D01*
X206103778Y-112774325D01*
X206035998Y-112828186D01*
X205963933Y-112876048D01*
X205887979Y-112917572D01*
X205841034Y-112939447D01*
X205765911Y-112969360D01*
X205689527Y-112993411D01*
X205610986Y-113011796D01*
X205529391Y-113024714D01*
X205443847Y-113032361D01*
X205353456Y-113034932D01*
X205346929Y-113034934D01*
X205301146Y-113034511D01*
X205260554Y-113033218D01*
X205223111Y-113030896D01*
X205186774Y-113027390D01*
X205149502Y-113022543D01*
X205109251Y-113016198D01*
X205102261Y-113015001D01*
X205009378Y-112995268D01*
X204918896Y-112968941D01*
X204831285Y-112936254D01*
X204747015Y-112897446D01*
X204666556Y-112852751D01*
X204590378Y-112802408D01*
X204518949Y-112746651D01*
X204452740Y-112685718D01*
X204409640Y-112642618D01*
X204391708Y-112675039D01*
X204368437Y-112713102D01*
X204331165Y-112762013D01*
X204288559Y-112806157D01*
X204241211Y-112845113D01*
X204189717Y-112878462D01*
X204134670Y-112905782D01*
X204076666Y-112926654D01*
X204016297Y-112940657D01*
X204011001Y-112941493D01*
X204001487Y-112942691D01*
X203990317Y-112943697D01*
X203976836Y-112944526D01*
X203960393Y-112945194D01*
X203940333Y-112945717D01*
X203916005Y-112946110D01*
X203886754Y-112946388D01*
X203851928Y-112946568D01*
X203810873Y-112946664D01*
X203762937Y-112946693D01*
X203545090Y-112946693D01*
X203545090Y-109955355D01*
X203559407Y-109955355D01*
X203560230Y-109955360D01*
G37*
G36*
X202310316Y-109956865D02*
G01*
X202326980Y-109957913D01*
X202417430Y-109967802D01*
X202505048Y-109984597D01*
X202589693Y-110008240D01*
X202671227Y-110038674D01*
X202749512Y-110075841D01*
X202824407Y-110119683D01*
X202895775Y-110170143D01*
X202963475Y-110227164D01*
X202966364Y-110229819D01*
X203028879Y-110292502D01*
X203085211Y-110359404D01*
X203135241Y-110430277D01*
X203178851Y-110504874D01*
X203215923Y-110582946D01*
X203246339Y-110664246D01*
X203269979Y-110748525D01*
X203286727Y-110835536D01*
X203296464Y-110925031D01*
X203296996Y-110936750D01*
X203297488Y-110955493D01*
X203297938Y-110980615D01*
X203298343Y-111011538D01*
X203298706Y-111047681D01*
X203299024Y-111088465D01*
X203299300Y-111133309D01*
X203299532Y-111181636D01*
X203299721Y-111232864D01*
X203299867Y-111286413D01*
X203299970Y-111341706D01*
X203300029Y-111398160D01*
X203300046Y-111455198D01*
X203300019Y-111512239D01*
X203299950Y-111568703D01*
X203299838Y-111624011D01*
X203299682Y-111677584D01*
X203299485Y-111728840D01*
X203299244Y-111777202D01*
X203298961Y-111822088D01*
X203298635Y-111862920D01*
X203298266Y-111899118D01*
X203297856Y-111930101D01*
X203297402Y-111955291D01*
X203296906Y-111974107D01*
X203296368Y-111985970D01*
X203295779Y-111994125D01*
X203287929Y-112065850D01*
X203275522Y-112136880D01*
X203258970Y-112205192D01*
X203238686Y-112268763D01*
X203212310Y-112334338D01*
X203173884Y-112412357D01*
X203129506Y-112486305D01*
X203079518Y-112555896D01*
X203024262Y-112620845D01*
X202964083Y-112680866D01*
X202899322Y-112735674D01*
X202830323Y-112784983D01*
X202757429Y-112828507D01*
X202680982Y-112865961D01*
X202601325Y-112897059D01*
X202518803Y-112921516D01*
X202433756Y-112939047D01*
X202431413Y-112939420D01*
X202412559Y-112942083D01*
X202390859Y-112944674D01*
X202367604Y-112947091D01*
X202344085Y-112949232D01*
X202321592Y-112950993D01*
X202301417Y-112952274D01*
X202284851Y-112952971D01*
X202273185Y-112952983D01*
X202267710Y-112952206D01*
X202267641Y-112951982D01*
X202267338Y-112946405D01*
X202267046Y-112933445D01*
X202266767Y-112913231D01*
X202266500Y-112885887D01*
X202266246Y-112851539D01*
X202266005Y-112810313D01*
X202265778Y-112762335D01*
X202265564Y-112707730D01*
X202265364Y-112646626D01*
X202265178Y-112579147D01*
X202265007Y-112505419D01*
X202264851Y-112425568D01*
X202264710Y-112339721D01*
X202264585Y-112248002D01*
X202264475Y-112150538D01*
X202264381Y-112047454D01*
X202264304Y-111938878D01*
X202264244Y-111824933D01*
X202264200Y-111705746D01*
X202264173Y-111581444D01*
X202264165Y-111452151D01*
X202264165Y-109954287D01*
X202310316Y-109956865D01*
G37*
G36*
X188963993Y-110010924D02*
G01*
X188962618Y-110035708D01*
X188953287Y-110116577D01*
X188936709Y-110196886D01*
X188913100Y-110275981D01*
X188882676Y-110353211D01*
X188845654Y-110427923D01*
X188802248Y-110499465D01*
X188753059Y-110566793D01*
X188697517Y-110630553D01*
X188636965Y-110689078D01*
X188571827Y-110742080D01*
X188502527Y-110789270D01*
X188429489Y-110830359D01*
X188353137Y-110865061D01*
X188273895Y-110893086D01*
X188192186Y-110914147D01*
X188188101Y-110915006D01*
X188168893Y-110918908D01*
X188150796Y-110922267D01*
X188133090Y-110925124D01*
X188115054Y-110927520D01*
X188095967Y-110929493D01*
X188075110Y-110931084D01*
X188051761Y-110932333D01*
X188025200Y-110933280D01*
X187994707Y-110933965D01*
X187959562Y-110934428D01*
X187919043Y-110934709D01*
X187872431Y-110934848D01*
X187819004Y-110934886D01*
X187586420Y-110934886D01*
X187585301Y-111898406D01*
X187585187Y-111995175D01*
X187585071Y-112089222D01*
X187584955Y-112176287D01*
X187584838Y-112256653D01*
X187584718Y-112330602D01*
X187584591Y-112398416D01*
X187584457Y-112460378D01*
X187584312Y-112516771D01*
X187584155Y-112567876D01*
X187583984Y-112613977D01*
X187583795Y-112655355D01*
X187583587Y-112692294D01*
X187583358Y-112725076D01*
X187583106Y-112753984D01*
X187582827Y-112779299D01*
X187582521Y-112801305D01*
X187582185Y-112820283D01*
X187581816Y-112836517D01*
X187581412Y-112850289D01*
X187580972Y-112861881D01*
X187580493Y-112871577D01*
X187579972Y-112879657D01*
X187579408Y-112886406D01*
X187578798Y-112892104D01*
X187578140Y-112897036D01*
X187577433Y-112901483D01*
X187576089Y-112909241D01*
X187557159Y-113000253D01*
X187533184Y-113085965D01*
X187503922Y-113166860D01*
X187469133Y-113243418D01*
X187428576Y-113316121D01*
X187382010Y-113385452D01*
X187329192Y-113451891D01*
X187269883Y-113515921D01*
X187252967Y-113532555D01*
X187186897Y-113591033D01*
X187116489Y-113643745D01*
X187042250Y-113690469D01*
X186964682Y-113730986D01*
X186884291Y-113765076D01*
X186801580Y-113792517D01*
X186717053Y-113813091D01*
X186631216Y-113826577D01*
X186544571Y-113832754D01*
X186503129Y-113833922D01*
X186502184Y-111894638D01*
X186501239Y-109955355D01*
X188966287Y-109955355D01*
X188963993Y-110010924D01*
G37*
G36*
X188761679Y-111257545D02*
G01*
X188777569Y-111149367D01*
X188800426Y-111042872D01*
X188830249Y-110938653D01*
X188841925Y-110904014D01*
X188880290Y-110805754D01*
X188925113Y-110711181D01*
X188976194Y-110620508D01*
X189033336Y-110533952D01*
X189096337Y-110451728D01*
X189165001Y-110374051D01*
X189239127Y-110301135D01*
X189318516Y-110233196D01*
X189402969Y-110170450D01*
X189492287Y-110113111D01*
X189586271Y-110061393D01*
X189684722Y-110015514D01*
X189740508Y-109993012D01*
X189839388Y-109958840D01*
X189942745Y-109929950D01*
X190049855Y-109906513D01*
X190159995Y-109888700D01*
X190272441Y-109876682D01*
X190276209Y-109876400D01*
X190298145Y-109875222D01*
X190325829Y-109874301D01*
X190357791Y-109873638D01*
X190392561Y-109873236D01*
X190428668Y-109873094D01*
X190464641Y-109873216D01*
X190499011Y-109873603D01*
X190530306Y-109874255D01*
X190557057Y-109875175D01*
X190577791Y-109876364D01*
X190673515Y-109885992D01*
X190788188Y-109903774D01*
X190899646Y-109928073D01*
X191007710Y-109958825D01*
X191112198Y-109995964D01*
X191212931Y-110039425D01*
X191309727Y-110089141D01*
X191402406Y-110145048D01*
X191490788Y-110207081D01*
X191511393Y-110222916D01*
X191592410Y-110290948D01*
X191667718Y-110363756D01*
X191737212Y-110441110D01*
X191800786Y-110522779D01*
X191858338Y-110608532D01*
X191909762Y-110698137D01*
X191954953Y-110791364D01*
X191993807Y-110887981D01*
X192026219Y-110987757D01*
X192052085Y-111090462D01*
X192071300Y-111195864D01*
X192083759Y-111303732D01*
X192089358Y-111413836D01*
X192087992Y-111525944D01*
X192087959Y-111526700D01*
X192079647Y-111637455D01*
X192064527Y-111745655D01*
X192042667Y-111851079D01*
X192014138Y-111953507D01*
X191979009Y-112052717D01*
X191937350Y-112148489D01*
X191889230Y-112240602D01*
X191834719Y-112328834D01*
X191817809Y-112353587D01*
X191753967Y-112438646D01*
X191684859Y-112518402D01*
X191610639Y-112592768D01*
X191531460Y-112661656D01*
X191447475Y-112724980D01*
X191358836Y-112782652D01*
X191265697Y-112834585D01*
X191168211Y-112880691D01*
X191066530Y-112920884D01*
X190960809Y-112955076D01*
X190851199Y-112983181D01*
X190737855Y-113005109D01*
X190620928Y-113020776D01*
X190606717Y-113022070D01*
X190578710Y-113023892D01*
X190545525Y-113025383D01*
X190508434Y-113026534D01*
X190468705Y-113027341D01*
X190427610Y-113027797D01*
X190386418Y-113027895D01*
X190346399Y-113027628D01*
X190308825Y-113026991D01*
X190274964Y-113025977D01*
X190246087Y-113024579D01*
X190223464Y-113022791D01*
X190117562Y-113009211D01*
X190002548Y-112988224D01*
X189891917Y-112961168D01*
X189785577Y-112928008D01*
X189683434Y-112888707D01*
X189585399Y-112843230D01*
X189491377Y-112791541D01*
X189401278Y-112733604D01*
X189315010Y-112669384D01*
X189260926Y-112624196D01*
X189191058Y-112558835D01*
X189126387Y-112489467D01*
X189065945Y-112415036D01*
X189008768Y-112334485D01*
X188968359Y-112270930D01*
X188926746Y-112197611D01*
X188890455Y-112123763D01*
X188858598Y-112047557D01*
X188830285Y-111967161D01*
X188812629Y-111908641D01*
X188786722Y-111802855D01*
X188767781Y-111695185D01*
X188755806Y-111586224D01*
X188750797Y-111476568D01*
X188751551Y-111434281D01*
X189792871Y-111434281D01*
X189792933Y-111470638D01*
X189794019Y-111505771D01*
X189796129Y-111537601D01*
X189799264Y-111564046D01*
X189810094Y-111620152D01*
X189829440Y-111689337D01*
X189854651Y-111753958D01*
X189885671Y-111813923D01*
X189922443Y-111869139D01*
X189964911Y-111919512D01*
X190013018Y-111964950D01*
X190066709Y-112005360D01*
X190072943Y-112009477D01*
X190127587Y-112040716D01*
X190186517Y-112066441D01*
X190248751Y-112086433D01*
X190313305Y-112100472D01*
X190379198Y-112108338D01*
X190445445Y-112109812D01*
X190511064Y-112104673D01*
X190565200Y-112095270D01*
X190630343Y-112077413D01*
X190692089Y-112053027D01*
X190750108Y-112022344D01*
X190804069Y-111985595D01*
X190853639Y-111943011D01*
X190898488Y-111894822D01*
X190938285Y-111841261D01*
X190972698Y-111782557D01*
X190989494Y-111747629D01*
X191013146Y-111686412D01*
X191030835Y-111622079D01*
X191042911Y-111553493D01*
X191044131Y-111543082D01*
X191046404Y-111514600D01*
X191047824Y-111482338D01*
X191048372Y-111448547D01*
X191048028Y-111415477D01*
X191046772Y-111385380D01*
X191044585Y-111360506D01*
X191043787Y-111354236D01*
X191030937Y-111281569D01*
X191012009Y-111213147D01*
X190987047Y-111149068D01*
X190956097Y-111089433D01*
X190919201Y-111034340D01*
X190876404Y-110983889D01*
X190860215Y-110967301D01*
X190825399Y-110934986D01*
X190790139Y-110907345D01*
X190752262Y-110882758D01*
X190709592Y-110859602D01*
X190684629Y-110847809D01*
X190622246Y-110824123D01*
X190556034Y-110806721D01*
X190486391Y-110795715D01*
X190452694Y-110792877D01*
X190382999Y-110792391D01*
X190314593Y-110799197D01*
X190247848Y-110813205D01*
X190183134Y-110834327D01*
X190120824Y-110862474D01*
X190061287Y-110897557D01*
X190053592Y-110902867D01*
X190028267Y-110922577D01*
X190001136Y-110946499D01*
X189973838Y-110972991D01*
X189948014Y-111000415D01*
X189925304Y-111027131D01*
X189907346Y-111051498D01*
X189892570Y-111074709D01*
X189859833Y-111135043D01*
X189833543Y-111198250D01*
X189813429Y-111265039D01*
X189799224Y-111336117D01*
X189798841Y-111338677D01*
X189795825Y-111366220D01*
X189793836Y-111398782D01*
X189792871Y-111434281D01*
X188751551Y-111434281D01*
X188752755Y-111366810D01*
X188761679Y-111257545D01*
G37*
%TO.C,C28*%
X186207836Y-100360000D02*
X185992164Y-100360000D01*
X186207836Y-99640000D02*
X185992164Y-99640000D01*
%TD*%
%LPC*%
D14*
%TO.C,U6*%
X188750000Y-106350000D03*
X188750000Y-103810000D03*
X188750000Y-101270000D03*
X188750000Y-98730000D03*
X188750000Y-96190000D03*
X188750000Y-93650000D03*
X204250000Y-93650000D03*
X204250000Y-96190000D03*
X204250000Y-98730000D03*
X204250000Y-101270000D03*
X204250000Y-103810000D03*
X204250000Y-106350000D03*
%TD*%
D15*
%TO.C,ANT1*%
X217400000Y-109600000D03*
%TD*%
D16*
%TO.C,BAT2*%
X208437500Y-101650000D03*
X208437500Y-102900000D03*
D17*
X210587500Y-99100000D03*
X210587500Y-105450000D03*
%TD*%
%TO.C,BAT1*%
X210650000Y-96800000D03*
X210650000Y-90450000D03*
D16*
X208500000Y-94250000D03*
X208500000Y-93000000D03*
%TD*%
D18*
%TO.C,DEBUG1*%
X181725000Y-107600000D03*
D19*
X181725000Y-106350000D03*
X181725000Y-105100000D03*
X181725000Y-103850000D03*
X181725000Y-102600000D03*
%TD*%
D20*
%TO.C,C27*%
X186600000Y-95600000D03*
X185640000Y-95600000D03*
%TD*%
%TO.C,C29*%
X186600000Y-99000000D03*
X185640000Y-99000000D03*
%TD*%
%TO.C,C28*%
X186580000Y-100000000D03*
X185620000Y-100000000D03*
%TD*%
M02*
