%TF.GenerationSoftware,KiCad,Pcbnew,(6.0.1)*%
%TF.CreationDate,2022-10-07T00:00:45+07:00*%
%TF.ProjectId,rak3172,72616b33-3137-4322-9e6b-696361645f70,rev?*%
%TF.SameCoordinates,Original*%
%TF.FileFunction,Legend,Top*%
%TF.FilePolarity,Positive*%
%FSLAX46Y46*%
G04 Gerber Fmt 4.6, Leading zero omitted, Abs format (unit mm)*
G04 Created by KiCad (PCBNEW (6.0.1)) date 2022-10-07 00:00:45*
%MOMM*%
%LPD*%
G01*
G04 APERTURE LIST*
G04 Aperture macros list*
%AMRoundRect*
0 Rectangle with rounded corners*
0 $1 Rounding radius*
0 $2 $3 $4 $5 $6 $7 $8 $9 X,Y pos of 4 corners*
0 Add a 4 corners polygon primitive as box body*
4,1,4,$2,$3,$4,$5,$6,$7,$8,$9,$2,$3,0*
0 Add four circle primitives for the rounded corners*
1,1,$1+$1,$2,$3*
1,1,$1+$1,$4,$5*
1,1,$1+$1,$6,$7*
1,1,$1+$1,$8,$9*
0 Add four rect primitives between the rounded corners*
20,1,$1+$1,$2,$3,$4,$5,0*
20,1,$1+$1,$4,$5,$6,$7,0*
20,1,$1+$1,$6,$7,$8,$9,0*
20,1,$1+$1,$8,$9,$2,$3,0*%
%AMFreePoly0*
4,1,14,0.509355,0.220355,0.620355,0.109355,0.635000,0.074000,0.635000,-0.185000,0.620355,-0.220355,0.585000,-0.235000,-0.585000,-0.235000,-0.620355,-0.220355,-0.635000,-0.185000,-0.635000,0.185000,-0.620355,0.220355,-0.585000,0.235000,0.474000,0.235000,0.509355,0.220355,0.509355,0.220355,$1*%
%AMFreePoly1*
4,1,14,0.016477,0.309197,0.166477,0.149197,0.180000,0.115000,0.180000,-0.115000,0.165355,-0.150355,0.130000,-0.165000,-0.130000,-0.165000,-0.165355,-0.150355,-0.180000,-0.115000,-0.180000,0.275000,-0.165355,0.310355,-0.130000,0.325000,-0.020000,0.325000,0.016477,0.309197,0.016477,0.309197,$1*%
%AMFreePoly2*
4,1,14,0.165355,0.310355,0.180000,0.275000,0.180000,-0.115000,0.165355,-0.150355,0.130000,-0.165000,-0.130000,-0.165000,-0.165355,-0.150355,-0.180000,-0.115000,-0.180000,0.115000,-0.166477,0.149197,-0.016477,0.309197,0.020000,0.325000,0.130000,0.325000,0.165355,0.310355,0.165355,0.310355,$1*%
G04 Aperture macros list end*
%ADD10C,0.152400*%
%ADD11C,0.150000*%
%ADD12C,0.200000*%
%ADD13C,0.127000*%
%ADD14C,0.120000*%
%ADD15C,0.171803*%
%ADD16C,0.080000*%
%ADD17C,0.160000*%
%ADD18RoundRect,0.050000X-0.175000X0.290000X-0.175000X-0.290000X0.175000X-0.290000X0.175000X0.290000X0*%
%ADD19RoundRect,0.050000X-0.290000X-0.175000X0.290000X-0.175000X0.290000X0.175000X-0.290000X0.175000X0*%
%ADD20C,2.100000*%
%ADD21RoundRect,0.190000X0.140000X0.170000X-0.140000X0.170000X-0.140000X-0.170000X0.140000X-0.170000X0*%
%ADD22C,1.100000*%
%ADD23RoundRect,0.275000X0.475000X-0.225000X0.475000X0.225000X-0.475000X0.225000X-0.475000X-0.225000X0*%
%ADD24O,1.500000X1.000000*%
%ADD25RoundRect,0.190000X0.170000X-0.140000X0.170000X0.140000X-0.170000X0.140000X-0.170000X-0.140000X0*%
%ADD26RoundRect,0.185000X0.135000X0.185000X-0.135000X0.185000X-0.135000X-0.185000X0.135000X-0.185000X0*%
%ADD27FreePoly0,0.000000*%
%ADD28RoundRect,0.050000X-0.585000X-0.185000X0.585000X-0.185000X0.585000X0.185000X-0.585000X0.185000X0*%
%ADD29RoundRect,0.050000X0.185000X-0.585000X0.185000X0.585000X-0.185000X0.585000X-0.185000X-0.585000X0*%
%ADD30RoundRect,0.050000X0.585000X0.185000X-0.585000X0.185000X-0.585000X-0.185000X0.585000X-0.185000X0*%
%ADD31RoundRect,0.050000X-0.185000X0.585000X-0.185000X-0.585000X0.185000X-0.585000X0.185000X0.585000X0*%
%ADD32RoundRect,0.050000X-0.800000X-0.800000X0.800000X-0.800000X0.800000X0.800000X-0.800000X0.800000X0*%
%ADD33RoundRect,0.050000X0.350000X-0.300000X0.350000X0.300000X-0.350000X0.300000X-0.350000X-0.300000X0*%
%ADD34RoundRect,0.185000X0.185000X-0.135000X0.185000X0.135000X-0.185000X0.135000X-0.185000X-0.135000X0*%
%ADD35RoundRect,0.190000X-0.140000X-0.170000X0.140000X-0.170000X0.140000X0.170000X-0.140000X0.170000X0*%
%ADD36RoundRect,0.190000X-0.170000X0.140000X-0.170000X-0.140000X0.170000X-0.140000X0.170000X0.140000X0*%
%ADD37RoundRect,0.185000X-0.135000X-0.185000X0.135000X-0.185000X0.135000X0.185000X-0.135000X0.185000X0*%
%ADD38RoundRect,0.268750X-0.256250X0.218750X-0.256250X-0.218750X0.256250X-0.218750X0.256250X0.218750X0*%
%ADD39RoundRect,0.200000X-0.587500X-0.150000X0.587500X-0.150000X0.587500X0.150000X-0.587500X0.150000X0*%
%ADD40RoundRect,0.050000X0.000000X0.367696X-0.367696X0.000000X0.000000X-0.367696X0.367696X0.000000X0*%
%ADD41FreePoly1,180.000000*%
%ADD42FreePoly2,180.000000*%
%ADD43FreePoly1,0.000000*%
%ADD44FreePoly2,0.000000*%
%ADD45RoundRect,0.185000X-0.185000X0.135000X-0.185000X-0.135000X0.185000X-0.135000X0.185000X0.135000X0*%
%ADD46C,0.300000*%
%ADD47RoundRect,0.050000X-1.250000X1.250000X-1.250000X-1.250000X1.250000X-1.250000X1.250000X1.250000X0*%
%ADD48RoundRect,0.197500X-0.147500X-0.172500X0.147500X-0.172500X0.147500X0.172500X-0.147500X0.172500X0*%
%ADD49RoundRect,0.300000X-0.425000X0.450000X-0.425000X-0.450000X0.425000X-0.450000X0.425000X0.450000X0*%
%ADD50RoundRect,0.050000X0.000000X-0.367696X0.367696X0.000000X0.000000X0.367696X-0.367696X0.000000X0*%
%ADD51RoundRect,0.300000X0.450000X0.425000X-0.450000X0.425000X-0.450000X-0.425000X0.450000X-0.425000X0*%
%ADD52RoundRect,0.268750X0.381250X-0.218750X0.381250X0.218750X-0.381250X0.218750X-0.381250X-0.218750X0*%
%ADD53RoundRect,0.050000X-1.100000X-0.525000X1.100000X-0.525000X1.100000X0.525000X-1.100000X0.525000X0*%
%ADD54RoundRect,0.050000X-0.525000X-0.500000X0.525000X-0.500000X0.525000X0.500000X-0.525000X0.500000X0*%
%ADD55RoundRect,0.200000X0.150000X-0.587500X0.150000X0.587500X-0.150000X0.587500X-0.150000X-0.587500X0*%
%ADD56RoundRect,0.287500X0.387500X0.237500X-0.387500X0.237500X-0.387500X-0.237500X0.387500X-0.237500X0*%
G04 APERTURE END LIST*
D10*
X210150000Y-97550000D02*
X210150000Y-97800000D01*
X209250000Y-96950000D02*
X210150000Y-97550000D01*
X205400000Y-90650000D02*
X205400000Y-91550000D01*
X205400000Y-89600000D02*
X205400000Y-90650000D01*
X204300000Y-89600000D02*
X205400000Y-89600000D01*
X208900000Y-89850000D02*
X208700000Y-89650000D01*
X208900000Y-92500000D02*
X208900000Y-89850000D01*
X184900000Y-94600000D02*
X184900000Y-94500000D01*
X184900000Y-96500000D02*
X184900000Y-94600000D01*
X182600000Y-90800000D02*
X182600000Y-92300000D01*
X183800000Y-90800000D02*
X182600000Y-90800000D01*
X183800000Y-89600000D02*
X183800000Y-90800000D01*
X189600000Y-90900000D02*
X189600000Y-94300000D01*
X189600000Y-88500000D02*
X189600000Y-90900000D01*
D11*
%TO.C,U7*%
X205580723Y-89654895D02*
X205580723Y-90312876D01*
X205619428Y-90390285D01*
X205658133Y-90428990D01*
X205735542Y-90467695D01*
X205890361Y-90467695D01*
X205967771Y-90428990D01*
X206006476Y-90390285D01*
X206045180Y-90312876D01*
X206045180Y-89654895D01*
X206354819Y-89654895D02*
X206896685Y-89654895D01*
X206548342Y-90467695D01*
%TO.C,ANT1*%
X216184038Y-111735466D02*
X216571085Y-111735466D01*
X216106628Y-111967695D02*
X216377561Y-111154895D01*
X216648495Y-111967695D01*
X216919428Y-111967695D02*
X216919428Y-111154895D01*
X217383885Y-111967695D01*
X217383885Y-111154895D01*
X217654819Y-111154895D02*
X218119276Y-111154895D01*
X217887047Y-111967695D02*
X217887047Y-111154895D01*
X218815961Y-111967695D02*
X218351504Y-111967695D01*
X218583733Y-111967695D02*
X218583733Y-111154895D01*
X218506323Y-111271009D01*
X218428914Y-111348419D01*
X218351504Y-111387123D01*
%TO.C,C19*%
X187177485Y-111490285D02*
X187138780Y-111528990D01*
X187022666Y-111567695D01*
X186945257Y-111567695D01*
X186829142Y-111528990D01*
X186751733Y-111451580D01*
X186713028Y-111374171D01*
X186674323Y-111219352D01*
X186674323Y-111103238D01*
X186713028Y-110948419D01*
X186751733Y-110871009D01*
X186829142Y-110793600D01*
X186945257Y-110754895D01*
X187022666Y-110754895D01*
X187138780Y-110793600D01*
X187177485Y-110832304D01*
X187951580Y-111567695D02*
X187487123Y-111567695D01*
X187719352Y-111567695D02*
X187719352Y-110754895D01*
X187641942Y-110871009D01*
X187564533Y-110948419D01*
X187487123Y-110987123D01*
X188338628Y-111567695D02*
X188493447Y-111567695D01*
X188570857Y-111528990D01*
X188609561Y-111490285D01*
X188686971Y-111374171D01*
X188725676Y-111219352D01*
X188725676Y-110909714D01*
X188686971Y-110832304D01*
X188648266Y-110793600D01*
X188570857Y-110754895D01*
X188416038Y-110754895D01*
X188338628Y-110793600D01*
X188299923Y-110832304D01*
X188261219Y-110909714D01*
X188261219Y-111103238D01*
X188299923Y-111180647D01*
X188338628Y-111219352D01*
X188416038Y-111258057D01*
X188570857Y-111258057D01*
X188648266Y-111219352D01*
X188686971Y-111180647D01*
X188725676Y-111103238D01*
%TO.C,C4*%
X211590285Y-96735466D02*
X211628990Y-96774171D01*
X211667695Y-96890285D01*
X211667695Y-96967695D01*
X211628990Y-97083809D01*
X211551580Y-97161219D01*
X211474171Y-97199923D01*
X211319352Y-97238628D01*
X211203238Y-97238628D01*
X211048419Y-97199923D01*
X210971009Y-97161219D01*
X210893600Y-97083809D01*
X210854895Y-96967695D01*
X210854895Y-96890285D01*
X210893600Y-96774171D01*
X210932304Y-96735466D01*
X211125828Y-96038780D02*
X211667695Y-96038780D01*
X210816190Y-96232304D02*
X211396761Y-96425828D01*
X211396761Y-95922666D01*
%TO.C,R18*%
X192277485Y-96267695D02*
X192006552Y-95880647D01*
X191813028Y-96267695D02*
X191813028Y-95454895D01*
X192122666Y-95454895D01*
X192200076Y-95493600D01*
X192238780Y-95532304D01*
X192277485Y-95609714D01*
X192277485Y-95725828D01*
X192238780Y-95803238D01*
X192200076Y-95841942D01*
X192122666Y-95880647D01*
X191813028Y-95880647D01*
X193051580Y-96267695D02*
X192587123Y-96267695D01*
X192819352Y-96267695D02*
X192819352Y-95454895D01*
X192741942Y-95571009D01*
X192664533Y-95648419D01*
X192587123Y-95687123D01*
X193516038Y-95803238D02*
X193438628Y-95764533D01*
X193399923Y-95725828D01*
X193361219Y-95648419D01*
X193361219Y-95609714D01*
X193399923Y-95532304D01*
X193438628Y-95493600D01*
X193516038Y-95454895D01*
X193670857Y-95454895D01*
X193748266Y-95493600D01*
X193786971Y-95532304D01*
X193825676Y-95609714D01*
X193825676Y-95648419D01*
X193786971Y-95725828D01*
X193748266Y-95764533D01*
X193670857Y-95803238D01*
X193516038Y-95803238D01*
X193438628Y-95841942D01*
X193399923Y-95880647D01*
X193361219Y-95958057D01*
X193361219Y-96112876D01*
X193399923Y-96190285D01*
X193438628Y-96228990D01*
X193516038Y-96267695D01*
X193670857Y-96267695D01*
X193748266Y-96228990D01*
X193786971Y-96190285D01*
X193825676Y-96112876D01*
X193825676Y-95958057D01*
X193786971Y-95880647D01*
X193748266Y-95841942D01*
X193670857Y-95803238D01*
%TO.C,U2*%
X192880723Y-99954895D02*
X192880723Y-100612876D01*
X192919428Y-100690285D01*
X192958133Y-100728990D01*
X193035542Y-100767695D01*
X193190361Y-100767695D01*
X193267771Y-100728990D01*
X193306476Y-100690285D01*
X193345180Y-100612876D01*
X193345180Y-99954895D01*
X193693523Y-100032304D02*
X193732228Y-99993600D01*
X193809638Y-99954895D01*
X194003161Y-99954895D01*
X194080571Y-99993600D01*
X194119276Y-100032304D01*
X194157980Y-100109714D01*
X194157980Y-100187123D01*
X194119276Y-100303238D01*
X193654819Y-100767695D01*
X194157980Y-100767695D01*
%TO.C,D3*%
X193767695Y-88699923D02*
X192954895Y-88699923D01*
X192954895Y-88506400D01*
X192993600Y-88390285D01*
X193071009Y-88312876D01*
X193148419Y-88274171D01*
X193303238Y-88235466D01*
X193419352Y-88235466D01*
X193574171Y-88274171D01*
X193651580Y-88312876D01*
X193728990Y-88390285D01*
X193767695Y-88506400D01*
X193767695Y-88699923D01*
X192954895Y-87964533D02*
X192954895Y-87461371D01*
X193264533Y-87732304D01*
X193264533Y-87616190D01*
X193303238Y-87538780D01*
X193341942Y-87500076D01*
X193419352Y-87461371D01*
X193612876Y-87461371D01*
X193690285Y-87500076D01*
X193728990Y-87538780D01*
X193767695Y-87616190D01*
X193767695Y-87848419D01*
X193728990Y-87925828D01*
X193690285Y-87964533D01*
%TO.C,R15*%
X209917695Y-91822514D02*
X209530647Y-92093447D01*
X209917695Y-92286971D02*
X209104895Y-92286971D01*
X209104895Y-91977333D01*
X209143600Y-91899923D01*
X209182304Y-91861219D01*
X209259714Y-91822514D01*
X209375828Y-91822514D01*
X209453238Y-91861219D01*
X209491942Y-91899923D01*
X209530647Y-91977333D01*
X209530647Y-92286971D01*
X209917695Y-91048419D02*
X209917695Y-91512876D01*
X209917695Y-91280647D02*
X209104895Y-91280647D01*
X209221009Y-91358057D01*
X209298419Y-91435466D01*
X209337123Y-91512876D01*
X209104895Y-90313028D02*
X209104895Y-90700076D01*
X209491942Y-90738780D01*
X209453238Y-90700076D01*
X209414533Y-90622666D01*
X209414533Y-90429142D01*
X209453238Y-90351733D01*
X209491942Y-90313028D01*
X209569352Y-90274323D01*
X209762876Y-90274323D01*
X209840285Y-90313028D01*
X209878990Y-90351733D01*
X209917695Y-90429142D01*
X209917695Y-90622666D01*
X209878990Y-90700076D01*
X209840285Y-90738780D01*
%TO.C,C21*%
X180777485Y-95290285D02*
X180738780Y-95328990D01*
X180622666Y-95367695D01*
X180545257Y-95367695D01*
X180429142Y-95328990D01*
X180351733Y-95251580D01*
X180313028Y-95174171D01*
X180274323Y-95019352D01*
X180274323Y-94903238D01*
X180313028Y-94748419D01*
X180351733Y-94671009D01*
X180429142Y-94593600D01*
X180545257Y-94554895D01*
X180622666Y-94554895D01*
X180738780Y-94593600D01*
X180777485Y-94632304D01*
X181087123Y-94632304D02*
X181125828Y-94593600D01*
X181203238Y-94554895D01*
X181396761Y-94554895D01*
X181474171Y-94593600D01*
X181512876Y-94632304D01*
X181551580Y-94709714D01*
X181551580Y-94787123D01*
X181512876Y-94903238D01*
X181048419Y-95367695D01*
X181551580Y-95367695D01*
X182325676Y-95367695D02*
X181861219Y-95367695D01*
X182093447Y-95367695D02*
X182093447Y-94554895D01*
X182016038Y-94671009D01*
X181938628Y-94748419D01*
X181861219Y-94787123D01*
%TO.C,C13*%
X184990285Y-109022514D02*
X185028990Y-109061219D01*
X185067695Y-109177333D01*
X185067695Y-109254742D01*
X185028990Y-109370857D01*
X184951580Y-109448266D01*
X184874171Y-109486971D01*
X184719352Y-109525676D01*
X184603238Y-109525676D01*
X184448419Y-109486971D01*
X184371009Y-109448266D01*
X184293600Y-109370857D01*
X184254895Y-109254742D01*
X184254895Y-109177333D01*
X184293600Y-109061219D01*
X184332304Y-109022514D01*
X185067695Y-108248419D02*
X185067695Y-108712876D01*
X185067695Y-108480647D02*
X184254895Y-108480647D01*
X184371009Y-108558057D01*
X184448419Y-108635466D01*
X184487123Y-108712876D01*
X184254895Y-107977485D02*
X184254895Y-107474323D01*
X184564533Y-107745257D01*
X184564533Y-107629142D01*
X184603238Y-107551733D01*
X184641942Y-107513028D01*
X184719352Y-107474323D01*
X184912876Y-107474323D01*
X184990285Y-107513028D01*
X185028990Y-107551733D01*
X185067695Y-107629142D01*
X185067695Y-107861371D01*
X185028990Y-107938780D01*
X184990285Y-107977485D01*
%TO.C,C30*%
X204777485Y-89290285D02*
X204738780Y-89328990D01*
X204622666Y-89367695D01*
X204545257Y-89367695D01*
X204429142Y-89328990D01*
X204351733Y-89251580D01*
X204313028Y-89174171D01*
X204274323Y-89019352D01*
X204274323Y-88903238D01*
X204313028Y-88748419D01*
X204351733Y-88671009D01*
X204429142Y-88593600D01*
X204545257Y-88554895D01*
X204622666Y-88554895D01*
X204738780Y-88593600D01*
X204777485Y-88632304D01*
X205048419Y-88554895D02*
X205551580Y-88554895D01*
X205280647Y-88864533D01*
X205396761Y-88864533D01*
X205474171Y-88903238D01*
X205512876Y-88941942D01*
X205551580Y-89019352D01*
X205551580Y-89212876D01*
X205512876Y-89290285D01*
X205474171Y-89328990D01*
X205396761Y-89367695D01*
X205164533Y-89367695D01*
X205087123Y-89328990D01*
X205048419Y-89290285D01*
X206054742Y-88554895D02*
X206132152Y-88554895D01*
X206209561Y-88593600D01*
X206248266Y-88632304D01*
X206286971Y-88709714D01*
X206325676Y-88864533D01*
X206325676Y-89058057D01*
X206286971Y-89212876D01*
X206248266Y-89290285D01*
X206209561Y-89328990D01*
X206132152Y-89367695D01*
X206054742Y-89367695D01*
X205977333Y-89328990D01*
X205938628Y-89290285D01*
X205899923Y-89212876D01*
X205861219Y-89058057D01*
X205861219Y-88864533D01*
X205899923Y-88709714D01*
X205938628Y-88632304D01*
X205977333Y-88593600D01*
X206054742Y-88554895D01*
%TO.C,R17*%
X189177485Y-97467695D02*
X188906552Y-97080647D01*
X188713028Y-97467695D02*
X188713028Y-96654895D01*
X189022666Y-96654895D01*
X189100076Y-96693600D01*
X189138780Y-96732304D01*
X189177485Y-96809714D01*
X189177485Y-96925828D01*
X189138780Y-97003238D01*
X189100076Y-97041942D01*
X189022666Y-97080647D01*
X188713028Y-97080647D01*
X189951580Y-97467695D02*
X189487123Y-97467695D01*
X189719352Y-97467695D02*
X189719352Y-96654895D01*
X189641942Y-96771009D01*
X189564533Y-96848419D01*
X189487123Y-96887123D01*
X190222514Y-96654895D02*
X190764380Y-96654895D01*
X190416038Y-97467695D01*
%TO.C,R6*%
X184467695Y-106535466D02*
X184080647Y-106806400D01*
X184467695Y-106999923D02*
X183654895Y-106999923D01*
X183654895Y-106690285D01*
X183693600Y-106612876D01*
X183732304Y-106574171D01*
X183809714Y-106535466D01*
X183925828Y-106535466D01*
X184003238Y-106574171D01*
X184041942Y-106612876D01*
X184080647Y-106690285D01*
X184080647Y-106999923D01*
X183654895Y-105838780D02*
X183654895Y-105993600D01*
X183693600Y-106071009D01*
X183732304Y-106109714D01*
X183848419Y-106187123D01*
X184003238Y-106225828D01*
X184312876Y-106225828D01*
X184390285Y-106187123D01*
X184428990Y-106148419D01*
X184467695Y-106071009D01*
X184467695Y-105916190D01*
X184428990Y-105838780D01*
X184390285Y-105800076D01*
X184312876Y-105761371D01*
X184119352Y-105761371D01*
X184041942Y-105800076D01*
X184003238Y-105838780D01*
X183964533Y-105916190D01*
X183964533Y-106071009D01*
X184003238Y-106148419D01*
X184041942Y-106187123D01*
X184119352Y-106225828D01*
%TO.C,C11*%
X186590285Y-106522514D02*
X186628990Y-106561219D01*
X186667695Y-106677333D01*
X186667695Y-106754742D01*
X186628990Y-106870857D01*
X186551580Y-106948266D01*
X186474171Y-106986971D01*
X186319352Y-107025676D01*
X186203238Y-107025676D01*
X186048419Y-106986971D01*
X185971009Y-106948266D01*
X185893600Y-106870857D01*
X185854895Y-106754742D01*
X185854895Y-106677333D01*
X185893600Y-106561219D01*
X185932304Y-106522514D01*
X186667695Y-105748419D02*
X186667695Y-106212876D01*
X186667695Y-105980647D02*
X185854895Y-105980647D01*
X185971009Y-106058057D01*
X186048419Y-106135466D01*
X186087123Y-106212876D01*
X186667695Y-104974323D02*
X186667695Y-105438780D01*
X186667695Y-105206552D02*
X185854895Y-105206552D01*
X185971009Y-105283961D01*
X186048419Y-105361371D01*
X186087123Y-105438780D01*
%TO.C,D1*%
X181967695Y-91099923D02*
X181154895Y-91099923D01*
X181154895Y-90906400D01*
X181193600Y-90790285D01*
X181271009Y-90712876D01*
X181348419Y-90674171D01*
X181503238Y-90635466D01*
X181619352Y-90635466D01*
X181774171Y-90674171D01*
X181851580Y-90712876D01*
X181928990Y-90790285D01*
X181967695Y-90906400D01*
X181967695Y-91099923D01*
X181967695Y-89861371D02*
X181967695Y-90325828D01*
X181967695Y-90093600D02*
X181154895Y-90093600D01*
X181271009Y-90171009D01*
X181348419Y-90248419D01*
X181387123Y-90325828D01*
%TO.C,C7*%
X186990285Y-90035466D02*
X187028990Y-90074171D01*
X187067695Y-90190285D01*
X187067695Y-90267695D01*
X187028990Y-90383809D01*
X186951580Y-90461219D01*
X186874171Y-90499923D01*
X186719352Y-90538628D01*
X186603238Y-90538628D01*
X186448419Y-90499923D01*
X186371009Y-90461219D01*
X186293600Y-90383809D01*
X186254895Y-90267695D01*
X186254895Y-90190285D01*
X186293600Y-90074171D01*
X186332304Y-90035466D01*
X186254895Y-89764533D02*
X186254895Y-89222666D01*
X187067695Y-89571009D01*
%TO.C,U4*%
X183354895Y-97719276D02*
X184012876Y-97719276D01*
X184090285Y-97680571D01*
X184128990Y-97641866D01*
X184167695Y-97564457D01*
X184167695Y-97409638D01*
X184128990Y-97332228D01*
X184090285Y-97293523D01*
X184012876Y-97254819D01*
X183354895Y-97254819D01*
X183625828Y-96519428D02*
X184167695Y-96519428D01*
X183316190Y-96712952D02*
X183896761Y-96906476D01*
X183896761Y-96403314D01*
%TO.C,U3*%
X187354895Y-90519276D02*
X188012876Y-90519276D01*
X188090285Y-90480571D01*
X188128990Y-90441866D01*
X188167695Y-90364457D01*
X188167695Y-90209638D01*
X188128990Y-90132228D01*
X188090285Y-90093523D01*
X188012876Y-90054819D01*
X187354895Y-90054819D01*
X187354895Y-89745180D02*
X187354895Y-89242019D01*
X187664533Y-89512952D01*
X187664533Y-89396838D01*
X187703238Y-89319428D01*
X187741942Y-89280723D01*
X187819352Y-89242019D01*
X188012876Y-89242019D01*
X188090285Y-89280723D01*
X188128990Y-89319428D01*
X188167695Y-89396838D01*
X188167695Y-89629066D01*
X188128990Y-89706476D01*
X188090285Y-89745180D01*
%TO.C,R19*%
X190277485Y-90567695D02*
X190006552Y-90180647D01*
X189813028Y-90567695D02*
X189813028Y-89754895D01*
X190122666Y-89754895D01*
X190200076Y-89793600D01*
X190238780Y-89832304D01*
X190277485Y-89909714D01*
X190277485Y-90025828D01*
X190238780Y-90103238D01*
X190200076Y-90141942D01*
X190122666Y-90180647D01*
X189813028Y-90180647D01*
X191051580Y-90567695D02*
X190587123Y-90567695D01*
X190819352Y-90567695D02*
X190819352Y-89754895D01*
X190741942Y-89871009D01*
X190664533Y-89948419D01*
X190587123Y-89987123D01*
X191438628Y-90567695D02*
X191593447Y-90567695D01*
X191670857Y-90528990D01*
X191709561Y-90490285D01*
X191786971Y-90374171D01*
X191825676Y-90219352D01*
X191825676Y-89909714D01*
X191786971Y-89832304D01*
X191748266Y-89793600D01*
X191670857Y-89754895D01*
X191516038Y-89754895D01*
X191438628Y-89793600D01*
X191399923Y-89832304D01*
X191361219Y-89909714D01*
X191361219Y-90103238D01*
X191399923Y-90180647D01*
X191438628Y-90219352D01*
X191516038Y-90258057D01*
X191670857Y-90258057D01*
X191748266Y-90219352D01*
X191786971Y-90180647D01*
X191825676Y-90103238D01*
%TO.C,R3*%
X185567695Y-106535466D02*
X185180647Y-106806400D01*
X185567695Y-106999923D02*
X184754895Y-106999923D01*
X184754895Y-106690285D01*
X184793600Y-106612876D01*
X184832304Y-106574171D01*
X184909714Y-106535466D01*
X185025828Y-106535466D01*
X185103238Y-106574171D01*
X185141942Y-106612876D01*
X185180647Y-106690285D01*
X185180647Y-106999923D01*
X184754895Y-106264533D02*
X184754895Y-105761371D01*
X185064533Y-106032304D01*
X185064533Y-105916190D01*
X185103238Y-105838780D01*
X185141942Y-105800076D01*
X185219352Y-105761371D01*
X185412876Y-105761371D01*
X185490285Y-105800076D01*
X185528990Y-105838780D01*
X185567695Y-105916190D01*
X185567695Y-106148419D01*
X185528990Y-106225828D01*
X185490285Y-106264533D01*
%TO.C,R8*%
X187864533Y-112667695D02*
X187593600Y-112280647D01*
X187400076Y-112667695D02*
X187400076Y-111854895D01*
X187709714Y-111854895D01*
X187787123Y-111893600D01*
X187825828Y-111932304D01*
X187864533Y-112009714D01*
X187864533Y-112125828D01*
X187825828Y-112203238D01*
X187787123Y-112241942D01*
X187709714Y-112280647D01*
X187400076Y-112280647D01*
X188328990Y-112203238D02*
X188251580Y-112164533D01*
X188212876Y-112125828D01*
X188174171Y-112048419D01*
X188174171Y-112009714D01*
X188212876Y-111932304D01*
X188251580Y-111893600D01*
X188328990Y-111854895D01*
X188483809Y-111854895D01*
X188561219Y-111893600D01*
X188599923Y-111932304D01*
X188638628Y-112009714D01*
X188638628Y-112048419D01*
X188599923Y-112125828D01*
X188561219Y-112164533D01*
X188483809Y-112203238D01*
X188328990Y-112203238D01*
X188251580Y-112241942D01*
X188212876Y-112280647D01*
X188174171Y-112358057D01*
X188174171Y-112512876D01*
X188212876Y-112590285D01*
X188251580Y-112628990D01*
X188328990Y-112667695D01*
X188483809Y-112667695D01*
X188561219Y-112628990D01*
X188599923Y-112590285D01*
X188638628Y-112512876D01*
X188638628Y-112358057D01*
X188599923Y-112280647D01*
X188561219Y-112241942D01*
X188483809Y-112203238D01*
%TO.C,C22*%
X203477485Y-99490285D02*
X203438780Y-99528990D01*
X203322666Y-99567695D01*
X203245257Y-99567695D01*
X203129142Y-99528990D01*
X203051733Y-99451580D01*
X203013028Y-99374171D01*
X202974323Y-99219352D01*
X202974323Y-99103238D01*
X203013028Y-98948419D01*
X203051733Y-98871009D01*
X203129142Y-98793600D01*
X203245257Y-98754895D01*
X203322666Y-98754895D01*
X203438780Y-98793600D01*
X203477485Y-98832304D01*
X203787123Y-98832304D02*
X203825828Y-98793600D01*
X203903238Y-98754895D01*
X204096761Y-98754895D01*
X204174171Y-98793600D01*
X204212876Y-98832304D01*
X204251580Y-98909714D01*
X204251580Y-98987123D01*
X204212876Y-99103238D01*
X203748419Y-99567695D01*
X204251580Y-99567695D01*
X204561219Y-98832304D02*
X204599923Y-98793600D01*
X204677333Y-98754895D01*
X204870857Y-98754895D01*
X204948266Y-98793600D01*
X204986971Y-98832304D01*
X205025676Y-98909714D01*
X205025676Y-98987123D01*
X204986971Y-99103238D01*
X204522514Y-99567695D01*
X205025676Y-99567695D01*
%TO.C,R9*%
X187864533Y-114667695D02*
X187593600Y-114280647D01*
X187400076Y-114667695D02*
X187400076Y-113854895D01*
X187709714Y-113854895D01*
X187787123Y-113893600D01*
X187825828Y-113932304D01*
X187864533Y-114009714D01*
X187864533Y-114125828D01*
X187825828Y-114203238D01*
X187787123Y-114241942D01*
X187709714Y-114280647D01*
X187400076Y-114280647D01*
X188251580Y-114667695D02*
X188406400Y-114667695D01*
X188483809Y-114628990D01*
X188522514Y-114590285D01*
X188599923Y-114474171D01*
X188638628Y-114319352D01*
X188638628Y-114009714D01*
X188599923Y-113932304D01*
X188561219Y-113893600D01*
X188483809Y-113854895D01*
X188328990Y-113854895D01*
X188251580Y-113893600D01*
X188212876Y-113932304D01*
X188174171Y-114009714D01*
X188174171Y-114203238D01*
X188212876Y-114280647D01*
X188251580Y-114319352D01*
X188328990Y-114358057D01*
X188483809Y-114358057D01*
X188561219Y-114319352D01*
X188599923Y-114280647D01*
X188638628Y-114203238D01*
%TO.C,R14*%
X201477485Y-97567695D02*
X201206552Y-97180647D01*
X201013028Y-97567695D02*
X201013028Y-96754895D01*
X201322666Y-96754895D01*
X201400076Y-96793600D01*
X201438780Y-96832304D01*
X201477485Y-96909714D01*
X201477485Y-97025828D01*
X201438780Y-97103238D01*
X201400076Y-97141942D01*
X201322666Y-97180647D01*
X201013028Y-97180647D01*
X202251580Y-97567695D02*
X201787123Y-97567695D01*
X202019352Y-97567695D02*
X202019352Y-96754895D01*
X201941942Y-96871009D01*
X201864533Y-96948419D01*
X201787123Y-96987123D01*
X202948266Y-97025828D02*
X202948266Y-97567695D01*
X202754742Y-96716190D02*
X202561219Y-97296761D01*
X203064380Y-97296761D01*
%TO.C,R12*%
X201477485Y-98567695D02*
X201206552Y-98180647D01*
X201013028Y-98567695D02*
X201013028Y-97754895D01*
X201322666Y-97754895D01*
X201400076Y-97793600D01*
X201438780Y-97832304D01*
X201477485Y-97909714D01*
X201477485Y-98025828D01*
X201438780Y-98103238D01*
X201400076Y-98141942D01*
X201322666Y-98180647D01*
X201013028Y-98180647D01*
X202251580Y-98567695D02*
X201787123Y-98567695D01*
X202019352Y-98567695D02*
X202019352Y-97754895D01*
X201941942Y-97871009D01*
X201864533Y-97948419D01*
X201787123Y-97987123D01*
X202561219Y-97832304D02*
X202599923Y-97793600D01*
X202677333Y-97754895D01*
X202870857Y-97754895D01*
X202948266Y-97793600D01*
X202986971Y-97832304D01*
X203025676Y-97909714D01*
X203025676Y-97987123D01*
X202986971Y-98103238D01*
X202522514Y-98567695D01*
X203025676Y-98567695D01*
%TO.C,U5*%
X211380723Y-92154895D02*
X211380723Y-92812876D01*
X211419428Y-92890285D01*
X211458133Y-92928990D01*
X211535542Y-92967695D01*
X211690361Y-92967695D01*
X211767771Y-92928990D01*
X211806476Y-92890285D01*
X211845180Y-92812876D01*
X211845180Y-92154895D01*
X212619276Y-92154895D02*
X212232228Y-92154895D01*
X212193523Y-92541942D01*
X212232228Y-92503238D01*
X212309638Y-92464533D01*
X212503161Y-92464533D01*
X212580571Y-92503238D01*
X212619276Y-92541942D01*
X212657980Y-92619352D01*
X212657980Y-92812876D01*
X212619276Y-92890285D01*
X212580571Y-92928990D01*
X212503161Y-92967695D01*
X212309638Y-92967695D01*
X212232228Y-92928990D01*
X212193523Y-92890285D01*
%TO.C,BZ1*%
X204741942Y-91566038D02*
X204780647Y-91449923D01*
X204819352Y-91411219D01*
X204896761Y-91372514D01*
X205012876Y-91372514D01*
X205090285Y-91411219D01*
X205128990Y-91449923D01*
X205167695Y-91527333D01*
X205167695Y-91836971D01*
X204354895Y-91836971D01*
X204354895Y-91566038D01*
X204393600Y-91488628D01*
X204432304Y-91449923D01*
X204509714Y-91411219D01*
X204587123Y-91411219D01*
X204664533Y-91449923D01*
X204703238Y-91488628D01*
X204741942Y-91566038D01*
X204741942Y-91836971D01*
X204354895Y-91101580D02*
X204354895Y-90559714D01*
X205167695Y-91101580D01*
X205167695Y-90559714D01*
X205167695Y-89824323D02*
X205167695Y-90288780D01*
X205167695Y-90056552D02*
X204354895Y-90056552D01*
X204471009Y-90133961D01*
X204548419Y-90211371D01*
X204587123Y-90288780D01*
X194671428Y-89180952D02*
X194671428Y-88419047D01*
X195052380Y-88800000D02*
X194290476Y-88800000D01*
%TO.C,C14*%
X185490285Y-104222514D02*
X185528990Y-104261219D01*
X185567695Y-104377333D01*
X185567695Y-104454742D01*
X185528990Y-104570857D01*
X185451580Y-104648266D01*
X185374171Y-104686971D01*
X185219352Y-104725676D01*
X185103238Y-104725676D01*
X184948419Y-104686971D01*
X184871009Y-104648266D01*
X184793600Y-104570857D01*
X184754895Y-104454742D01*
X184754895Y-104377333D01*
X184793600Y-104261219D01*
X184832304Y-104222514D01*
X185567695Y-103448419D02*
X185567695Y-103912876D01*
X185567695Y-103680647D02*
X184754895Y-103680647D01*
X184871009Y-103758057D01*
X184948419Y-103835466D01*
X184987123Y-103912876D01*
X185025828Y-102751733D02*
X185567695Y-102751733D01*
X184716190Y-102945257D02*
X185296761Y-103138780D01*
X185296761Y-102635619D01*
%TO.C,L1*%
X207964533Y-110967695D02*
X207577485Y-110967695D01*
X207577485Y-110154895D01*
X208661219Y-110967695D02*
X208196761Y-110967695D01*
X208428990Y-110967695D02*
X208428990Y-110154895D01*
X208351580Y-110271009D01*
X208274171Y-110348419D01*
X208196761Y-110387123D01*
%TO.C,C32*%
X184290285Y-100922514D02*
X184328990Y-100961219D01*
X184367695Y-101077333D01*
X184367695Y-101154742D01*
X184328990Y-101270857D01*
X184251580Y-101348266D01*
X184174171Y-101386971D01*
X184019352Y-101425676D01*
X183903238Y-101425676D01*
X183748419Y-101386971D01*
X183671009Y-101348266D01*
X183593600Y-101270857D01*
X183554895Y-101154742D01*
X183554895Y-101077333D01*
X183593600Y-100961219D01*
X183632304Y-100922514D01*
X183554895Y-100651580D02*
X183554895Y-100148419D01*
X183864533Y-100419352D01*
X183864533Y-100303238D01*
X183903238Y-100225828D01*
X183941942Y-100187123D01*
X184019352Y-100148419D01*
X184212876Y-100148419D01*
X184290285Y-100187123D01*
X184328990Y-100225828D01*
X184367695Y-100303238D01*
X184367695Y-100535466D01*
X184328990Y-100612876D01*
X184290285Y-100651580D01*
X183632304Y-99838780D02*
X183593600Y-99800076D01*
X183554895Y-99722666D01*
X183554895Y-99529142D01*
X183593600Y-99451733D01*
X183632304Y-99413028D01*
X183709714Y-99374323D01*
X183787123Y-99374323D01*
X183903238Y-99413028D01*
X184367695Y-99877485D01*
X184367695Y-99374323D01*
%TO.C,R1*%
X212767695Y-96635466D02*
X212380647Y-96906400D01*
X212767695Y-97099923D02*
X211954895Y-97099923D01*
X211954895Y-96790285D01*
X211993600Y-96712876D01*
X212032304Y-96674171D01*
X212109714Y-96635466D01*
X212225828Y-96635466D01*
X212303238Y-96674171D01*
X212341942Y-96712876D01*
X212380647Y-96790285D01*
X212380647Y-97099923D01*
X212767695Y-95861371D02*
X212767695Y-96325828D01*
X212767695Y-96093600D02*
X211954895Y-96093600D01*
X212071009Y-96171009D01*
X212148419Y-96248419D01*
X212187123Y-96325828D01*
%TO.C,C12*%
X189190285Y-90022514D02*
X189228990Y-90061219D01*
X189267695Y-90177333D01*
X189267695Y-90254742D01*
X189228990Y-90370857D01*
X189151580Y-90448266D01*
X189074171Y-90486971D01*
X188919352Y-90525676D01*
X188803238Y-90525676D01*
X188648419Y-90486971D01*
X188571009Y-90448266D01*
X188493600Y-90370857D01*
X188454895Y-90254742D01*
X188454895Y-90177333D01*
X188493600Y-90061219D01*
X188532304Y-90022514D01*
X189267695Y-89248419D02*
X189267695Y-89712876D01*
X189267695Y-89480647D02*
X188454895Y-89480647D01*
X188571009Y-89558057D01*
X188648419Y-89635466D01*
X188687123Y-89712876D01*
X188532304Y-88938780D02*
X188493600Y-88900076D01*
X188454895Y-88822666D01*
X188454895Y-88629142D01*
X188493600Y-88551733D01*
X188532304Y-88513028D01*
X188609714Y-88474323D01*
X188687123Y-88474323D01*
X188803238Y-88513028D01*
X189267695Y-88977485D01*
X189267695Y-88474323D01*
%TO.C,R4*%
X206867695Y-96735466D02*
X206480647Y-97006400D01*
X206867695Y-97199923D02*
X206054895Y-97199923D01*
X206054895Y-96890285D01*
X206093600Y-96812876D01*
X206132304Y-96774171D01*
X206209714Y-96735466D01*
X206325828Y-96735466D01*
X206403238Y-96774171D01*
X206441942Y-96812876D01*
X206480647Y-96890285D01*
X206480647Y-97199923D01*
X206325828Y-96038780D02*
X206867695Y-96038780D01*
X206016190Y-96232304D02*
X206596761Y-96425828D01*
X206596761Y-95922666D01*
%TO.C,C33*%
X206877485Y-88190285D02*
X206838780Y-88228990D01*
X206722666Y-88267695D01*
X206645257Y-88267695D01*
X206529142Y-88228990D01*
X206451733Y-88151580D01*
X206413028Y-88074171D01*
X206374323Y-87919352D01*
X206374323Y-87803238D01*
X206413028Y-87648419D01*
X206451733Y-87571009D01*
X206529142Y-87493600D01*
X206645257Y-87454895D01*
X206722666Y-87454895D01*
X206838780Y-87493600D01*
X206877485Y-87532304D01*
X207148419Y-87454895D02*
X207651580Y-87454895D01*
X207380647Y-87764533D01*
X207496761Y-87764533D01*
X207574171Y-87803238D01*
X207612876Y-87841942D01*
X207651580Y-87919352D01*
X207651580Y-88112876D01*
X207612876Y-88190285D01*
X207574171Y-88228990D01*
X207496761Y-88267695D01*
X207264533Y-88267695D01*
X207187123Y-88228990D01*
X207148419Y-88190285D01*
X207922514Y-87454895D02*
X208425676Y-87454895D01*
X208154742Y-87764533D01*
X208270857Y-87764533D01*
X208348266Y-87803238D01*
X208386971Y-87841942D01*
X208425676Y-87919352D01*
X208425676Y-88112876D01*
X208386971Y-88190285D01*
X208348266Y-88228990D01*
X208270857Y-88267695D01*
X208038628Y-88267695D01*
X207961219Y-88228990D01*
X207922514Y-88190285D01*
%TO.C,R7*%
X181164533Y-102067695D02*
X180893600Y-101680647D01*
X180700076Y-102067695D02*
X180700076Y-101254895D01*
X181009714Y-101254895D01*
X181087123Y-101293600D01*
X181125828Y-101332304D01*
X181164533Y-101409714D01*
X181164533Y-101525828D01*
X181125828Y-101603238D01*
X181087123Y-101641942D01*
X181009714Y-101680647D01*
X180700076Y-101680647D01*
X181435466Y-101254895D02*
X181977333Y-101254895D01*
X181628990Y-102067695D01*
%TO.C,U1*%
X185154895Y-90519276D02*
X185812876Y-90519276D01*
X185890285Y-90480571D01*
X185928990Y-90441866D01*
X185967695Y-90364457D01*
X185967695Y-90209638D01*
X185928990Y-90132228D01*
X185890285Y-90093523D01*
X185812876Y-90054819D01*
X185154895Y-90054819D01*
X185967695Y-89242019D02*
X185967695Y-89706476D01*
X185967695Y-89474247D02*
X185154895Y-89474247D01*
X185271009Y-89551657D01*
X185348419Y-89629066D01*
X185387123Y-89706476D01*
%TO.C,C17*%
X187277485Y-91790285D02*
X187238780Y-91828990D01*
X187122666Y-91867695D01*
X187045257Y-91867695D01*
X186929142Y-91828990D01*
X186851733Y-91751580D01*
X186813028Y-91674171D01*
X186774323Y-91519352D01*
X186774323Y-91403238D01*
X186813028Y-91248419D01*
X186851733Y-91171009D01*
X186929142Y-91093600D01*
X187045257Y-91054895D01*
X187122666Y-91054895D01*
X187238780Y-91093600D01*
X187277485Y-91132304D01*
X188051580Y-91867695D02*
X187587123Y-91867695D01*
X187819352Y-91867695D02*
X187819352Y-91054895D01*
X187741942Y-91171009D01*
X187664533Y-91248419D01*
X187587123Y-91287123D01*
X188322514Y-91054895D02*
X188864380Y-91054895D01*
X188516038Y-91867695D01*
%TO.C,L2*%
X192267695Y-112035466D02*
X192267695Y-112422514D01*
X191454895Y-112422514D01*
X191532304Y-111803238D02*
X191493600Y-111764533D01*
X191454895Y-111687123D01*
X191454895Y-111493600D01*
X191493600Y-111416190D01*
X191532304Y-111377485D01*
X191609714Y-111338780D01*
X191687123Y-111338780D01*
X191803238Y-111377485D01*
X192267695Y-111841942D01*
X192267695Y-111338780D01*
%TO.C,R10*%
X187077485Y-113667695D02*
X186806552Y-113280647D01*
X186613028Y-113667695D02*
X186613028Y-112854895D01*
X186922666Y-112854895D01*
X187000076Y-112893600D01*
X187038780Y-112932304D01*
X187077485Y-113009714D01*
X187077485Y-113125828D01*
X187038780Y-113203238D01*
X187000076Y-113241942D01*
X186922666Y-113280647D01*
X186613028Y-113280647D01*
X187851580Y-113667695D02*
X187387123Y-113667695D01*
X187619352Y-113667695D02*
X187619352Y-112854895D01*
X187541942Y-112971009D01*
X187464533Y-113048419D01*
X187387123Y-113087123D01*
X188354742Y-112854895D02*
X188432152Y-112854895D01*
X188509561Y-112893600D01*
X188548266Y-112932304D01*
X188586971Y-113009714D01*
X188625676Y-113164533D01*
X188625676Y-113358057D01*
X188586971Y-113512876D01*
X188548266Y-113590285D01*
X188509561Y-113628990D01*
X188432152Y-113667695D01*
X188354742Y-113667695D01*
X188277333Y-113628990D01*
X188238628Y-113590285D01*
X188199923Y-113512876D01*
X188161219Y-113358057D01*
X188161219Y-113164533D01*
X188199923Y-113009714D01*
X188238628Y-112932304D01*
X188277333Y-112893600D01*
X188354742Y-112854895D01*
%TO.C,C24*%
X197077485Y-100990285D02*
X197038780Y-101028990D01*
X196922666Y-101067695D01*
X196845257Y-101067695D01*
X196729142Y-101028990D01*
X196651733Y-100951580D01*
X196613028Y-100874171D01*
X196574323Y-100719352D01*
X196574323Y-100603238D01*
X196613028Y-100448419D01*
X196651733Y-100371009D01*
X196729142Y-100293600D01*
X196845257Y-100254895D01*
X196922666Y-100254895D01*
X197038780Y-100293600D01*
X197077485Y-100332304D01*
X197387123Y-100332304D02*
X197425828Y-100293600D01*
X197503238Y-100254895D01*
X197696761Y-100254895D01*
X197774171Y-100293600D01*
X197812876Y-100332304D01*
X197851580Y-100409714D01*
X197851580Y-100487123D01*
X197812876Y-100603238D01*
X197348419Y-101067695D01*
X197851580Y-101067695D01*
X198548266Y-100525828D02*
X198548266Y-101067695D01*
X198354742Y-100216190D02*
X198161219Y-100796761D01*
X198664380Y-100796761D01*
%TO.C,R13*%
X201477485Y-96467695D02*
X201206552Y-96080647D01*
X201013028Y-96467695D02*
X201013028Y-95654895D01*
X201322666Y-95654895D01*
X201400076Y-95693600D01*
X201438780Y-95732304D01*
X201477485Y-95809714D01*
X201477485Y-95925828D01*
X201438780Y-96003238D01*
X201400076Y-96041942D01*
X201322666Y-96080647D01*
X201013028Y-96080647D01*
X202251580Y-96467695D02*
X201787123Y-96467695D01*
X202019352Y-96467695D02*
X202019352Y-95654895D01*
X201941942Y-95771009D01*
X201864533Y-95848419D01*
X201787123Y-95887123D01*
X202522514Y-95654895D02*
X203025676Y-95654895D01*
X202754742Y-95964533D01*
X202870857Y-95964533D01*
X202948266Y-96003238D01*
X202986971Y-96041942D01*
X203025676Y-96119352D01*
X203025676Y-96312876D01*
X202986971Y-96390285D01*
X202948266Y-96428990D01*
X202870857Y-96467695D01*
X202638628Y-96467695D01*
X202561219Y-96428990D01*
X202522514Y-96390285D01*
%TO.C,R5*%
X183764533Y-96267695D02*
X183493600Y-95880647D01*
X183300076Y-96267695D02*
X183300076Y-95454895D01*
X183609714Y-95454895D01*
X183687123Y-95493600D01*
X183725828Y-95532304D01*
X183764533Y-95609714D01*
X183764533Y-95725828D01*
X183725828Y-95803238D01*
X183687123Y-95841942D01*
X183609714Y-95880647D01*
X183300076Y-95880647D01*
X184499923Y-95454895D02*
X184112876Y-95454895D01*
X184074171Y-95841942D01*
X184112876Y-95803238D01*
X184190285Y-95764533D01*
X184383809Y-95764533D01*
X184461219Y-95803238D01*
X184499923Y-95841942D01*
X184538628Y-95919352D01*
X184538628Y-96112876D01*
X184499923Y-96190285D01*
X184461219Y-96228990D01*
X184383809Y-96267695D01*
X184190285Y-96267695D01*
X184112876Y-96228990D01*
X184074171Y-96190285D01*
%TO.C,C6*%
X207890285Y-96735466D02*
X207928990Y-96774171D01*
X207967695Y-96890285D01*
X207967695Y-96967695D01*
X207928990Y-97083809D01*
X207851580Y-97161219D01*
X207774171Y-97199923D01*
X207619352Y-97238628D01*
X207503238Y-97238628D01*
X207348419Y-97199923D01*
X207271009Y-97161219D01*
X207193600Y-97083809D01*
X207154895Y-96967695D01*
X207154895Y-96890285D01*
X207193600Y-96774171D01*
X207232304Y-96735466D01*
X207154895Y-96038780D02*
X207154895Y-96193600D01*
X207193600Y-96271009D01*
X207232304Y-96309714D01*
X207348419Y-96387123D01*
X207503238Y-96425828D01*
X207812876Y-96425828D01*
X207890285Y-96387123D01*
X207928990Y-96348419D01*
X207967695Y-96271009D01*
X207967695Y-96116190D01*
X207928990Y-96038780D01*
X207890285Y-96000076D01*
X207812876Y-95961371D01*
X207619352Y-95961371D01*
X207541942Y-96000076D01*
X207503238Y-96038780D01*
X207464533Y-96116190D01*
X207464533Y-96271009D01*
X207503238Y-96348419D01*
X207541942Y-96387123D01*
X207619352Y-96425828D01*
%TO.C,Q2*%
X193945104Y-92377409D02*
X193906400Y-92454819D01*
X193828990Y-92532228D01*
X193712876Y-92648342D01*
X193674171Y-92725752D01*
X193674171Y-92803161D01*
X193867695Y-92764457D02*
X193828990Y-92841866D01*
X193751580Y-92919276D01*
X193596761Y-92957980D01*
X193325828Y-92957980D01*
X193171009Y-92919276D01*
X193093600Y-92841866D01*
X193054895Y-92764457D01*
X193054895Y-92609638D01*
X193093600Y-92532228D01*
X193171009Y-92454819D01*
X193325828Y-92416114D01*
X193596761Y-92416114D01*
X193751580Y-92454819D01*
X193828990Y-92532228D01*
X193867695Y-92609638D01*
X193867695Y-92764457D01*
X193132304Y-92106476D02*
X193093600Y-92067771D01*
X193054895Y-91990361D01*
X193054895Y-91796838D01*
X193093600Y-91719428D01*
X193132304Y-91680723D01*
X193209714Y-91642019D01*
X193287123Y-91642019D01*
X193403238Y-91680723D01*
X193867695Y-92145180D01*
X193867695Y-91642019D01*
%TO.C,C26*%
X210940285Y-91822514D02*
X210978990Y-91861219D01*
X211017695Y-91977333D01*
X211017695Y-92054742D01*
X210978990Y-92170857D01*
X210901580Y-92248266D01*
X210824171Y-92286971D01*
X210669352Y-92325676D01*
X210553238Y-92325676D01*
X210398419Y-92286971D01*
X210321009Y-92248266D01*
X210243600Y-92170857D01*
X210204895Y-92054742D01*
X210204895Y-91977333D01*
X210243600Y-91861219D01*
X210282304Y-91822514D01*
X210282304Y-91512876D02*
X210243600Y-91474171D01*
X210204895Y-91396761D01*
X210204895Y-91203238D01*
X210243600Y-91125828D01*
X210282304Y-91087123D01*
X210359714Y-91048419D01*
X210437123Y-91048419D01*
X210553238Y-91087123D01*
X211017695Y-91551580D01*
X211017695Y-91048419D01*
X210204895Y-90351733D02*
X210204895Y-90506552D01*
X210243600Y-90583961D01*
X210282304Y-90622666D01*
X210398419Y-90700076D01*
X210553238Y-90738780D01*
X210862876Y-90738780D01*
X210940285Y-90700076D01*
X210978990Y-90661371D01*
X211017695Y-90583961D01*
X211017695Y-90429142D01*
X210978990Y-90351733D01*
X210940285Y-90313028D01*
X210862876Y-90274323D01*
X210669352Y-90274323D01*
X210591942Y-90313028D01*
X210553238Y-90351733D01*
X210514533Y-90429142D01*
X210514533Y-90583961D01*
X210553238Y-90661371D01*
X210591942Y-90700076D01*
X210669352Y-90738780D01*
%TO.C,C10*%
X186590285Y-104222514D02*
X186628990Y-104261219D01*
X186667695Y-104377333D01*
X186667695Y-104454742D01*
X186628990Y-104570857D01*
X186551580Y-104648266D01*
X186474171Y-104686971D01*
X186319352Y-104725676D01*
X186203238Y-104725676D01*
X186048419Y-104686971D01*
X185971009Y-104648266D01*
X185893600Y-104570857D01*
X185854895Y-104454742D01*
X185854895Y-104377333D01*
X185893600Y-104261219D01*
X185932304Y-104222514D01*
X186667695Y-103448419D02*
X186667695Y-103912876D01*
X186667695Y-103680647D02*
X185854895Y-103680647D01*
X185971009Y-103758057D01*
X186048419Y-103835466D01*
X186087123Y-103912876D01*
X185854895Y-102945257D02*
X185854895Y-102867847D01*
X185893600Y-102790438D01*
X185932304Y-102751733D01*
X186009714Y-102713028D01*
X186164533Y-102674323D01*
X186358057Y-102674323D01*
X186512876Y-102713028D01*
X186590285Y-102751733D01*
X186628990Y-102790438D01*
X186667695Y-102867847D01*
X186667695Y-102945257D01*
X186628990Y-103022666D01*
X186590285Y-103061371D01*
X186512876Y-103100076D01*
X186358057Y-103138780D01*
X186164533Y-103138780D01*
X186009714Y-103100076D01*
X185932304Y-103061371D01*
X185893600Y-103022666D01*
X185854895Y-102945257D01*
%TO.C,C2*%
X206890285Y-111935466D02*
X206928990Y-111974171D01*
X206967695Y-112090285D01*
X206967695Y-112167695D01*
X206928990Y-112283809D01*
X206851580Y-112361219D01*
X206774171Y-112399923D01*
X206619352Y-112438628D01*
X206503238Y-112438628D01*
X206348419Y-112399923D01*
X206271009Y-112361219D01*
X206193600Y-112283809D01*
X206154895Y-112167695D01*
X206154895Y-112090285D01*
X206193600Y-111974171D01*
X206232304Y-111935466D01*
X206232304Y-111625828D02*
X206193600Y-111587123D01*
X206154895Y-111509714D01*
X206154895Y-111316190D01*
X206193600Y-111238780D01*
X206232304Y-111200076D01*
X206309714Y-111161371D01*
X206387123Y-111161371D01*
X206503238Y-111200076D01*
X206967695Y-111664533D01*
X206967695Y-111161371D01*
%TO.C,C31*%
X207077485Y-89290285D02*
X207038780Y-89328990D01*
X206922666Y-89367695D01*
X206845257Y-89367695D01*
X206729142Y-89328990D01*
X206651733Y-89251580D01*
X206613028Y-89174171D01*
X206574323Y-89019352D01*
X206574323Y-88903238D01*
X206613028Y-88748419D01*
X206651733Y-88671009D01*
X206729142Y-88593600D01*
X206845257Y-88554895D01*
X206922666Y-88554895D01*
X207038780Y-88593600D01*
X207077485Y-88632304D01*
X207348419Y-88554895D02*
X207851580Y-88554895D01*
X207580647Y-88864533D01*
X207696761Y-88864533D01*
X207774171Y-88903238D01*
X207812876Y-88941942D01*
X207851580Y-89019352D01*
X207851580Y-89212876D01*
X207812876Y-89290285D01*
X207774171Y-89328990D01*
X207696761Y-89367695D01*
X207464533Y-89367695D01*
X207387123Y-89328990D01*
X207348419Y-89290285D01*
X208625676Y-89367695D02*
X208161219Y-89367695D01*
X208393447Y-89367695D02*
X208393447Y-88554895D01*
X208316038Y-88671009D01*
X208238628Y-88748419D01*
X208161219Y-88787123D01*
%TO.C,ANT2*%
X212684038Y-112435466D02*
X213071085Y-112435466D01*
X212606628Y-112667695D02*
X212877561Y-111854895D01*
X213148495Y-112667695D01*
X213419428Y-112667695D02*
X213419428Y-111854895D01*
X213883885Y-112667695D01*
X213883885Y-111854895D01*
X214154819Y-111854895D02*
X214619276Y-111854895D01*
X214387047Y-112667695D02*
X214387047Y-111854895D01*
X214851504Y-111932304D02*
X214890209Y-111893600D01*
X214967619Y-111854895D01*
X215161142Y-111854895D01*
X215238552Y-111893600D01*
X215277257Y-111932304D01*
X215315961Y-112009714D01*
X215315961Y-112087123D01*
X215277257Y-112203238D01*
X214812800Y-112667695D01*
X215315961Y-112667695D01*
%TO.C,C9*%
X187690285Y-106535466D02*
X187728990Y-106574171D01*
X187767695Y-106690285D01*
X187767695Y-106767695D01*
X187728990Y-106883809D01*
X187651580Y-106961219D01*
X187574171Y-106999923D01*
X187419352Y-107038628D01*
X187303238Y-107038628D01*
X187148419Y-106999923D01*
X187071009Y-106961219D01*
X186993600Y-106883809D01*
X186954895Y-106767695D01*
X186954895Y-106690285D01*
X186993600Y-106574171D01*
X187032304Y-106535466D01*
X187767695Y-106148419D02*
X187767695Y-105993600D01*
X187728990Y-105916190D01*
X187690285Y-105877485D01*
X187574171Y-105800076D01*
X187419352Y-105761371D01*
X187109714Y-105761371D01*
X187032304Y-105800076D01*
X186993600Y-105838780D01*
X186954895Y-105916190D01*
X186954895Y-106071009D01*
X186993600Y-106148419D01*
X187032304Y-106187123D01*
X187109714Y-106225828D01*
X187303238Y-106225828D01*
X187380647Y-106187123D01*
X187419352Y-106148419D01*
X187458057Y-106071009D01*
X187458057Y-105916190D01*
X187419352Y-105838780D01*
X187380647Y-105800076D01*
X187303238Y-105761371D01*
%TO.C,C23*%
X197077485Y-99890285D02*
X197038780Y-99928990D01*
X196922666Y-99967695D01*
X196845257Y-99967695D01*
X196729142Y-99928990D01*
X196651733Y-99851580D01*
X196613028Y-99774171D01*
X196574323Y-99619352D01*
X196574323Y-99503238D01*
X196613028Y-99348419D01*
X196651733Y-99271009D01*
X196729142Y-99193600D01*
X196845257Y-99154895D01*
X196922666Y-99154895D01*
X197038780Y-99193600D01*
X197077485Y-99232304D01*
X197387123Y-99232304D02*
X197425828Y-99193600D01*
X197503238Y-99154895D01*
X197696761Y-99154895D01*
X197774171Y-99193600D01*
X197812876Y-99232304D01*
X197851580Y-99309714D01*
X197851580Y-99387123D01*
X197812876Y-99503238D01*
X197348419Y-99967695D01*
X197851580Y-99967695D01*
X198122514Y-99154895D02*
X198625676Y-99154895D01*
X198354742Y-99464533D01*
X198470857Y-99464533D01*
X198548266Y-99503238D01*
X198586971Y-99541942D01*
X198625676Y-99619352D01*
X198625676Y-99812876D01*
X198586971Y-99890285D01*
X198548266Y-99928990D01*
X198470857Y-99967695D01*
X198238628Y-99967695D01*
X198161219Y-99928990D01*
X198122514Y-99890285D01*
%TO.C,Q1*%
X188422590Y-102245104D02*
X188345180Y-102206400D01*
X188267771Y-102128990D01*
X188151657Y-102012876D01*
X188074247Y-101974171D01*
X187996838Y-101974171D01*
X188035542Y-102167695D02*
X187958133Y-102128990D01*
X187880723Y-102051580D01*
X187842019Y-101896761D01*
X187842019Y-101625828D01*
X187880723Y-101471009D01*
X187958133Y-101393600D01*
X188035542Y-101354895D01*
X188190361Y-101354895D01*
X188267771Y-101393600D01*
X188345180Y-101471009D01*
X188383885Y-101625828D01*
X188383885Y-101896761D01*
X188345180Y-102051580D01*
X188267771Y-102128990D01*
X188190361Y-102167695D01*
X188035542Y-102167695D01*
X189157980Y-102167695D02*
X188693523Y-102167695D01*
X188925752Y-102167695D02*
X188925752Y-101354895D01*
X188848342Y-101471009D01*
X188770933Y-101548419D01*
X188693523Y-101587123D01*
%TO.C,D2*%
X184467695Y-104699923D02*
X183654895Y-104699923D01*
X183654895Y-104506400D01*
X183693600Y-104390285D01*
X183771009Y-104312876D01*
X183848419Y-104274171D01*
X184003238Y-104235466D01*
X184119352Y-104235466D01*
X184274171Y-104274171D01*
X184351580Y-104312876D01*
X184428990Y-104390285D01*
X184467695Y-104506400D01*
X184467695Y-104699923D01*
X183732304Y-103925828D02*
X183693600Y-103887123D01*
X183654895Y-103809714D01*
X183654895Y-103616190D01*
X183693600Y-103538780D01*
X183732304Y-103500076D01*
X183809714Y-103461371D01*
X183887123Y-103461371D01*
X184003238Y-103500076D01*
X184467695Y-103964533D01*
X184467695Y-103461371D01*
%TO.C,C3*%
X185364533Y-88890285D02*
X185325828Y-88928990D01*
X185209714Y-88967695D01*
X185132304Y-88967695D01*
X185016190Y-88928990D01*
X184938780Y-88851580D01*
X184900076Y-88774171D01*
X184861371Y-88619352D01*
X184861371Y-88503238D01*
X184900076Y-88348419D01*
X184938780Y-88271009D01*
X185016190Y-88193600D01*
X185132304Y-88154895D01*
X185209714Y-88154895D01*
X185325828Y-88193600D01*
X185364533Y-88232304D01*
X185635466Y-88154895D02*
X186138628Y-88154895D01*
X185867695Y-88464533D01*
X185983809Y-88464533D01*
X186061219Y-88503238D01*
X186099923Y-88541942D01*
X186138628Y-88619352D01*
X186138628Y-88812876D01*
X186099923Y-88890285D01*
X186061219Y-88928990D01*
X185983809Y-88967695D01*
X185751580Y-88967695D01*
X185674171Y-88928990D01*
X185635466Y-88890285D01*
%TO.C,C8*%
X187690285Y-104235466D02*
X187728990Y-104274171D01*
X187767695Y-104390285D01*
X187767695Y-104467695D01*
X187728990Y-104583809D01*
X187651580Y-104661219D01*
X187574171Y-104699923D01*
X187419352Y-104738628D01*
X187303238Y-104738628D01*
X187148419Y-104699923D01*
X187071009Y-104661219D01*
X186993600Y-104583809D01*
X186954895Y-104467695D01*
X186954895Y-104390285D01*
X186993600Y-104274171D01*
X187032304Y-104235466D01*
X187303238Y-103771009D02*
X187264533Y-103848419D01*
X187225828Y-103887123D01*
X187148419Y-103925828D01*
X187109714Y-103925828D01*
X187032304Y-103887123D01*
X186993600Y-103848419D01*
X186954895Y-103771009D01*
X186954895Y-103616190D01*
X186993600Y-103538780D01*
X187032304Y-103500076D01*
X187109714Y-103461371D01*
X187148419Y-103461371D01*
X187225828Y-103500076D01*
X187264533Y-103538780D01*
X187303238Y-103616190D01*
X187303238Y-103771009D01*
X187341942Y-103848419D01*
X187380647Y-103887123D01*
X187458057Y-103925828D01*
X187612876Y-103925828D01*
X187690285Y-103887123D01*
X187728990Y-103848419D01*
X187767695Y-103771009D01*
X187767695Y-103616190D01*
X187728990Y-103538780D01*
X187690285Y-103500076D01*
X187612876Y-103461371D01*
X187458057Y-103461371D01*
X187380647Y-103500076D01*
X187341942Y-103538780D01*
X187303238Y-103616190D01*
%TO.C,SW2*%
X208416266Y-107428990D02*
X208532380Y-107467695D01*
X208725904Y-107467695D01*
X208803314Y-107428990D01*
X208842019Y-107390285D01*
X208880723Y-107312876D01*
X208880723Y-107235466D01*
X208842019Y-107158057D01*
X208803314Y-107119352D01*
X208725904Y-107080647D01*
X208571085Y-107041942D01*
X208493676Y-107003238D01*
X208454971Y-106964533D01*
X208416266Y-106887123D01*
X208416266Y-106809714D01*
X208454971Y-106732304D01*
X208493676Y-106693600D01*
X208571085Y-106654895D01*
X208764609Y-106654895D01*
X208880723Y-106693600D01*
X209151657Y-106654895D02*
X209345180Y-107467695D01*
X209500000Y-106887123D01*
X209654819Y-107467695D01*
X209848342Y-106654895D01*
X210119276Y-106732304D02*
X210157980Y-106693600D01*
X210235390Y-106654895D01*
X210428914Y-106654895D01*
X210506323Y-106693600D01*
X210545028Y-106732304D01*
X210583733Y-106809714D01*
X210583733Y-106887123D01*
X210545028Y-107003238D01*
X210080571Y-107467695D01*
X210583733Y-107467695D01*
%TO.C,C20*%
X203477485Y-100590285D02*
X203438780Y-100628990D01*
X203322666Y-100667695D01*
X203245257Y-100667695D01*
X203129142Y-100628990D01*
X203051733Y-100551580D01*
X203013028Y-100474171D01*
X202974323Y-100319352D01*
X202974323Y-100203238D01*
X203013028Y-100048419D01*
X203051733Y-99971009D01*
X203129142Y-99893600D01*
X203245257Y-99854895D01*
X203322666Y-99854895D01*
X203438780Y-99893600D01*
X203477485Y-99932304D01*
X203787123Y-99932304D02*
X203825828Y-99893600D01*
X203903238Y-99854895D01*
X204096761Y-99854895D01*
X204174171Y-99893600D01*
X204212876Y-99932304D01*
X204251580Y-100009714D01*
X204251580Y-100087123D01*
X204212876Y-100203238D01*
X203748419Y-100667695D01*
X204251580Y-100667695D01*
X204754742Y-99854895D02*
X204832152Y-99854895D01*
X204909561Y-99893600D01*
X204948266Y-99932304D01*
X204986971Y-100009714D01*
X205025676Y-100164533D01*
X205025676Y-100358057D01*
X204986971Y-100512876D01*
X204948266Y-100590285D01*
X204909561Y-100628990D01*
X204832152Y-100667695D01*
X204754742Y-100667695D01*
X204677333Y-100628990D01*
X204638628Y-100590285D01*
X204599923Y-100512876D01*
X204561219Y-100358057D01*
X204561219Y-100164533D01*
X204599923Y-100009714D01*
X204638628Y-99932304D01*
X204677333Y-99893600D01*
X204754742Y-99854895D01*
%TO.C,C1*%
X209890285Y-111935466D02*
X209928990Y-111974171D01*
X209967695Y-112090285D01*
X209967695Y-112167695D01*
X209928990Y-112283809D01*
X209851580Y-112361219D01*
X209774171Y-112399923D01*
X209619352Y-112438628D01*
X209503238Y-112438628D01*
X209348419Y-112399923D01*
X209271009Y-112361219D01*
X209193600Y-112283809D01*
X209154895Y-112167695D01*
X209154895Y-112090285D01*
X209193600Y-111974171D01*
X209232304Y-111935466D01*
X209967695Y-111161371D02*
X209967695Y-111625828D01*
X209967695Y-111393600D02*
X209154895Y-111393600D01*
X209271009Y-111471009D01*
X209348419Y-111548419D01*
X209387123Y-111625828D01*
%TO.C,R16*%
X192167695Y-101122514D02*
X191780647Y-101393447D01*
X192167695Y-101586971D02*
X191354895Y-101586971D01*
X191354895Y-101277333D01*
X191393600Y-101199923D01*
X191432304Y-101161219D01*
X191509714Y-101122514D01*
X191625828Y-101122514D01*
X191703238Y-101161219D01*
X191741942Y-101199923D01*
X191780647Y-101277333D01*
X191780647Y-101586971D01*
X192167695Y-100348419D02*
X192167695Y-100812876D01*
X192167695Y-100580647D02*
X191354895Y-100580647D01*
X191471009Y-100658057D01*
X191548419Y-100735466D01*
X191587123Y-100812876D01*
X191354895Y-99651733D02*
X191354895Y-99806552D01*
X191393600Y-99883961D01*
X191432304Y-99922666D01*
X191548419Y-100000076D01*
X191703238Y-100038780D01*
X192012876Y-100038780D01*
X192090285Y-100000076D01*
X192128990Y-99961371D01*
X192167695Y-99883961D01*
X192167695Y-99729142D01*
X192128990Y-99651733D01*
X192090285Y-99613028D01*
X192012876Y-99574323D01*
X191819352Y-99574323D01*
X191741942Y-99613028D01*
X191703238Y-99651733D01*
X191664533Y-99729142D01*
X191664533Y-99883961D01*
X191703238Y-99961371D01*
X191741942Y-100000076D01*
X191819352Y-100038780D01*
%TO.C,R2*%
X208967695Y-96735466D02*
X208580647Y-97006400D01*
X208967695Y-97199923D02*
X208154895Y-97199923D01*
X208154895Y-96890285D01*
X208193600Y-96812876D01*
X208232304Y-96774171D01*
X208309714Y-96735466D01*
X208425828Y-96735466D01*
X208503238Y-96774171D01*
X208541942Y-96812876D01*
X208580647Y-96890285D01*
X208580647Y-97199923D01*
X208232304Y-96425828D02*
X208193600Y-96387123D01*
X208154895Y-96309714D01*
X208154895Y-96116190D01*
X208193600Y-96038780D01*
X208232304Y-96000076D01*
X208309714Y-95961371D01*
X208387123Y-95961371D01*
X208503238Y-96000076D01*
X208967695Y-96464533D01*
X208967695Y-95961371D01*
%TO.C,SW1*%
X208416266Y-103528990D02*
X208532380Y-103567695D01*
X208725904Y-103567695D01*
X208803314Y-103528990D01*
X208842019Y-103490285D01*
X208880723Y-103412876D01*
X208880723Y-103335466D01*
X208842019Y-103258057D01*
X208803314Y-103219352D01*
X208725904Y-103180647D01*
X208571085Y-103141942D01*
X208493676Y-103103238D01*
X208454971Y-103064533D01*
X208416266Y-102987123D01*
X208416266Y-102909714D01*
X208454971Y-102832304D01*
X208493676Y-102793600D01*
X208571085Y-102754895D01*
X208764609Y-102754895D01*
X208880723Y-102793600D01*
X209151657Y-102754895D02*
X209345180Y-103567695D01*
X209500000Y-102987123D01*
X209654819Y-103567695D01*
X209848342Y-102754895D01*
X210583733Y-103567695D02*
X210119276Y-103567695D01*
X210351504Y-103567695D02*
X210351504Y-102754895D01*
X210274095Y-102871009D01*
X210196685Y-102948419D01*
X210119276Y-102987123D01*
%TO.C,C5*%
X184790285Y-90135466D02*
X184828990Y-90174171D01*
X184867695Y-90290285D01*
X184867695Y-90367695D01*
X184828990Y-90483809D01*
X184751580Y-90561219D01*
X184674171Y-90599923D01*
X184519352Y-90638628D01*
X184403238Y-90638628D01*
X184248419Y-90599923D01*
X184171009Y-90561219D01*
X184093600Y-90483809D01*
X184054895Y-90367695D01*
X184054895Y-90290285D01*
X184093600Y-90174171D01*
X184132304Y-90135466D01*
X184054895Y-89400076D02*
X184054895Y-89787123D01*
X184441942Y-89825828D01*
X184403238Y-89787123D01*
X184364533Y-89709714D01*
X184364533Y-89516190D01*
X184403238Y-89438780D01*
X184441942Y-89400076D01*
X184519352Y-89361371D01*
X184712876Y-89361371D01*
X184790285Y-89400076D01*
X184828990Y-89438780D01*
X184867695Y-89516190D01*
X184867695Y-89709714D01*
X184828990Y-89787123D01*
X184790285Y-89825828D01*
%TO.C,C16*%
X185990285Y-109022514D02*
X186028990Y-109061219D01*
X186067695Y-109177333D01*
X186067695Y-109254742D01*
X186028990Y-109370857D01*
X185951580Y-109448266D01*
X185874171Y-109486971D01*
X185719352Y-109525676D01*
X185603238Y-109525676D01*
X185448419Y-109486971D01*
X185371009Y-109448266D01*
X185293600Y-109370857D01*
X185254895Y-109254742D01*
X185254895Y-109177333D01*
X185293600Y-109061219D01*
X185332304Y-109022514D01*
X186067695Y-108248419D02*
X186067695Y-108712876D01*
X186067695Y-108480647D02*
X185254895Y-108480647D01*
X185371009Y-108558057D01*
X185448419Y-108635466D01*
X185487123Y-108712876D01*
X185254895Y-107551733D02*
X185254895Y-107706552D01*
X185293600Y-107783961D01*
X185332304Y-107822666D01*
X185448419Y-107900076D01*
X185603238Y-107938780D01*
X185912876Y-107938780D01*
X185990285Y-107900076D01*
X186028990Y-107861371D01*
X186067695Y-107783961D01*
X186067695Y-107629142D01*
X186028990Y-107551733D01*
X185990285Y-107513028D01*
X185912876Y-107474323D01*
X185719352Y-107474323D01*
X185641942Y-107513028D01*
X185603238Y-107551733D01*
X185564533Y-107629142D01*
X185564533Y-107783961D01*
X185603238Y-107861371D01*
X185641942Y-107900076D01*
X185719352Y-107938780D01*
%TO.C,R11*%
X209277485Y-95267695D02*
X209006552Y-94880647D01*
X208813028Y-95267695D02*
X208813028Y-94454895D01*
X209122666Y-94454895D01*
X209200076Y-94493600D01*
X209238780Y-94532304D01*
X209277485Y-94609714D01*
X209277485Y-94725828D01*
X209238780Y-94803238D01*
X209200076Y-94841942D01*
X209122666Y-94880647D01*
X208813028Y-94880647D01*
X210051580Y-95267695D02*
X209587123Y-95267695D01*
X209819352Y-95267695D02*
X209819352Y-94454895D01*
X209741942Y-94571009D01*
X209664533Y-94648419D01*
X209587123Y-94687123D01*
X210825676Y-95267695D02*
X210361219Y-95267695D01*
X210593447Y-95267695D02*
X210593447Y-94454895D01*
X210516038Y-94571009D01*
X210438628Y-94648419D01*
X210361219Y-94687123D01*
%TO.C,C18*%
X187177485Y-110390285D02*
X187138780Y-110428990D01*
X187022666Y-110467695D01*
X186945257Y-110467695D01*
X186829142Y-110428990D01*
X186751733Y-110351580D01*
X186713028Y-110274171D01*
X186674323Y-110119352D01*
X186674323Y-110003238D01*
X186713028Y-109848419D01*
X186751733Y-109771009D01*
X186829142Y-109693600D01*
X186945257Y-109654895D01*
X187022666Y-109654895D01*
X187138780Y-109693600D01*
X187177485Y-109732304D01*
X187951580Y-110467695D02*
X187487123Y-110467695D01*
X187719352Y-110467695D02*
X187719352Y-109654895D01*
X187641942Y-109771009D01*
X187564533Y-109848419D01*
X187487123Y-109887123D01*
X188416038Y-110003238D02*
X188338628Y-109964533D01*
X188299923Y-109925828D01*
X188261219Y-109848419D01*
X188261219Y-109809714D01*
X188299923Y-109732304D01*
X188338628Y-109693600D01*
X188416038Y-109654895D01*
X188570857Y-109654895D01*
X188648266Y-109693600D01*
X188686971Y-109732304D01*
X188725676Y-109809714D01*
X188725676Y-109848419D01*
X188686971Y-109925828D01*
X188648266Y-109964533D01*
X188570857Y-110003238D01*
X188416038Y-110003238D01*
X188338628Y-110041942D01*
X188299923Y-110080647D01*
X188261219Y-110158057D01*
X188261219Y-110312876D01*
X188299923Y-110390285D01*
X188338628Y-110428990D01*
X188416038Y-110467695D01*
X188570857Y-110467695D01*
X188648266Y-110428990D01*
X188686971Y-110390285D01*
X188725676Y-110312876D01*
X188725676Y-110158057D01*
X188686971Y-110080647D01*
X188648266Y-110041942D01*
X188570857Y-110003238D01*
D12*
%TO.C,U7*%
X209100000Y-95550000D02*
G75*
G03*
X209100000Y-95550000I-100000J0D01*
G01*
D13*
X208650000Y-95550000D02*
X208650000Y-95400000D01*
X208650000Y-93100000D02*
X208650000Y-92950000D01*
X205550000Y-93100000D02*
X205550000Y-92950000D01*
X208000000Y-95550000D02*
X208650000Y-95550000D01*
X208650000Y-92950000D02*
X208000000Y-92950000D01*
X206200000Y-95550000D02*
X205550000Y-95550000D01*
X205550000Y-95550000D02*
X205550000Y-95400000D01*
X205550000Y-92950000D02*
X206200000Y-92950000D01*
D14*
%TO.C,ANT1*%
X218600000Y-109600000D02*
G75*
G03*
X218600000Y-109600000I-1200000J0D01*
G01*
X217400000Y-108400000D02*
X217400000Y-107650000D01*
%TO.C,C19*%
X189957836Y-110840000D02*
X189742164Y-110840000D01*
X189957836Y-111560000D02*
X189742164Y-111560000D01*
%TO.C,TP11*%
X196300000Y-98400000D02*
G75*
G03*
X196300000Y-98400000I-700000J0D01*
G01*
%TO.C,C4*%
X210340000Y-98507836D02*
X210340000Y-98292164D01*
X211060000Y-98507836D02*
X211060000Y-98292164D01*
%TO.C,R18*%
X190853641Y-95520000D02*
X190546359Y-95520000D01*
X190853641Y-96280000D02*
X190546359Y-96280000D01*
%TO.C,U2*%
X193300000Y-113500000D02*
X193300000Y-112300000D01*
X193300000Y-113500000D02*
X194500000Y-113500000D01*
X193300000Y-101500000D02*
X193300000Y-102700000D01*
X205300000Y-101500000D02*
X204100000Y-101500000D01*
X205300000Y-113500000D02*
X205300000Y-112300000D01*
X193300000Y-102700000D02*
X194500000Y-101500000D01*
X194400000Y-102850000D02*
X194400000Y-103150000D01*
X205300000Y-101500000D02*
X205300000Y-102700000D01*
X205300000Y-113500000D02*
X204100000Y-113500000D01*
X193300000Y-101500000D02*
X194500000Y-101500000D01*
D15*
X193135901Y-101250000D02*
G75*
G03*
X193135901Y-101250000I-85901J0D01*
G01*
D14*
%TO.C,D3*%
X192700000Y-90900000D02*
X192700000Y-89050000D01*
X193900000Y-89050000D02*
X192700000Y-89050000D01*
X193900000Y-90900000D02*
X193900000Y-89050000D01*
%TO.C,R15*%
X210380000Y-93703641D02*
X210380000Y-93396359D01*
X209620000Y-93703641D02*
X209620000Y-93396359D01*
%TO.C,C21*%
X181192164Y-95640000D02*
X181407836Y-95640000D01*
X181192164Y-96360000D02*
X181407836Y-96360000D01*
%TO.C,C13*%
X188990000Y-108592164D02*
X188990000Y-108807836D01*
X189710000Y-108592164D02*
X189710000Y-108807836D01*
%TO.C,C30*%
X205992164Y-91690000D02*
X206207836Y-91690000D01*
X205992164Y-92410000D02*
X206207836Y-92410000D01*
%TO.C,TP6*%
X210625000Y-96200000D02*
G75*
G03*
X210625000Y-96200000I-700000J0D01*
G01*
%TO.C,R17*%
X187496359Y-97480000D02*
X187803641Y-97480000D01*
X187496359Y-96720000D02*
X187803641Y-96720000D01*
%TO.C,R6*%
X188420000Y-106653641D02*
X188420000Y-106346359D01*
X189180000Y-106653641D02*
X189180000Y-106346359D01*
%TO.C,C11*%
X190440000Y-106392164D02*
X190440000Y-106607836D01*
X191160000Y-106392164D02*
X191160000Y-106607836D01*
%TO.C,D1*%
X182335000Y-91415000D02*
X180865000Y-91415000D01*
X180865000Y-91415000D02*
X180865000Y-93700000D01*
X182335000Y-93700000D02*
X182335000Y-91415000D01*
%TO.C,C7*%
X185540000Y-93292164D02*
X185540000Y-93507836D01*
X186260000Y-93292164D02*
X186260000Y-93507836D01*
%TO.C,U4*%
X182300000Y-99860000D02*
X182950000Y-99860000D01*
X182300000Y-96740000D02*
X182950000Y-96740000D01*
X182300000Y-99860000D02*
X181650000Y-99860000D01*
X182300000Y-96740000D02*
X180625000Y-96740000D01*
%TO.C,U3*%
X188120000Y-92540000D02*
X186680000Y-92540000D01*
X186680000Y-94260000D02*
X187700000Y-94260000D01*
X188120000Y-93700000D02*
X188120000Y-92540000D01*
X186680000Y-92540000D02*
X186680000Y-94260000D01*
%TO.C,R19*%
X190843641Y-91680000D02*
X190536359Y-91680000D01*
X190843641Y-90920000D02*
X190536359Y-90920000D01*
%TO.C,R3*%
X190180000Y-106346359D02*
X190180000Y-106653641D01*
X189420000Y-106346359D02*
X189420000Y-106653641D01*
%TO.C,R8*%
X190003641Y-112630000D02*
X189696359Y-112630000D01*
X190003641Y-111870000D02*
X189696359Y-111870000D01*
%TO.C,C22*%
X201742164Y-99610000D02*
X201957836Y-99610000D01*
X201742164Y-98890000D02*
X201957836Y-98890000D01*
%TO.C,R9*%
X189696359Y-113870000D02*
X190003641Y-113870000D01*
X189696359Y-114630000D02*
X190003641Y-114630000D01*
%TO.C,TP8*%
X192100000Y-98400000D02*
G75*
G03*
X192100000Y-98400000I-700000J0D01*
G01*
%TO.C,R14*%
X199696359Y-96720000D02*
X200003641Y-96720000D01*
X199696359Y-97480000D02*
X200003641Y-97480000D01*
%TO.C,R12*%
X199696359Y-97720000D02*
X200003641Y-97720000D01*
X199696359Y-98480000D02*
X200003641Y-98480000D01*
D16*
%TO.C,U5*%
X211700000Y-93450000D02*
X212700000Y-93450000D01*
X212700000Y-93450000D02*
X212700000Y-94450000D01*
X212700000Y-94450000D02*
X211700000Y-94450000D01*
X211700000Y-94450000D02*
X211700000Y-93450000D01*
D17*
X211605000Y-93275000D02*
G75*
G03*
X211605000Y-93275000I-80000J0D01*
G01*
D14*
%TO.C,BZ1*%
X195350000Y-88400000D02*
X195350000Y-92400000D01*
X194650000Y-86350000D02*
X194650000Y-85350000D01*
X197700000Y-94750000D02*
X201700000Y-94750000D01*
X204050000Y-89400000D02*
X202700000Y-90400000D01*
X204050000Y-91400000D02*
X202700000Y-90400000D01*
X194650000Y-85350000D02*
X195650000Y-85350000D01*
X204050000Y-92400000D02*
X204050000Y-88400000D01*
X201700000Y-86050000D02*
X197700000Y-86050000D01*
%TO.C,C14*%
X189740000Y-104392164D02*
X189740000Y-104607836D01*
X190460000Y-104392164D02*
X190460000Y-104607836D01*
%TO.C,TP7*%
X212600000Y-91300000D02*
G75*
G03*
X212600000Y-91300000I-700000J0D01*
G01*
%TO.C,TP5*%
X188300000Y-108300000D02*
G75*
G03*
X188300000Y-108300000I-700000J0D01*
G01*
%TO.C,C32*%
X186535000Y-100600000D02*
X186535000Y-96690000D01*
X184665000Y-96690000D02*
X184665000Y-100600000D01*
X186535000Y-96690000D02*
X184665000Y-96690000D01*
%TO.C,R1*%
X211320000Y-98246359D02*
X211320000Y-98553641D01*
X212080000Y-98246359D02*
X212080000Y-98553641D01*
%TO.C,C12*%
X188340000Y-93507836D02*
X188340000Y-93292164D01*
X189060000Y-93507836D02*
X189060000Y-93292164D01*
%TO.C,R4*%
X207320000Y-98246359D02*
X207320000Y-98553641D01*
X208080000Y-98246359D02*
X208080000Y-98553641D01*
%TO.C,C33*%
X208107836Y-91410000D02*
X207892164Y-91410000D01*
X208107836Y-90690000D02*
X207892164Y-90690000D01*
%TO.C,R7*%
X181146359Y-100980000D02*
X181453641Y-100980000D01*
X181146359Y-100220000D02*
X181453641Y-100220000D01*
%TO.C,U1*%
X183680000Y-94260000D02*
X185120000Y-94260000D01*
X185120000Y-92540000D02*
X184100000Y-92540000D01*
X183680000Y-93100000D02*
X183680000Y-94260000D01*
X185120000Y-94260000D02*
X185120000Y-92540000D01*
%TO.C,C17*%
X189610000Y-94565000D02*
X185700000Y-94565000D01*
X189610000Y-96435000D02*
X189610000Y-94565000D01*
X185700000Y-96435000D02*
X189610000Y-96435000D01*
%TO.C,L2*%
X191290000Y-109899622D02*
X191290000Y-109100378D01*
X192410000Y-109899622D02*
X192410000Y-109100378D01*
%TO.C,R10*%
X189696359Y-112870000D02*
X190003641Y-112870000D01*
X189696359Y-113630000D02*
X190003641Y-113630000D01*
%TO.C,C24*%
X199977836Y-100610000D02*
X199762164Y-100610000D01*
X199977836Y-99890000D02*
X199762164Y-99890000D01*
%TO.C,R13*%
X199696359Y-96480000D02*
X200003641Y-96480000D01*
X199696359Y-95720000D02*
X200003641Y-95720000D01*
%TO.C,R5*%
X184053641Y-94520000D02*
X183746359Y-94520000D01*
X184053641Y-95280000D02*
X183746359Y-95280000D01*
%TO.C,C6*%
X209060000Y-98507836D02*
X209060000Y-98292164D01*
X208340000Y-98507836D02*
X208340000Y-98292164D01*
%TO.C,Q2*%
X191700000Y-92040000D02*
X192350000Y-92040000D01*
X191700000Y-92040000D02*
X190025000Y-92040000D01*
X191700000Y-95160000D02*
X192350000Y-95160000D01*
X191700000Y-95160000D02*
X191050000Y-95160000D01*
%TO.C,TP10*%
X194200000Y-98400000D02*
G75*
G03*
X194200000Y-98400000I-700000J0D01*
G01*
%TO.C,C26*%
X210640000Y-93657836D02*
X210640000Y-93442164D01*
X211360000Y-93657836D02*
X211360000Y-93442164D01*
%TO.C,C10*%
X190740000Y-104392164D02*
X190740000Y-104607836D01*
X191460000Y-104392164D02*
X191460000Y-104607836D01*
%TO.C,C2*%
X206960000Y-109992164D02*
X206960000Y-110207836D01*
X206240000Y-109992164D02*
X206240000Y-110207836D01*
%TO.C,TP9*%
X198400000Y-98200000D02*
G75*
G03*
X198400000Y-98200000I-700000J0D01*
G01*
%TO.C,C31*%
X208107836Y-92410000D02*
X207892164Y-92410000D01*
X208107836Y-91690000D02*
X207892164Y-91690000D01*
%TO.C,ANT2*%
X212615000Y-111000000D02*
X212615000Y-110360000D01*
X212615000Y-108840000D02*
X211985000Y-108840000D01*
X212615000Y-108200000D02*
X212615000Y-108840000D01*
X215335000Y-108250000D02*
X215335000Y-110950000D01*
%TO.C,C9*%
X192160000Y-106392164D02*
X192160000Y-106607836D01*
X191440000Y-106392164D02*
X191440000Y-106607836D01*
%TO.C,C23*%
X199957836Y-98890000D02*
X199742164Y-98890000D01*
X199957836Y-99610000D02*
X199742164Y-99610000D01*
%TO.C,Q1*%
X190010000Y-99600000D02*
X190010000Y-98950000D01*
X186890000Y-99600000D02*
X186890000Y-101275000D01*
X186890000Y-99600000D02*
X186890000Y-98950000D01*
X190010000Y-99600000D02*
X190010000Y-100250000D01*
%TO.C,TP2*%
X186200000Y-111400000D02*
G75*
G03*
X186200000Y-111400000I-700000J0D01*
G01*
%TO.C,D2*%
X189535000Y-104750000D02*
X189535000Y-102465000D01*
X189535000Y-102465000D02*
X188065000Y-102465000D01*
X188065000Y-102465000D02*
X188065000Y-104750000D01*
%TO.C,C3*%
X184192164Y-92260000D02*
X184407836Y-92260000D01*
X184192164Y-91540000D02*
X184407836Y-91540000D01*
%TO.C,C8*%
X192460000Y-104392164D02*
X192460000Y-104607836D01*
X191740000Y-104392164D02*
X191740000Y-104607836D01*
%TO.C,SW2*%
X209475232Y-104705000D02*
X209805232Y-105385000D01*
X210835232Y-103975000D02*
X207935232Y-103975000D01*
X210835232Y-106175000D02*
X207935232Y-106175000D01*
X209475000Y-104214768D02*
X209475232Y-104715000D01*
X207135232Y-105575000D02*
X207135232Y-104675000D01*
X209475000Y-105935232D02*
X209475232Y-105435000D01*
X211535232Y-105575000D02*
X211535232Y-104675000D01*
X210335233Y-105075000D02*
G75*
G03*
X210335233Y-105075000I-860233J0D01*
G01*
%TO.C,C20*%
X201742164Y-99890000D02*
X201957836Y-99890000D01*
X201742164Y-100610000D02*
X201957836Y-100610000D01*
%TO.C,C1*%
X209960000Y-109992164D02*
X209960000Y-110207836D01*
X209240000Y-109992164D02*
X209240000Y-110207836D01*
%TO.C,R16*%
X191080000Y-100446359D02*
X191080000Y-100753641D01*
X190320000Y-100446359D02*
X190320000Y-100753641D01*
%TO.C,R2*%
X209320000Y-98553641D02*
X209320000Y-98246359D01*
X210080000Y-98553641D02*
X210080000Y-98246359D01*
%TO.C,SW1*%
X209475232Y-100930000D02*
X209805232Y-101610000D01*
X209475000Y-102160232D02*
X209475232Y-101660000D01*
X210835232Y-100200000D02*
X207935232Y-100200000D01*
X210835232Y-102400000D02*
X207935232Y-102400000D01*
X211535232Y-101800000D02*
X211535232Y-100900000D01*
X207135232Y-101800000D02*
X207135232Y-100900000D01*
X209475000Y-100439768D02*
X209475232Y-100940000D01*
X210335233Y-101300000D02*
G75*
G03*
X210335233Y-101300000I-860233J0D01*
G01*
%TO.C,TP1*%
X186200000Y-113500000D02*
G75*
G03*
X186200000Y-113500000I-700000J0D01*
G01*
%TO.C,C5*%
X183360000Y-93292164D02*
X183360000Y-93507836D01*
X182640000Y-93292164D02*
X182640000Y-93507836D01*
%TO.C,C16*%
X189990000Y-108592164D02*
X189990000Y-108807836D01*
X190710000Y-108592164D02*
X190710000Y-108807836D01*
%TO.C,R11*%
X211546359Y-95430000D02*
X211853641Y-95430000D01*
X211546359Y-94670000D02*
X211853641Y-94670000D01*
%TO.C,C18*%
X189957836Y-110560000D02*
X189742164Y-110560000D01*
X189957836Y-109840000D02*
X189742164Y-109840000D01*
%TD*%
%LPC*%
D18*
%TO.C,U7*%
X207600000Y-95175000D03*
X207100000Y-95175000D03*
X206600000Y-95175000D03*
D19*
X205925000Y-95000000D03*
X205925000Y-94500000D03*
X205925000Y-94000000D03*
X205925000Y-93500000D03*
D18*
X206600000Y-93325000D03*
X207100000Y-93325000D03*
X207600000Y-93325000D03*
D19*
X208275000Y-93500000D03*
X208275000Y-94000000D03*
X208275000Y-94500000D03*
X208275000Y-95000000D03*
%TD*%
D20*
%TO.C,ANT1*%
X217400000Y-109600000D03*
%TD*%
D21*
%TO.C,C19*%
X190330000Y-111200000D03*
X189370000Y-111200000D03*
%TD*%
D22*
%TO.C,TP11*%
X195600000Y-98400000D03*
%TD*%
D23*
%TO.C,DEBUG1*%
X181725000Y-107600000D03*
D24*
X181725000Y-106350000D03*
X181725000Y-105100000D03*
X181725000Y-103850000D03*
X181725000Y-102600000D03*
%TD*%
D25*
%TO.C,C4*%
X210700000Y-98880000D03*
X210700000Y-97920000D03*
%TD*%
D26*
%TO.C,R18*%
X191210000Y-95900000D03*
X190190000Y-95900000D03*
%TD*%
D27*
%TO.C,U2*%
X193650000Y-103000000D03*
D28*
X193650000Y-103600000D03*
X193650000Y-104200000D03*
X193650000Y-104800000D03*
X193650000Y-105400000D03*
X193650000Y-106000000D03*
X193650000Y-106600000D03*
X193650000Y-107200000D03*
X193650000Y-107800000D03*
X193650000Y-108400000D03*
X193650000Y-109000000D03*
X193650000Y-109600000D03*
X193650000Y-110200000D03*
X193650000Y-110800000D03*
X193650000Y-111400000D03*
X193650000Y-112000000D03*
D29*
X194800000Y-113150000D03*
X195400000Y-113150000D03*
X196000000Y-113150000D03*
X196600000Y-113150000D03*
X197200000Y-113150000D03*
X197800000Y-113150000D03*
X198400000Y-113150000D03*
X199000000Y-113150000D03*
X199600000Y-113150000D03*
X200200000Y-113150000D03*
X200800000Y-113150000D03*
X201400000Y-113150000D03*
X202000000Y-113150000D03*
X202600000Y-113150000D03*
X203200000Y-113150000D03*
X203800000Y-113150000D03*
D30*
X204950000Y-112000000D03*
X204950000Y-111400000D03*
X204950000Y-110800000D03*
X204950000Y-110200000D03*
X204950000Y-109600000D03*
X204950000Y-109000000D03*
X204950000Y-108400000D03*
X204950000Y-107800000D03*
X204950000Y-107200000D03*
X204950000Y-106600000D03*
X204950000Y-106000000D03*
X204950000Y-105400000D03*
X204950000Y-104800000D03*
X204950000Y-104200000D03*
X204950000Y-103600000D03*
X204950000Y-103000000D03*
D31*
X203800000Y-101850000D03*
X203200000Y-101850000D03*
X202600000Y-101850000D03*
X202000000Y-101850000D03*
X201400000Y-101850000D03*
X200800000Y-101850000D03*
X200200000Y-101850000D03*
X199600000Y-101850000D03*
X199000000Y-101850000D03*
X198400000Y-101850000D03*
X197800000Y-101850000D03*
X197200000Y-101850000D03*
X196600000Y-101850000D03*
X196000000Y-101850000D03*
X195400000Y-101850000D03*
X194800000Y-101850000D03*
D32*
X196500000Y-104700000D03*
X199300000Y-104700000D03*
X202100000Y-104700000D03*
X196500000Y-107500000D03*
X199300000Y-107500000D03*
X202100000Y-107500000D03*
X196500000Y-110300000D03*
X199300000Y-110300000D03*
X202100000Y-110300000D03*
%TD*%
D33*
%TO.C,D3*%
X193300000Y-89500000D03*
X193300000Y-90900000D03*
%TD*%
D34*
%TO.C,R15*%
X210000000Y-94060000D03*
X210000000Y-93040000D03*
%TD*%
D35*
%TO.C,C21*%
X181780000Y-96000000D03*
X180820000Y-96000000D03*
%TD*%
D36*
%TO.C,C13*%
X189350000Y-108220000D03*
X189350000Y-109180000D03*
%TD*%
D35*
%TO.C,C30*%
X205620000Y-92050000D03*
X206580000Y-92050000D03*
%TD*%
D22*
%TO.C,TP6*%
X209925000Y-96200000D03*
%TD*%
D37*
%TO.C,R17*%
X187140000Y-97100000D03*
X188160000Y-97100000D03*
%TD*%
D34*
%TO.C,R6*%
X188800000Y-107010000D03*
X188800000Y-105990000D03*
%TD*%
D36*
%TO.C,C11*%
X190800000Y-106020000D03*
X190800000Y-106980000D03*
%TD*%
D38*
%TO.C,D1*%
X181600000Y-93687500D03*
X181600000Y-92112500D03*
%TD*%
D36*
%TO.C,C7*%
X185900000Y-93880000D03*
X185900000Y-92920000D03*
%TD*%
D39*
%TO.C,U4*%
X183237500Y-98300000D03*
X181362500Y-99250000D03*
X181362500Y-97350000D03*
%TD*%
D40*
%TO.C,U3*%
X187400000Y-93400000D03*
D41*
X187725000Y-92915000D03*
D42*
X187075000Y-92915000D03*
D43*
X187075000Y-93885000D03*
D44*
X187725000Y-93885000D03*
%TD*%
D26*
%TO.C,R19*%
X191200000Y-91300000D03*
X190180000Y-91300000D03*
%TD*%
D45*
%TO.C,R3*%
X189800000Y-105990000D03*
X189800000Y-107010000D03*
%TD*%
D26*
%TO.C,R8*%
X190360000Y-112250000D03*
X189340000Y-112250000D03*
%TD*%
D35*
%TO.C,C22*%
X202330000Y-99250000D03*
X201370000Y-99250000D03*
%TD*%
D37*
%TO.C,R9*%
X189340000Y-114250000D03*
X190360000Y-114250000D03*
%TD*%
D22*
%TO.C,TP8*%
X191400000Y-98400000D03*
%TD*%
D37*
%TO.C,R14*%
X199340000Y-97100000D03*
X200360000Y-97100000D03*
%TD*%
%TO.C,R12*%
X199340000Y-98100000D03*
X200360000Y-98100000D03*
%TD*%
D46*
%TO.C,U5*%
X212000000Y-93750000D03*
X212400000Y-93750000D03*
X212000000Y-94150000D03*
X212400000Y-94150000D03*
%TD*%
D47*
%TO.C,BZ1*%
X196200000Y-86900000D03*
X196200000Y-93900000D03*
X203200000Y-93900000D03*
X203200000Y-86900000D03*
%TD*%
D36*
%TO.C,C14*%
X190100000Y-104020000D03*
X190100000Y-104980000D03*
%TD*%
D48*
%TO.C,L1*%
X207615000Y-109600000D03*
X208585000Y-109600000D03*
%TD*%
D22*
%TO.C,TP7*%
X211900000Y-91300000D03*
%TD*%
%TO.C,TP5*%
X187600000Y-108300000D03*
%TD*%
D49*
%TO.C,C32*%
X185600000Y-97650000D03*
X185600000Y-100350000D03*
%TD*%
D45*
%TO.C,R1*%
X211700000Y-97890000D03*
X211700000Y-98910000D03*
%TD*%
D25*
%TO.C,C12*%
X188700000Y-93880000D03*
X188700000Y-92920000D03*
%TD*%
D45*
%TO.C,R4*%
X207700000Y-97890000D03*
X207700000Y-98910000D03*
%TD*%
D21*
%TO.C,C33*%
X208480000Y-91050000D03*
X207520000Y-91050000D03*
%TD*%
D37*
%TO.C,R7*%
X181810000Y-100600000D03*
X180790000Y-100600000D03*
%TD*%
D50*
%TO.C,U1*%
X184400000Y-93400000D03*
D43*
X184075000Y-93885000D03*
D44*
X184725000Y-93885000D03*
D41*
X184725000Y-92915000D03*
D42*
X184075000Y-92915000D03*
%TD*%
D51*
%TO.C,C17*%
X185950000Y-95500000D03*
X188650000Y-95500000D03*
%TD*%
D52*
%TO.C,L2*%
X191850000Y-110562500D03*
X191850000Y-108437500D03*
%TD*%
D37*
%TO.C,R10*%
X189340000Y-113250000D03*
X190360000Y-113250000D03*
%TD*%
D21*
%TO.C,C24*%
X199390000Y-100250000D03*
X200350000Y-100250000D03*
%TD*%
D37*
%TO.C,R13*%
X199340000Y-96100000D03*
X200360000Y-96100000D03*
%TD*%
D26*
%TO.C,R5*%
X184410000Y-94900000D03*
X183390000Y-94900000D03*
%TD*%
D25*
%TO.C,C6*%
X208700000Y-98880000D03*
X208700000Y-97920000D03*
%TD*%
D39*
%TO.C,Q2*%
X190762500Y-92650000D03*
X190762500Y-94550000D03*
X192637500Y-93600000D03*
%TD*%
D22*
%TO.C,TP10*%
X193500000Y-98400000D03*
%TD*%
D25*
%TO.C,C26*%
X211000000Y-94030000D03*
X211000000Y-93070000D03*
%TD*%
D36*
%TO.C,C10*%
X191100000Y-104020000D03*
X191100000Y-104980000D03*
%TD*%
%TO.C,C2*%
X206600000Y-109620000D03*
X206600000Y-110580000D03*
%TD*%
D22*
%TO.C,TP9*%
X197700000Y-98200000D03*
%TD*%
D21*
%TO.C,C31*%
X208480000Y-92050000D03*
X207520000Y-92050000D03*
%TD*%
D53*
%TO.C,ANT2*%
X213975000Y-108125000D03*
X213975000Y-111075000D03*
D54*
X212450000Y-109600000D03*
%TD*%
D36*
%TO.C,C9*%
X191800000Y-106020000D03*
X191800000Y-106980000D03*
%TD*%
D21*
%TO.C,C23*%
X200330000Y-99250000D03*
X199370000Y-99250000D03*
%TD*%
D55*
%TO.C,Q1*%
X187500000Y-100537500D03*
X189400000Y-100537500D03*
X188450000Y-98662500D03*
%TD*%
D22*
%TO.C,TP2*%
X185500000Y-111400000D03*
%TD*%
D38*
%TO.C,D2*%
X188800000Y-103162500D03*
X188800000Y-104737500D03*
%TD*%
D35*
%TO.C,C3*%
X183820000Y-91900000D03*
X184780000Y-91900000D03*
%TD*%
D36*
%TO.C,C8*%
X192100000Y-104020000D03*
X192100000Y-104980000D03*
%TD*%
D56*
%TO.C,SW2*%
X211535232Y-106175000D03*
X207185232Y-106175000D03*
X211535232Y-104025000D03*
X207185232Y-104025000D03*
%TD*%
D35*
%TO.C,C20*%
X201370000Y-100250000D03*
X202330000Y-100250000D03*
%TD*%
D36*
%TO.C,C1*%
X209600000Y-109620000D03*
X209600000Y-110580000D03*
%TD*%
D45*
%TO.C,R16*%
X190700000Y-100090000D03*
X190700000Y-101110000D03*
%TD*%
D34*
%TO.C,R2*%
X209700000Y-98910000D03*
X209700000Y-97890000D03*
%TD*%
D56*
%TO.C,SW1*%
X211535232Y-102400000D03*
X207185232Y-102400000D03*
X211535232Y-100250000D03*
X207185232Y-100250000D03*
%TD*%
D22*
%TO.C,TP1*%
X185500000Y-113500000D03*
%TD*%
D36*
%TO.C,C5*%
X183000000Y-93880000D03*
X183000000Y-92920000D03*
%TD*%
%TO.C,C16*%
X190350000Y-108220000D03*
X190350000Y-109180000D03*
%TD*%
D37*
%TO.C,R11*%
X211190000Y-95050000D03*
X212210000Y-95050000D03*
%TD*%
D21*
%TO.C,C18*%
X190330000Y-110200000D03*
X189370000Y-110200000D03*
%TD*%
M02*
