%TF.GenerationSoftware,KiCad,Pcbnew,(6.0.1)*%
%TF.CreationDate,2022-10-07T00:00:45+07:00*%
%TF.ProjectId,rak3172,72616b33-3137-4322-9e6b-696361645f70,rev?*%
%TF.SameCoordinates,Original*%
%TF.FileFunction,Soldermask,Top*%
%TF.FilePolarity,Negative*%
%FSLAX46Y46*%
G04 Gerber Fmt 4.6, Leading zero omitted, Abs format (unit mm)*
G04 Created by KiCad (PCBNEW (6.0.1)) date 2022-10-07 00:00:45*
%MOMM*%
%LPD*%
G01*
G04 APERTURE LIST*
G04 Aperture macros list*
%AMRoundRect*
0 Rectangle with rounded corners*
0 $1 Rounding radius*
0 $2 $3 $4 $5 $6 $7 $8 $9 X,Y pos of 4 corners*
0 Add a 4 corners polygon primitive as box body*
4,1,4,$2,$3,$4,$5,$6,$7,$8,$9,$2,$3,0*
0 Add four circle primitives for the rounded corners*
1,1,$1+$1,$2,$3*
1,1,$1+$1,$4,$5*
1,1,$1+$1,$6,$7*
1,1,$1+$1,$8,$9*
0 Add four rect primitives between the rounded corners*
20,1,$1+$1,$2,$3,$4,$5,0*
20,1,$1+$1,$4,$5,$6,$7,0*
20,1,$1+$1,$6,$7,$8,$9,0*
20,1,$1+$1,$8,$9,$2,$3,0*%
%AMFreePoly0*
4,1,14,0.509355,0.220355,0.620355,0.109355,0.635000,0.074000,0.635000,-0.185000,0.620355,-0.220355,0.585000,-0.235000,-0.585000,-0.235000,-0.620355,-0.220355,-0.635000,-0.185000,-0.635000,0.185000,-0.620355,0.220355,-0.585000,0.235000,0.474000,0.235000,0.509355,0.220355,0.509355,0.220355,$1*%
%AMFreePoly1*
4,1,14,0.016477,0.309197,0.166477,0.149197,0.180000,0.115000,0.180000,-0.115000,0.165355,-0.150355,0.130000,-0.165000,-0.130000,-0.165000,-0.165355,-0.150355,-0.180000,-0.115000,-0.180000,0.275000,-0.165355,0.310355,-0.130000,0.325000,-0.020000,0.325000,0.016477,0.309197,0.016477,0.309197,$1*%
%AMFreePoly2*
4,1,14,0.165355,0.310355,0.180000,0.275000,0.180000,-0.115000,0.165355,-0.150355,0.130000,-0.165000,-0.130000,-0.165000,-0.165355,-0.150355,-0.180000,-0.115000,-0.180000,0.115000,-0.166477,0.149197,-0.016477,0.309197,0.020000,0.325000,0.130000,0.325000,0.165355,0.310355,0.165355,0.310355,$1*%
G04 Aperture macros list end*
%ADD10RoundRect,0.050000X-0.175000X0.290000X-0.175000X-0.290000X0.175000X-0.290000X0.175000X0.290000X0*%
%ADD11RoundRect,0.050000X-0.290000X-0.175000X0.290000X-0.175000X0.290000X0.175000X-0.290000X0.175000X0*%
%ADD12C,2.100000*%
%ADD13RoundRect,0.190000X0.140000X0.170000X-0.140000X0.170000X-0.140000X-0.170000X0.140000X-0.170000X0*%
%ADD14C,1.100000*%
%ADD15RoundRect,0.275000X0.475000X-0.225000X0.475000X0.225000X-0.475000X0.225000X-0.475000X-0.225000X0*%
%ADD16O,1.500000X1.000000*%
%ADD17RoundRect,0.190000X0.170000X-0.140000X0.170000X0.140000X-0.170000X0.140000X-0.170000X-0.140000X0*%
%ADD18RoundRect,0.185000X0.135000X0.185000X-0.135000X0.185000X-0.135000X-0.185000X0.135000X-0.185000X0*%
%ADD19FreePoly0,0.000000*%
%ADD20RoundRect,0.050000X-0.585000X-0.185000X0.585000X-0.185000X0.585000X0.185000X-0.585000X0.185000X0*%
%ADD21RoundRect,0.050000X0.185000X-0.585000X0.185000X0.585000X-0.185000X0.585000X-0.185000X-0.585000X0*%
%ADD22RoundRect,0.050000X0.585000X0.185000X-0.585000X0.185000X-0.585000X-0.185000X0.585000X-0.185000X0*%
%ADD23RoundRect,0.050000X-0.185000X0.585000X-0.185000X-0.585000X0.185000X-0.585000X0.185000X0.585000X0*%
%ADD24RoundRect,0.050000X-0.800000X-0.800000X0.800000X-0.800000X0.800000X0.800000X-0.800000X0.800000X0*%
%ADD25RoundRect,0.050000X0.350000X-0.300000X0.350000X0.300000X-0.350000X0.300000X-0.350000X-0.300000X0*%
%ADD26RoundRect,0.185000X0.185000X-0.135000X0.185000X0.135000X-0.185000X0.135000X-0.185000X-0.135000X0*%
%ADD27RoundRect,0.190000X-0.140000X-0.170000X0.140000X-0.170000X0.140000X0.170000X-0.140000X0.170000X0*%
%ADD28RoundRect,0.190000X-0.170000X0.140000X-0.170000X-0.140000X0.170000X-0.140000X0.170000X0.140000X0*%
%ADD29RoundRect,0.185000X-0.135000X-0.185000X0.135000X-0.185000X0.135000X0.185000X-0.135000X0.185000X0*%
%ADD30RoundRect,0.268750X-0.256250X0.218750X-0.256250X-0.218750X0.256250X-0.218750X0.256250X0.218750X0*%
%ADD31RoundRect,0.200000X-0.587500X-0.150000X0.587500X-0.150000X0.587500X0.150000X-0.587500X0.150000X0*%
%ADD32RoundRect,0.050000X0.000000X0.367696X-0.367696X0.000000X0.000000X-0.367696X0.367696X0.000000X0*%
%ADD33FreePoly1,180.000000*%
%ADD34FreePoly2,180.000000*%
%ADD35FreePoly1,0.000000*%
%ADD36FreePoly2,0.000000*%
%ADD37RoundRect,0.185000X-0.185000X0.135000X-0.185000X-0.135000X0.185000X-0.135000X0.185000X0.135000X0*%
%ADD38C,0.300000*%
%ADD39RoundRect,0.050000X-1.250000X1.250000X-1.250000X-1.250000X1.250000X-1.250000X1.250000X1.250000X0*%
%ADD40RoundRect,0.197500X-0.147500X-0.172500X0.147500X-0.172500X0.147500X0.172500X-0.147500X0.172500X0*%
%ADD41RoundRect,0.300000X-0.425000X0.450000X-0.425000X-0.450000X0.425000X-0.450000X0.425000X0.450000X0*%
%ADD42RoundRect,0.050000X0.000000X-0.367696X0.367696X0.000000X0.000000X0.367696X-0.367696X0.000000X0*%
%ADD43RoundRect,0.300000X0.450000X0.425000X-0.450000X0.425000X-0.450000X-0.425000X0.450000X-0.425000X0*%
%ADD44RoundRect,0.268750X0.381250X-0.218750X0.381250X0.218750X-0.381250X0.218750X-0.381250X-0.218750X0*%
%ADD45RoundRect,0.050000X-1.100000X-0.525000X1.100000X-0.525000X1.100000X0.525000X-1.100000X0.525000X0*%
%ADD46RoundRect,0.050000X-0.525000X-0.500000X0.525000X-0.500000X0.525000X0.500000X-0.525000X0.500000X0*%
%ADD47RoundRect,0.200000X0.150000X-0.587500X0.150000X0.587500X-0.150000X0.587500X-0.150000X-0.587500X0*%
%ADD48RoundRect,0.287500X0.387500X0.237500X-0.387500X0.237500X-0.387500X-0.237500X0.387500X-0.237500X0*%
G04 APERTURE END LIST*
D10*
%TO.C,U7*%
X207600000Y-95175000D03*
X207100000Y-95175000D03*
X206600000Y-95175000D03*
D11*
X205925000Y-95000000D03*
X205925000Y-94500000D03*
X205925000Y-94000000D03*
X205925000Y-93500000D03*
D10*
X206600000Y-93325000D03*
X207100000Y-93325000D03*
X207600000Y-93325000D03*
D11*
X208275000Y-93500000D03*
X208275000Y-94000000D03*
X208275000Y-94500000D03*
X208275000Y-95000000D03*
%TD*%
D12*
%TO.C,ANT1*%
X217400000Y-109600000D03*
%TD*%
D13*
%TO.C,C19*%
X190330000Y-111200000D03*
X189370000Y-111200000D03*
%TD*%
D14*
%TO.C,TP11*%
X195600000Y-98400000D03*
%TD*%
D15*
%TO.C,DEBUG1*%
X181725000Y-107600000D03*
D16*
X181725000Y-106350000D03*
X181725000Y-105100000D03*
X181725000Y-103850000D03*
X181725000Y-102600000D03*
%TD*%
D17*
%TO.C,C4*%
X210700000Y-98880000D03*
X210700000Y-97920000D03*
%TD*%
D18*
%TO.C,R18*%
X191210000Y-95900000D03*
X190190000Y-95900000D03*
%TD*%
D19*
%TO.C,U2*%
X193650000Y-103000000D03*
D20*
X193650000Y-103600000D03*
X193650000Y-104200000D03*
X193650000Y-104800000D03*
X193650000Y-105400000D03*
X193650000Y-106000000D03*
X193650000Y-106600000D03*
X193650000Y-107200000D03*
X193650000Y-107800000D03*
X193650000Y-108400000D03*
X193650000Y-109000000D03*
X193650000Y-109600000D03*
X193650000Y-110200000D03*
X193650000Y-110800000D03*
X193650000Y-111400000D03*
X193650000Y-112000000D03*
D21*
X194800000Y-113150000D03*
X195400000Y-113150000D03*
X196000000Y-113150000D03*
X196600000Y-113150000D03*
X197200000Y-113150000D03*
X197800000Y-113150000D03*
X198400000Y-113150000D03*
X199000000Y-113150000D03*
X199600000Y-113150000D03*
X200200000Y-113150000D03*
X200800000Y-113150000D03*
X201400000Y-113150000D03*
X202000000Y-113150000D03*
X202600000Y-113150000D03*
X203200000Y-113150000D03*
X203800000Y-113150000D03*
D22*
X204950000Y-112000000D03*
X204950000Y-111400000D03*
X204950000Y-110800000D03*
X204950000Y-110200000D03*
X204950000Y-109600000D03*
X204950000Y-109000000D03*
X204950000Y-108400000D03*
X204950000Y-107800000D03*
X204950000Y-107200000D03*
X204950000Y-106600000D03*
X204950000Y-106000000D03*
X204950000Y-105400000D03*
X204950000Y-104800000D03*
X204950000Y-104200000D03*
X204950000Y-103600000D03*
X204950000Y-103000000D03*
D23*
X203800000Y-101850000D03*
X203200000Y-101850000D03*
X202600000Y-101850000D03*
X202000000Y-101850000D03*
X201400000Y-101850000D03*
X200800000Y-101850000D03*
X200200000Y-101850000D03*
X199600000Y-101850000D03*
X199000000Y-101850000D03*
X198400000Y-101850000D03*
X197800000Y-101850000D03*
X197200000Y-101850000D03*
X196600000Y-101850000D03*
X196000000Y-101850000D03*
X195400000Y-101850000D03*
X194800000Y-101850000D03*
D24*
X196500000Y-104700000D03*
X199300000Y-104700000D03*
X202100000Y-104700000D03*
X196500000Y-107500000D03*
X199300000Y-107500000D03*
X202100000Y-107500000D03*
X196500000Y-110300000D03*
X199300000Y-110300000D03*
X202100000Y-110300000D03*
%TD*%
D25*
%TO.C,D3*%
X193300000Y-89500000D03*
X193300000Y-90900000D03*
%TD*%
D26*
%TO.C,R15*%
X210000000Y-94060000D03*
X210000000Y-93040000D03*
%TD*%
D27*
%TO.C,C21*%
X181780000Y-96000000D03*
X180820000Y-96000000D03*
%TD*%
D28*
%TO.C,C13*%
X189350000Y-108220000D03*
X189350000Y-109180000D03*
%TD*%
D27*
%TO.C,C30*%
X205620000Y-92050000D03*
X206580000Y-92050000D03*
%TD*%
D14*
%TO.C,TP6*%
X209925000Y-96200000D03*
%TD*%
D29*
%TO.C,R17*%
X187140000Y-97100000D03*
X188160000Y-97100000D03*
%TD*%
D26*
%TO.C,R6*%
X188800000Y-107010000D03*
X188800000Y-105990000D03*
%TD*%
D28*
%TO.C,C11*%
X190800000Y-106020000D03*
X190800000Y-106980000D03*
%TD*%
D30*
%TO.C,D1*%
X181600000Y-93687500D03*
X181600000Y-92112500D03*
%TD*%
D28*
%TO.C,C7*%
X185900000Y-93880000D03*
X185900000Y-92920000D03*
%TD*%
D31*
%TO.C,U4*%
X183237500Y-98300000D03*
X181362500Y-99250000D03*
X181362500Y-97350000D03*
%TD*%
D32*
%TO.C,U3*%
X187400000Y-93400000D03*
D33*
X187725000Y-92915000D03*
D34*
X187075000Y-92915000D03*
D35*
X187075000Y-93885000D03*
D36*
X187725000Y-93885000D03*
%TD*%
D18*
%TO.C,R19*%
X191200000Y-91300000D03*
X190180000Y-91300000D03*
%TD*%
D37*
%TO.C,R3*%
X189800000Y-105990000D03*
X189800000Y-107010000D03*
%TD*%
D18*
%TO.C,R8*%
X190360000Y-112250000D03*
X189340000Y-112250000D03*
%TD*%
D27*
%TO.C,C22*%
X202330000Y-99250000D03*
X201370000Y-99250000D03*
%TD*%
D29*
%TO.C,R9*%
X189340000Y-114250000D03*
X190360000Y-114250000D03*
%TD*%
D14*
%TO.C,TP8*%
X191400000Y-98400000D03*
%TD*%
D29*
%TO.C,R14*%
X199340000Y-97100000D03*
X200360000Y-97100000D03*
%TD*%
%TO.C,R12*%
X199340000Y-98100000D03*
X200360000Y-98100000D03*
%TD*%
D38*
%TO.C,U5*%
X212000000Y-93750000D03*
X212400000Y-93750000D03*
X212000000Y-94150000D03*
X212400000Y-94150000D03*
%TD*%
D39*
%TO.C,BZ1*%
X196200000Y-86900000D03*
X196200000Y-93900000D03*
X203200000Y-93900000D03*
X203200000Y-86900000D03*
%TD*%
D28*
%TO.C,C14*%
X190100000Y-104020000D03*
X190100000Y-104980000D03*
%TD*%
D40*
%TO.C,L1*%
X207615000Y-109600000D03*
X208585000Y-109600000D03*
%TD*%
D14*
%TO.C,TP7*%
X211900000Y-91300000D03*
%TD*%
%TO.C,TP5*%
X187600000Y-108300000D03*
%TD*%
D41*
%TO.C,C32*%
X185600000Y-97650000D03*
X185600000Y-100350000D03*
%TD*%
D37*
%TO.C,R1*%
X211700000Y-97890000D03*
X211700000Y-98910000D03*
%TD*%
D17*
%TO.C,C12*%
X188700000Y-93880000D03*
X188700000Y-92920000D03*
%TD*%
D37*
%TO.C,R4*%
X207700000Y-97890000D03*
X207700000Y-98910000D03*
%TD*%
D13*
%TO.C,C33*%
X208480000Y-91050000D03*
X207520000Y-91050000D03*
%TD*%
D29*
%TO.C,R7*%
X181810000Y-100600000D03*
X180790000Y-100600000D03*
%TD*%
D42*
%TO.C,U1*%
X184400000Y-93400000D03*
D35*
X184075000Y-93885000D03*
D36*
X184725000Y-93885000D03*
D33*
X184725000Y-92915000D03*
D34*
X184075000Y-92915000D03*
%TD*%
D43*
%TO.C,C17*%
X185950000Y-95500000D03*
X188650000Y-95500000D03*
%TD*%
D44*
%TO.C,L2*%
X191850000Y-110562500D03*
X191850000Y-108437500D03*
%TD*%
D29*
%TO.C,R10*%
X189340000Y-113250000D03*
X190360000Y-113250000D03*
%TD*%
D13*
%TO.C,C24*%
X199390000Y-100250000D03*
X200350000Y-100250000D03*
%TD*%
D29*
%TO.C,R13*%
X199340000Y-96100000D03*
X200360000Y-96100000D03*
%TD*%
D18*
%TO.C,R5*%
X184410000Y-94900000D03*
X183390000Y-94900000D03*
%TD*%
D17*
%TO.C,C6*%
X208700000Y-98880000D03*
X208700000Y-97920000D03*
%TD*%
D31*
%TO.C,Q2*%
X190762500Y-92650000D03*
X190762500Y-94550000D03*
X192637500Y-93600000D03*
%TD*%
D14*
%TO.C,TP10*%
X193500000Y-98400000D03*
%TD*%
D17*
%TO.C,C26*%
X211000000Y-94030000D03*
X211000000Y-93070000D03*
%TD*%
D28*
%TO.C,C10*%
X191100000Y-104020000D03*
X191100000Y-104980000D03*
%TD*%
%TO.C,C2*%
X206600000Y-109620000D03*
X206600000Y-110580000D03*
%TD*%
D14*
%TO.C,TP9*%
X197700000Y-98200000D03*
%TD*%
D13*
%TO.C,C31*%
X208480000Y-92050000D03*
X207520000Y-92050000D03*
%TD*%
D45*
%TO.C,ANT2*%
X213975000Y-108125000D03*
X213975000Y-111075000D03*
D46*
X212450000Y-109600000D03*
%TD*%
D28*
%TO.C,C9*%
X191800000Y-106020000D03*
X191800000Y-106980000D03*
%TD*%
D13*
%TO.C,C23*%
X200330000Y-99250000D03*
X199370000Y-99250000D03*
%TD*%
D47*
%TO.C,Q1*%
X187500000Y-100537500D03*
X189400000Y-100537500D03*
X188450000Y-98662500D03*
%TD*%
D14*
%TO.C,TP2*%
X185500000Y-111400000D03*
%TD*%
D30*
%TO.C,D2*%
X188800000Y-103162500D03*
X188800000Y-104737500D03*
%TD*%
D27*
%TO.C,C3*%
X183820000Y-91900000D03*
X184780000Y-91900000D03*
%TD*%
D28*
%TO.C,C8*%
X192100000Y-104020000D03*
X192100000Y-104980000D03*
%TD*%
D48*
%TO.C,SW2*%
X211535232Y-106175000D03*
X207185232Y-106175000D03*
X211535232Y-104025000D03*
X207185232Y-104025000D03*
%TD*%
D27*
%TO.C,C20*%
X201370000Y-100250000D03*
X202330000Y-100250000D03*
%TD*%
D28*
%TO.C,C1*%
X209600000Y-109620000D03*
X209600000Y-110580000D03*
%TD*%
D37*
%TO.C,R16*%
X190700000Y-100090000D03*
X190700000Y-101110000D03*
%TD*%
D26*
%TO.C,R2*%
X209700000Y-98910000D03*
X209700000Y-97890000D03*
%TD*%
D48*
%TO.C,SW1*%
X211535232Y-102400000D03*
X207185232Y-102400000D03*
X211535232Y-100250000D03*
X207185232Y-100250000D03*
%TD*%
D14*
%TO.C,TP1*%
X185500000Y-113500000D03*
%TD*%
D28*
%TO.C,C5*%
X183000000Y-93880000D03*
X183000000Y-92920000D03*
%TD*%
%TO.C,C16*%
X190350000Y-108220000D03*
X190350000Y-109180000D03*
%TD*%
D29*
%TO.C,R11*%
X211190000Y-95050000D03*
X212210000Y-95050000D03*
%TD*%
D13*
%TO.C,C18*%
X190330000Y-110200000D03*
X189370000Y-110200000D03*
%TD*%
G36*
X196224256Y-112532157D02*
G01*
X196232554Y-112537702D01*
X196232681Y-112537794D01*
X196266118Y-112564153D01*
X196326573Y-112566527D01*
X196373916Y-112534894D01*
X196375912Y-112534763D01*
X196377023Y-112536426D01*
X196376690Y-112537668D01*
X196370691Y-112546646D01*
X196367000Y-112565199D01*
X196367000Y-113734801D01*
X196370691Y-113753355D01*
X196378518Y-113765069D01*
X196378649Y-113767065D01*
X196376986Y-113768176D01*
X196375744Y-113767843D01*
X196367446Y-113762298D01*
X196367319Y-113762206D01*
X196333882Y-113735847D01*
X196273427Y-113733473D01*
X196226084Y-113765106D01*
X196224088Y-113765237D01*
X196222977Y-113763574D01*
X196223310Y-113762332D01*
X196229309Y-113753354D01*
X196233000Y-113734801D01*
X196233000Y-112565199D01*
X196229309Y-112546645D01*
X196221482Y-112534931D01*
X196221351Y-112532935D01*
X196223014Y-112531824D01*
X196224256Y-112532157D01*
G37*
G36*
X202824256Y-112532157D02*
G01*
X202832554Y-112537702D01*
X202832681Y-112537794D01*
X202866118Y-112564153D01*
X202926573Y-112566527D01*
X202973916Y-112534894D01*
X202975912Y-112534763D01*
X202977023Y-112536426D01*
X202976690Y-112537668D01*
X202970691Y-112546646D01*
X202967000Y-112565199D01*
X202967000Y-113734801D01*
X202970691Y-113753355D01*
X202978518Y-113765069D01*
X202978649Y-113767065D01*
X202976986Y-113768176D01*
X202975744Y-113767843D01*
X202967446Y-113762298D01*
X202967319Y-113762206D01*
X202933882Y-113735847D01*
X202873427Y-113733473D01*
X202826084Y-113765106D01*
X202824088Y-113765237D01*
X202822977Y-113763574D01*
X202823310Y-113762332D01*
X202829309Y-113753354D01*
X202833000Y-113734801D01*
X202833000Y-112565199D01*
X202829309Y-112546645D01*
X202821482Y-112534931D01*
X202821351Y-112532935D01*
X202823014Y-112531824D01*
X202824256Y-112532157D01*
G37*
G36*
X201024256Y-112532157D02*
G01*
X201032554Y-112537702D01*
X201032681Y-112537794D01*
X201066118Y-112564153D01*
X201126573Y-112566527D01*
X201173916Y-112534894D01*
X201175912Y-112534763D01*
X201177023Y-112536426D01*
X201176690Y-112537668D01*
X201170691Y-112546646D01*
X201167000Y-112565199D01*
X201167000Y-113734801D01*
X201170691Y-113753355D01*
X201178518Y-113765069D01*
X201178649Y-113767065D01*
X201176986Y-113768176D01*
X201175744Y-113767843D01*
X201167446Y-113762298D01*
X201167319Y-113762206D01*
X201133882Y-113735847D01*
X201073427Y-113733473D01*
X201026084Y-113765106D01*
X201024088Y-113765237D01*
X201022977Y-113763574D01*
X201023310Y-113762332D01*
X201029309Y-113753354D01*
X201033000Y-113734801D01*
X201033000Y-112565199D01*
X201029309Y-112546645D01*
X201021482Y-112534931D01*
X201021351Y-112532935D01*
X201023014Y-112531824D01*
X201024256Y-112532157D01*
G37*
G36*
X196824256Y-112532157D02*
G01*
X196832554Y-112537702D01*
X196832681Y-112537794D01*
X196866118Y-112564153D01*
X196926573Y-112566527D01*
X196973916Y-112534894D01*
X196975912Y-112534763D01*
X196977023Y-112536426D01*
X196976690Y-112537668D01*
X196970691Y-112546646D01*
X196967000Y-112565199D01*
X196967000Y-113734801D01*
X196970691Y-113753355D01*
X196978518Y-113765069D01*
X196978649Y-113767065D01*
X196976986Y-113768176D01*
X196975744Y-113767843D01*
X196967446Y-113762298D01*
X196967319Y-113762206D01*
X196933882Y-113735847D01*
X196873427Y-113733473D01*
X196826084Y-113765106D01*
X196824088Y-113765237D01*
X196822977Y-113763574D01*
X196823310Y-113762332D01*
X196829309Y-113753354D01*
X196833000Y-113734801D01*
X196833000Y-112565199D01*
X196829309Y-112546645D01*
X196821482Y-112534931D01*
X196821351Y-112532935D01*
X196823014Y-112531824D01*
X196824256Y-112532157D01*
G37*
G36*
X202224256Y-112532157D02*
G01*
X202232554Y-112537702D01*
X202232681Y-112537794D01*
X202266118Y-112564153D01*
X202326573Y-112566527D01*
X202373916Y-112534894D01*
X202375912Y-112534763D01*
X202377023Y-112536426D01*
X202376690Y-112537668D01*
X202370691Y-112546646D01*
X202367000Y-112565199D01*
X202367000Y-113734801D01*
X202370691Y-113753355D01*
X202378518Y-113765069D01*
X202378649Y-113767065D01*
X202376986Y-113768176D01*
X202375744Y-113767843D01*
X202367446Y-113762298D01*
X202367319Y-113762206D01*
X202333882Y-113735847D01*
X202273427Y-113733473D01*
X202226084Y-113765106D01*
X202224088Y-113765237D01*
X202222977Y-113763574D01*
X202223310Y-113762332D01*
X202229309Y-113753354D01*
X202233000Y-113734801D01*
X202233000Y-112565199D01*
X202229309Y-112546645D01*
X202221482Y-112534931D01*
X202221351Y-112532935D01*
X202223014Y-112531824D01*
X202224256Y-112532157D01*
G37*
G36*
X199824256Y-112532157D02*
G01*
X199832554Y-112537702D01*
X199832681Y-112537794D01*
X199866118Y-112564153D01*
X199926573Y-112566527D01*
X199973916Y-112534894D01*
X199975912Y-112534763D01*
X199977023Y-112536426D01*
X199976690Y-112537668D01*
X199970691Y-112546646D01*
X199967000Y-112565199D01*
X199967000Y-113734801D01*
X199970691Y-113753355D01*
X199978518Y-113765069D01*
X199978649Y-113767065D01*
X199976986Y-113768176D01*
X199975744Y-113767843D01*
X199967446Y-113762298D01*
X199967319Y-113762206D01*
X199933882Y-113735847D01*
X199873427Y-113733473D01*
X199826084Y-113765106D01*
X199824088Y-113765237D01*
X199822977Y-113763574D01*
X199823310Y-113762332D01*
X199829309Y-113753354D01*
X199833000Y-113734801D01*
X199833000Y-112565199D01*
X199829309Y-112546645D01*
X199821482Y-112534931D01*
X199821351Y-112532935D01*
X199823014Y-112531824D01*
X199824256Y-112532157D01*
G37*
G36*
X195024256Y-112532157D02*
G01*
X195032554Y-112537702D01*
X195032681Y-112537794D01*
X195066118Y-112564153D01*
X195126573Y-112566527D01*
X195173916Y-112534894D01*
X195175912Y-112534763D01*
X195177023Y-112536426D01*
X195176690Y-112537668D01*
X195170691Y-112546646D01*
X195167000Y-112565199D01*
X195167000Y-113734801D01*
X195170691Y-113753355D01*
X195178518Y-113765069D01*
X195178649Y-113767065D01*
X195176986Y-113768176D01*
X195175744Y-113767843D01*
X195167446Y-113762298D01*
X195167319Y-113762206D01*
X195133882Y-113735847D01*
X195073427Y-113733473D01*
X195026084Y-113765106D01*
X195024088Y-113765237D01*
X195022977Y-113763574D01*
X195023310Y-113762332D01*
X195029309Y-113753354D01*
X195033000Y-113734801D01*
X195033000Y-112565199D01*
X195029309Y-112546645D01*
X195021482Y-112534931D01*
X195021351Y-112532935D01*
X195023014Y-112531824D01*
X195024256Y-112532157D01*
G37*
G36*
X199224256Y-112532157D02*
G01*
X199232554Y-112537702D01*
X199232681Y-112537794D01*
X199266118Y-112564153D01*
X199326573Y-112566527D01*
X199373916Y-112534894D01*
X199375912Y-112534763D01*
X199377023Y-112536426D01*
X199376690Y-112537668D01*
X199370691Y-112546646D01*
X199367000Y-112565199D01*
X199367000Y-113734801D01*
X199370691Y-113753355D01*
X199378518Y-113765069D01*
X199378649Y-113767065D01*
X199376986Y-113768176D01*
X199375744Y-113767843D01*
X199367446Y-113762298D01*
X199367319Y-113762206D01*
X199333882Y-113735847D01*
X199273427Y-113733473D01*
X199226084Y-113765106D01*
X199224088Y-113765237D01*
X199222977Y-113763574D01*
X199223310Y-113762332D01*
X199229309Y-113753354D01*
X199233000Y-113734801D01*
X199233000Y-112565199D01*
X199229309Y-112546645D01*
X199221482Y-112534931D01*
X199221351Y-112532935D01*
X199223014Y-112531824D01*
X199224256Y-112532157D01*
G37*
G36*
X195624256Y-112532157D02*
G01*
X195632554Y-112537702D01*
X195632681Y-112537794D01*
X195666118Y-112564153D01*
X195726573Y-112566527D01*
X195773916Y-112534894D01*
X195775912Y-112534763D01*
X195777023Y-112536426D01*
X195776690Y-112537668D01*
X195770691Y-112546646D01*
X195767000Y-112565199D01*
X195767000Y-113734801D01*
X195770691Y-113753355D01*
X195778518Y-113765069D01*
X195778649Y-113767065D01*
X195776986Y-113768176D01*
X195775744Y-113767843D01*
X195767446Y-113762298D01*
X195767319Y-113762206D01*
X195733882Y-113735847D01*
X195673427Y-113733473D01*
X195626084Y-113765106D01*
X195624088Y-113765237D01*
X195622977Y-113763574D01*
X195623310Y-113762332D01*
X195629309Y-113753354D01*
X195633000Y-113734801D01*
X195633000Y-112565199D01*
X195629309Y-112546645D01*
X195621482Y-112534931D01*
X195621351Y-112532935D01*
X195623014Y-112531824D01*
X195624256Y-112532157D01*
G37*
G36*
X203424256Y-112532157D02*
G01*
X203432554Y-112537702D01*
X203432681Y-112537794D01*
X203466118Y-112564153D01*
X203526573Y-112566527D01*
X203573916Y-112534894D01*
X203575912Y-112534763D01*
X203577023Y-112536426D01*
X203576690Y-112537668D01*
X203570691Y-112546646D01*
X203567000Y-112565199D01*
X203567000Y-113734801D01*
X203570691Y-113753355D01*
X203578518Y-113765069D01*
X203578649Y-113767065D01*
X203576986Y-113768176D01*
X203575744Y-113767843D01*
X203567446Y-113762298D01*
X203567319Y-113762206D01*
X203533882Y-113735847D01*
X203473427Y-113733473D01*
X203426084Y-113765106D01*
X203424088Y-113765237D01*
X203422977Y-113763574D01*
X203423310Y-113762332D01*
X203429309Y-113753354D01*
X203433000Y-113734801D01*
X203433000Y-112565199D01*
X203429309Y-112546645D01*
X203421482Y-112534931D01*
X203421351Y-112532935D01*
X203423014Y-112531824D01*
X203424256Y-112532157D01*
G37*
G36*
X200424256Y-112532157D02*
G01*
X200432554Y-112537702D01*
X200432681Y-112537794D01*
X200466118Y-112564153D01*
X200526573Y-112566527D01*
X200573916Y-112534894D01*
X200575912Y-112534763D01*
X200577023Y-112536426D01*
X200576690Y-112537668D01*
X200570691Y-112546646D01*
X200567000Y-112565199D01*
X200567000Y-113734801D01*
X200570691Y-113753355D01*
X200578518Y-113765069D01*
X200578649Y-113767065D01*
X200576986Y-113768176D01*
X200575744Y-113767843D01*
X200567446Y-113762298D01*
X200567319Y-113762206D01*
X200533882Y-113735847D01*
X200473427Y-113733473D01*
X200426084Y-113765106D01*
X200424088Y-113765237D01*
X200422977Y-113763574D01*
X200423310Y-113762332D01*
X200429309Y-113753354D01*
X200433000Y-113734801D01*
X200433000Y-112565199D01*
X200429309Y-112546645D01*
X200421482Y-112534931D01*
X200421351Y-112532935D01*
X200423014Y-112531824D01*
X200424256Y-112532157D01*
G37*
G36*
X198024256Y-112532157D02*
G01*
X198032554Y-112537702D01*
X198032681Y-112537794D01*
X198066118Y-112564153D01*
X198126573Y-112566527D01*
X198173916Y-112534894D01*
X198175912Y-112534763D01*
X198177023Y-112536426D01*
X198176690Y-112537668D01*
X198170691Y-112546646D01*
X198167000Y-112565199D01*
X198167000Y-113734801D01*
X198170691Y-113753355D01*
X198178518Y-113765069D01*
X198178649Y-113767065D01*
X198176986Y-113768176D01*
X198175744Y-113767843D01*
X198167446Y-113762298D01*
X198167319Y-113762206D01*
X198133882Y-113735847D01*
X198073427Y-113733473D01*
X198026084Y-113765106D01*
X198024088Y-113765237D01*
X198022977Y-113763574D01*
X198023310Y-113762332D01*
X198029309Y-113753354D01*
X198033000Y-113734801D01*
X198033000Y-112565199D01*
X198029309Y-112546645D01*
X198021482Y-112534931D01*
X198021351Y-112532935D01*
X198023014Y-112531824D01*
X198024256Y-112532157D01*
G37*
G36*
X197424256Y-112532157D02*
G01*
X197432554Y-112537702D01*
X197432681Y-112537794D01*
X197466118Y-112564153D01*
X197526573Y-112566527D01*
X197573916Y-112534894D01*
X197575912Y-112534763D01*
X197577023Y-112536426D01*
X197576690Y-112537668D01*
X197570691Y-112546646D01*
X197567000Y-112565199D01*
X197567000Y-113734801D01*
X197570691Y-113753355D01*
X197578518Y-113765069D01*
X197578649Y-113767065D01*
X197576986Y-113768176D01*
X197575744Y-113767843D01*
X197567446Y-113762298D01*
X197567319Y-113762206D01*
X197533882Y-113735847D01*
X197473427Y-113733473D01*
X197426084Y-113765106D01*
X197424088Y-113765237D01*
X197422977Y-113763574D01*
X197423310Y-113762332D01*
X197429309Y-113753354D01*
X197433000Y-113734801D01*
X197433000Y-112565199D01*
X197429309Y-112546645D01*
X197421482Y-112534931D01*
X197421351Y-112532935D01*
X197423014Y-112531824D01*
X197424256Y-112532157D01*
G37*
G36*
X198624256Y-112532157D02*
G01*
X198632554Y-112537702D01*
X198632681Y-112537794D01*
X198666118Y-112564153D01*
X198726573Y-112566527D01*
X198773916Y-112534894D01*
X198775912Y-112534763D01*
X198777023Y-112536426D01*
X198776690Y-112537668D01*
X198770691Y-112546646D01*
X198767000Y-112565199D01*
X198767000Y-113734801D01*
X198770691Y-113753355D01*
X198778518Y-113765069D01*
X198778649Y-113767065D01*
X198776986Y-113768176D01*
X198775744Y-113767843D01*
X198767446Y-113762298D01*
X198767319Y-113762206D01*
X198733882Y-113735847D01*
X198673427Y-113733473D01*
X198626084Y-113765106D01*
X198624088Y-113765237D01*
X198622977Y-113763574D01*
X198623310Y-113762332D01*
X198629309Y-113753354D01*
X198633000Y-113734801D01*
X198633000Y-112565199D01*
X198629309Y-112546645D01*
X198621482Y-112534931D01*
X198621351Y-112532935D01*
X198623014Y-112531824D01*
X198624256Y-112532157D01*
G37*
G36*
X201624256Y-112532157D02*
G01*
X201632554Y-112537702D01*
X201632681Y-112537794D01*
X201666118Y-112564153D01*
X201726573Y-112566527D01*
X201773916Y-112534894D01*
X201775912Y-112534763D01*
X201777023Y-112536426D01*
X201776690Y-112537668D01*
X201770691Y-112546646D01*
X201767000Y-112565199D01*
X201767000Y-113734801D01*
X201770691Y-113753355D01*
X201778518Y-113765069D01*
X201778649Y-113767065D01*
X201776986Y-113768176D01*
X201775744Y-113767843D01*
X201767446Y-113762298D01*
X201767319Y-113762206D01*
X201733882Y-113735847D01*
X201673427Y-113733473D01*
X201626084Y-113765106D01*
X201624088Y-113765237D01*
X201622977Y-113763574D01*
X201623310Y-113762332D01*
X201629309Y-113753354D01*
X201633000Y-113734801D01*
X201633000Y-112565199D01*
X201629309Y-112546645D01*
X201621482Y-112534931D01*
X201621351Y-112532935D01*
X201623014Y-112531824D01*
X201624256Y-112532157D01*
G37*
G36*
X205568176Y-111623014D02*
G01*
X205567843Y-111624256D01*
X205562298Y-111632554D01*
X205562206Y-111632681D01*
X205535847Y-111666118D01*
X205533473Y-111726573D01*
X205565106Y-111773916D01*
X205565237Y-111775912D01*
X205563574Y-111777023D01*
X205562332Y-111776690D01*
X205553354Y-111770691D01*
X205534801Y-111767000D01*
X204365199Y-111767000D01*
X204346645Y-111770691D01*
X204334931Y-111778518D01*
X204332935Y-111778649D01*
X204331824Y-111776986D01*
X204332157Y-111775744D01*
X204337702Y-111767446D01*
X204337794Y-111767319D01*
X204364153Y-111733882D01*
X204366527Y-111673427D01*
X204334894Y-111626084D01*
X204334763Y-111624088D01*
X204336426Y-111622977D01*
X204337668Y-111623310D01*
X204346646Y-111629309D01*
X204365199Y-111633000D01*
X205534801Y-111633000D01*
X205553355Y-111629309D01*
X205565069Y-111621482D01*
X205567065Y-111621351D01*
X205568176Y-111623014D01*
G37*
G36*
X194268176Y-111623014D02*
G01*
X194267843Y-111624256D01*
X194262298Y-111632554D01*
X194262206Y-111632681D01*
X194235847Y-111666118D01*
X194233473Y-111726573D01*
X194265106Y-111773916D01*
X194265237Y-111775912D01*
X194263574Y-111777023D01*
X194262332Y-111776690D01*
X194253354Y-111770691D01*
X194234801Y-111767000D01*
X193065199Y-111767000D01*
X193046645Y-111770691D01*
X193034931Y-111778518D01*
X193032935Y-111778649D01*
X193031824Y-111776986D01*
X193032157Y-111775744D01*
X193037702Y-111767446D01*
X193037794Y-111767319D01*
X193064153Y-111733882D01*
X193066527Y-111673427D01*
X193034894Y-111626084D01*
X193034763Y-111624088D01*
X193036426Y-111622977D01*
X193037668Y-111623310D01*
X193046646Y-111629309D01*
X193065199Y-111633000D01*
X194234801Y-111633000D01*
X194253355Y-111629309D01*
X194265069Y-111621482D01*
X194267065Y-111621351D01*
X194268176Y-111623014D01*
G37*
G36*
X205568176Y-111023014D02*
G01*
X205567843Y-111024256D01*
X205562298Y-111032554D01*
X205562206Y-111032681D01*
X205535847Y-111066118D01*
X205533473Y-111126573D01*
X205565106Y-111173916D01*
X205565237Y-111175912D01*
X205563574Y-111177023D01*
X205562332Y-111176690D01*
X205553354Y-111170691D01*
X205534801Y-111167000D01*
X204365199Y-111167000D01*
X204346645Y-111170691D01*
X204334931Y-111178518D01*
X204332935Y-111178649D01*
X204331824Y-111176986D01*
X204332157Y-111175744D01*
X204337702Y-111167446D01*
X204337794Y-111167319D01*
X204364153Y-111133882D01*
X204366527Y-111073427D01*
X204334894Y-111026084D01*
X204334763Y-111024088D01*
X204336426Y-111022977D01*
X204337668Y-111023310D01*
X204346646Y-111029309D01*
X204365199Y-111033000D01*
X205534801Y-111033000D01*
X205553355Y-111029309D01*
X205565069Y-111021482D01*
X205567065Y-111021351D01*
X205568176Y-111023014D01*
G37*
G36*
X194268176Y-111023014D02*
G01*
X194267843Y-111024256D01*
X194262298Y-111032554D01*
X194262206Y-111032681D01*
X194235847Y-111066118D01*
X194233473Y-111126573D01*
X194265106Y-111173916D01*
X194265237Y-111175912D01*
X194263574Y-111177023D01*
X194262332Y-111176690D01*
X194253354Y-111170691D01*
X194234801Y-111167000D01*
X193065199Y-111167000D01*
X193046645Y-111170691D01*
X193034931Y-111178518D01*
X193032935Y-111178649D01*
X193031824Y-111176986D01*
X193032157Y-111175744D01*
X193037702Y-111167446D01*
X193037794Y-111167319D01*
X193064153Y-111133882D01*
X193066527Y-111073427D01*
X193034894Y-111026084D01*
X193034763Y-111024088D01*
X193036426Y-111022977D01*
X193037668Y-111023310D01*
X193046646Y-111029309D01*
X193065199Y-111033000D01*
X194234801Y-111033000D01*
X194253355Y-111029309D01*
X194265069Y-111021482D01*
X194267065Y-111021351D01*
X194268176Y-111023014D01*
G37*
G36*
X205568176Y-110423014D02*
G01*
X205567843Y-110424256D01*
X205562298Y-110432554D01*
X205562206Y-110432681D01*
X205535847Y-110466118D01*
X205533473Y-110526573D01*
X205565106Y-110573916D01*
X205565237Y-110575912D01*
X205563574Y-110577023D01*
X205562332Y-110576690D01*
X205553354Y-110570691D01*
X205534801Y-110567000D01*
X204365199Y-110567000D01*
X204346645Y-110570691D01*
X204334931Y-110578518D01*
X204332935Y-110578649D01*
X204331824Y-110576986D01*
X204332157Y-110575744D01*
X204337702Y-110567446D01*
X204337794Y-110567319D01*
X204364153Y-110533882D01*
X204366527Y-110473427D01*
X204334894Y-110426084D01*
X204334763Y-110424088D01*
X204336426Y-110422977D01*
X204337668Y-110423310D01*
X204346646Y-110429309D01*
X204365199Y-110433000D01*
X205534801Y-110433000D01*
X205553355Y-110429309D01*
X205565069Y-110421482D01*
X205567065Y-110421351D01*
X205568176Y-110423014D01*
G37*
G36*
X194268176Y-110423014D02*
G01*
X194267843Y-110424256D01*
X194262298Y-110432554D01*
X194262206Y-110432681D01*
X194235847Y-110466118D01*
X194233473Y-110526573D01*
X194265106Y-110573916D01*
X194265237Y-110575912D01*
X194263574Y-110577023D01*
X194262332Y-110576690D01*
X194253354Y-110570691D01*
X194234801Y-110567000D01*
X193065199Y-110567000D01*
X193046645Y-110570691D01*
X193034931Y-110578518D01*
X193032935Y-110578649D01*
X193031824Y-110576986D01*
X193032157Y-110575744D01*
X193037702Y-110567446D01*
X193037794Y-110567319D01*
X193064153Y-110533882D01*
X193066527Y-110473427D01*
X193034894Y-110426084D01*
X193034763Y-110424088D01*
X193036426Y-110422977D01*
X193037668Y-110423310D01*
X193046646Y-110429309D01*
X193065199Y-110433000D01*
X194234801Y-110433000D01*
X194253355Y-110429309D01*
X194265069Y-110421482D01*
X194267065Y-110421351D01*
X194268176Y-110423014D01*
G37*
G36*
X194268176Y-109823014D02*
G01*
X194267843Y-109824256D01*
X194262298Y-109832554D01*
X194262206Y-109832681D01*
X194235847Y-109866118D01*
X194233473Y-109926573D01*
X194265106Y-109973916D01*
X194265237Y-109975912D01*
X194263574Y-109977023D01*
X194262332Y-109976690D01*
X194253354Y-109970691D01*
X194234801Y-109967000D01*
X193065199Y-109967000D01*
X193046645Y-109970691D01*
X193034931Y-109978518D01*
X193032935Y-109978649D01*
X193031824Y-109976986D01*
X193032157Y-109975744D01*
X193037702Y-109967446D01*
X193037794Y-109967319D01*
X193064153Y-109933882D01*
X193066527Y-109873427D01*
X193034894Y-109826084D01*
X193034763Y-109824088D01*
X193036426Y-109822977D01*
X193037668Y-109823310D01*
X193046646Y-109829309D01*
X193065199Y-109833000D01*
X194234801Y-109833000D01*
X194253355Y-109829309D01*
X194265069Y-109821482D01*
X194267065Y-109821351D01*
X194268176Y-109823014D01*
G37*
G36*
X205568176Y-109823014D02*
G01*
X205567843Y-109824256D01*
X205562298Y-109832554D01*
X205562206Y-109832681D01*
X205535847Y-109866118D01*
X205533473Y-109926573D01*
X205565106Y-109973916D01*
X205565237Y-109975912D01*
X205563574Y-109977023D01*
X205562332Y-109976690D01*
X205553354Y-109970691D01*
X205534801Y-109967000D01*
X204365199Y-109967000D01*
X204346645Y-109970691D01*
X204334931Y-109978518D01*
X204332935Y-109978649D01*
X204331824Y-109976986D01*
X204332157Y-109975744D01*
X204337702Y-109967446D01*
X204337794Y-109967319D01*
X204364153Y-109933882D01*
X204366527Y-109873427D01*
X204334894Y-109826084D01*
X204334763Y-109824088D01*
X204336426Y-109822977D01*
X204337668Y-109823310D01*
X204346646Y-109829309D01*
X204365199Y-109833000D01*
X205534801Y-109833000D01*
X205553355Y-109829309D01*
X205565069Y-109821482D01*
X205567065Y-109821351D01*
X205568176Y-109823014D01*
G37*
G36*
X194268176Y-109223014D02*
G01*
X194267843Y-109224256D01*
X194262298Y-109232554D01*
X194262206Y-109232681D01*
X194235847Y-109266118D01*
X194233473Y-109326573D01*
X194265106Y-109373916D01*
X194265237Y-109375912D01*
X194263574Y-109377023D01*
X194262332Y-109376690D01*
X194253354Y-109370691D01*
X194234801Y-109367000D01*
X193065199Y-109367000D01*
X193046645Y-109370691D01*
X193034931Y-109378518D01*
X193032935Y-109378649D01*
X193031824Y-109376986D01*
X193032157Y-109375744D01*
X193037702Y-109367446D01*
X193037794Y-109367319D01*
X193064153Y-109333882D01*
X193066527Y-109273427D01*
X193034894Y-109226084D01*
X193034763Y-109224088D01*
X193036426Y-109222977D01*
X193037668Y-109223310D01*
X193046646Y-109229309D01*
X193065199Y-109233000D01*
X194234801Y-109233000D01*
X194253355Y-109229309D01*
X194265069Y-109221482D01*
X194267065Y-109221351D01*
X194268176Y-109223014D01*
G37*
G36*
X205568176Y-109223014D02*
G01*
X205567843Y-109224256D01*
X205562298Y-109232554D01*
X205562206Y-109232681D01*
X205535847Y-109266118D01*
X205533473Y-109326573D01*
X205565106Y-109373916D01*
X205565237Y-109375912D01*
X205563574Y-109377023D01*
X205562332Y-109376690D01*
X205553354Y-109370691D01*
X205534801Y-109367000D01*
X204365199Y-109367000D01*
X204346645Y-109370691D01*
X204334931Y-109378518D01*
X204332935Y-109378649D01*
X204331824Y-109376986D01*
X204332157Y-109375744D01*
X204337702Y-109367446D01*
X204337794Y-109367319D01*
X204364153Y-109333882D01*
X204366527Y-109273427D01*
X204334894Y-109226084D01*
X204334763Y-109224088D01*
X204336426Y-109222977D01*
X204337668Y-109223310D01*
X204346646Y-109229309D01*
X204365199Y-109233000D01*
X205534801Y-109233000D01*
X205553355Y-109229309D01*
X205565069Y-109221482D01*
X205567065Y-109221351D01*
X205568176Y-109223014D01*
G37*
G36*
X194268176Y-108623014D02*
G01*
X194267843Y-108624256D01*
X194262298Y-108632554D01*
X194262206Y-108632681D01*
X194235847Y-108666118D01*
X194233473Y-108726573D01*
X194265106Y-108773916D01*
X194265237Y-108775912D01*
X194263574Y-108777023D01*
X194262332Y-108776690D01*
X194253354Y-108770691D01*
X194234801Y-108767000D01*
X193065199Y-108767000D01*
X193046645Y-108770691D01*
X193034931Y-108778518D01*
X193032935Y-108778649D01*
X193031824Y-108776986D01*
X193032157Y-108775744D01*
X193037702Y-108767446D01*
X193037794Y-108767319D01*
X193064153Y-108733882D01*
X193066527Y-108673427D01*
X193034894Y-108626084D01*
X193034763Y-108624088D01*
X193036426Y-108622977D01*
X193037668Y-108623310D01*
X193046646Y-108629309D01*
X193065199Y-108633000D01*
X194234801Y-108633000D01*
X194253355Y-108629309D01*
X194265069Y-108621482D01*
X194267065Y-108621351D01*
X194268176Y-108623014D01*
G37*
G36*
X205568176Y-108623014D02*
G01*
X205567843Y-108624256D01*
X205562298Y-108632554D01*
X205562206Y-108632681D01*
X205535847Y-108666118D01*
X205533473Y-108726573D01*
X205565106Y-108773916D01*
X205565237Y-108775912D01*
X205563574Y-108777023D01*
X205562332Y-108776690D01*
X205553354Y-108770691D01*
X205534801Y-108767000D01*
X204365199Y-108767000D01*
X204346645Y-108770691D01*
X204334931Y-108778518D01*
X204332935Y-108778649D01*
X204331824Y-108776986D01*
X204332157Y-108775744D01*
X204337702Y-108767446D01*
X204337794Y-108767319D01*
X204364153Y-108733882D01*
X204366527Y-108673427D01*
X204334894Y-108626084D01*
X204334763Y-108624088D01*
X204336426Y-108622977D01*
X204337668Y-108623310D01*
X204346646Y-108629309D01*
X204365199Y-108633000D01*
X205534801Y-108633000D01*
X205553355Y-108629309D01*
X205565069Y-108621482D01*
X205567065Y-108621351D01*
X205568176Y-108623014D01*
G37*
G36*
X205568176Y-108023014D02*
G01*
X205567843Y-108024256D01*
X205562298Y-108032554D01*
X205562206Y-108032681D01*
X205535847Y-108066118D01*
X205533473Y-108126573D01*
X205565106Y-108173916D01*
X205565237Y-108175912D01*
X205563574Y-108177023D01*
X205562332Y-108176690D01*
X205553354Y-108170691D01*
X205534801Y-108167000D01*
X204365199Y-108167000D01*
X204346645Y-108170691D01*
X204334931Y-108178518D01*
X204332935Y-108178649D01*
X204331824Y-108176986D01*
X204332157Y-108175744D01*
X204337702Y-108167446D01*
X204337794Y-108167319D01*
X204364153Y-108133882D01*
X204366527Y-108073427D01*
X204334894Y-108026084D01*
X204334763Y-108024088D01*
X204336426Y-108022977D01*
X204337668Y-108023310D01*
X204346646Y-108029309D01*
X204365199Y-108033000D01*
X205534801Y-108033000D01*
X205553355Y-108029309D01*
X205565069Y-108021482D01*
X205567065Y-108021351D01*
X205568176Y-108023014D01*
G37*
G36*
X194268176Y-108023014D02*
G01*
X194267843Y-108024256D01*
X194262298Y-108032554D01*
X194262206Y-108032681D01*
X194235847Y-108066118D01*
X194233473Y-108126573D01*
X194265106Y-108173916D01*
X194265237Y-108175912D01*
X194263574Y-108177023D01*
X194262332Y-108176690D01*
X194253354Y-108170691D01*
X194234801Y-108167000D01*
X193065199Y-108167000D01*
X193046645Y-108170691D01*
X193034931Y-108178518D01*
X193032935Y-108178649D01*
X193031824Y-108176986D01*
X193032157Y-108175744D01*
X193037702Y-108167446D01*
X193037794Y-108167319D01*
X193064153Y-108133882D01*
X193066527Y-108073427D01*
X193034894Y-108026084D01*
X193034763Y-108024088D01*
X193036426Y-108022977D01*
X193037668Y-108023310D01*
X193046646Y-108029309D01*
X193065199Y-108033000D01*
X194234801Y-108033000D01*
X194253355Y-108029309D01*
X194265069Y-108021482D01*
X194267065Y-108021351D01*
X194268176Y-108023014D01*
G37*
G36*
X194268176Y-107423014D02*
G01*
X194267843Y-107424256D01*
X194262298Y-107432554D01*
X194262206Y-107432681D01*
X194235847Y-107466118D01*
X194233473Y-107526573D01*
X194265106Y-107573916D01*
X194265237Y-107575912D01*
X194263574Y-107577023D01*
X194262332Y-107576690D01*
X194253354Y-107570691D01*
X194234801Y-107567000D01*
X193065199Y-107567000D01*
X193046645Y-107570691D01*
X193034931Y-107578518D01*
X193032935Y-107578649D01*
X193031824Y-107576986D01*
X193032157Y-107575744D01*
X193037702Y-107567446D01*
X193037794Y-107567319D01*
X193064153Y-107533882D01*
X193066527Y-107473427D01*
X193034894Y-107426084D01*
X193034763Y-107424088D01*
X193036426Y-107422977D01*
X193037668Y-107423310D01*
X193046646Y-107429309D01*
X193065199Y-107433000D01*
X194234801Y-107433000D01*
X194253355Y-107429309D01*
X194265069Y-107421482D01*
X194267065Y-107421351D01*
X194268176Y-107423014D01*
G37*
G36*
X205568176Y-107423014D02*
G01*
X205567843Y-107424256D01*
X205562298Y-107432554D01*
X205562206Y-107432681D01*
X205535847Y-107466118D01*
X205533473Y-107526573D01*
X205565106Y-107573916D01*
X205565237Y-107575912D01*
X205563574Y-107577023D01*
X205562332Y-107576690D01*
X205553354Y-107570691D01*
X205534801Y-107567000D01*
X204365199Y-107567000D01*
X204346645Y-107570691D01*
X204334931Y-107578518D01*
X204332935Y-107578649D01*
X204331824Y-107576986D01*
X204332157Y-107575744D01*
X204337702Y-107567446D01*
X204337794Y-107567319D01*
X204364153Y-107533882D01*
X204366527Y-107473427D01*
X204334894Y-107426084D01*
X204334763Y-107424088D01*
X204336426Y-107422977D01*
X204337668Y-107423310D01*
X204346646Y-107429309D01*
X204365199Y-107433000D01*
X205534801Y-107433000D01*
X205553355Y-107429309D01*
X205565069Y-107421482D01*
X205567065Y-107421351D01*
X205568176Y-107423014D01*
G37*
G36*
X194268176Y-106823014D02*
G01*
X194267843Y-106824256D01*
X194262298Y-106832554D01*
X194262206Y-106832681D01*
X194235847Y-106866118D01*
X194233473Y-106926573D01*
X194265106Y-106973916D01*
X194265237Y-106975912D01*
X194263574Y-106977023D01*
X194262332Y-106976690D01*
X194253354Y-106970691D01*
X194234801Y-106967000D01*
X193065199Y-106967000D01*
X193046645Y-106970691D01*
X193034931Y-106978518D01*
X193032935Y-106978649D01*
X193031824Y-106976986D01*
X193032157Y-106975744D01*
X193037702Y-106967446D01*
X193037794Y-106967319D01*
X193064153Y-106933882D01*
X193066527Y-106873427D01*
X193034894Y-106826084D01*
X193034763Y-106824088D01*
X193036426Y-106822977D01*
X193037668Y-106823310D01*
X193046646Y-106829309D01*
X193065199Y-106833000D01*
X194234801Y-106833000D01*
X194253355Y-106829309D01*
X194265069Y-106821482D01*
X194267065Y-106821351D01*
X194268176Y-106823014D01*
G37*
G36*
X205568176Y-106823014D02*
G01*
X205567843Y-106824256D01*
X205562298Y-106832554D01*
X205562206Y-106832681D01*
X205535847Y-106866118D01*
X205533473Y-106926573D01*
X205565106Y-106973916D01*
X205565237Y-106975912D01*
X205563574Y-106977023D01*
X205562332Y-106976690D01*
X205553354Y-106970691D01*
X205534801Y-106967000D01*
X204365199Y-106967000D01*
X204346645Y-106970691D01*
X204334931Y-106978518D01*
X204332935Y-106978649D01*
X204331824Y-106976986D01*
X204332157Y-106975744D01*
X204337702Y-106967446D01*
X204337794Y-106967319D01*
X204364153Y-106933882D01*
X204366527Y-106873427D01*
X204334894Y-106826084D01*
X204334763Y-106824088D01*
X204336426Y-106822977D01*
X204337668Y-106823310D01*
X204346646Y-106829309D01*
X204365199Y-106833000D01*
X205534801Y-106833000D01*
X205553355Y-106829309D01*
X205565069Y-106821482D01*
X205567065Y-106821351D01*
X205568176Y-106823014D01*
G37*
G36*
X205568176Y-106223014D02*
G01*
X205567843Y-106224256D01*
X205562298Y-106232554D01*
X205562206Y-106232681D01*
X205535847Y-106266118D01*
X205533473Y-106326573D01*
X205565106Y-106373916D01*
X205565237Y-106375912D01*
X205563574Y-106377023D01*
X205562332Y-106376690D01*
X205553354Y-106370691D01*
X205534801Y-106367000D01*
X204365199Y-106367000D01*
X204346645Y-106370691D01*
X204334931Y-106378518D01*
X204332935Y-106378649D01*
X204331824Y-106376986D01*
X204332157Y-106375744D01*
X204337702Y-106367446D01*
X204337794Y-106367319D01*
X204364153Y-106333882D01*
X204366527Y-106273427D01*
X204334894Y-106226084D01*
X204334763Y-106224088D01*
X204336426Y-106222977D01*
X204337668Y-106223310D01*
X204346646Y-106229309D01*
X204365199Y-106233000D01*
X205534801Y-106233000D01*
X205553355Y-106229309D01*
X205565069Y-106221482D01*
X205567065Y-106221351D01*
X205568176Y-106223014D01*
G37*
G36*
X194268176Y-106223014D02*
G01*
X194267843Y-106224256D01*
X194262298Y-106232554D01*
X194262206Y-106232681D01*
X194235847Y-106266118D01*
X194233473Y-106326573D01*
X194265106Y-106373916D01*
X194265237Y-106375912D01*
X194263574Y-106377023D01*
X194262332Y-106376690D01*
X194253354Y-106370691D01*
X194234801Y-106367000D01*
X193065199Y-106367000D01*
X193046645Y-106370691D01*
X193034931Y-106378518D01*
X193032935Y-106378649D01*
X193031824Y-106376986D01*
X193032157Y-106375744D01*
X193037702Y-106367446D01*
X193037794Y-106367319D01*
X193064153Y-106333882D01*
X193066527Y-106273427D01*
X193034894Y-106226084D01*
X193034763Y-106224088D01*
X193036426Y-106222977D01*
X193037668Y-106223310D01*
X193046646Y-106229309D01*
X193065199Y-106233000D01*
X194234801Y-106233000D01*
X194253355Y-106229309D01*
X194265069Y-106221482D01*
X194267065Y-106221351D01*
X194268176Y-106223014D01*
G37*
G36*
X194268176Y-105623014D02*
G01*
X194267843Y-105624256D01*
X194262298Y-105632554D01*
X194262206Y-105632681D01*
X194235847Y-105666118D01*
X194233473Y-105726573D01*
X194265106Y-105773916D01*
X194265237Y-105775912D01*
X194263574Y-105777023D01*
X194262332Y-105776690D01*
X194253354Y-105770691D01*
X194234801Y-105767000D01*
X193065199Y-105767000D01*
X193046645Y-105770691D01*
X193034931Y-105778518D01*
X193032935Y-105778649D01*
X193031824Y-105776986D01*
X193032157Y-105775744D01*
X193037702Y-105767446D01*
X193037794Y-105767319D01*
X193064153Y-105733882D01*
X193066527Y-105673427D01*
X193034894Y-105626084D01*
X193034763Y-105624088D01*
X193036426Y-105622977D01*
X193037668Y-105623310D01*
X193046646Y-105629309D01*
X193065199Y-105633000D01*
X194234801Y-105633000D01*
X194253355Y-105629309D01*
X194265069Y-105621482D01*
X194267065Y-105621351D01*
X194268176Y-105623014D01*
G37*
G36*
X205568176Y-105623014D02*
G01*
X205567843Y-105624256D01*
X205562298Y-105632554D01*
X205562206Y-105632681D01*
X205535847Y-105666118D01*
X205533473Y-105726573D01*
X205565106Y-105773916D01*
X205565237Y-105775912D01*
X205563574Y-105777023D01*
X205562332Y-105776690D01*
X205553354Y-105770691D01*
X205534801Y-105767000D01*
X204365199Y-105767000D01*
X204346645Y-105770691D01*
X204334931Y-105778518D01*
X204332935Y-105778649D01*
X204331824Y-105776986D01*
X204332157Y-105775744D01*
X204337702Y-105767446D01*
X204337794Y-105767319D01*
X204364153Y-105733882D01*
X204366527Y-105673427D01*
X204334894Y-105626084D01*
X204334763Y-105624088D01*
X204336426Y-105622977D01*
X204337668Y-105623310D01*
X204346646Y-105629309D01*
X204365199Y-105633000D01*
X205534801Y-105633000D01*
X205553355Y-105629309D01*
X205565069Y-105621482D01*
X205567065Y-105621351D01*
X205568176Y-105623014D01*
G37*
G36*
X194268176Y-105023014D02*
G01*
X194267843Y-105024256D01*
X194262298Y-105032554D01*
X194262206Y-105032681D01*
X194235847Y-105066118D01*
X194233473Y-105126573D01*
X194265106Y-105173916D01*
X194265237Y-105175912D01*
X194263574Y-105177023D01*
X194262332Y-105176690D01*
X194253354Y-105170691D01*
X194234801Y-105167000D01*
X193065199Y-105167000D01*
X193046645Y-105170691D01*
X193034931Y-105178518D01*
X193032935Y-105178649D01*
X193031824Y-105176986D01*
X193032157Y-105175744D01*
X193037702Y-105167446D01*
X193037794Y-105167319D01*
X193064153Y-105133882D01*
X193066527Y-105073427D01*
X193034894Y-105026084D01*
X193034763Y-105024088D01*
X193036426Y-105022977D01*
X193037668Y-105023310D01*
X193046646Y-105029309D01*
X193065199Y-105033000D01*
X194234801Y-105033000D01*
X194253355Y-105029309D01*
X194265069Y-105021482D01*
X194267065Y-105021351D01*
X194268176Y-105023014D01*
G37*
G36*
X205568176Y-105023014D02*
G01*
X205567843Y-105024256D01*
X205562298Y-105032554D01*
X205562206Y-105032681D01*
X205535847Y-105066118D01*
X205533473Y-105126573D01*
X205565106Y-105173916D01*
X205565237Y-105175912D01*
X205563574Y-105177023D01*
X205562332Y-105176690D01*
X205553354Y-105170691D01*
X205534801Y-105167000D01*
X204365199Y-105167000D01*
X204346645Y-105170691D01*
X204334931Y-105178518D01*
X204332935Y-105178649D01*
X204331824Y-105176986D01*
X204332157Y-105175744D01*
X204337702Y-105167446D01*
X204337794Y-105167319D01*
X204364153Y-105133882D01*
X204366527Y-105073427D01*
X204334894Y-105026084D01*
X204334763Y-105024088D01*
X204336426Y-105022977D01*
X204337668Y-105023310D01*
X204346646Y-105029309D01*
X204365199Y-105033000D01*
X205534801Y-105033000D01*
X205553355Y-105029309D01*
X205565069Y-105021482D01*
X205567065Y-105021351D01*
X205568176Y-105023014D01*
G37*
G36*
X194268176Y-104423014D02*
G01*
X194267843Y-104424256D01*
X194262298Y-104432554D01*
X194262206Y-104432681D01*
X194235847Y-104466118D01*
X194233473Y-104526573D01*
X194265106Y-104573916D01*
X194265237Y-104575912D01*
X194263574Y-104577023D01*
X194262332Y-104576690D01*
X194253354Y-104570691D01*
X194234801Y-104567000D01*
X193065199Y-104567000D01*
X193046645Y-104570691D01*
X193034931Y-104578518D01*
X193032935Y-104578649D01*
X193031824Y-104576986D01*
X193032157Y-104575744D01*
X193037702Y-104567446D01*
X193037794Y-104567319D01*
X193064153Y-104533882D01*
X193066527Y-104473427D01*
X193034894Y-104426084D01*
X193034763Y-104424088D01*
X193036426Y-104422977D01*
X193037668Y-104423310D01*
X193046646Y-104429309D01*
X193065199Y-104433000D01*
X194234801Y-104433000D01*
X194253355Y-104429309D01*
X194265069Y-104421482D01*
X194267065Y-104421351D01*
X194268176Y-104423014D01*
G37*
G36*
X205568176Y-104423014D02*
G01*
X205567843Y-104424256D01*
X205562298Y-104432554D01*
X205562206Y-104432681D01*
X205535847Y-104466118D01*
X205533473Y-104526573D01*
X205565106Y-104573916D01*
X205565237Y-104575912D01*
X205563574Y-104577023D01*
X205562332Y-104576690D01*
X205553354Y-104570691D01*
X205534801Y-104567000D01*
X204365199Y-104567000D01*
X204346645Y-104570691D01*
X204334931Y-104578518D01*
X204332935Y-104578649D01*
X204331824Y-104576986D01*
X204332157Y-104575744D01*
X204337702Y-104567446D01*
X204337794Y-104567319D01*
X204364153Y-104533882D01*
X204366527Y-104473427D01*
X204334894Y-104426084D01*
X204334763Y-104424088D01*
X204336426Y-104422977D01*
X204337668Y-104423310D01*
X204346646Y-104429309D01*
X204365199Y-104433000D01*
X205534801Y-104433000D01*
X205553355Y-104429309D01*
X205565069Y-104421482D01*
X205567065Y-104421351D01*
X205568176Y-104423014D01*
G37*
G36*
X205568176Y-103823014D02*
G01*
X205567843Y-103824256D01*
X205562298Y-103832554D01*
X205562206Y-103832681D01*
X205535847Y-103866118D01*
X205533473Y-103926573D01*
X205565106Y-103973916D01*
X205565237Y-103975912D01*
X205563574Y-103977023D01*
X205562332Y-103976690D01*
X205553354Y-103970691D01*
X205534801Y-103967000D01*
X204365199Y-103967000D01*
X204346645Y-103970691D01*
X204334931Y-103978518D01*
X204332935Y-103978649D01*
X204331824Y-103976986D01*
X204332157Y-103975744D01*
X204337702Y-103967446D01*
X204337794Y-103967319D01*
X204364153Y-103933882D01*
X204366527Y-103873427D01*
X204334894Y-103826084D01*
X204334763Y-103824088D01*
X204336426Y-103822977D01*
X204337668Y-103823310D01*
X204346646Y-103829309D01*
X204365199Y-103833000D01*
X205534801Y-103833000D01*
X205553355Y-103829309D01*
X205565069Y-103821482D01*
X205567065Y-103821351D01*
X205568176Y-103823014D01*
G37*
G36*
X194268176Y-103823014D02*
G01*
X194267843Y-103824256D01*
X194262298Y-103832554D01*
X194262206Y-103832681D01*
X194235847Y-103866118D01*
X194233473Y-103926573D01*
X194265106Y-103973916D01*
X194265237Y-103975912D01*
X194263574Y-103977023D01*
X194262332Y-103976690D01*
X194253354Y-103970691D01*
X194234801Y-103967000D01*
X193065199Y-103967000D01*
X193046645Y-103970691D01*
X193034931Y-103978518D01*
X193032935Y-103978649D01*
X193031824Y-103976986D01*
X193032157Y-103975744D01*
X193037702Y-103967446D01*
X193037794Y-103967319D01*
X193064153Y-103933882D01*
X193066527Y-103873427D01*
X193034894Y-103826084D01*
X193034763Y-103824088D01*
X193036426Y-103822977D01*
X193037668Y-103823310D01*
X193046646Y-103829309D01*
X193065199Y-103833000D01*
X194234801Y-103833000D01*
X194253355Y-103829309D01*
X194265069Y-103821482D01*
X194267065Y-103821351D01*
X194268176Y-103823014D01*
G37*
G36*
X194268176Y-103223014D02*
G01*
X194267843Y-103224256D01*
X194262298Y-103232554D01*
X194262206Y-103232681D01*
X194235847Y-103266118D01*
X194233473Y-103326573D01*
X194265106Y-103373916D01*
X194265237Y-103375912D01*
X194263574Y-103377023D01*
X194262332Y-103376690D01*
X194253354Y-103370691D01*
X194234801Y-103367000D01*
X193065199Y-103367000D01*
X193046645Y-103370691D01*
X193034931Y-103378518D01*
X193032935Y-103378649D01*
X193031824Y-103376986D01*
X193032157Y-103375744D01*
X193037702Y-103367446D01*
X193037794Y-103367319D01*
X193064153Y-103333882D01*
X193066527Y-103273427D01*
X193034894Y-103226084D01*
X193034763Y-103224088D01*
X193036426Y-103222977D01*
X193037668Y-103223310D01*
X193046646Y-103229309D01*
X193065199Y-103233000D01*
X194234801Y-103233000D01*
X194253355Y-103229309D01*
X194265069Y-103221482D01*
X194267065Y-103221351D01*
X194268176Y-103223014D01*
G37*
G36*
X205568176Y-103223014D02*
G01*
X205567843Y-103224256D01*
X205562298Y-103232554D01*
X205562206Y-103232681D01*
X205535847Y-103266118D01*
X205533473Y-103326573D01*
X205565106Y-103373916D01*
X205565237Y-103375912D01*
X205563574Y-103377023D01*
X205562332Y-103376690D01*
X205553354Y-103370691D01*
X205534801Y-103367000D01*
X204365199Y-103367000D01*
X204346645Y-103370691D01*
X204334931Y-103378518D01*
X204332935Y-103378649D01*
X204331824Y-103376986D01*
X204332157Y-103375744D01*
X204337702Y-103367446D01*
X204337794Y-103367319D01*
X204364153Y-103333882D01*
X204366527Y-103273427D01*
X204334894Y-103226084D01*
X204334763Y-103224088D01*
X204336426Y-103222977D01*
X204337668Y-103223310D01*
X204346646Y-103229309D01*
X204365199Y-103233000D01*
X205534801Y-103233000D01*
X205553355Y-103229309D01*
X205565069Y-103221482D01*
X205567065Y-103221351D01*
X205568176Y-103223014D01*
G37*
G36*
X196224256Y-101232157D02*
G01*
X196232554Y-101237702D01*
X196232681Y-101237794D01*
X196266118Y-101264153D01*
X196326573Y-101266527D01*
X196373916Y-101234894D01*
X196375912Y-101234763D01*
X196377023Y-101236426D01*
X196376690Y-101237668D01*
X196370691Y-101246646D01*
X196367000Y-101265199D01*
X196367000Y-102434801D01*
X196370691Y-102453355D01*
X196378518Y-102465069D01*
X196378649Y-102467065D01*
X196376986Y-102468176D01*
X196375744Y-102467843D01*
X196367446Y-102462298D01*
X196367319Y-102462206D01*
X196333882Y-102435847D01*
X196273427Y-102433473D01*
X196226084Y-102465106D01*
X196224088Y-102465237D01*
X196222977Y-102463574D01*
X196223310Y-102462332D01*
X196229309Y-102453354D01*
X196233000Y-102434801D01*
X196233000Y-101265199D01*
X196229309Y-101246645D01*
X196221482Y-101234931D01*
X196221351Y-101232935D01*
X196223014Y-101231824D01*
X196224256Y-101232157D01*
G37*
G36*
X199224256Y-101232157D02*
G01*
X199232554Y-101237702D01*
X199232681Y-101237794D01*
X199266118Y-101264153D01*
X199326573Y-101266527D01*
X199373916Y-101234894D01*
X199375912Y-101234763D01*
X199377023Y-101236426D01*
X199376690Y-101237668D01*
X199370691Y-101246646D01*
X199367000Y-101265199D01*
X199367000Y-102434801D01*
X199370691Y-102453355D01*
X199378518Y-102465069D01*
X199378649Y-102467065D01*
X199376986Y-102468176D01*
X199375744Y-102467843D01*
X199367446Y-102462298D01*
X199367319Y-102462206D01*
X199333882Y-102435847D01*
X199273427Y-102433473D01*
X199226084Y-102465106D01*
X199224088Y-102465237D01*
X199222977Y-102463574D01*
X199223310Y-102462332D01*
X199229309Y-102453354D01*
X199233000Y-102434801D01*
X199233000Y-101265199D01*
X199229309Y-101246645D01*
X199221482Y-101234931D01*
X199221351Y-101232935D01*
X199223014Y-101231824D01*
X199224256Y-101232157D01*
G37*
G36*
X203424256Y-101232157D02*
G01*
X203432554Y-101237702D01*
X203432681Y-101237794D01*
X203466118Y-101264153D01*
X203526573Y-101266527D01*
X203573916Y-101234894D01*
X203575912Y-101234763D01*
X203577023Y-101236426D01*
X203576690Y-101237668D01*
X203570691Y-101246646D01*
X203567000Y-101265199D01*
X203567000Y-102434801D01*
X203570691Y-102453355D01*
X203578518Y-102465069D01*
X203578649Y-102467065D01*
X203576986Y-102468176D01*
X203575744Y-102467843D01*
X203567446Y-102462298D01*
X203567319Y-102462206D01*
X203533882Y-102435847D01*
X203473427Y-102433473D01*
X203426084Y-102465106D01*
X203424088Y-102465237D01*
X203422977Y-102463574D01*
X203423310Y-102462332D01*
X203429309Y-102453354D01*
X203433000Y-102434801D01*
X203433000Y-101265199D01*
X203429309Y-101246645D01*
X203421482Y-101234931D01*
X203421351Y-101232935D01*
X203423014Y-101231824D01*
X203424256Y-101232157D01*
G37*
G36*
X202824256Y-101232157D02*
G01*
X202832554Y-101237702D01*
X202832681Y-101237794D01*
X202866118Y-101264153D01*
X202926573Y-101266527D01*
X202973916Y-101234894D01*
X202975912Y-101234763D01*
X202977023Y-101236426D01*
X202976690Y-101237668D01*
X202970691Y-101246646D01*
X202967000Y-101265199D01*
X202967000Y-102434801D01*
X202970691Y-102453355D01*
X202978518Y-102465069D01*
X202978649Y-102467065D01*
X202976986Y-102468176D01*
X202975744Y-102467843D01*
X202967446Y-102462298D01*
X202967319Y-102462206D01*
X202933882Y-102435847D01*
X202873427Y-102433473D01*
X202826084Y-102465106D01*
X202824088Y-102465237D01*
X202822977Y-102463574D01*
X202823310Y-102462332D01*
X202829309Y-102453354D01*
X202833000Y-102434801D01*
X202833000Y-101265199D01*
X202829309Y-101246645D01*
X202821482Y-101234931D01*
X202821351Y-101232935D01*
X202823014Y-101231824D01*
X202824256Y-101232157D01*
G37*
G36*
X196824256Y-101232157D02*
G01*
X196832554Y-101237702D01*
X196832681Y-101237794D01*
X196866118Y-101264153D01*
X196926573Y-101266527D01*
X196973916Y-101234894D01*
X196975912Y-101234763D01*
X196977023Y-101236426D01*
X196976690Y-101237668D01*
X196970691Y-101246646D01*
X196967000Y-101265199D01*
X196967000Y-102434801D01*
X196970691Y-102453355D01*
X196978518Y-102465069D01*
X196978649Y-102467065D01*
X196976986Y-102468176D01*
X196975744Y-102467843D01*
X196967446Y-102462298D01*
X196967319Y-102462206D01*
X196933882Y-102435847D01*
X196873427Y-102433473D01*
X196826084Y-102465106D01*
X196824088Y-102465237D01*
X196822977Y-102463574D01*
X196823310Y-102462332D01*
X196829309Y-102453354D01*
X196833000Y-102434801D01*
X196833000Y-101265199D01*
X196829309Y-101246645D01*
X196821482Y-101234931D01*
X196821351Y-101232935D01*
X196823014Y-101231824D01*
X196824256Y-101232157D01*
G37*
G36*
X198024256Y-101232157D02*
G01*
X198032554Y-101237702D01*
X198032681Y-101237794D01*
X198066118Y-101264153D01*
X198126573Y-101266527D01*
X198173916Y-101234894D01*
X198175912Y-101234763D01*
X198177023Y-101236426D01*
X198176690Y-101237668D01*
X198170691Y-101246646D01*
X198167000Y-101265199D01*
X198167000Y-102434801D01*
X198170691Y-102453355D01*
X198178518Y-102465069D01*
X198178649Y-102467065D01*
X198176986Y-102468176D01*
X198175744Y-102467843D01*
X198167446Y-102462298D01*
X198167319Y-102462206D01*
X198133882Y-102435847D01*
X198073427Y-102433473D01*
X198026084Y-102465106D01*
X198024088Y-102465237D01*
X198022977Y-102463574D01*
X198023310Y-102462332D01*
X198029309Y-102453354D01*
X198033000Y-102434801D01*
X198033000Y-101265199D01*
X198029309Y-101246645D01*
X198021482Y-101234931D01*
X198021351Y-101232935D01*
X198023014Y-101231824D01*
X198024256Y-101232157D01*
G37*
G36*
X201024256Y-101232157D02*
G01*
X201032554Y-101237702D01*
X201032681Y-101237794D01*
X201066118Y-101264153D01*
X201126573Y-101266527D01*
X201173916Y-101234894D01*
X201175912Y-101234763D01*
X201177023Y-101236426D01*
X201176690Y-101237668D01*
X201170691Y-101246646D01*
X201167000Y-101265199D01*
X201167000Y-102434801D01*
X201170691Y-102453355D01*
X201178518Y-102465069D01*
X201178649Y-102467065D01*
X201176986Y-102468176D01*
X201175744Y-102467843D01*
X201167446Y-102462298D01*
X201167319Y-102462206D01*
X201133882Y-102435847D01*
X201073427Y-102433473D01*
X201026084Y-102465106D01*
X201024088Y-102465237D01*
X201022977Y-102463574D01*
X201023310Y-102462332D01*
X201029309Y-102453354D01*
X201033000Y-102434801D01*
X201033000Y-101265199D01*
X201029309Y-101246645D01*
X201021482Y-101234931D01*
X201021351Y-101232935D01*
X201023014Y-101231824D01*
X201024256Y-101232157D01*
G37*
G36*
X201624256Y-101232157D02*
G01*
X201632554Y-101237702D01*
X201632681Y-101237794D01*
X201666118Y-101264153D01*
X201726573Y-101266527D01*
X201773916Y-101234894D01*
X201775912Y-101234763D01*
X201777023Y-101236426D01*
X201776690Y-101237668D01*
X201770691Y-101246646D01*
X201767000Y-101265199D01*
X201767000Y-102434801D01*
X201770691Y-102453355D01*
X201778518Y-102465069D01*
X201778649Y-102467065D01*
X201776986Y-102468176D01*
X201775744Y-102467843D01*
X201767446Y-102462298D01*
X201767319Y-102462206D01*
X201733882Y-102435847D01*
X201673427Y-102433473D01*
X201626084Y-102465106D01*
X201624088Y-102465237D01*
X201622977Y-102463574D01*
X201623310Y-102462332D01*
X201629309Y-102453354D01*
X201633000Y-102434801D01*
X201633000Y-101265199D01*
X201629309Y-101246645D01*
X201621482Y-101234931D01*
X201621351Y-101232935D01*
X201623014Y-101231824D01*
X201624256Y-101232157D01*
G37*
G36*
X195024256Y-101232157D02*
G01*
X195032554Y-101237702D01*
X195032681Y-101237794D01*
X195066118Y-101264153D01*
X195126573Y-101266527D01*
X195173916Y-101234894D01*
X195175912Y-101234763D01*
X195177023Y-101236426D01*
X195176690Y-101237668D01*
X195170691Y-101246646D01*
X195167000Y-101265199D01*
X195167000Y-102434801D01*
X195170691Y-102453355D01*
X195178518Y-102465069D01*
X195178649Y-102467065D01*
X195176986Y-102468176D01*
X195175744Y-102467843D01*
X195167446Y-102462298D01*
X195167319Y-102462206D01*
X195133882Y-102435847D01*
X195073427Y-102433473D01*
X195026084Y-102465106D01*
X195024088Y-102465237D01*
X195022977Y-102463574D01*
X195023310Y-102462332D01*
X195029309Y-102453354D01*
X195033000Y-102434801D01*
X195033000Y-101265199D01*
X195029309Y-101246645D01*
X195021482Y-101234931D01*
X195021351Y-101232935D01*
X195023014Y-101231824D01*
X195024256Y-101232157D01*
G37*
G36*
X199824256Y-101232157D02*
G01*
X199832554Y-101237702D01*
X199832681Y-101237794D01*
X199866118Y-101264153D01*
X199926573Y-101266527D01*
X199973916Y-101234894D01*
X199975912Y-101234763D01*
X199977023Y-101236426D01*
X199976690Y-101237668D01*
X199970691Y-101246646D01*
X199967000Y-101265199D01*
X199967000Y-102434801D01*
X199970691Y-102453355D01*
X199978518Y-102465069D01*
X199978649Y-102467065D01*
X199976986Y-102468176D01*
X199975744Y-102467843D01*
X199967446Y-102462298D01*
X199967319Y-102462206D01*
X199933882Y-102435847D01*
X199873427Y-102433473D01*
X199826084Y-102465106D01*
X199824088Y-102465237D01*
X199822977Y-102463574D01*
X199823310Y-102462332D01*
X199829309Y-102453354D01*
X199833000Y-102434801D01*
X199833000Y-101265199D01*
X199829309Y-101246645D01*
X199821482Y-101234931D01*
X199821351Y-101232935D01*
X199823014Y-101231824D01*
X199824256Y-101232157D01*
G37*
G36*
X198624256Y-101232157D02*
G01*
X198632554Y-101237702D01*
X198632681Y-101237794D01*
X198666118Y-101264153D01*
X198726573Y-101266527D01*
X198773916Y-101234894D01*
X198775912Y-101234763D01*
X198777023Y-101236426D01*
X198776690Y-101237668D01*
X198770691Y-101246646D01*
X198767000Y-101265199D01*
X198767000Y-102434801D01*
X198770691Y-102453355D01*
X198778518Y-102465069D01*
X198778649Y-102467065D01*
X198776986Y-102468176D01*
X198775744Y-102467843D01*
X198767446Y-102462298D01*
X198767319Y-102462206D01*
X198733882Y-102435847D01*
X198673427Y-102433473D01*
X198626084Y-102465106D01*
X198624088Y-102465237D01*
X198622977Y-102463574D01*
X198623310Y-102462332D01*
X198629309Y-102453354D01*
X198633000Y-102434801D01*
X198633000Y-101265199D01*
X198629309Y-101246645D01*
X198621482Y-101234931D01*
X198621351Y-101232935D01*
X198623014Y-101231824D01*
X198624256Y-101232157D01*
G37*
G36*
X200424256Y-101232157D02*
G01*
X200432554Y-101237702D01*
X200432681Y-101237794D01*
X200466118Y-101264153D01*
X200526573Y-101266527D01*
X200573916Y-101234894D01*
X200575912Y-101234763D01*
X200577023Y-101236426D01*
X200576690Y-101237668D01*
X200570691Y-101246646D01*
X200567000Y-101265199D01*
X200567000Y-102434801D01*
X200570691Y-102453355D01*
X200578518Y-102465069D01*
X200578649Y-102467065D01*
X200576986Y-102468176D01*
X200575744Y-102467843D01*
X200567446Y-102462298D01*
X200567319Y-102462206D01*
X200533882Y-102435847D01*
X200473427Y-102433473D01*
X200426084Y-102465106D01*
X200424088Y-102465237D01*
X200422977Y-102463574D01*
X200423310Y-102462332D01*
X200429309Y-102453354D01*
X200433000Y-102434801D01*
X200433000Y-101265199D01*
X200429309Y-101246645D01*
X200421482Y-101234931D01*
X200421351Y-101232935D01*
X200423014Y-101231824D01*
X200424256Y-101232157D01*
G37*
G36*
X197424256Y-101232157D02*
G01*
X197432554Y-101237702D01*
X197432681Y-101237794D01*
X197466118Y-101264153D01*
X197526573Y-101266527D01*
X197573916Y-101234894D01*
X197575912Y-101234763D01*
X197577023Y-101236426D01*
X197576690Y-101237668D01*
X197570691Y-101246646D01*
X197567000Y-101265199D01*
X197567000Y-102434801D01*
X197570691Y-102453355D01*
X197578518Y-102465069D01*
X197578649Y-102467065D01*
X197576986Y-102468176D01*
X197575744Y-102467843D01*
X197567446Y-102462298D01*
X197567319Y-102462206D01*
X197533882Y-102435847D01*
X197473427Y-102433473D01*
X197426084Y-102465106D01*
X197424088Y-102465237D01*
X197422977Y-102463574D01*
X197423310Y-102462332D01*
X197429309Y-102453354D01*
X197433000Y-102434801D01*
X197433000Y-101265199D01*
X197429309Y-101246645D01*
X197421482Y-101234931D01*
X197421351Y-101232935D01*
X197423014Y-101231824D01*
X197424256Y-101232157D01*
G37*
G36*
X202224256Y-101232157D02*
G01*
X202232554Y-101237702D01*
X202232681Y-101237794D01*
X202266118Y-101264153D01*
X202326573Y-101266527D01*
X202373916Y-101234894D01*
X202375912Y-101234763D01*
X202377023Y-101236426D01*
X202376690Y-101237668D01*
X202370691Y-101246646D01*
X202367000Y-101265199D01*
X202367000Y-102434801D01*
X202370691Y-102453355D01*
X202378518Y-102465069D01*
X202378649Y-102467065D01*
X202376986Y-102468176D01*
X202375744Y-102467843D01*
X202367446Y-102462298D01*
X202367319Y-102462206D01*
X202333882Y-102435847D01*
X202273427Y-102433473D01*
X202226084Y-102465106D01*
X202224088Y-102465237D01*
X202222977Y-102463574D01*
X202223310Y-102462332D01*
X202229309Y-102453354D01*
X202233000Y-102434801D01*
X202233000Y-101265199D01*
X202229309Y-101246645D01*
X202221482Y-101234931D01*
X202221351Y-101232935D01*
X202223014Y-101231824D01*
X202224256Y-101232157D01*
G37*
G36*
X195624256Y-101232157D02*
G01*
X195632554Y-101237702D01*
X195632681Y-101237794D01*
X195666118Y-101264153D01*
X195726573Y-101266527D01*
X195773916Y-101234894D01*
X195775912Y-101234763D01*
X195777023Y-101236426D01*
X195776690Y-101237668D01*
X195770691Y-101246646D01*
X195767000Y-101265199D01*
X195767000Y-102434801D01*
X195770691Y-102453355D01*
X195778518Y-102465069D01*
X195778649Y-102467065D01*
X195776986Y-102468176D01*
X195775744Y-102467843D01*
X195767446Y-102462298D01*
X195767319Y-102462206D01*
X195733882Y-102435847D01*
X195673427Y-102433473D01*
X195626084Y-102465106D01*
X195624088Y-102465237D01*
X195622977Y-102463574D01*
X195623310Y-102462332D01*
X195629309Y-102453354D01*
X195633000Y-102434801D01*
X195633000Y-101265199D01*
X195629309Y-101246645D01*
X195621482Y-101234931D01*
X195621351Y-101232935D01*
X195623014Y-101231824D01*
X195624256Y-101232157D01*
G37*
G36*
X206853883Y-94856010D02*
G01*
X206898207Y-94841609D01*
X206900163Y-94842025D01*
X206900781Y-94843927D01*
X206899936Y-94845174D01*
X206891087Y-94851087D01*
X206880691Y-94866645D01*
X206877000Y-94885199D01*
X206877000Y-95464801D01*
X206880691Y-95483355D01*
X206891087Y-95498913D01*
X206900684Y-95505326D01*
X206901569Y-95507120D01*
X206900458Y-95508783D01*
X206899030Y-95508914D01*
X206846117Y-95493990D01*
X206801793Y-95508391D01*
X206799837Y-95507975D01*
X206799219Y-95506073D01*
X206800064Y-95504826D01*
X206808913Y-95498913D01*
X206819309Y-95483355D01*
X206823000Y-95464801D01*
X206823000Y-94885199D01*
X206819309Y-94866645D01*
X206808913Y-94851087D01*
X206799316Y-94844674D01*
X206798431Y-94842880D01*
X206799542Y-94841217D01*
X206800970Y-94841086D01*
X206853883Y-94856010D01*
G37*
G36*
X207353883Y-94856010D02*
G01*
X207398207Y-94841609D01*
X207400163Y-94842025D01*
X207400781Y-94843927D01*
X207399936Y-94845174D01*
X207391087Y-94851087D01*
X207380691Y-94866645D01*
X207377000Y-94885199D01*
X207377000Y-95464801D01*
X207380691Y-95483355D01*
X207391087Y-95498913D01*
X207400684Y-95505326D01*
X207401569Y-95507120D01*
X207400458Y-95508783D01*
X207399030Y-95508914D01*
X207346117Y-95493990D01*
X207301793Y-95508391D01*
X207299837Y-95507975D01*
X207299219Y-95506073D01*
X207300064Y-95504826D01*
X207308913Y-95498913D01*
X207319309Y-95483355D01*
X207323000Y-95464801D01*
X207323000Y-94885199D01*
X207319309Y-94866645D01*
X207308913Y-94851087D01*
X207299316Y-94844674D01*
X207298431Y-94842880D01*
X207299542Y-94841217D01*
X207300970Y-94841086D01*
X207353883Y-94856010D01*
G37*
G36*
X207939621Y-94809906D02*
G01*
X207939789Y-94811180D01*
X207937000Y-94825199D01*
X207937000Y-95174801D01*
X207940691Y-95193355D01*
X207951087Y-95208913D01*
X207962801Y-95216741D01*
X207963686Y-95218535D01*
X207962574Y-95220198D01*
X207961300Y-95220366D01*
X207948679Y-95217855D01*
X207948361Y-95219454D01*
X207947042Y-95220958D01*
X207945856Y-95220989D01*
X207921165Y-95214023D01*
X207864401Y-95234957D01*
X207830675Y-95285419D01*
X207826981Y-95312118D01*
X207825753Y-95313697D01*
X207823772Y-95313423D01*
X207823000Y-95311844D01*
X207823000Y-94885199D01*
X207819309Y-94866645D01*
X207808913Y-94851087D01*
X207801192Y-94845927D01*
X207800307Y-94844133D01*
X207801419Y-94842470D01*
X207802846Y-94842339D01*
X207855720Y-94857252D01*
X207912641Y-94836253D01*
X207933447Y-94813745D01*
X207936164Y-94809679D01*
X207937958Y-94808794D01*
X207939621Y-94809906D01*
G37*
G36*
X206263836Y-94809679D02*
G01*
X206266466Y-94813615D01*
X206314244Y-94851278D01*
X206374870Y-94853658D01*
X206391691Y-94845903D01*
X206393682Y-94846086D01*
X206394520Y-94847902D01*
X206393639Y-94849382D01*
X206391087Y-94851087D01*
X206380691Y-94866645D01*
X206377000Y-94885199D01*
X206377000Y-95311841D01*
X206376000Y-95313573D01*
X206374000Y-95313573D01*
X206373098Y-95312459D01*
X206354202Y-95254303D01*
X206305253Y-95218739D01*
X206253141Y-95218739D01*
X206251537Y-95217813D01*
X206247071Y-95218701D01*
X206246681Y-95218739D01*
X206244560Y-95218739D01*
X206243181Y-95219408D01*
X206242698Y-95219571D01*
X206238699Y-95220366D01*
X206236805Y-95219723D01*
X206236415Y-95217761D01*
X206237198Y-95216741D01*
X206248913Y-95208913D01*
X206259309Y-95193355D01*
X206263000Y-95174801D01*
X206263000Y-94825199D01*
X206260211Y-94811180D01*
X206260854Y-94809286D01*
X206262816Y-94808896D01*
X206263836Y-94809679D01*
G37*
G36*
X208608783Y-94699542D02*
G01*
X208608914Y-94700970D01*
X208593990Y-94753883D01*
X208608391Y-94798207D01*
X208607975Y-94800163D01*
X208606073Y-94800781D01*
X208604826Y-94799936D01*
X208598913Y-94791087D01*
X208583355Y-94780691D01*
X208564801Y-94777000D01*
X207985199Y-94777000D01*
X207966645Y-94780691D01*
X207951087Y-94791087D01*
X207944673Y-94800685D01*
X207942879Y-94801570D01*
X207941216Y-94800458D01*
X207941085Y-94799031D01*
X207956010Y-94746118D01*
X207941608Y-94701792D01*
X207942024Y-94699836D01*
X207943926Y-94699218D01*
X207945173Y-94700063D01*
X207951087Y-94708913D01*
X207966645Y-94719309D01*
X207985199Y-94723000D01*
X208564801Y-94723000D01*
X208583355Y-94719309D01*
X208598913Y-94708913D01*
X208605326Y-94699316D01*
X208607120Y-94698431D01*
X208608783Y-94699542D01*
G37*
G36*
X206258783Y-94699542D02*
G01*
X206258914Y-94700970D01*
X206243990Y-94753883D01*
X206258393Y-94798209D01*
X206257977Y-94800165D01*
X206256075Y-94800783D01*
X206254828Y-94799938D01*
X206248913Y-94791087D01*
X206233355Y-94780691D01*
X206214801Y-94777000D01*
X205635199Y-94777000D01*
X205616645Y-94780691D01*
X205601087Y-94791087D01*
X205594674Y-94800684D01*
X205592880Y-94801569D01*
X205591217Y-94800458D01*
X205591086Y-94799030D01*
X205606010Y-94746117D01*
X205591609Y-94701793D01*
X205592025Y-94699837D01*
X205593927Y-94699219D01*
X205595174Y-94700064D01*
X205601087Y-94708913D01*
X205616645Y-94719309D01*
X205635199Y-94723000D01*
X206214801Y-94723000D01*
X206233355Y-94719309D01*
X206248913Y-94708913D01*
X206255326Y-94699316D01*
X206257120Y-94698431D01*
X206258783Y-94699542D01*
G37*
G36*
X206258783Y-94199542D02*
G01*
X206258914Y-94200970D01*
X206243990Y-94253883D01*
X206258391Y-94298207D01*
X206257975Y-94300163D01*
X206256073Y-94300781D01*
X206254826Y-94299936D01*
X206248913Y-94291087D01*
X206233355Y-94280691D01*
X206214801Y-94277000D01*
X205635199Y-94277000D01*
X205616645Y-94280691D01*
X205601087Y-94291087D01*
X205594674Y-94300684D01*
X205592880Y-94301569D01*
X205591217Y-94300458D01*
X205591086Y-94299030D01*
X205606010Y-94246117D01*
X205591609Y-94201793D01*
X205592025Y-94199837D01*
X205593927Y-94199219D01*
X205595174Y-94200064D01*
X205601087Y-94208913D01*
X205616645Y-94219309D01*
X205635199Y-94223000D01*
X206214801Y-94223000D01*
X206233355Y-94219309D01*
X206248913Y-94208913D01*
X206255326Y-94199316D01*
X206257120Y-94198431D01*
X206258783Y-94199542D01*
G37*
G36*
X208608783Y-94199542D02*
G01*
X208608914Y-94200970D01*
X208593990Y-94253883D01*
X208608391Y-94298207D01*
X208607975Y-94300163D01*
X208606073Y-94300781D01*
X208604826Y-94299936D01*
X208598913Y-94291087D01*
X208583355Y-94280691D01*
X208564801Y-94277000D01*
X207985199Y-94277000D01*
X207966645Y-94280691D01*
X207951087Y-94291087D01*
X207944674Y-94300684D01*
X207942880Y-94301569D01*
X207941217Y-94300458D01*
X207941086Y-94299030D01*
X207956010Y-94246117D01*
X207941609Y-94201793D01*
X207942025Y-94199837D01*
X207943927Y-94199219D01*
X207945174Y-94200064D01*
X207951087Y-94208913D01*
X207966645Y-94219309D01*
X207985199Y-94223000D01*
X208564801Y-94223000D01*
X208583355Y-94219309D01*
X208598913Y-94208913D01*
X208605326Y-94199316D01*
X208607120Y-94198431D01*
X208608783Y-94199542D01*
G37*
G36*
X212122975Y-94065817D02*
G01*
X212166118Y-94099827D01*
X212226573Y-94102201D01*
X212273914Y-94070569D01*
X212275910Y-94070438D01*
X212277021Y-94072101D01*
X212276688Y-94073343D01*
X212263303Y-94093376D01*
X212252040Y-94150000D01*
X212263303Y-94206624D01*
X212279926Y-94231501D01*
X212280057Y-94233497D01*
X212278394Y-94234608D01*
X212277025Y-94234183D01*
X212233882Y-94200173D01*
X212173427Y-94197799D01*
X212126086Y-94229431D01*
X212124090Y-94229562D01*
X212122979Y-94227899D01*
X212123312Y-94226657D01*
X212136697Y-94206624D01*
X212147960Y-94150000D01*
X212136697Y-94093376D01*
X212120074Y-94068499D01*
X212119943Y-94066503D01*
X212121606Y-94065392D01*
X212122975Y-94065817D01*
G37*
G36*
X212084608Y-93871606D02*
G01*
X212084183Y-93872975D01*
X212050173Y-93916118D01*
X212047799Y-93976573D01*
X212079431Y-94023914D01*
X212079562Y-94025910D01*
X212077899Y-94027021D01*
X212076657Y-94026688D01*
X212056624Y-94013303D01*
X212000000Y-94002040D01*
X211943376Y-94013303D01*
X211918499Y-94029926D01*
X211916503Y-94030057D01*
X211915392Y-94028394D01*
X211915817Y-94027025D01*
X211949827Y-93983882D01*
X211952201Y-93923427D01*
X211920569Y-93876086D01*
X211920438Y-93874090D01*
X211922101Y-93872979D01*
X211923343Y-93873312D01*
X211943376Y-93886697D01*
X212000000Y-93897960D01*
X212056624Y-93886697D01*
X212081501Y-93870074D01*
X212083497Y-93869943D01*
X212084608Y-93871606D01*
G37*
G36*
X212484608Y-93871606D02*
G01*
X212484183Y-93872975D01*
X212450173Y-93916118D01*
X212447799Y-93976573D01*
X212479431Y-94023914D01*
X212479562Y-94025910D01*
X212477899Y-94027021D01*
X212476657Y-94026688D01*
X212456624Y-94013303D01*
X212400000Y-94002040D01*
X212343376Y-94013303D01*
X212318499Y-94029926D01*
X212316503Y-94030057D01*
X212315392Y-94028394D01*
X212315817Y-94027025D01*
X212349827Y-93983882D01*
X212352201Y-93923427D01*
X212320569Y-93876086D01*
X212320438Y-93874090D01*
X212322101Y-93872979D01*
X212323343Y-93873312D01*
X212343376Y-93886697D01*
X212400000Y-93897960D01*
X212456624Y-93886697D01*
X212481501Y-93870074D01*
X212483497Y-93869943D01*
X212484608Y-93871606D01*
G37*
G36*
X186991005Y-93422859D02*
G01*
X186998503Y-93434081D01*
X187365919Y-93801497D01*
X187377802Y-93809436D01*
X187378687Y-93811230D01*
X187377576Y-93812893D01*
X187376301Y-93813061D01*
X187374426Y-93812688D01*
X187314015Y-93819839D01*
X187269537Y-93860955D01*
X187256935Y-93909248D01*
X187255530Y-93910671D01*
X187253595Y-93910166D01*
X187253000Y-93908743D01*
X187253000Y-93770182D01*
X187249887Y-93753098D01*
X187239883Y-93737027D01*
X187090165Y-93577327D01*
X187073337Y-93565687D01*
X187054801Y-93562000D01*
X186945199Y-93562000D01*
X186931181Y-93564788D01*
X186929287Y-93564145D01*
X186928897Y-93562183D01*
X186929680Y-93561163D01*
X186941207Y-93553461D01*
X186941206Y-93553448D01*
X186942023Y-93552588D01*
X186973160Y-93535150D01*
X186998490Y-93480206D01*
X186987380Y-93424360D01*
X186988023Y-93422466D01*
X186989985Y-93422076D01*
X186991005Y-93422859D01*
G37*
G36*
X183991005Y-93422859D02*
G01*
X183998503Y-93434081D01*
X184365919Y-93801497D01*
X184377802Y-93809436D01*
X184378687Y-93811230D01*
X184377576Y-93812893D01*
X184376301Y-93813061D01*
X184374426Y-93812688D01*
X184314015Y-93819839D01*
X184269537Y-93860955D01*
X184256935Y-93909248D01*
X184255530Y-93910671D01*
X184253595Y-93910166D01*
X184253000Y-93908743D01*
X184253000Y-93770182D01*
X184249887Y-93753098D01*
X184239883Y-93737027D01*
X184090165Y-93577327D01*
X184073337Y-93565687D01*
X184054801Y-93562000D01*
X183945199Y-93562000D01*
X183931181Y-93564788D01*
X183929287Y-93564145D01*
X183928897Y-93562183D01*
X183929680Y-93561163D01*
X183941207Y-93553461D01*
X183941206Y-93553448D01*
X183942023Y-93552588D01*
X183973160Y-93535150D01*
X183998490Y-93480206D01*
X183987380Y-93424360D01*
X183988023Y-93422466D01*
X183989985Y-93422076D01*
X183991005Y-93422859D01*
G37*
G36*
X187812892Y-93422425D02*
G01*
X187813060Y-93423700D01*
X187810368Y-93437235D01*
X187810473Y-93437327D01*
X187810504Y-93438512D01*
X187800906Y-93472539D01*
X187821845Y-93529303D01*
X187869186Y-93560938D01*
X187870071Y-93562732D01*
X187868960Y-93564395D01*
X187867685Y-93564563D01*
X187854801Y-93562000D01*
X187745213Y-93562000D01*
X187725212Y-93566315D01*
X187709849Y-93577313D01*
X187560106Y-93737038D01*
X187550694Y-93751630D01*
X187547000Y-93770199D01*
X187547000Y-93908743D01*
X187546000Y-93910475D01*
X187544000Y-93910475D01*
X187543098Y-93909361D01*
X187524201Y-93851202D01*
X187475200Y-93815601D01*
X187425631Y-93812677D01*
X187423699Y-93813061D01*
X187421805Y-93812417D01*
X187421415Y-93810456D01*
X187422198Y-93809436D01*
X187434081Y-93801497D01*
X187801497Y-93434081D01*
X187809435Y-93422199D01*
X187811229Y-93421314D01*
X187812892Y-93422425D01*
G37*
G36*
X184812892Y-93422425D02*
G01*
X184813060Y-93423700D01*
X184810368Y-93437235D01*
X184810473Y-93437327D01*
X184810504Y-93438512D01*
X184800906Y-93472539D01*
X184821845Y-93529303D01*
X184869186Y-93560938D01*
X184870071Y-93562732D01*
X184868960Y-93564395D01*
X184867685Y-93564563D01*
X184854801Y-93562000D01*
X184745213Y-93562000D01*
X184725212Y-93566315D01*
X184709849Y-93577313D01*
X184560106Y-93737038D01*
X184550694Y-93751630D01*
X184547000Y-93770199D01*
X184547000Y-93908743D01*
X184546000Y-93910475D01*
X184544000Y-93910475D01*
X184543098Y-93909361D01*
X184524201Y-93851202D01*
X184475200Y-93815601D01*
X184425631Y-93812677D01*
X184423699Y-93813061D01*
X184421805Y-93812417D01*
X184421415Y-93810456D01*
X184422198Y-93809436D01*
X184434081Y-93801497D01*
X184801497Y-93434081D01*
X184809435Y-93422199D01*
X184811229Y-93421314D01*
X184812892Y-93422425D01*
G37*
G36*
X212122975Y-93665817D02*
G01*
X212166118Y-93699827D01*
X212226573Y-93702201D01*
X212273914Y-93670569D01*
X212275910Y-93670438D01*
X212277021Y-93672101D01*
X212276688Y-93673343D01*
X212263303Y-93693376D01*
X212252040Y-93750000D01*
X212263303Y-93806624D01*
X212279926Y-93831501D01*
X212280057Y-93833497D01*
X212278394Y-93834608D01*
X212277025Y-93834183D01*
X212233882Y-93800173D01*
X212173427Y-93797799D01*
X212126086Y-93829431D01*
X212124090Y-93829562D01*
X212122979Y-93827899D01*
X212123312Y-93826657D01*
X212136697Y-93806624D01*
X212147960Y-93750000D01*
X212136697Y-93693376D01*
X212120074Y-93668499D01*
X212119943Y-93666503D01*
X212121606Y-93665392D01*
X212122975Y-93665817D01*
G37*
G36*
X206258784Y-93699542D02*
G01*
X206258915Y-93700969D01*
X206243990Y-93753882D01*
X206258392Y-93798208D01*
X206257976Y-93800164D01*
X206256074Y-93800782D01*
X206254827Y-93799937D01*
X206248913Y-93791087D01*
X206233355Y-93780691D01*
X206214801Y-93777000D01*
X205635199Y-93777000D01*
X205616645Y-93780691D01*
X205601087Y-93791087D01*
X205594674Y-93800684D01*
X205592880Y-93801569D01*
X205591217Y-93800458D01*
X205591086Y-93799030D01*
X205606010Y-93746117D01*
X205591609Y-93701793D01*
X205592025Y-93699837D01*
X205593927Y-93699219D01*
X205595174Y-93700064D01*
X205601087Y-93708913D01*
X205616645Y-93719309D01*
X205635199Y-93723000D01*
X206214801Y-93723000D01*
X206233355Y-93719309D01*
X206248913Y-93708913D01*
X206255327Y-93699315D01*
X206257121Y-93698430D01*
X206258784Y-93699542D01*
G37*
G36*
X208608783Y-93699542D02*
G01*
X208608914Y-93700970D01*
X208593990Y-93753883D01*
X208608391Y-93798207D01*
X208607975Y-93800163D01*
X208606073Y-93800781D01*
X208604826Y-93799936D01*
X208598913Y-93791087D01*
X208583355Y-93780691D01*
X208564801Y-93777000D01*
X207985199Y-93777000D01*
X207966645Y-93780691D01*
X207951087Y-93791087D01*
X207944674Y-93800684D01*
X207942880Y-93801569D01*
X207941217Y-93800458D01*
X207941086Y-93799030D01*
X207956010Y-93746117D01*
X207941607Y-93701791D01*
X207942023Y-93699835D01*
X207943925Y-93699217D01*
X207945172Y-93700062D01*
X207951087Y-93708913D01*
X207966645Y-93719309D01*
X207985199Y-93723000D01*
X208564801Y-93723000D01*
X208583355Y-93719309D01*
X208598913Y-93708913D01*
X208605326Y-93699316D01*
X208607120Y-93698431D01*
X208608783Y-93699542D01*
G37*
G36*
X206376228Y-93186577D02*
G01*
X206377000Y-93188156D01*
X206377000Y-93614801D01*
X206380691Y-93633355D01*
X206391087Y-93648913D01*
X206398808Y-93654073D01*
X206399693Y-93655867D01*
X206398581Y-93657530D01*
X206397154Y-93657661D01*
X206344280Y-93642748D01*
X206287359Y-93663747D01*
X206266553Y-93686255D01*
X206263836Y-93690321D01*
X206262042Y-93691206D01*
X206260379Y-93690094D01*
X206260211Y-93688820D01*
X206263000Y-93674801D01*
X206263000Y-93325199D01*
X206259309Y-93306645D01*
X206248913Y-93291087D01*
X206237199Y-93283259D01*
X206236314Y-93281465D01*
X206237426Y-93279802D01*
X206238700Y-93279634D01*
X206251321Y-93282145D01*
X206251639Y-93280546D01*
X206252958Y-93279042D01*
X206254144Y-93279011D01*
X206278835Y-93285977D01*
X206335599Y-93265043D01*
X206369325Y-93214581D01*
X206373019Y-93187882D01*
X206374247Y-93186303D01*
X206376228Y-93186577D01*
G37*
G36*
X207826902Y-93187541D02*
G01*
X207845798Y-93245697D01*
X207894747Y-93281261D01*
X207946859Y-93281261D01*
X207948463Y-93282187D01*
X207952929Y-93281299D01*
X207953319Y-93281261D01*
X207955440Y-93281261D01*
X207956819Y-93280592D01*
X207957302Y-93280429D01*
X207961301Y-93279634D01*
X207963195Y-93280277D01*
X207963585Y-93282239D01*
X207962802Y-93283259D01*
X207951087Y-93291087D01*
X207940691Y-93306645D01*
X207937000Y-93325199D01*
X207937000Y-93674801D01*
X207939789Y-93688820D01*
X207939146Y-93690714D01*
X207937184Y-93691104D01*
X207936164Y-93690321D01*
X207933534Y-93686385D01*
X207885756Y-93648722D01*
X207825130Y-93646342D01*
X207808309Y-93654097D01*
X207806318Y-93653914D01*
X207805480Y-93652098D01*
X207806361Y-93650618D01*
X207808913Y-93648913D01*
X207819309Y-93633355D01*
X207823000Y-93614801D01*
X207823000Y-93188159D01*
X207824000Y-93186427D01*
X207826000Y-93186427D01*
X207826902Y-93187541D01*
G37*
G36*
X206853883Y-93006010D02*
G01*
X206898207Y-92991609D01*
X206900163Y-92992025D01*
X206900781Y-92993927D01*
X206899936Y-92995174D01*
X206891087Y-93001087D01*
X206880691Y-93016645D01*
X206877000Y-93035199D01*
X206877000Y-93614801D01*
X206880691Y-93633355D01*
X206891087Y-93648913D01*
X206900684Y-93655326D01*
X206901569Y-93657120D01*
X206900458Y-93658783D01*
X206899030Y-93658914D01*
X206846117Y-93643990D01*
X206801793Y-93658391D01*
X206799837Y-93657975D01*
X206799219Y-93656073D01*
X206800064Y-93654826D01*
X206808913Y-93648913D01*
X206819309Y-93633355D01*
X206823000Y-93614801D01*
X206823000Y-93035199D01*
X206819309Y-93016645D01*
X206808913Y-93001087D01*
X206799316Y-92994674D01*
X206798431Y-92992880D01*
X206799542Y-92991217D01*
X206800970Y-92991086D01*
X206853883Y-93006010D01*
G37*
G36*
X207353883Y-93006010D02*
G01*
X207398207Y-92991609D01*
X207400163Y-92992025D01*
X207400781Y-92993927D01*
X207399936Y-92995174D01*
X207391087Y-93001087D01*
X207380691Y-93016645D01*
X207377000Y-93035199D01*
X207377000Y-93614801D01*
X207380691Y-93633355D01*
X207391087Y-93648913D01*
X207400684Y-93655326D01*
X207401569Y-93657120D01*
X207400458Y-93658783D01*
X207399030Y-93658914D01*
X207346117Y-93643990D01*
X207301793Y-93658391D01*
X207299837Y-93657975D01*
X207299219Y-93656073D01*
X207300064Y-93654826D01*
X207308913Y-93648913D01*
X207319309Y-93633355D01*
X207323000Y-93614801D01*
X207323000Y-93035199D01*
X207319309Y-93016645D01*
X207308913Y-93001087D01*
X207299316Y-92994674D01*
X207298431Y-92992880D01*
X207299542Y-92991217D01*
X207300970Y-92991086D01*
X207353883Y-93006010D01*
G37*
G36*
X187256902Y-92890639D02*
G01*
X187275799Y-92948798D01*
X187324800Y-92984399D01*
X187374369Y-92987323D01*
X187376301Y-92986939D01*
X187378195Y-92987583D01*
X187378585Y-92989544D01*
X187377802Y-92990564D01*
X187365919Y-92998503D01*
X186998503Y-93365919D01*
X186990565Y-93377801D01*
X186988771Y-93378686D01*
X186987108Y-93377575D01*
X186986940Y-93376300D01*
X186989632Y-93362765D01*
X186989527Y-93362673D01*
X186989496Y-93361488D01*
X186999094Y-93327461D01*
X186978155Y-93270697D01*
X186930814Y-93239062D01*
X186929929Y-93237268D01*
X186931040Y-93235605D01*
X186932315Y-93235437D01*
X186945199Y-93238000D01*
X187054787Y-93238000D01*
X187074788Y-93233685D01*
X187090151Y-93222687D01*
X187239894Y-93062962D01*
X187249306Y-93048370D01*
X187253000Y-93029801D01*
X187253000Y-92891257D01*
X187254000Y-92889525D01*
X187256000Y-92889525D01*
X187256902Y-92890639D01*
G37*
G36*
X184256902Y-92890639D02*
G01*
X184275799Y-92948798D01*
X184324800Y-92984399D01*
X184374369Y-92987323D01*
X184376301Y-92986939D01*
X184378195Y-92987583D01*
X184378585Y-92989544D01*
X184377802Y-92990564D01*
X184365919Y-92998503D01*
X183998503Y-93365919D01*
X183990565Y-93377801D01*
X183988771Y-93378686D01*
X183987108Y-93377575D01*
X183986940Y-93376300D01*
X183989632Y-93362765D01*
X183989527Y-93362673D01*
X183989496Y-93361488D01*
X183999094Y-93327461D01*
X183978155Y-93270697D01*
X183930814Y-93239062D01*
X183929929Y-93237268D01*
X183931040Y-93235605D01*
X183932315Y-93235437D01*
X183945199Y-93238000D01*
X184054787Y-93238000D01*
X184074788Y-93233685D01*
X184090151Y-93222687D01*
X184239894Y-93062962D01*
X184249306Y-93048370D01*
X184253000Y-93029801D01*
X184253000Y-92891257D01*
X184254000Y-92889525D01*
X184256000Y-92889525D01*
X184256902Y-92890639D01*
G37*
G36*
X184546405Y-92889834D02*
G01*
X184547000Y-92891257D01*
X184547000Y-93029818D01*
X184550113Y-93046902D01*
X184560117Y-93062973D01*
X184709835Y-93222673D01*
X184726663Y-93234313D01*
X184745199Y-93238000D01*
X184854801Y-93238000D01*
X184868819Y-93235212D01*
X184870713Y-93235855D01*
X184871103Y-93237817D01*
X184870320Y-93238837D01*
X184858793Y-93246539D01*
X184858794Y-93246552D01*
X184857977Y-93247412D01*
X184826840Y-93264850D01*
X184801510Y-93319794D01*
X184812620Y-93375640D01*
X184811977Y-93377534D01*
X184810015Y-93377924D01*
X184808995Y-93377141D01*
X184801497Y-93365919D01*
X184434081Y-92998503D01*
X184422198Y-92990564D01*
X184421313Y-92988770D01*
X184422424Y-92987107D01*
X184423699Y-92986939D01*
X184425574Y-92987312D01*
X184485985Y-92980161D01*
X184530463Y-92939045D01*
X184543065Y-92890752D01*
X184544470Y-92889329D01*
X184546405Y-92889834D01*
G37*
G36*
X187546405Y-92889834D02*
G01*
X187547000Y-92891257D01*
X187547000Y-93029818D01*
X187550113Y-93046902D01*
X187560117Y-93062973D01*
X187709835Y-93222673D01*
X187726663Y-93234313D01*
X187745199Y-93238000D01*
X187854801Y-93238000D01*
X187868819Y-93235212D01*
X187870713Y-93235855D01*
X187871103Y-93237817D01*
X187870320Y-93238837D01*
X187858793Y-93246539D01*
X187858794Y-93246552D01*
X187857977Y-93247412D01*
X187826840Y-93264850D01*
X187801510Y-93319794D01*
X187812620Y-93375640D01*
X187811977Y-93377534D01*
X187810015Y-93377924D01*
X187808995Y-93377141D01*
X187801497Y-93365919D01*
X187434081Y-92998503D01*
X187422198Y-92990564D01*
X187421313Y-92988770D01*
X187422424Y-92987107D01*
X187423699Y-92986939D01*
X187425574Y-92987312D01*
X187485985Y-92980161D01*
X187530463Y-92939045D01*
X187543065Y-92890752D01*
X187544470Y-92889329D01*
X187546405Y-92889834D01*
G37*
M02*
