%TF.GenerationSoftware,KiCad,Pcbnew,(6.0.1)*%
%TF.CreationDate,2022-10-07T00:00:46+07:00*%
%TF.ProjectId,rak3172,72616b33-3137-4322-9e6b-696361645f70,rev?*%
%TF.SameCoordinates,Original*%
%TF.FileFunction,Copper,L2,Inr*%
%TF.FilePolarity,Positive*%
%FSLAX46Y46*%
G04 Gerber Fmt 4.6, Leading zero omitted, Abs format (unit mm)*
G04 Created by KiCad (PCBNEW (6.0.1)) date 2022-10-07 00:00:46*
%MOMM*%
%LPD*%
G01*
G04 APERTURE LIST*
G04 Aperture macros list*
%AMRoundRect*
0 Rectangle with rounded corners*
0 $1 Rounding radius*
0 $2 $3 $4 $5 $6 $7 $8 $9 X,Y pos of 4 corners*
0 Add a 4 corners polygon primitive as box body*
4,1,4,$2,$3,$4,$5,$6,$7,$8,$9,$2,$3,0*
0 Add four circle primitives for the rounded corners*
1,1,$1+$1,$2,$3*
1,1,$1+$1,$4,$5*
1,1,$1+$1,$6,$7*
1,1,$1+$1,$8,$9*
0 Add four rect primitives between the rounded corners*
20,1,$1+$1,$2,$3,$4,$5,0*
20,1,$1+$1,$4,$5,$6,$7,0*
20,1,$1+$1,$6,$7,$8,$9,0*
20,1,$1+$1,$8,$9,$2,$3,0*%
G04 Aperture macros list end*
%TA.AperFunction,ComponentPad*%
%ADD10C,2.000000*%
%TD*%
%TA.AperFunction,ComponentPad*%
%ADD11RoundRect,0.225000X0.475000X-0.225000X0.475000X0.225000X-0.475000X0.225000X-0.475000X-0.225000X0*%
%TD*%
%TA.AperFunction,ComponentPad*%
%ADD12O,1.400000X0.900000*%
%TD*%
%TA.AperFunction,ViaPad*%
%ADD13C,0.600000*%
%TD*%
G04 APERTURE END LIST*
D10*
%TO.N,/ANTENNA*%
%TO.C,ANT1*%
X217400000Y-109600000D03*
%TD*%
D11*
%TO.N,GND*%
%TO.C,DEBUG1*%
X181725000Y-107600000D03*
D12*
%TO.N,SWCLK*%
X181725000Y-106350000D03*
%TO.N,SWDIO*%
X181725000Y-105100000D03*
%TO.N,NRST*%
X181725000Y-103850000D03*
%TO.N,+3V3*%
X181725000Y-102600000D03*
%TD*%
D13*
%TO.N,GND*%
X218370000Y-113210000D03*
X217100000Y-113210000D03*
X215830000Y-113210000D03*
X214560000Y-113210000D03*
X213290000Y-113210000D03*
X212020000Y-113210000D03*
X212020000Y-86540000D03*
X210750000Y-113210000D03*
X209480000Y-113210000D03*
X208210000Y-113210000D03*
X208210000Y-86540000D03*
X206940000Y-113210000D03*
X205670000Y-113210000D03*
X203130000Y-89080000D03*
X201860000Y-91620000D03*
X200590000Y-92890000D03*
X200590000Y-91620000D03*
X200590000Y-90350000D03*
X199320000Y-92890000D03*
X199320000Y-91620000D03*
X199320000Y-90350000D03*
X199320000Y-89080000D03*
X198050000Y-91620000D03*
X198050000Y-90350000D03*
X198050000Y-89080000D03*
X196780000Y-91620000D03*
X196780000Y-90350000D03*
X196780000Y-89080000D03*
X195510000Y-91620000D03*
X195510000Y-90350000D03*
X195510000Y-89080000D03*
X194240000Y-92890000D03*
X191700000Y-111940000D03*
X191700000Y-89080000D03*
X191700000Y-87810000D03*
X190430000Y-89080000D03*
X190430000Y-87810000D03*
X189160000Y-89080000D03*
X189160000Y-87810000D03*
X187890000Y-89080000D03*
X185350000Y-86540000D03*
X184080000Y-86540000D03*
X181540000Y-86540000D03*
X219150000Y-108840000D03*
X218200000Y-108000000D03*
X219020000Y-110100000D03*
X218200000Y-111070000D03*
X216940000Y-107890000D03*
X215820000Y-108500000D03*
X216940000Y-111280000D03*
X210740000Y-108500000D03*
X212010000Y-108500000D03*
X208200000Y-108500000D03*
X209470000Y-108500000D03*
X206930000Y-108500000D03*
X208200000Y-110670000D03*
X210740000Y-110670000D03*
X214550000Y-110670000D03*
X213300000Y-108500000D03*
X214570000Y-108500000D03*
X215820000Y-110670000D03*
X213280000Y-110670000D03*
X212010000Y-110670000D03*
X209470000Y-110670000D03*
X206930000Y-110670000D03*
X182500000Y-95700000D03*
X184960000Y-90190000D03*
X186840000Y-91750000D03*
%TO.N,+BATT*%
X185460000Y-90770000D03*
%TO.N,-BATT*%
X186070000Y-91550000D03*
%TO.N,GND*%
X204975000Y-90375000D03*
%TO.N,+3V3*%
X205000000Y-91125000D03*
%TO.N,GND*%
X206550000Y-89625000D03*
X210025000Y-91775000D03*
%TO.N,IMU_INT1*%
X207350000Y-89625000D03*
%TO.N,+3V3*%
X210500000Y-95100000D03*
X207900000Y-97100000D03*
X189200000Y-97100000D03*
X186500000Y-96600000D03*
%TO.N,GND*%
X203800000Y-107300000D03*
X185720000Y-96470000D03*
X190800000Y-108900000D03*
X186500000Y-105300000D03*
X188500000Y-109700000D03*
X206150000Y-103600000D03*
X196500000Y-106100000D03*
X197900000Y-104700000D03*
X192300000Y-101400000D03*
X188600000Y-113000000D03*
X183300000Y-97400000D03*
X206780000Y-91300000D03*
X193800000Y-100300000D03*
X192620000Y-105490000D03*
X206000000Y-104350000D03*
X202100000Y-106000000D03*
X186670000Y-100900000D03*
X188400000Y-100400000D03*
X185540000Y-101510000D03*
X190830000Y-93760000D03*
X180660000Y-92150000D03*
X188855730Y-91949240D03*
X181630000Y-91210000D03*
X201400000Y-112170000D03*
X184360000Y-100390000D03*
X198630000Y-100250000D03*
X184730000Y-112460000D03*
X209700000Y-95100000D03*
X202350000Y-98440000D03*
X190620000Y-105000000D03*
X203510000Y-114460000D03*
X203000000Y-99500000D03*
X184750000Y-95610000D03*
X200700000Y-104700000D03*
X198560000Y-99450000D03*
X199300000Y-106000000D03*
X210400000Y-102500000D03*
X200700000Y-110300000D03*
X185420000Y-94120000D03*
X190000000Y-97200000D03*
X190200000Y-99400000D03*
X189400000Y-91300000D03*
X208700000Y-97200000D03*
X197900000Y-110300000D03*
X192610000Y-106830000D03*
X194800000Y-111550000D03*
X211900000Y-93000000D03*
X182540000Y-92050000D03*
X184018273Y-114409609D03*
X203100000Y-100200000D03*
X200700000Y-107500000D03*
X196500000Y-108900000D03*
X199300000Y-108900000D03*
X194650000Y-104650000D03*
X197900000Y-107500000D03*
X188210000Y-92230000D03*
X190300000Y-102800000D03*
X202100000Y-108800000D03*
X184800000Y-99000000D03*
X188600000Y-111300000D03*
X194670000Y-109600000D03*
X188500000Y-109000000D03*
X182560000Y-94470000D03*
X203700000Y-105400000D03*
X188600000Y-110500000D03*
%TO.N,/GPS_VDD*%
X189400000Y-99600000D03*
X184500000Y-98300000D03*
%TO.N,CBR_SW*%
X182610000Y-99970000D03*
X194700000Y-105400000D03*
%TO.N,/p_GPS_TX*%
X187300000Y-104400000D03*
%TO.N,/p_GPS_RX*%
X186800000Y-106000000D03*
%TO.N,Gate_GPS*%
X193000000Y-100400000D03*
X191900000Y-100700000D03*
%TO.N,Net-(TP1-Pad1)*%
X184640000Y-114030000D03*
X202780000Y-114470000D03*
%TO.N,Net-(TP2-Pad1)*%
X202250000Y-112050000D03*
X184580000Y-113230000D03*
%TO.N,IMU_INT2*%
X205050000Y-94650000D03*
X194800000Y-110800000D03*
%TO.N,1PPS*%
X195550000Y-111850000D03*
%TO.N,IMU_INT1*%
X200600000Y-112000000D03*
%TD*%
%TA.AperFunction,Conductor*%
%TO.N,GND*%
G36*
X211984190Y-85201590D02*
G01*
X211991973Y-85203379D01*
X211999642Y-85205143D01*
X212006507Y-85203589D01*
X212008503Y-85203593D01*
X212025647Y-85202526D01*
X212036196Y-85203565D01*
X212149948Y-85214769D01*
X212161957Y-85217157D01*
X212268766Y-85249558D01*
X212300258Y-85259111D01*
X212311577Y-85263800D01*
X212439025Y-85331922D01*
X212449213Y-85338729D01*
X212560927Y-85430410D01*
X212569590Y-85439073D01*
X212661271Y-85550787D01*
X212668078Y-85560975D01*
X212736200Y-85688423D01*
X212740889Y-85699742D01*
X212782842Y-85838039D01*
X212785232Y-85850056D01*
X212797431Y-85973920D01*
X212796441Y-85989399D01*
X212796435Y-85992780D01*
X212794857Y-85999642D01*
X212796410Y-86006505D01*
X212796410Y-86006507D01*
X212798459Y-86015561D01*
X212800000Y-86029354D01*
X212800000Y-105969950D01*
X212798386Y-105984062D01*
X212794858Y-105999284D01*
X212794857Y-106000000D01*
X212796030Y-106005145D01*
X212797401Y-106014128D01*
X212811109Y-106188302D01*
X212814710Y-106203302D01*
X212848954Y-106345936D01*
X212855203Y-106371967D01*
X212856142Y-106374234D01*
X212856143Y-106374237D01*
X212870441Y-106408756D01*
X212927485Y-106546473D01*
X213026177Y-106707524D01*
X213148847Y-106851153D01*
X213292476Y-106973823D01*
X213294571Y-106975107D01*
X213294574Y-106975109D01*
X213441631Y-107065225D01*
X213453527Y-107072515D01*
X213554771Y-107114451D01*
X213625763Y-107143857D01*
X213625766Y-107143858D01*
X213628033Y-107144797D01*
X213630424Y-107145371D01*
X213630427Y-107145372D01*
X213644902Y-107148847D01*
X213811698Y-107188891D01*
X213984913Y-107202524D01*
X213994115Y-107203944D01*
X213999284Y-107205142D01*
X214000000Y-107205143D01*
X214015686Y-107201565D01*
X214029585Y-107200000D01*
X218970184Y-107200000D01*
X218984190Y-107201590D01*
X218991973Y-107203379D01*
X218999642Y-107205143D01*
X219006507Y-107203589D01*
X219008503Y-107203593D01*
X219025647Y-107202526D01*
X219029343Y-107202890D01*
X219149948Y-107214769D01*
X219161957Y-107217157D01*
X219259965Y-107246887D01*
X219300259Y-107259110D01*
X219311578Y-107263799D01*
X219439028Y-107331923D01*
X219449215Y-107338730D01*
X219560927Y-107430409D01*
X219569591Y-107439073D01*
X219661270Y-107550785D01*
X219668077Y-107560972D01*
X219736201Y-107688422D01*
X219740890Y-107699741D01*
X219774852Y-107811698D01*
X219782842Y-107838039D01*
X219785231Y-107850052D01*
X219793195Y-107930907D01*
X219797431Y-107973920D01*
X219796441Y-107989399D01*
X219796435Y-107992780D01*
X219794857Y-107999642D01*
X219796410Y-108006505D01*
X219796410Y-108006507D01*
X219798459Y-108015561D01*
X219800000Y-108029354D01*
X219800000Y-113970184D01*
X219798410Y-113984190D01*
X219794857Y-113999642D01*
X219796411Y-114006507D01*
X219796407Y-114008503D01*
X219797474Y-114025647D01*
X219786003Y-114142117D01*
X219785232Y-114149944D01*
X219782843Y-114161957D01*
X219759986Y-114237307D01*
X219740890Y-114300259D01*
X219736201Y-114311578D01*
X219668077Y-114439028D01*
X219661270Y-114449215D01*
X219569591Y-114560927D01*
X219560927Y-114569591D01*
X219449215Y-114661270D01*
X219439028Y-114668077D01*
X219311578Y-114736201D01*
X219300258Y-114740890D01*
X219161957Y-114782843D01*
X219149948Y-114785231D01*
X219081549Y-114791968D01*
X219026080Y-114797431D01*
X219010601Y-114796441D01*
X219007220Y-114796435D01*
X219000358Y-114794857D01*
X218993495Y-114796410D01*
X218993493Y-114796410D01*
X218984439Y-114798459D01*
X218970646Y-114800000D01*
X203194916Y-114800000D01*
X203150722Y-114781694D01*
X203132416Y-114737500D01*
X203138670Y-114710249D01*
X203191451Y-114601311D01*
X203193317Y-114590224D01*
X203211367Y-114482928D01*
X203211767Y-114480552D01*
X203211896Y-114470000D01*
X203194536Y-114348781D01*
X203143852Y-114237307D01*
X203129199Y-114220302D01*
X203127708Y-114217375D01*
X203121900Y-114211567D01*
X203118746Y-114208170D01*
X203073855Y-114156072D01*
X203063918Y-114144539D01*
X203043741Y-114131461D01*
X203040155Y-114128559D01*
X203040081Y-114128661D01*
X203036106Y-114125773D01*
X203032625Y-114122292D01*
X203021343Y-114116543D01*
X203015736Y-114113309D01*
X202964893Y-114080354D01*
X202964890Y-114080353D01*
X202961160Y-114077935D01*
X202956901Y-114076661D01*
X202956898Y-114076660D01*
X202938345Y-114071112D01*
X202928839Y-114068269D01*
X202918377Y-114064079D01*
X202912813Y-114061244D01*
X202901067Y-114059384D01*
X202892951Y-114057536D01*
X202843838Y-114042848D01*
X202799496Y-114042577D01*
X202790103Y-114041809D01*
X202784857Y-114040978D01*
X202784856Y-114040978D01*
X202780000Y-114040209D01*
X202771373Y-114041576D01*
X202761220Y-114042344D01*
X202742836Y-114042231D01*
X202725838Y-114042127D01*
X202725836Y-114042127D01*
X202721385Y-114042100D01*
X202667011Y-114057641D01*
X202659623Y-114059275D01*
X202647187Y-114061244D01*
X202642804Y-114063477D01*
X202641870Y-114063781D01*
X202632155Y-114067603D01*
X202607929Y-114074526D01*
X202607927Y-114074527D01*
X202603644Y-114075751D01*
X202544119Y-114113309D01*
X202542819Y-114114129D01*
X202537842Y-114116959D01*
X202531757Y-114120059D01*
X202531756Y-114120060D01*
X202527375Y-114122292D01*
X202523897Y-114125770D01*
X202522445Y-114126825D01*
X202519058Y-114129120D01*
X202500080Y-114141095D01*
X202497137Y-114144427D01*
X202497135Y-114144429D01*
X202437156Y-114212342D01*
X202436032Y-114213538D01*
X202435775Y-114213892D01*
X202435554Y-114214113D01*
X202435405Y-114214204D01*
X202434504Y-114215163D01*
X202432292Y-114217375D01*
X202431509Y-114216592D01*
X202430362Y-114217296D01*
X202431721Y-114218496D01*
X202419018Y-114232879D01*
X202417127Y-114236907D01*
X202368868Y-114339695D01*
X202368867Y-114339698D01*
X202366976Y-114343726D01*
X202348136Y-114464724D01*
X202348713Y-114469137D01*
X202348713Y-114469138D01*
X202361849Y-114569591D01*
X202364014Y-114586145D01*
X202371185Y-114602443D01*
X202371244Y-114602813D01*
X202372007Y-114604311D01*
X202374031Y-114608910D01*
X202374031Y-114608911D01*
X202398789Y-114665176D01*
X202413333Y-114698230D01*
X202416196Y-114701636D01*
X202417962Y-114704473D01*
X202425774Y-114751666D01*
X202397928Y-114790561D01*
X202364901Y-114800000D01*
X181029816Y-114800000D01*
X181015810Y-114798410D01*
X181007220Y-114796435D01*
X181000358Y-114794857D01*
X180993493Y-114796411D01*
X180991497Y-114796407D01*
X180974353Y-114797474D01*
X180947782Y-114794857D01*
X180850052Y-114785231D01*
X180838043Y-114782843D01*
X180699742Y-114740890D01*
X180688422Y-114736201D01*
X180560972Y-114668077D01*
X180550785Y-114661270D01*
X180439073Y-114569591D01*
X180430409Y-114560927D01*
X180338730Y-114449215D01*
X180331923Y-114439028D01*
X180263799Y-114311578D01*
X180259110Y-114300259D01*
X180240014Y-114237307D01*
X180217157Y-114161957D01*
X180214768Y-114149944D01*
X180213998Y-114142117D01*
X180203994Y-114040552D01*
X180202569Y-114026080D01*
X180203559Y-114010601D01*
X180203565Y-114007220D01*
X180205143Y-114000358D01*
X180203429Y-113992780D01*
X180201541Y-113984439D01*
X180200000Y-113970646D01*
X180200000Y-112150000D01*
X181295207Y-112150000D01*
X181314349Y-112393223D01*
X181334842Y-112478584D01*
X181368253Y-112617747D01*
X181371304Y-112630457D01*
X181464669Y-112855861D01*
X181465951Y-112857953D01*
X181549282Y-112993936D01*
X181592146Y-113063884D01*
X181750595Y-113249405D01*
X181936116Y-113407854D01*
X181938211Y-113409138D01*
X181938214Y-113409140D01*
X182050505Y-113477952D01*
X182144139Y-113535331D01*
X182246447Y-113577708D01*
X182367273Y-113627756D01*
X182367276Y-113627757D01*
X182369543Y-113628696D01*
X182371934Y-113629270D01*
X182371937Y-113629271D01*
X182488160Y-113657173D01*
X182606777Y-113685651D01*
X182850000Y-113704793D01*
X183093223Y-113685651D01*
X183211840Y-113657174D01*
X183328063Y-113629271D01*
X183328066Y-113629270D01*
X183330457Y-113628696D01*
X183332724Y-113627757D01*
X183332727Y-113627756D01*
X183453553Y-113577708D01*
X183555861Y-113535331D01*
X183649495Y-113477952D01*
X183761786Y-113409140D01*
X183761789Y-113409138D01*
X183763884Y-113407854D01*
X183949405Y-113249405D01*
X184044538Y-113138018D01*
X184087159Y-113116301D01*
X184132653Y-113131083D01*
X184154370Y-113173704D01*
X184153819Y-113188223D01*
X184148136Y-113224724D01*
X184148713Y-113229137D01*
X184148713Y-113229138D01*
X184163436Y-113341726D01*
X184164014Y-113346145D01*
X184171185Y-113362443D01*
X184171244Y-113362813D01*
X184172007Y-113364311D01*
X184174031Y-113368910D01*
X184174031Y-113368911D01*
X184191733Y-113409140D01*
X184213333Y-113458230D01*
X184227272Y-113474813D01*
X184228029Y-113475713D01*
X184230157Y-113478434D01*
X184232292Y-113482625D01*
X184240081Y-113490414D01*
X184243729Y-113494391D01*
X184292127Y-113551968D01*
X184315399Y-113567459D01*
X184321836Y-113572733D01*
X184323899Y-113574232D01*
X184327375Y-113577708D01*
X184331753Y-113579939D01*
X184331756Y-113579941D01*
X184338730Y-113583494D01*
X184344983Y-113587152D01*
X184358971Y-113596463D01*
X184360147Y-113597246D01*
X184386791Y-113636974D01*
X184377539Y-113683906D01*
X184366020Y-113696869D01*
X184363848Y-113698718D01*
X184360080Y-113701095D01*
X184357131Y-113704434D01*
X184297156Y-113772342D01*
X184296032Y-113773538D01*
X184295775Y-113773892D01*
X184295554Y-113774113D01*
X184295405Y-113774204D01*
X184294504Y-113775163D01*
X184292292Y-113777375D01*
X184291509Y-113776592D01*
X184290362Y-113777296D01*
X184291721Y-113778496D01*
X184279018Y-113792879D01*
X184277127Y-113796907D01*
X184228868Y-113899695D01*
X184228867Y-113899698D01*
X184226976Y-113903726D01*
X184208136Y-114024724D01*
X184208713Y-114029137D01*
X184208713Y-114029138D01*
X184223436Y-114141726D01*
X184224014Y-114146145D01*
X184231185Y-114162443D01*
X184231244Y-114162813D01*
X184232007Y-114164311D01*
X184234031Y-114168910D01*
X184234031Y-114168911D01*
X184265909Y-114241357D01*
X184273333Y-114258230D01*
X184287272Y-114274813D01*
X184288029Y-114275713D01*
X184290157Y-114278434D01*
X184292292Y-114282625D01*
X184300081Y-114290414D01*
X184303730Y-114294392D01*
X184348898Y-114348126D01*
X184352127Y-114351968D01*
X184375399Y-114367459D01*
X184381836Y-114372733D01*
X184383899Y-114374232D01*
X184387375Y-114377708D01*
X184391753Y-114379939D01*
X184391756Y-114379941D01*
X184398730Y-114383494D01*
X184404977Y-114387148D01*
X184454064Y-114419823D01*
X184458313Y-114421151D01*
X184458314Y-114421151D01*
X184490296Y-114431143D01*
X184500027Y-114435109D01*
X184502799Y-114436521D01*
X184502803Y-114436522D01*
X184507187Y-114438756D01*
X184517852Y-114440445D01*
X184526713Y-114442520D01*
X184566696Y-114455012D01*
X184566699Y-114455012D01*
X184570948Y-114456340D01*
X184620069Y-114457241D01*
X184628683Y-114457999D01*
X184635140Y-114459022D01*
X184635144Y-114459022D01*
X184640000Y-114459791D01*
X184646947Y-114458690D01*
X184657853Y-114457933D01*
X184693383Y-114458584D01*
X184753532Y-114442185D01*
X184760190Y-114440755D01*
X184762147Y-114440445D01*
X184772813Y-114438756D01*
X184777196Y-114436522D01*
X184781875Y-114435002D01*
X184781878Y-114435010D01*
X184786727Y-114433136D01*
X184811527Y-114426375D01*
X184879709Y-114384511D01*
X184884037Y-114382085D01*
X184888240Y-114379944D01*
X184888248Y-114379938D01*
X184892625Y-114377708D01*
X184895427Y-114374906D01*
X184896264Y-114374346D01*
X184898891Y-114372733D01*
X184915881Y-114362301D01*
X184998058Y-114271513D01*
X185051451Y-114161311D01*
X185052333Y-114156072D01*
X185068617Y-114059275D01*
X185071767Y-114040552D01*
X185071896Y-114030000D01*
X185054536Y-113908781D01*
X185003852Y-113797307D01*
X184989199Y-113780302D01*
X184987708Y-113777375D01*
X184981900Y-113771567D01*
X184978746Y-113768170D01*
X184926826Y-113707914D01*
X184923918Y-113704539D01*
X184903741Y-113691461D01*
X184900155Y-113688559D01*
X184900081Y-113688661D01*
X184896106Y-113685773D01*
X184892625Y-113682292D01*
X184881343Y-113676543D01*
X184875735Y-113673308D01*
X184860275Y-113663287D01*
X184833147Y-113623888D01*
X184841824Y-113576846D01*
X184853391Y-113563830D01*
X184855881Y-113562301D01*
X184881454Y-113534049D01*
X184935071Y-113474813D01*
X184938058Y-113471513D01*
X184991451Y-113361311D01*
X184993317Y-113350224D01*
X185010009Y-113251003D01*
X185011767Y-113240552D01*
X185011896Y-113230000D01*
X184994536Y-113108781D01*
X184943852Y-112997307D01*
X184929199Y-112980302D01*
X184927708Y-112977375D01*
X184921900Y-112971567D01*
X184918746Y-112968170D01*
X184866826Y-112907914D01*
X184863918Y-112904539D01*
X184843741Y-112891461D01*
X184840155Y-112888559D01*
X184840081Y-112888661D01*
X184836106Y-112885773D01*
X184832625Y-112882292D01*
X184821343Y-112876543D01*
X184815736Y-112873309D01*
X184806668Y-112867431D01*
X184785326Y-112853598D01*
X184764893Y-112840354D01*
X184764890Y-112840353D01*
X184761160Y-112837935D01*
X184756901Y-112836661D01*
X184756898Y-112836660D01*
X184738345Y-112831112D01*
X184728839Y-112828269D01*
X184718377Y-112824079D01*
X184712813Y-112821244D01*
X184701067Y-112819384D01*
X184692951Y-112817536D01*
X184643838Y-112802848D01*
X184599496Y-112802577D01*
X184590103Y-112801809D01*
X184584857Y-112800978D01*
X184584856Y-112800978D01*
X184580000Y-112800209D01*
X184571373Y-112801576D01*
X184561220Y-112802344D01*
X184542836Y-112802231D01*
X184525838Y-112802127D01*
X184525836Y-112802127D01*
X184521385Y-112802100D01*
X184467011Y-112817641D01*
X184459623Y-112819275D01*
X184447187Y-112821244D01*
X184442804Y-112823477D01*
X184441870Y-112823781D01*
X184432155Y-112827603D01*
X184407929Y-112834526D01*
X184407927Y-112834527D01*
X184403644Y-112835751D01*
X184399875Y-112838129D01*
X184353434Y-112867431D01*
X184306289Y-112875532D01*
X184267225Y-112847924D01*
X184259124Y-112800779D01*
X184262341Y-112790655D01*
X184327752Y-112632738D01*
X184327756Y-112632727D01*
X184328696Y-112630457D01*
X184331748Y-112617747D01*
X184365158Y-112478584D01*
X184385651Y-112393223D01*
X184404793Y-112150000D01*
X184385651Y-111906777D01*
X184370754Y-111844724D01*
X195118136Y-111844724D01*
X195118713Y-111849137D01*
X195118713Y-111849138D01*
X195130651Y-111940429D01*
X195134014Y-111966145D01*
X195141185Y-111982443D01*
X195141244Y-111982813D01*
X195142007Y-111984311D01*
X195183333Y-112078230D01*
X195197272Y-112094813D01*
X195198029Y-112095713D01*
X195200157Y-112098434D01*
X195202292Y-112102625D01*
X195210081Y-112110414D01*
X195213729Y-112114391D01*
X195262127Y-112171968D01*
X195285399Y-112187459D01*
X195291836Y-112192733D01*
X195293899Y-112194232D01*
X195297375Y-112197708D01*
X195301753Y-112199939D01*
X195301756Y-112199941D01*
X195308730Y-112203494D01*
X195314977Y-112207148D01*
X195364064Y-112239823D01*
X195368313Y-112241151D01*
X195368314Y-112241151D01*
X195400296Y-112251143D01*
X195410027Y-112255109D01*
X195412799Y-112256521D01*
X195412803Y-112256522D01*
X195417187Y-112258756D01*
X195427656Y-112260414D01*
X195427852Y-112260445D01*
X195436713Y-112262520D01*
X195476696Y-112275012D01*
X195476699Y-112275012D01*
X195480948Y-112276340D01*
X195530069Y-112277241D01*
X195538683Y-112277999D01*
X195545140Y-112279022D01*
X195545144Y-112279022D01*
X195550000Y-112279791D01*
X195556947Y-112278690D01*
X195567853Y-112277933D01*
X195603383Y-112278584D01*
X195663532Y-112262185D01*
X195670190Y-112260755D01*
X195672343Y-112260414D01*
X195682813Y-112258756D01*
X195687196Y-112256522D01*
X195691875Y-112255002D01*
X195691878Y-112255010D01*
X195696727Y-112253136D01*
X195721527Y-112246375D01*
X195789709Y-112204511D01*
X195794037Y-112202085D01*
X195798240Y-112199944D01*
X195798248Y-112199938D01*
X195802625Y-112197708D01*
X195805427Y-112194906D01*
X195806264Y-112194346D01*
X195808891Y-112192733D01*
X195825881Y-112182301D01*
X195908058Y-112091513D01*
X195954952Y-111994724D01*
X200168136Y-111994724D01*
X200168713Y-111999137D01*
X200168713Y-111999138D01*
X200183436Y-112111726D01*
X200184014Y-112116145D01*
X200191185Y-112132443D01*
X200191244Y-112132813D01*
X200192007Y-112134311D01*
X200194031Y-112138910D01*
X200194031Y-112138911D01*
X200224060Y-112207155D01*
X200233333Y-112228230D01*
X200246627Y-112244045D01*
X200248029Y-112245713D01*
X200250157Y-112248434D01*
X200252292Y-112252625D01*
X200260081Y-112260414D01*
X200263729Y-112264391D01*
X200312127Y-112321968D01*
X200335399Y-112337459D01*
X200341836Y-112342733D01*
X200343899Y-112344232D01*
X200347375Y-112347708D01*
X200351753Y-112349939D01*
X200351756Y-112349941D01*
X200358730Y-112353494D01*
X200364977Y-112357148D01*
X200414064Y-112389823D01*
X200418313Y-112391151D01*
X200418314Y-112391151D01*
X200450296Y-112401143D01*
X200460027Y-112405109D01*
X200462799Y-112406521D01*
X200462803Y-112406522D01*
X200467187Y-112408756D01*
X200477852Y-112410445D01*
X200486713Y-112412520D01*
X200526696Y-112425012D01*
X200526699Y-112425012D01*
X200530948Y-112426340D01*
X200580069Y-112427241D01*
X200588683Y-112427999D01*
X200595140Y-112429022D01*
X200595144Y-112429022D01*
X200600000Y-112429791D01*
X200606947Y-112428690D01*
X200617853Y-112427933D01*
X200653383Y-112428584D01*
X200713532Y-112412185D01*
X200720190Y-112410755D01*
X200722147Y-112410445D01*
X200732813Y-112408756D01*
X200737196Y-112406522D01*
X200741875Y-112405002D01*
X200741878Y-112405010D01*
X200746727Y-112403136D01*
X200771527Y-112396375D01*
X200811278Y-112371968D01*
X200839709Y-112354511D01*
X200844037Y-112352085D01*
X200848240Y-112349944D01*
X200848248Y-112349938D01*
X200852625Y-112347708D01*
X200855427Y-112344906D01*
X200856264Y-112344346D01*
X200858891Y-112342733D01*
X200875881Y-112332301D01*
X200958058Y-112241513D01*
X201011451Y-112131311D01*
X201013317Y-112120224D01*
X201026018Y-112044724D01*
X201818136Y-112044724D01*
X201818713Y-112049137D01*
X201818713Y-112049138D01*
X201827966Y-112119897D01*
X201834014Y-112166145D01*
X201841185Y-112182443D01*
X201841244Y-112182813D01*
X201842007Y-112184311D01*
X201844031Y-112188910D01*
X201844031Y-112188911D01*
X201876274Y-112262187D01*
X201883333Y-112278230D01*
X201897272Y-112294813D01*
X201898029Y-112295713D01*
X201900157Y-112298434D01*
X201902292Y-112302625D01*
X201910081Y-112310414D01*
X201913730Y-112314392D01*
X201949676Y-112357155D01*
X201962127Y-112371968D01*
X201985399Y-112387459D01*
X201991836Y-112392733D01*
X201993899Y-112394232D01*
X201997375Y-112397708D01*
X202001753Y-112399939D01*
X202001756Y-112399941D01*
X202008730Y-112403494D01*
X202014977Y-112407148D01*
X202064064Y-112439823D01*
X202068313Y-112441151D01*
X202068314Y-112441151D01*
X202100296Y-112451143D01*
X202110027Y-112455109D01*
X202112799Y-112456521D01*
X202112803Y-112456522D01*
X202117187Y-112458756D01*
X202127852Y-112460445D01*
X202136713Y-112462520D01*
X202176696Y-112475012D01*
X202176699Y-112475012D01*
X202180948Y-112476340D01*
X202230069Y-112477241D01*
X202238683Y-112477999D01*
X202245140Y-112479022D01*
X202245144Y-112479022D01*
X202250000Y-112479791D01*
X202256947Y-112478690D01*
X202267853Y-112477933D01*
X202303383Y-112478584D01*
X202363532Y-112462185D01*
X202370190Y-112460755D01*
X202372147Y-112460445D01*
X202382813Y-112458756D01*
X202387196Y-112456522D01*
X202391875Y-112455002D01*
X202391878Y-112455010D01*
X202396727Y-112453136D01*
X202421527Y-112446375D01*
X202450503Y-112428584D01*
X202489709Y-112404511D01*
X202494037Y-112402085D01*
X202498240Y-112399944D01*
X202498248Y-112399938D01*
X202502625Y-112397708D01*
X202505427Y-112394906D01*
X202506264Y-112394346D01*
X202508891Y-112392733D01*
X202525881Y-112382301D01*
X202608058Y-112291513D01*
X202661451Y-112181311D01*
X202662609Y-112174433D01*
X202681367Y-112062928D01*
X202681767Y-112060552D01*
X202681896Y-112050000D01*
X202664536Y-111928781D01*
X202613852Y-111817307D01*
X202599199Y-111800302D01*
X202597708Y-111797375D01*
X202591900Y-111791567D01*
X202588746Y-111788170D01*
X202536826Y-111727914D01*
X202533918Y-111724539D01*
X202513741Y-111711461D01*
X202510155Y-111708559D01*
X202510081Y-111708661D01*
X202506106Y-111705773D01*
X202502625Y-111702292D01*
X202491343Y-111696543D01*
X202485736Y-111693309D01*
X202434893Y-111660354D01*
X202434890Y-111660353D01*
X202431160Y-111657935D01*
X202426901Y-111656661D01*
X202426898Y-111656660D01*
X202404824Y-111650059D01*
X202398839Y-111648269D01*
X202388377Y-111644079D01*
X202382813Y-111641244D01*
X202371067Y-111639384D01*
X202362951Y-111637536D01*
X202313838Y-111622848D01*
X202269496Y-111622577D01*
X202260103Y-111621809D01*
X202254857Y-111620978D01*
X202254856Y-111620978D01*
X202250000Y-111620209D01*
X202241373Y-111621576D01*
X202231220Y-111622344D01*
X202212836Y-111622231D01*
X202195838Y-111622127D01*
X202195836Y-111622127D01*
X202191385Y-111622100D01*
X202137011Y-111637641D01*
X202129623Y-111639275D01*
X202117187Y-111641244D01*
X202112804Y-111643477D01*
X202111870Y-111643781D01*
X202102155Y-111647603D01*
X202077929Y-111654526D01*
X202077927Y-111654527D01*
X202073644Y-111655751D01*
X202069875Y-111658129D01*
X202069032Y-111658661D01*
X202014119Y-111693309D01*
X202012819Y-111694129D01*
X202007842Y-111696959D01*
X202001757Y-111700059D01*
X202001756Y-111700060D01*
X201997375Y-111702292D01*
X201993897Y-111705770D01*
X201992445Y-111706825D01*
X201989058Y-111709120D01*
X201970080Y-111721095D01*
X201967137Y-111724427D01*
X201967135Y-111724429D01*
X201907156Y-111792342D01*
X201906032Y-111793538D01*
X201905775Y-111793892D01*
X201905554Y-111794113D01*
X201905405Y-111794204D01*
X201904504Y-111795163D01*
X201902292Y-111797375D01*
X201901509Y-111796592D01*
X201900362Y-111797296D01*
X201901721Y-111798496D01*
X201889018Y-111812879D01*
X201887127Y-111816907D01*
X201838868Y-111919695D01*
X201838867Y-111919698D01*
X201836976Y-111923726D01*
X201818136Y-112044724D01*
X201026018Y-112044724D01*
X201031367Y-112012928D01*
X201031767Y-112010552D01*
X201031896Y-112000000D01*
X201014536Y-111878781D01*
X200963852Y-111767307D01*
X200949199Y-111750302D01*
X200947708Y-111747375D01*
X200941900Y-111741567D01*
X200938746Y-111738170D01*
X200886826Y-111677914D01*
X200883918Y-111674539D01*
X200863741Y-111661461D01*
X200860155Y-111658559D01*
X200860081Y-111658661D01*
X200856106Y-111655773D01*
X200852625Y-111652292D01*
X200841343Y-111646543D01*
X200835736Y-111643309D01*
X200831366Y-111640476D01*
X200806137Y-111624124D01*
X200784893Y-111610354D01*
X200784890Y-111610353D01*
X200781160Y-111607935D01*
X200776901Y-111606661D01*
X200776898Y-111606660D01*
X200749597Y-111598496D01*
X200748839Y-111598269D01*
X200738377Y-111594079D01*
X200732813Y-111591244D01*
X200721067Y-111589384D01*
X200712951Y-111587536D01*
X200663838Y-111572848D01*
X200619496Y-111572577D01*
X200610103Y-111571809D01*
X200604857Y-111570978D01*
X200604856Y-111570978D01*
X200600000Y-111570209D01*
X200591373Y-111571576D01*
X200581220Y-111572344D01*
X200562836Y-111572231D01*
X200545838Y-111572127D01*
X200545836Y-111572127D01*
X200541385Y-111572100D01*
X200487011Y-111587641D01*
X200479623Y-111589275D01*
X200467187Y-111591244D01*
X200462804Y-111593477D01*
X200461870Y-111593781D01*
X200452155Y-111597603D01*
X200427929Y-111604526D01*
X200427927Y-111604527D01*
X200423644Y-111605751D01*
X200363371Y-111643781D01*
X200362819Y-111644129D01*
X200357842Y-111646959D01*
X200351757Y-111650059D01*
X200351756Y-111650060D01*
X200347375Y-111652292D01*
X200343897Y-111655770D01*
X200342445Y-111656825D01*
X200339058Y-111659120D01*
X200320080Y-111671095D01*
X200317137Y-111674427D01*
X200317135Y-111674429D01*
X200257156Y-111742342D01*
X200256032Y-111743538D01*
X200255775Y-111743892D01*
X200255554Y-111744113D01*
X200255405Y-111744204D01*
X200254504Y-111745163D01*
X200252292Y-111747375D01*
X200251509Y-111746592D01*
X200250362Y-111747296D01*
X200251721Y-111748496D01*
X200239018Y-111762879D01*
X200237127Y-111766907D01*
X200188868Y-111869695D01*
X200188867Y-111869698D01*
X200186976Y-111873726D01*
X200168136Y-111994724D01*
X195954952Y-111994724D01*
X195961451Y-111981311D01*
X195963317Y-111970224D01*
X195979382Y-111874726D01*
X195981767Y-111860552D01*
X195981896Y-111850000D01*
X195964536Y-111728781D01*
X195913852Y-111617307D01*
X195899199Y-111600302D01*
X195897708Y-111597375D01*
X195891900Y-111591567D01*
X195888746Y-111588170D01*
X195836826Y-111527914D01*
X195833918Y-111524539D01*
X195813741Y-111511461D01*
X195810155Y-111508559D01*
X195810081Y-111508661D01*
X195806106Y-111505773D01*
X195802625Y-111502292D01*
X195791343Y-111496543D01*
X195785736Y-111493309D01*
X195734893Y-111460354D01*
X195734890Y-111460353D01*
X195731160Y-111457935D01*
X195726901Y-111456661D01*
X195726898Y-111456660D01*
X195708345Y-111451112D01*
X195698839Y-111448269D01*
X195688377Y-111444079D01*
X195682813Y-111441244D01*
X195671067Y-111439384D01*
X195662951Y-111437536D01*
X195613838Y-111422848D01*
X195569496Y-111422577D01*
X195560103Y-111421809D01*
X195554857Y-111420978D01*
X195554856Y-111420978D01*
X195550000Y-111420209D01*
X195541373Y-111421576D01*
X195531220Y-111422344D01*
X195512836Y-111422231D01*
X195495838Y-111422127D01*
X195495836Y-111422127D01*
X195491385Y-111422100D01*
X195437011Y-111437641D01*
X195429623Y-111439275D01*
X195417187Y-111441244D01*
X195412804Y-111443477D01*
X195411870Y-111443781D01*
X195402155Y-111447603D01*
X195377929Y-111454526D01*
X195377927Y-111454527D01*
X195373644Y-111455751D01*
X195314119Y-111493309D01*
X195312819Y-111494129D01*
X195307842Y-111496959D01*
X195301757Y-111500059D01*
X195301756Y-111500060D01*
X195297375Y-111502292D01*
X195293897Y-111505770D01*
X195292445Y-111506825D01*
X195289058Y-111509120D01*
X195270080Y-111521095D01*
X195267137Y-111524427D01*
X195267135Y-111524429D01*
X195207156Y-111592342D01*
X195206032Y-111593538D01*
X195205775Y-111593892D01*
X195205554Y-111594113D01*
X195205405Y-111594204D01*
X195204504Y-111595163D01*
X195202292Y-111597375D01*
X195201509Y-111596592D01*
X195200362Y-111597296D01*
X195201721Y-111598496D01*
X195193385Y-111607935D01*
X195189018Y-111612879D01*
X195184465Y-111622577D01*
X195138868Y-111719695D01*
X195138867Y-111719698D01*
X195136976Y-111723726D01*
X195118136Y-111844724D01*
X184370754Y-111844724D01*
X184346174Y-111742342D01*
X184329271Y-111671937D01*
X184329270Y-111671934D01*
X184328696Y-111669543D01*
X184325349Y-111661461D01*
X184278818Y-111549127D01*
X184235331Y-111444139D01*
X184221504Y-111421575D01*
X184109140Y-111238214D01*
X184109138Y-111238211D01*
X184107854Y-111236116D01*
X183949405Y-111050595D01*
X183763884Y-110892146D01*
X183761789Y-110890862D01*
X183761786Y-110890860D01*
X183604906Y-110794724D01*
X194368136Y-110794724D01*
X194368713Y-110799137D01*
X194368713Y-110799138D01*
X194380876Y-110892146D01*
X194384014Y-110916145D01*
X194391185Y-110932443D01*
X194391244Y-110932813D01*
X194392007Y-110934311D01*
X194433333Y-111028230D01*
X194447272Y-111044813D01*
X194448029Y-111045713D01*
X194450157Y-111048434D01*
X194452292Y-111052625D01*
X194460081Y-111060414D01*
X194463729Y-111064391D01*
X194512127Y-111121968D01*
X194535399Y-111137459D01*
X194541836Y-111142733D01*
X194543899Y-111144232D01*
X194547375Y-111147708D01*
X194551753Y-111149939D01*
X194551756Y-111149941D01*
X194558730Y-111153494D01*
X194564977Y-111157148D01*
X194614064Y-111189823D01*
X194618313Y-111191151D01*
X194618314Y-111191151D01*
X194650296Y-111201143D01*
X194660027Y-111205109D01*
X194662799Y-111206521D01*
X194662803Y-111206522D01*
X194667187Y-111208756D01*
X194677852Y-111210445D01*
X194686713Y-111212520D01*
X194726696Y-111225012D01*
X194726699Y-111225012D01*
X194730948Y-111226340D01*
X194780069Y-111227241D01*
X194788683Y-111227999D01*
X194795140Y-111229022D01*
X194795144Y-111229022D01*
X194800000Y-111229791D01*
X194806947Y-111228690D01*
X194817853Y-111227933D01*
X194853383Y-111228584D01*
X194913532Y-111212185D01*
X194920190Y-111210755D01*
X194922147Y-111210445D01*
X194932813Y-111208756D01*
X194937196Y-111206522D01*
X194941875Y-111205002D01*
X194941878Y-111205010D01*
X194946727Y-111203136D01*
X194971527Y-111196375D01*
X195039709Y-111154511D01*
X195044037Y-111152085D01*
X195048240Y-111149944D01*
X195048248Y-111149938D01*
X195052625Y-111147708D01*
X195055427Y-111144906D01*
X195056264Y-111144346D01*
X195058891Y-111142733D01*
X195075881Y-111132301D01*
X195158058Y-111041513D01*
X195211451Y-110931311D01*
X195213317Y-110920224D01*
X195231367Y-110812928D01*
X195231767Y-110810552D01*
X195231896Y-110800000D01*
X195214536Y-110678781D01*
X195163852Y-110567307D01*
X195149199Y-110550302D01*
X195147708Y-110547375D01*
X195141900Y-110541567D01*
X195138746Y-110538170D01*
X195086826Y-110477914D01*
X195083918Y-110474539D01*
X195063741Y-110461461D01*
X195060155Y-110458559D01*
X195060081Y-110458661D01*
X195056106Y-110455773D01*
X195052625Y-110452292D01*
X195041343Y-110446543D01*
X195035736Y-110443309D01*
X194984893Y-110410354D01*
X194984890Y-110410353D01*
X194981160Y-110407935D01*
X194976901Y-110406661D01*
X194976898Y-110406660D01*
X194956894Y-110400678D01*
X194948839Y-110398269D01*
X194938377Y-110394079D01*
X194932813Y-110391244D01*
X194921067Y-110389384D01*
X194912951Y-110387536D01*
X194863838Y-110372848D01*
X194819496Y-110372577D01*
X194810103Y-110371809D01*
X194804857Y-110370978D01*
X194804856Y-110370978D01*
X194800000Y-110370209D01*
X194791373Y-110371576D01*
X194781220Y-110372344D01*
X194762836Y-110372231D01*
X194745838Y-110372127D01*
X194745836Y-110372127D01*
X194741385Y-110372100D01*
X194687011Y-110387641D01*
X194679623Y-110389275D01*
X194667187Y-110391244D01*
X194662804Y-110393477D01*
X194661870Y-110393781D01*
X194652155Y-110397603D01*
X194627929Y-110404526D01*
X194627927Y-110404527D01*
X194623644Y-110405751D01*
X194564119Y-110443309D01*
X194562819Y-110444129D01*
X194557842Y-110446959D01*
X194551757Y-110450059D01*
X194551756Y-110450060D01*
X194547375Y-110452292D01*
X194543897Y-110455770D01*
X194542445Y-110456825D01*
X194539058Y-110459120D01*
X194520080Y-110471095D01*
X194517137Y-110474427D01*
X194517135Y-110474429D01*
X194457156Y-110542342D01*
X194456032Y-110543538D01*
X194455775Y-110543892D01*
X194455554Y-110544113D01*
X194455405Y-110544204D01*
X194454504Y-110545163D01*
X194452292Y-110547375D01*
X194451509Y-110546592D01*
X194450362Y-110547296D01*
X194451721Y-110548496D01*
X194439018Y-110562879D01*
X194437127Y-110566907D01*
X194388868Y-110669695D01*
X194388867Y-110669698D01*
X194386976Y-110673726D01*
X194368136Y-110794724D01*
X183604906Y-110794724D01*
X183557953Y-110765951D01*
X183555861Y-110764669D01*
X183400033Y-110700123D01*
X183332727Y-110672244D01*
X183332724Y-110672243D01*
X183330457Y-110671304D01*
X183328066Y-110670730D01*
X183328063Y-110670729D01*
X183176887Y-110634435D01*
X183093223Y-110614349D01*
X182850000Y-110595207D01*
X182606777Y-110614349D01*
X182523113Y-110634435D01*
X182371937Y-110670729D01*
X182371934Y-110670730D01*
X182369543Y-110671304D01*
X182367276Y-110672243D01*
X182367273Y-110672244D01*
X182299967Y-110700123D01*
X182144139Y-110764669D01*
X182142047Y-110765951D01*
X181938214Y-110890860D01*
X181938211Y-110890862D01*
X181936116Y-110892146D01*
X181750595Y-111050595D01*
X181592146Y-111236116D01*
X181590862Y-111238211D01*
X181590860Y-111238214D01*
X181478496Y-111421575D01*
X181464669Y-111444139D01*
X181421182Y-111549127D01*
X181374652Y-111661461D01*
X181371304Y-111669543D01*
X181370730Y-111671934D01*
X181370729Y-111671937D01*
X181353826Y-111742342D01*
X181314349Y-111906777D01*
X181297576Y-112119897D01*
X181295207Y-112150000D01*
X180200000Y-112150000D01*
X180200000Y-109570359D01*
X216268058Y-109570359D01*
X216281611Y-109777135D01*
X216332619Y-109977980D01*
X216419373Y-110166165D01*
X216538970Y-110335390D01*
X216687402Y-110479986D01*
X216859699Y-110595111D01*
X217050091Y-110676910D01*
X217052877Y-110677540D01*
X217052882Y-110677542D01*
X217249411Y-110722012D01*
X217249414Y-110722012D01*
X217252201Y-110722643D01*
X217343531Y-110726231D01*
X217456402Y-110730666D01*
X217456406Y-110730666D01*
X217459262Y-110730778D01*
X217664337Y-110701044D01*
X217860560Y-110634435D01*
X218041359Y-110533183D01*
X218200678Y-110400678D01*
X218333183Y-110241359D01*
X218434435Y-110060560D01*
X218501044Y-109864337D01*
X218513284Y-109779915D01*
X218530515Y-109661078D01*
X218530515Y-109661073D01*
X218530778Y-109659262D01*
X218532330Y-109600000D01*
X218529607Y-109570359D01*
X218513631Y-109396504D01*
X218513369Y-109393649D01*
X218512590Y-109390886D01*
X218457899Y-109196966D01*
X218457897Y-109196962D01*
X218457121Y-109194209D01*
X218365470Y-109008359D01*
X218348643Y-108985825D01*
X218243202Y-108844622D01*
X218243201Y-108844620D01*
X218241485Y-108842323D01*
X218089319Y-108701662D01*
X217914067Y-108591087D01*
X217721599Y-108514300D01*
X217718793Y-108513742D01*
X217718790Y-108513741D01*
X217521167Y-108474431D01*
X217521165Y-108474431D01*
X217518361Y-108473873D01*
X217420846Y-108472597D01*
X217314020Y-108471198D01*
X217314015Y-108471198D01*
X217311158Y-108471161D01*
X217308337Y-108471646D01*
X217308333Y-108471646D01*
X217188768Y-108492191D01*
X217106931Y-108506253D01*
X217104243Y-108507245D01*
X217104238Y-108507246D01*
X216915207Y-108576984D01*
X216915204Y-108576985D01*
X216912519Y-108577976D01*
X216734433Y-108683926D01*
X216578637Y-108820555D01*
X216576861Y-108822808D01*
X216576860Y-108822809D01*
X216561477Y-108842323D01*
X216450348Y-108983289D01*
X216353863Y-109166676D01*
X216353016Y-109169403D01*
X216353015Y-109169406D01*
X216294325Y-109358422D01*
X216292414Y-109364575D01*
X216268058Y-109570359D01*
X180200000Y-109570359D01*
X180200000Y-107855990D01*
X180825001Y-107855990D01*
X180825386Y-107860878D01*
X180839993Y-107953113D01*
X180842994Y-107962349D01*
X180899651Y-108073544D01*
X180905359Y-108081400D01*
X180993600Y-108169641D01*
X181001456Y-108175349D01*
X181112649Y-108232005D01*
X181121888Y-108235007D01*
X181214122Y-108249616D01*
X181219009Y-108250000D01*
X181612569Y-108250000D01*
X181621359Y-108246359D01*
X181625000Y-108237569D01*
X181625000Y-108237568D01*
X181825000Y-108237568D01*
X181828641Y-108246358D01*
X181837431Y-108249999D01*
X182230990Y-108249999D01*
X182235878Y-108249614D01*
X182328113Y-108235007D01*
X182337349Y-108232006D01*
X182448544Y-108175349D01*
X182456400Y-108169641D01*
X182544641Y-108081400D01*
X182550349Y-108073544D01*
X182607005Y-107962351D01*
X182610007Y-107953112D01*
X182624616Y-107860878D01*
X182625000Y-107855991D01*
X182625000Y-107712431D01*
X182621359Y-107703641D01*
X182612569Y-107700000D01*
X181837431Y-107700000D01*
X181828641Y-107703641D01*
X181825000Y-107712431D01*
X181825000Y-108237568D01*
X181625000Y-108237568D01*
X181625000Y-107712431D01*
X181621359Y-107703641D01*
X181612569Y-107700000D01*
X180837432Y-107700000D01*
X180828642Y-107703641D01*
X180825001Y-107712431D01*
X180825001Y-107855990D01*
X180200000Y-107855990D01*
X180200000Y-107487569D01*
X180825000Y-107487569D01*
X180828641Y-107496359D01*
X180837431Y-107500000D01*
X182612568Y-107500000D01*
X182621358Y-107496359D01*
X182624999Y-107487569D01*
X182624999Y-107344010D01*
X182624614Y-107339122D01*
X182610007Y-107246887D01*
X182607006Y-107237651D01*
X182550349Y-107126456D01*
X182544641Y-107118600D01*
X182456400Y-107030359D01*
X182448544Y-107024651D01*
X182337351Y-106967995D01*
X182328113Y-106964993D01*
X182301090Y-106960713D01*
X182260304Y-106935719D01*
X182249136Y-106889205D01*
X182272820Y-106849397D01*
X182383630Y-106764370D01*
X182386878Y-106761878D01*
X182479445Y-106641242D01*
X182537635Y-106500758D01*
X182545048Y-106444456D01*
X182556948Y-106354064D01*
X182557483Y-106350000D01*
X182554117Y-106324433D01*
X182538170Y-106203305D01*
X182538170Y-106203304D01*
X182537635Y-106199242D01*
X182519754Y-106156072D01*
X182481013Y-106062544D01*
X182481012Y-106062543D01*
X182479445Y-106058759D01*
X182430310Y-105994724D01*
X186368136Y-105994724D01*
X186368713Y-105999137D01*
X186368713Y-105999138D01*
X186376510Y-106058759D01*
X186384014Y-106116145D01*
X186391185Y-106132443D01*
X186391244Y-106132813D01*
X186392007Y-106134311D01*
X186394031Y-106138910D01*
X186394031Y-106138911D01*
X186422366Y-106203305D01*
X186433333Y-106228230D01*
X186447272Y-106244813D01*
X186448029Y-106245713D01*
X186450157Y-106248434D01*
X186452292Y-106252625D01*
X186460081Y-106260414D01*
X186463729Y-106264391D01*
X186512127Y-106321968D01*
X186535399Y-106337459D01*
X186541836Y-106342733D01*
X186543899Y-106344232D01*
X186547375Y-106347708D01*
X186551753Y-106349939D01*
X186551756Y-106349941D01*
X186558730Y-106353494D01*
X186564977Y-106357148D01*
X186614064Y-106389823D01*
X186618313Y-106391151D01*
X186618314Y-106391151D01*
X186650296Y-106401143D01*
X186660027Y-106405109D01*
X186662799Y-106406521D01*
X186662803Y-106406522D01*
X186667187Y-106408756D01*
X186677852Y-106410445D01*
X186686713Y-106412520D01*
X186726696Y-106425012D01*
X186726699Y-106425012D01*
X186730948Y-106426340D01*
X186780069Y-106427241D01*
X186788683Y-106427999D01*
X186795140Y-106429022D01*
X186795144Y-106429022D01*
X186800000Y-106429791D01*
X186806947Y-106428690D01*
X186817853Y-106427933D01*
X186853383Y-106428584D01*
X186913532Y-106412185D01*
X186920190Y-106410755D01*
X186922147Y-106410445D01*
X186932813Y-106408756D01*
X186937196Y-106406522D01*
X186941875Y-106405002D01*
X186941878Y-106405010D01*
X186946727Y-106403136D01*
X186971527Y-106396375D01*
X187039709Y-106354511D01*
X187044037Y-106352085D01*
X187048240Y-106349944D01*
X187048248Y-106349938D01*
X187052625Y-106347708D01*
X187055427Y-106344906D01*
X187056264Y-106344346D01*
X187058891Y-106342733D01*
X187075881Y-106332301D01*
X187158058Y-106241513D01*
X187211451Y-106131311D01*
X187213317Y-106120224D01*
X187231367Y-106012928D01*
X187231767Y-106010552D01*
X187231896Y-106000000D01*
X187214536Y-105878781D01*
X187163852Y-105767307D01*
X187149199Y-105750302D01*
X187147708Y-105747375D01*
X187141900Y-105741567D01*
X187138746Y-105738170D01*
X187086826Y-105677914D01*
X187083918Y-105674539D01*
X187063741Y-105661461D01*
X187060155Y-105658559D01*
X187060081Y-105658661D01*
X187056106Y-105655773D01*
X187052625Y-105652292D01*
X187041343Y-105646543D01*
X187035736Y-105643309D01*
X186984893Y-105610354D01*
X186984890Y-105610353D01*
X186981160Y-105607935D01*
X186976901Y-105606661D01*
X186976898Y-105606660D01*
X186958345Y-105601112D01*
X186948839Y-105598269D01*
X186938377Y-105594079D01*
X186932813Y-105591244D01*
X186921067Y-105589384D01*
X186912951Y-105587536D01*
X186863838Y-105572848D01*
X186819496Y-105572577D01*
X186810103Y-105571809D01*
X186804857Y-105570978D01*
X186804856Y-105570978D01*
X186800000Y-105570209D01*
X186791373Y-105571576D01*
X186781220Y-105572344D01*
X186762836Y-105572231D01*
X186745838Y-105572127D01*
X186745836Y-105572127D01*
X186741385Y-105572100D01*
X186687011Y-105587641D01*
X186679623Y-105589275D01*
X186667187Y-105591244D01*
X186662804Y-105593477D01*
X186661870Y-105593781D01*
X186652155Y-105597603D01*
X186627929Y-105604526D01*
X186627927Y-105604527D01*
X186623644Y-105605751D01*
X186564119Y-105643309D01*
X186562819Y-105644129D01*
X186557842Y-105646959D01*
X186551757Y-105650059D01*
X186551756Y-105650060D01*
X186547375Y-105652292D01*
X186543897Y-105655770D01*
X186542445Y-105656825D01*
X186539058Y-105659120D01*
X186520080Y-105671095D01*
X186517137Y-105674427D01*
X186517135Y-105674429D01*
X186457156Y-105742342D01*
X186456032Y-105743538D01*
X186455775Y-105743892D01*
X186455554Y-105744113D01*
X186455405Y-105744204D01*
X186454504Y-105745163D01*
X186452292Y-105747375D01*
X186451509Y-105746592D01*
X186450362Y-105747296D01*
X186451721Y-105748496D01*
X186446409Y-105754511D01*
X186439018Y-105762879D01*
X186437127Y-105766907D01*
X186388868Y-105869695D01*
X186388867Y-105869698D01*
X186386976Y-105873726D01*
X186368136Y-105994724D01*
X182430310Y-105994724D01*
X182386878Y-105938122D01*
X182266241Y-105845555D01*
X182262456Y-105843987D01*
X182129544Y-105788933D01*
X182129543Y-105788933D01*
X182125758Y-105787365D01*
X182121696Y-105786830D01*
X182117739Y-105785770D01*
X182118129Y-105784315D01*
X182081293Y-105763047D01*
X182068913Y-105716841D01*
X182092831Y-105675415D01*
X182117948Y-105665011D01*
X182117739Y-105664230D01*
X182121696Y-105663170D01*
X182125758Y-105662635D01*
X182129543Y-105661067D01*
X182129544Y-105661067D01*
X182262456Y-105606013D01*
X182262457Y-105606012D01*
X182266241Y-105604445D01*
X182386878Y-105511878D01*
X182476773Y-105394724D01*
X194268136Y-105394724D01*
X194268713Y-105399137D01*
X194268713Y-105399138D01*
X194283436Y-105511726D01*
X194284014Y-105516145D01*
X194291185Y-105532443D01*
X194291244Y-105532813D01*
X194292007Y-105534311D01*
X194294031Y-105538910D01*
X194294031Y-105538911D01*
X194319857Y-105597603D01*
X194333333Y-105628230D01*
X194347272Y-105644813D01*
X194348029Y-105645713D01*
X194350157Y-105648434D01*
X194352292Y-105652625D01*
X194360081Y-105660414D01*
X194363729Y-105664391D01*
X194412127Y-105721968D01*
X194435399Y-105737459D01*
X194441836Y-105742733D01*
X194443899Y-105744232D01*
X194447375Y-105747708D01*
X194451753Y-105749939D01*
X194451756Y-105749941D01*
X194458730Y-105753494D01*
X194464977Y-105757148D01*
X194514064Y-105789823D01*
X194518313Y-105791151D01*
X194518314Y-105791151D01*
X194550296Y-105801143D01*
X194560027Y-105805109D01*
X194562799Y-105806521D01*
X194562803Y-105806522D01*
X194567187Y-105808756D01*
X194577852Y-105810445D01*
X194586713Y-105812520D01*
X194626696Y-105825012D01*
X194626699Y-105825012D01*
X194630948Y-105826340D01*
X194680069Y-105827241D01*
X194688683Y-105827999D01*
X194695140Y-105829022D01*
X194695144Y-105829022D01*
X194700000Y-105829791D01*
X194706947Y-105828690D01*
X194717853Y-105827933D01*
X194753383Y-105828584D01*
X194813532Y-105812185D01*
X194820190Y-105810755D01*
X194822147Y-105810445D01*
X194832813Y-105808756D01*
X194837196Y-105806522D01*
X194841875Y-105805002D01*
X194841878Y-105805010D01*
X194846727Y-105803136D01*
X194871527Y-105796375D01*
X194883648Y-105788933D01*
X194939709Y-105754511D01*
X194944037Y-105752085D01*
X194948240Y-105749944D01*
X194948248Y-105749938D01*
X194952625Y-105747708D01*
X194955427Y-105744906D01*
X194956264Y-105744346D01*
X194956751Y-105744047D01*
X194975881Y-105732301D01*
X195058058Y-105641513D01*
X195111451Y-105531311D01*
X195113317Y-105520224D01*
X195131367Y-105412928D01*
X195131767Y-105410552D01*
X195131896Y-105400000D01*
X195114536Y-105278781D01*
X195063852Y-105167307D01*
X195049199Y-105150302D01*
X195047708Y-105147375D01*
X195041900Y-105141567D01*
X195038746Y-105138170D01*
X194986826Y-105077914D01*
X194983918Y-105074539D01*
X194963741Y-105061461D01*
X194960155Y-105058559D01*
X194960081Y-105058661D01*
X194956106Y-105055773D01*
X194952625Y-105052292D01*
X194941343Y-105046543D01*
X194935736Y-105043309D01*
X194884893Y-105010354D01*
X194884890Y-105010353D01*
X194881160Y-105007935D01*
X194876901Y-105006661D01*
X194876898Y-105006660D01*
X194858345Y-105001112D01*
X194848839Y-104998269D01*
X194838377Y-104994079D01*
X194832813Y-104991244D01*
X194821067Y-104989384D01*
X194812951Y-104987536D01*
X194763838Y-104972848D01*
X194719496Y-104972577D01*
X194710103Y-104971809D01*
X194704857Y-104970978D01*
X194704856Y-104970978D01*
X194700000Y-104970209D01*
X194691373Y-104971576D01*
X194681220Y-104972344D01*
X194662836Y-104972231D01*
X194645838Y-104972127D01*
X194645836Y-104972127D01*
X194641385Y-104972100D01*
X194587011Y-104987641D01*
X194579623Y-104989275D01*
X194567187Y-104991244D01*
X194562804Y-104993477D01*
X194561870Y-104993781D01*
X194552155Y-104997603D01*
X194527929Y-105004526D01*
X194527927Y-105004527D01*
X194523644Y-105005751D01*
X194464119Y-105043309D01*
X194462819Y-105044129D01*
X194457842Y-105046959D01*
X194451757Y-105050059D01*
X194451756Y-105050060D01*
X194447375Y-105052292D01*
X194443897Y-105055770D01*
X194442445Y-105056825D01*
X194439058Y-105059120D01*
X194420080Y-105071095D01*
X194417137Y-105074427D01*
X194417135Y-105074429D01*
X194357156Y-105142342D01*
X194356032Y-105143538D01*
X194355775Y-105143892D01*
X194355554Y-105144113D01*
X194355405Y-105144204D01*
X194354504Y-105145163D01*
X194352292Y-105147375D01*
X194351509Y-105146592D01*
X194350362Y-105147296D01*
X194351721Y-105148496D01*
X194339018Y-105162879D01*
X194337127Y-105166907D01*
X194288868Y-105269695D01*
X194288867Y-105269698D01*
X194286976Y-105273726D01*
X194268136Y-105394724D01*
X182476773Y-105394724D01*
X182479445Y-105391242D01*
X182527707Y-105274726D01*
X182536069Y-105254539D01*
X182536069Y-105254538D01*
X182537635Y-105250758D01*
X182548675Y-105166907D01*
X182556948Y-105104064D01*
X182557483Y-105100000D01*
X182554131Y-105074539D01*
X182538170Y-104953305D01*
X182538170Y-104953304D01*
X182537635Y-104949242D01*
X182487623Y-104828501D01*
X182481013Y-104812544D01*
X182481012Y-104812543D01*
X182479445Y-104808759D01*
X182386878Y-104688122D01*
X182320913Y-104637506D01*
X182269490Y-104598048D01*
X182266241Y-104595555D01*
X182262456Y-104593987D01*
X182129544Y-104538933D01*
X182129543Y-104538933D01*
X182125758Y-104537365D01*
X182121696Y-104536830D01*
X182117739Y-104535770D01*
X182118129Y-104534315D01*
X182081293Y-104513047D01*
X182068913Y-104466841D01*
X182092831Y-104425415D01*
X182117948Y-104415011D01*
X182117739Y-104414230D01*
X182121696Y-104413170D01*
X182125758Y-104412635D01*
X182129543Y-104411067D01*
X182129544Y-104411067D01*
X182168999Y-104394724D01*
X186868136Y-104394724D01*
X186868713Y-104399137D01*
X186868713Y-104399138D01*
X186879700Y-104483159D01*
X186884014Y-104516145D01*
X186891185Y-104532443D01*
X186891244Y-104532813D01*
X186892007Y-104534311D01*
X186933333Y-104628230D01*
X186947272Y-104644813D01*
X186948029Y-104645713D01*
X186950157Y-104648434D01*
X186952292Y-104652625D01*
X186960081Y-104660414D01*
X186963729Y-104664391D01*
X187012127Y-104721968D01*
X187035399Y-104737459D01*
X187041836Y-104742733D01*
X187043899Y-104744232D01*
X187047375Y-104747708D01*
X187051753Y-104749939D01*
X187051756Y-104749941D01*
X187058730Y-104753494D01*
X187064977Y-104757148D01*
X187114064Y-104789823D01*
X187118313Y-104791151D01*
X187118314Y-104791151D01*
X187150296Y-104801143D01*
X187160027Y-104805109D01*
X187162799Y-104806521D01*
X187162803Y-104806522D01*
X187167187Y-104808756D01*
X187177852Y-104810445D01*
X187186713Y-104812520D01*
X187226696Y-104825012D01*
X187226699Y-104825012D01*
X187230948Y-104826340D01*
X187280069Y-104827241D01*
X187288683Y-104827999D01*
X187295140Y-104829022D01*
X187295144Y-104829022D01*
X187300000Y-104829791D01*
X187306947Y-104828690D01*
X187317853Y-104827933D01*
X187353383Y-104828584D01*
X187413532Y-104812185D01*
X187420190Y-104810755D01*
X187422147Y-104810445D01*
X187432813Y-104808756D01*
X187437196Y-104806522D01*
X187441875Y-104805002D01*
X187441878Y-104805010D01*
X187446727Y-104803136D01*
X187471527Y-104796375D01*
X187539709Y-104754511D01*
X187544037Y-104752085D01*
X187548240Y-104749944D01*
X187548248Y-104749938D01*
X187552625Y-104747708D01*
X187555427Y-104744906D01*
X187556264Y-104744346D01*
X187558891Y-104742733D01*
X187575881Y-104732301D01*
X187658058Y-104641513D01*
X187711451Y-104531311D01*
X187712934Y-104522500D01*
X187728916Y-104427500D01*
X187731767Y-104410552D01*
X187731896Y-104400000D01*
X187714536Y-104278781D01*
X187663852Y-104167307D01*
X187649199Y-104150302D01*
X187647708Y-104147375D01*
X187641900Y-104141567D01*
X187638746Y-104138170D01*
X187586826Y-104077914D01*
X187583918Y-104074539D01*
X187563741Y-104061461D01*
X187560155Y-104058559D01*
X187560081Y-104058661D01*
X187556106Y-104055773D01*
X187552625Y-104052292D01*
X187541343Y-104046543D01*
X187535736Y-104043309D01*
X187484893Y-104010354D01*
X187484890Y-104010353D01*
X187481160Y-104007935D01*
X187476901Y-104006661D01*
X187476898Y-104006660D01*
X187457161Y-104000758D01*
X187448839Y-103998269D01*
X187438377Y-103994079D01*
X187432813Y-103991244D01*
X187421067Y-103989384D01*
X187412951Y-103987536D01*
X187363838Y-103972848D01*
X187319496Y-103972577D01*
X187310103Y-103971809D01*
X187304857Y-103970978D01*
X187304856Y-103970978D01*
X187300000Y-103970209D01*
X187291373Y-103971576D01*
X187281220Y-103972344D01*
X187262836Y-103972231D01*
X187245838Y-103972127D01*
X187245836Y-103972127D01*
X187241385Y-103972100D01*
X187187011Y-103987641D01*
X187179623Y-103989275D01*
X187167187Y-103991244D01*
X187162804Y-103993477D01*
X187161870Y-103993781D01*
X187152155Y-103997603D01*
X187127929Y-104004526D01*
X187127927Y-104004527D01*
X187123644Y-104005751D01*
X187064119Y-104043309D01*
X187062819Y-104044129D01*
X187057842Y-104046959D01*
X187051757Y-104050059D01*
X187051756Y-104050060D01*
X187047375Y-104052292D01*
X187043897Y-104055770D01*
X187042445Y-104056825D01*
X187039058Y-104059120D01*
X187020080Y-104071095D01*
X187017137Y-104074427D01*
X187017135Y-104074429D01*
X186957156Y-104142342D01*
X186956032Y-104143538D01*
X186955775Y-104143892D01*
X186955554Y-104144113D01*
X186955405Y-104144204D01*
X186954504Y-104145163D01*
X186952292Y-104147375D01*
X186951509Y-104146592D01*
X186950362Y-104147296D01*
X186951721Y-104148496D01*
X186939018Y-104162879D01*
X186937127Y-104166907D01*
X186888868Y-104269695D01*
X186888867Y-104269698D01*
X186886976Y-104273726D01*
X186868136Y-104394724D01*
X182168999Y-104394724D01*
X182262456Y-104356013D01*
X182262457Y-104356012D01*
X182266241Y-104354445D01*
X182386878Y-104261878D01*
X182479445Y-104141242D01*
X182513977Y-104057874D01*
X182536069Y-104004539D01*
X182536069Y-104004538D01*
X182537635Y-104000758D01*
X182538177Y-103996648D01*
X182556948Y-103854064D01*
X182557483Y-103850000D01*
X182537635Y-103699242D01*
X182479445Y-103558759D01*
X182386878Y-103438122D01*
X182266241Y-103345555D01*
X182262456Y-103343987D01*
X182129544Y-103288933D01*
X182129543Y-103288933D01*
X182125758Y-103287365D01*
X182121696Y-103286830D01*
X182117739Y-103285770D01*
X182118129Y-103284315D01*
X182081293Y-103263047D01*
X182068913Y-103216841D01*
X182092831Y-103175415D01*
X182117948Y-103165011D01*
X182117739Y-103164230D01*
X182121696Y-103163170D01*
X182125758Y-103162635D01*
X182129543Y-103161067D01*
X182129544Y-103161067D01*
X182262456Y-103106013D01*
X182262457Y-103106012D01*
X182266241Y-103104445D01*
X182386878Y-103011878D01*
X182479445Y-102891242D01*
X182537635Y-102750758D01*
X182557483Y-102600000D01*
X182537635Y-102449242D01*
X182479445Y-102308759D01*
X182386878Y-102188122D01*
X182266241Y-102095555D01*
X182262456Y-102093987D01*
X182129544Y-102038933D01*
X182129543Y-102038933D01*
X182125758Y-102037365D01*
X182121696Y-102036830D01*
X182121695Y-102036830D01*
X182014880Y-102022767D01*
X182014874Y-102022767D01*
X182012849Y-102022500D01*
X181437151Y-102022500D01*
X181435126Y-102022767D01*
X181435120Y-102022767D01*
X181328305Y-102036830D01*
X181328304Y-102036830D01*
X181324242Y-102037365D01*
X181320457Y-102038933D01*
X181320456Y-102038933D01*
X181187544Y-102093987D01*
X181183759Y-102095555D01*
X181063122Y-102188122D01*
X180970555Y-102308758D01*
X180912365Y-102449242D01*
X180892517Y-102600000D01*
X180912365Y-102750758D01*
X180970555Y-102891241D01*
X181063122Y-103011878D01*
X181183759Y-103104445D01*
X181187543Y-103106012D01*
X181187544Y-103106013D01*
X181320456Y-103161067D01*
X181320457Y-103161067D01*
X181324242Y-103162635D01*
X181328304Y-103163170D01*
X181332261Y-103164230D01*
X181331871Y-103165685D01*
X181368707Y-103186953D01*
X181381087Y-103233159D01*
X181357169Y-103274585D01*
X181332052Y-103284989D01*
X181332261Y-103285770D01*
X181328304Y-103286830D01*
X181324242Y-103287365D01*
X181320457Y-103288933D01*
X181320456Y-103288933D01*
X181187544Y-103343987D01*
X181183759Y-103345555D01*
X181063122Y-103438122D01*
X180970555Y-103558758D01*
X180912365Y-103699242D01*
X180892517Y-103850000D01*
X180893052Y-103854064D01*
X180908859Y-103974124D01*
X180912365Y-104000758D01*
X180913933Y-104004543D01*
X180913933Y-104004544D01*
X180942926Y-104074539D01*
X180970555Y-104141241D01*
X181063122Y-104261878D01*
X181183759Y-104354445D01*
X181187543Y-104356012D01*
X181187544Y-104356013D01*
X181320456Y-104411067D01*
X181320457Y-104411067D01*
X181324242Y-104412635D01*
X181328304Y-104413170D01*
X181332261Y-104414230D01*
X181331871Y-104415685D01*
X181368707Y-104436953D01*
X181381087Y-104483159D01*
X181357169Y-104524585D01*
X181332052Y-104534989D01*
X181332261Y-104535770D01*
X181328304Y-104536830D01*
X181324242Y-104537365D01*
X181320457Y-104538933D01*
X181320456Y-104538933D01*
X181187544Y-104593987D01*
X181183759Y-104595555D01*
X181063122Y-104688122D01*
X181060632Y-104691367D01*
X181060631Y-104691368D01*
X181013180Y-104753208D01*
X180970555Y-104808758D01*
X180968988Y-104812541D01*
X180962299Y-104828691D01*
X180912365Y-104949242D01*
X180911831Y-104953298D01*
X180911830Y-104953302D01*
X180895869Y-105074539D01*
X180892517Y-105100000D01*
X180893052Y-105104064D01*
X180898092Y-105142342D01*
X180912365Y-105250758D01*
X180913933Y-105254543D01*
X180913933Y-105254544D01*
X180925799Y-105283190D01*
X180970555Y-105391241D01*
X180973048Y-105394490D01*
X180977276Y-105400000D01*
X181063122Y-105511878D01*
X181183759Y-105604445D01*
X181187543Y-105606012D01*
X181187544Y-105606013D01*
X181320456Y-105661067D01*
X181320457Y-105661067D01*
X181324242Y-105662635D01*
X181328304Y-105663170D01*
X181332261Y-105664230D01*
X181331871Y-105665685D01*
X181368707Y-105686953D01*
X181381087Y-105733159D01*
X181357169Y-105774585D01*
X181332052Y-105784989D01*
X181332261Y-105785770D01*
X181328304Y-105786830D01*
X181324242Y-105787365D01*
X181320457Y-105788933D01*
X181320456Y-105788933D01*
X181187544Y-105843987D01*
X181183759Y-105845555D01*
X181063122Y-105938122D01*
X181060632Y-105941367D01*
X181060631Y-105941368D01*
X181017473Y-105997613D01*
X180970555Y-106058758D01*
X180912365Y-106199242D01*
X180911831Y-106203298D01*
X180911830Y-106203302D01*
X180895883Y-106324433D01*
X180892517Y-106350000D01*
X180893052Y-106354064D01*
X180902697Y-106427320D01*
X180912365Y-106500758D01*
X180970555Y-106641241D01*
X181063122Y-106761878D01*
X181177182Y-106849398D01*
X181201099Y-106890824D01*
X181188719Y-106937029D01*
X181148911Y-106960713D01*
X181121886Y-106964993D01*
X181112651Y-106967994D01*
X181001456Y-107024651D01*
X180993600Y-107030359D01*
X180905359Y-107118600D01*
X180899651Y-107126456D01*
X180842995Y-107237649D01*
X180839993Y-107246888D01*
X180825384Y-107339122D01*
X180825000Y-107344009D01*
X180825000Y-107487569D01*
X180200000Y-107487569D01*
X180200000Y-100694724D01*
X191468136Y-100694724D01*
X191468713Y-100699137D01*
X191468713Y-100699138D01*
X191483309Y-100810755D01*
X191484014Y-100816145D01*
X191485809Y-100820224D01*
X191489451Y-100828501D01*
X191491185Y-100832443D01*
X191491244Y-100832813D01*
X191492007Y-100834311D01*
X191533333Y-100928230D01*
X191547272Y-100944813D01*
X191548029Y-100945713D01*
X191550157Y-100948434D01*
X191552292Y-100952625D01*
X191560081Y-100960414D01*
X191563729Y-100964391D01*
X191612127Y-101021968D01*
X191635399Y-101037459D01*
X191641836Y-101042733D01*
X191643899Y-101044232D01*
X191647375Y-101047708D01*
X191651753Y-101049939D01*
X191651756Y-101049941D01*
X191658730Y-101053494D01*
X191664977Y-101057148D01*
X191714064Y-101089823D01*
X191718313Y-101091151D01*
X191718314Y-101091151D01*
X191750296Y-101101143D01*
X191760027Y-101105109D01*
X191762799Y-101106521D01*
X191762803Y-101106522D01*
X191767187Y-101108756D01*
X191777852Y-101110445D01*
X191786713Y-101112520D01*
X191826696Y-101125012D01*
X191826699Y-101125012D01*
X191830948Y-101126340D01*
X191880069Y-101127241D01*
X191888683Y-101127999D01*
X191895140Y-101129022D01*
X191895144Y-101129022D01*
X191900000Y-101129791D01*
X191906947Y-101128690D01*
X191917853Y-101127933D01*
X191953383Y-101128584D01*
X192013532Y-101112185D01*
X192020190Y-101110755D01*
X192022147Y-101110445D01*
X192032813Y-101108756D01*
X192037196Y-101106522D01*
X192041875Y-101105002D01*
X192041878Y-101105010D01*
X192046727Y-101103136D01*
X192071527Y-101096375D01*
X192139709Y-101054511D01*
X192144037Y-101052085D01*
X192148240Y-101049944D01*
X192148248Y-101049938D01*
X192152625Y-101047708D01*
X192155427Y-101044906D01*
X192156264Y-101044346D01*
X192158891Y-101042733D01*
X192175881Y-101032301D01*
X192258058Y-100941513D01*
X192311451Y-100831311D01*
X192312288Y-100826340D01*
X192329846Y-100721968D01*
X192331767Y-100710552D01*
X192331896Y-100700000D01*
X192314536Y-100578781D01*
X192263852Y-100467307D01*
X192249199Y-100450302D01*
X192247708Y-100447375D01*
X192241900Y-100441567D01*
X192238746Y-100438170D01*
X192204075Y-100397932D01*
X192201311Y-100394724D01*
X192568136Y-100394724D01*
X192568713Y-100399137D01*
X192568713Y-100399138D01*
X192578157Y-100471357D01*
X192584014Y-100516145D01*
X192591185Y-100532443D01*
X192591244Y-100532813D01*
X192592007Y-100534311D01*
X192594031Y-100538910D01*
X192594031Y-100538911D01*
X192613515Y-100583190D01*
X192633333Y-100628230D01*
X192647272Y-100644813D01*
X192648029Y-100645713D01*
X192650157Y-100648434D01*
X192652292Y-100652625D01*
X192660081Y-100660414D01*
X192663730Y-100664392D01*
X192700504Y-100708140D01*
X192712127Y-100721968D01*
X192735399Y-100737459D01*
X192741836Y-100742733D01*
X192743899Y-100744232D01*
X192747375Y-100747708D01*
X192751753Y-100749939D01*
X192751756Y-100749941D01*
X192758730Y-100753494D01*
X192764977Y-100757148D01*
X192814064Y-100789823D01*
X192818313Y-100791151D01*
X192818314Y-100791151D01*
X192850296Y-100801143D01*
X192860027Y-100805109D01*
X192862799Y-100806521D01*
X192862803Y-100806522D01*
X192867187Y-100808756D01*
X192877852Y-100810445D01*
X192886713Y-100812520D01*
X192926696Y-100825012D01*
X192926699Y-100825012D01*
X192930948Y-100826340D01*
X192980069Y-100827241D01*
X192988683Y-100827999D01*
X192995140Y-100829022D01*
X192995144Y-100829022D01*
X193000000Y-100829791D01*
X193006947Y-100828690D01*
X193017853Y-100827933D01*
X193053383Y-100828584D01*
X193113532Y-100812185D01*
X193120190Y-100810755D01*
X193122147Y-100810445D01*
X193132813Y-100808756D01*
X193137196Y-100806522D01*
X193141875Y-100805002D01*
X193141878Y-100805010D01*
X193146727Y-100803136D01*
X193171527Y-100796375D01*
X193239709Y-100754511D01*
X193244037Y-100752085D01*
X193248240Y-100749944D01*
X193248248Y-100749938D01*
X193252625Y-100747708D01*
X193255427Y-100744906D01*
X193256264Y-100744346D01*
X193258891Y-100742733D01*
X193275881Y-100732301D01*
X193358058Y-100641513D01*
X193411451Y-100531311D01*
X193413317Y-100520224D01*
X193425944Y-100445163D01*
X193431767Y-100410552D01*
X193431896Y-100400000D01*
X193414536Y-100278781D01*
X193363852Y-100167307D01*
X193349199Y-100150302D01*
X193347708Y-100147375D01*
X193341900Y-100141567D01*
X193338746Y-100138170D01*
X193286826Y-100077914D01*
X193283918Y-100074539D01*
X193263741Y-100061461D01*
X193260155Y-100058559D01*
X193260081Y-100058661D01*
X193256106Y-100055773D01*
X193252625Y-100052292D01*
X193241343Y-100046543D01*
X193235736Y-100043309D01*
X193184893Y-100010354D01*
X193184890Y-100010353D01*
X193181160Y-100007935D01*
X193176901Y-100006661D01*
X193176898Y-100006660D01*
X193158345Y-100001112D01*
X193148839Y-99998269D01*
X193138377Y-99994079D01*
X193132813Y-99991244D01*
X193121067Y-99989384D01*
X193112951Y-99987536D01*
X193081533Y-99978140D01*
X193063838Y-99972848D01*
X193019496Y-99972577D01*
X193010103Y-99971809D01*
X193004857Y-99970978D01*
X193004856Y-99970978D01*
X193000000Y-99970209D01*
X192991373Y-99971576D01*
X192981220Y-99972344D01*
X192962836Y-99972231D01*
X192945838Y-99972127D01*
X192945836Y-99972127D01*
X192941385Y-99972100D01*
X192887011Y-99987641D01*
X192879623Y-99989275D01*
X192867187Y-99991244D01*
X192862804Y-99993477D01*
X192861870Y-99993781D01*
X192852155Y-99997603D01*
X192827929Y-100004526D01*
X192827927Y-100004527D01*
X192823644Y-100005751D01*
X192819875Y-100008129D01*
X192816349Y-100010354D01*
X192764119Y-100043309D01*
X192762819Y-100044129D01*
X192757842Y-100046959D01*
X192751757Y-100050059D01*
X192751756Y-100050060D01*
X192747375Y-100052292D01*
X192743897Y-100055770D01*
X192742445Y-100056825D01*
X192739058Y-100059120D01*
X192720080Y-100071095D01*
X192717137Y-100074427D01*
X192717135Y-100074429D01*
X192657156Y-100142342D01*
X192656032Y-100143538D01*
X192655775Y-100143892D01*
X192655554Y-100144113D01*
X192655405Y-100144204D01*
X192654504Y-100145163D01*
X192652292Y-100147375D01*
X192651509Y-100146592D01*
X192650362Y-100147296D01*
X192651721Y-100148496D01*
X192639018Y-100162879D01*
X192637127Y-100166907D01*
X192588868Y-100269695D01*
X192588867Y-100269698D01*
X192586976Y-100273726D01*
X192568136Y-100394724D01*
X192201311Y-100394724D01*
X192183918Y-100374539D01*
X192163741Y-100361461D01*
X192160155Y-100358559D01*
X192160081Y-100358661D01*
X192156106Y-100355773D01*
X192152625Y-100352292D01*
X192141343Y-100346543D01*
X192135736Y-100343309D01*
X192084893Y-100310354D01*
X192084890Y-100310353D01*
X192081160Y-100307935D01*
X192076901Y-100306661D01*
X192076898Y-100306660D01*
X192058345Y-100301112D01*
X192048839Y-100298269D01*
X192038377Y-100294079D01*
X192032813Y-100291244D01*
X192021067Y-100289384D01*
X192012951Y-100287536D01*
X191998419Y-100283190D01*
X191963838Y-100272848D01*
X191919496Y-100272577D01*
X191910103Y-100271809D01*
X191904857Y-100270978D01*
X191904856Y-100270978D01*
X191900000Y-100270209D01*
X191891373Y-100271576D01*
X191881220Y-100272344D01*
X191862836Y-100272231D01*
X191845838Y-100272127D01*
X191845836Y-100272127D01*
X191841385Y-100272100D01*
X191787011Y-100287641D01*
X191779623Y-100289275D01*
X191767187Y-100291244D01*
X191762804Y-100293477D01*
X191761870Y-100293781D01*
X191752155Y-100297603D01*
X191727929Y-100304526D01*
X191727927Y-100304527D01*
X191723644Y-100305751D01*
X191719875Y-100308129D01*
X191712578Y-100312733D01*
X191664119Y-100343309D01*
X191662819Y-100344129D01*
X191657842Y-100346959D01*
X191651757Y-100350059D01*
X191651756Y-100350060D01*
X191647375Y-100352292D01*
X191643897Y-100355770D01*
X191642445Y-100356825D01*
X191639058Y-100359120D01*
X191620080Y-100371095D01*
X191617137Y-100374427D01*
X191617135Y-100374429D01*
X191557156Y-100442342D01*
X191556032Y-100443538D01*
X191555775Y-100443892D01*
X191555554Y-100444113D01*
X191555405Y-100444204D01*
X191554504Y-100445163D01*
X191552292Y-100447375D01*
X191551509Y-100446592D01*
X191550362Y-100447296D01*
X191551721Y-100448496D01*
X191539018Y-100462879D01*
X191537127Y-100466907D01*
X191488868Y-100569695D01*
X191488867Y-100569698D01*
X191486976Y-100573726D01*
X191468136Y-100694724D01*
X180200000Y-100694724D01*
X180200000Y-99964724D01*
X182178136Y-99964724D01*
X182178713Y-99969137D01*
X182178713Y-99969138D01*
X182192482Y-100074429D01*
X182194014Y-100086145D01*
X182201185Y-100102443D01*
X182201244Y-100102813D01*
X182202007Y-100104311D01*
X182204031Y-100108910D01*
X182204031Y-100108911D01*
X182219983Y-100145163D01*
X182243333Y-100198230D01*
X182257272Y-100214813D01*
X182258029Y-100215713D01*
X182260157Y-100218434D01*
X182262292Y-100222625D01*
X182270081Y-100230414D01*
X182273730Y-100234392D01*
X182318402Y-100287536D01*
X182322127Y-100291968D01*
X182345399Y-100307459D01*
X182351836Y-100312733D01*
X182353899Y-100314232D01*
X182357375Y-100317708D01*
X182361753Y-100319939D01*
X182361756Y-100319941D01*
X182368730Y-100323494D01*
X182374977Y-100327148D01*
X182424064Y-100359823D01*
X182428313Y-100361151D01*
X182428314Y-100361151D01*
X182460296Y-100371143D01*
X182470027Y-100375109D01*
X182472799Y-100376521D01*
X182472803Y-100376522D01*
X182477187Y-100378756D01*
X182487852Y-100380445D01*
X182496713Y-100382520D01*
X182536696Y-100395012D01*
X182536699Y-100395012D01*
X182540948Y-100396340D01*
X182590069Y-100397241D01*
X182598683Y-100397999D01*
X182605140Y-100399022D01*
X182605144Y-100399022D01*
X182610000Y-100399791D01*
X182616947Y-100398690D01*
X182627853Y-100397933D01*
X182663383Y-100398584D01*
X182723532Y-100382185D01*
X182730190Y-100380755D01*
X182732147Y-100380445D01*
X182742813Y-100378756D01*
X182747196Y-100376522D01*
X182751875Y-100375002D01*
X182751878Y-100375010D01*
X182756727Y-100373136D01*
X182781527Y-100366375D01*
X182794091Y-100358661D01*
X182849709Y-100324511D01*
X182854037Y-100322085D01*
X182858240Y-100319944D01*
X182858248Y-100319938D01*
X182862625Y-100317708D01*
X182865427Y-100314906D01*
X182866264Y-100314346D01*
X182868891Y-100312733D01*
X182885881Y-100302301D01*
X182968058Y-100211513D01*
X183021451Y-100101311D01*
X183023317Y-100090224D01*
X183037022Y-100008756D01*
X183041767Y-99980552D01*
X183041896Y-99970000D01*
X183024536Y-99848781D01*
X182973852Y-99737307D01*
X182959199Y-99720302D01*
X182957708Y-99717375D01*
X182951900Y-99711567D01*
X182948746Y-99708170D01*
X182896826Y-99647914D01*
X182893918Y-99644539D01*
X182873741Y-99631461D01*
X182870155Y-99628559D01*
X182870081Y-99628661D01*
X182866106Y-99625773D01*
X182862625Y-99622292D01*
X182851343Y-99616543D01*
X182845736Y-99613309D01*
X182845149Y-99612928D01*
X182817063Y-99594724D01*
X188968136Y-99594724D01*
X188968713Y-99599137D01*
X188968713Y-99599138D01*
X188982971Y-99708170D01*
X188984014Y-99716145D01*
X188991185Y-99732443D01*
X188991244Y-99732813D01*
X188992007Y-99734311D01*
X189033333Y-99828230D01*
X189046359Y-99843726D01*
X189048029Y-99845713D01*
X189050157Y-99848434D01*
X189052292Y-99852625D01*
X189060081Y-99860414D01*
X189063729Y-99864391D01*
X189112127Y-99921968D01*
X189135399Y-99937459D01*
X189141836Y-99942733D01*
X189143899Y-99944232D01*
X189147375Y-99947708D01*
X189151753Y-99949939D01*
X189151756Y-99949941D01*
X189158730Y-99953494D01*
X189164977Y-99957148D01*
X189214064Y-99989823D01*
X189218313Y-99991151D01*
X189218314Y-99991151D01*
X189250296Y-100001143D01*
X189260027Y-100005109D01*
X189262799Y-100006521D01*
X189262803Y-100006522D01*
X189267187Y-100008756D01*
X189277852Y-100010445D01*
X189286713Y-100012520D01*
X189326696Y-100025012D01*
X189326699Y-100025012D01*
X189330948Y-100026340D01*
X189380069Y-100027241D01*
X189388683Y-100027999D01*
X189395140Y-100029022D01*
X189395144Y-100029022D01*
X189400000Y-100029791D01*
X189406947Y-100028690D01*
X189417853Y-100027933D01*
X189453383Y-100028584D01*
X189513532Y-100012185D01*
X189520190Y-100010755D01*
X189522722Y-100010354D01*
X189532813Y-100008756D01*
X189537196Y-100006522D01*
X189541875Y-100005002D01*
X189541878Y-100005010D01*
X189546727Y-100003136D01*
X189571527Y-99996375D01*
X189576249Y-99993476D01*
X189639709Y-99954511D01*
X189644037Y-99952085D01*
X189648240Y-99949944D01*
X189648248Y-99949938D01*
X189652625Y-99947708D01*
X189655427Y-99944906D01*
X189656264Y-99944346D01*
X189658891Y-99942733D01*
X189675881Y-99932301D01*
X189758058Y-99841513D01*
X189811451Y-99731311D01*
X189813249Y-99720627D01*
X189826457Y-99642117D01*
X189831767Y-99610552D01*
X189831896Y-99600000D01*
X189814536Y-99478781D01*
X189763852Y-99367307D01*
X189749199Y-99350302D01*
X189747708Y-99347375D01*
X189741900Y-99341567D01*
X189738746Y-99338170D01*
X189686826Y-99277914D01*
X189683918Y-99274539D01*
X189663741Y-99261461D01*
X189660155Y-99258559D01*
X189660081Y-99258661D01*
X189656106Y-99255773D01*
X189652625Y-99252292D01*
X189641343Y-99246543D01*
X189635736Y-99243309D01*
X189584893Y-99210354D01*
X189584890Y-99210353D01*
X189581160Y-99207935D01*
X189576901Y-99206661D01*
X189576898Y-99206660D01*
X189558345Y-99201112D01*
X189548839Y-99198269D01*
X189538377Y-99194079D01*
X189532813Y-99191244D01*
X189521067Y-99189384D01*
X189512951Y-99187536D01*
X189463838Y-99172848D01*
X189419496Y-99172577D01*
X189410103Y-99171809D01*
X189404857Y-99170978D01*
X189404856Y-99170978D01*
X189400000Y-99170209D01*
X189391373Y-99171576D01*
X189381220Y-99172344D01*
X189362836Y-99172231D01*
X189345838Y-99172127D01*
X189345836Y-99172127D01*
X189341385Y-99172100D01*
X189287011Y-99187641D01*
X189279623Y-99189275D01*
X189267187Y-99191244D01*
X189262804Y-99193477D01*
X189261870Y-99193781D01*
X189252155Y-99197603D01*
X189227929Y-99204526D01*
X189227927Y-99204527D01*
X189223644Y-99205751D01*
X189164119Y-99243309D01*
X189162819Y-99244129D01*
X189157842Y-99246959D01*
X189151757Y-99250059D01*
X189151756Y-99250060D01*
X189147375Y-99252292D01*
X189143897Y-99255770D01*
X189142445Y-99256825D01*
X189139058Y-99259120D01*
X189120080Y-99271095D01*
X189117137Y-99274427D01*
X189117135Y-99274429D01*
X189057156Y-99342342D01*
X189056032Y-99343538D01*
X189055775Y-99343892D01*
X189055554Y-99344113D01*
X189055405Y-99344204D01*
X189054504Y-99345163D01*
X189052292Y-99347375D01*
X189051509Y-99346592D01*
X189050362Y-99347296D01*
X189051721Y-99348496D01*
X189039018Y-99362879D01*
X189037127Y-99366907D01*
X188988868Y-99469695D01*
X188988867Y-99469698D01*
X188986976Y-99473726D01*
X188968136Y-99594724D01*
X182817063Y-99594724D01*
X182810279Y-99590327D01*
X182794893Y-99580354D01*
X182794890Y-99580353D01*
X182791160Y-99577935D01*
X182786901Y-99576661D01*
X182786898Y-99576660D01*
X182768345Y-99571112D01*
X182758839Y-99568269D01*
X182748377Y-99564079D01*
X182742813Y-99561244D01*
X182731067Y-99559384D01*
X182722951Y-99557536D01*
X182673838Y-99542848D01*
X182629496Y-99542577D01*
X182620103Y-99541809D01*
X182614857Y-99540978D01*
X182614856Y-99540978D01*
X182610000Y-99540209D01*
X182601373Y-99541576D01*
X182591220Y-99542344D01*
X182572836Y-99542231D01*
X182555838Y-99542127D01*
X182555836Y-99542127D01*
X182551385Y-99542100D01*
X182497011Y-99557641D01*
X182489623Y-99559275D01*
X182477187Y-99561244D01*
X182472804Y-99563477D01*
X182471870Y-99563781D01*
X182462155Y-99567603D01*
X182437929Y-99574526D01*
X182437927Y-99574527D01*
X182433644Y-99575751D01*
X182374119Y-99613309D01*
X182372819Y-99614129D01*
X182367842Y-99616959D01*
X182361757Y-99620059D01*
X182361756Y-99620060D01*
X182357375Y-99622292D01*
X182353897Y-99625770D01*
X182352445Y-99626825D01*
X182349058Y-99629120D01*
X182330080Y-99641095D01*
X182327137Y-99644427D01*
X182327135Y-99644429D01*
X182267156Y-99712342D01*
X182266032Y-99713538D01*
X182265775Y-99713892D01*
X182265554Y-99714113D01*
X182265405Y-99714204D01*
X182264504Y-99715163D01*
X182262292Y-99717375D01*
X182261509Y-99716592D01*
X182260362Y-99717296D01*
X182261721Y-99718496D01*
X182249018Y-99732879D01*
X182247127Y-99736907D01*
X182198868Y-99839695D01*
X182198867Y-99839698D01*
X182196976Y-99843726D01*
X182178136Y-99964724D01*
X180200000Y-99964724D01*
X180200000Y-98294724D01*
X184068136Y-98294724D01*
X184068713Y-98299137D01*
X184068713Y-98299138D01*
X184083436Y-98411726D01*
X184084014Y-98416145D01*
X184091185Y-98432443D01*
X184091244Y-98432813D01*
X184092007Y-98434311D01*
X184133333Y-98528230D01*
X184147272Y-98544813D01*
X184148029Y-98545713D01*
X184150157Y-98548434D01*
X184152292Y-98552625D01*
X184160081Y-98560414D01*
X184163729Y-98564391D01*
X184212127Y-98621968D01*
X184235399Y-98637459D01*
X184241836Y-98642733D01*
X184243899Y-98644232D01*
X184247375Y-98647708D01*
X184251753Y-98649939D01*
X184251756Y-98649941D01*
X184258730Y-98653494D01*
X184264977Y-98657148D01*
X184314064Y-98689823D01*
X184318313Y-98691151D01*
X184318314Y-98691151D01*
X184350296Y-98701143D01*
X184360027Y-98705109D01*
X184362799Y-98706521D01*
X184362803Y-98706522D01*
X184367187Y-98708756D01*
X184377852Y-98710445D01*
X184386713Y-98712520D01*
X184426696Y-98725012D01*
X184426699Y-98725012D01*
X184430948Y-98726340D01*
X184480069Y-98727241D01*
X184488683Y-98727999D01*
X184495140Y-98729022D01*
X184495144Y-98729022D01*
X184500000Y-98729791D01*
X184506947Y-98728690D01*
X184517853Y-98727933D01*
X184553383Y-98728584D01*
X184613532Y-98712185D01*
X184620190Y-98710755D01*
X184622147Y-98710445D01*
X184632813Y-98708756D01*
X184637196Y-98706522D01*
X184641875Y-98705002D01*
X184641878Y-98705010D01*
X184646727Y-98703136D01*
X184671527Y-98696375D01*
X184739709Y-98654511D01*
X184744037Y-98652085D01*
X184748240Y-98649944D01*
X184748248Y-98649938D01*
X184752625Y-98647708D01*
X184755427Y-98644906D01*
X184756264Y-98644346D01*
X184758891Y-98642733D01*
X184775881Y-98632301D01*
X184858058Y-98541513D01*
X184911451Y-98431311D01*
X184913317Y-98420224D01*
X184931367Y-98312928D01*
X184931767Y-98310552D01*
X184931896Y-98300000D01*
X184914536Y-98178781D01*
X184863852Y-98067307D01*
X184849199Y-98050302D01*
X184847708Y-98047375D01*
X184841900Y-98041567D01*
X184838746Y-98038170D01*
X184786826Y-97977914D01*
X184783918Y-97974539D01*
X184763741Y-97961461D01*
X184760155Y-97958559D01*
X184760081Y-97958661D01*
X184756106Y-97955773D01*
X184752625Y-97952292D01*
X184741343Y-97946543D01*
X184735736Y-97943309D01*
X184684893Y-97910354D01*
X184684890Y-97910353D01*
X184681160Y-97907935D01*
X184676901Y-97906661D01*
X184676898Y-97906660D01*
X184658345Y-97901112D01*
X184648839Y-97898269D01*
X184638377Y-97894079D01*
X184632813Y-97891244D01*
X184621067Y-97889384D01*
X184612951Y-97887536D01*
X184563838Y-97872848D01*
X184519496Y-97872577D01*
X184510103Y-97871809D01*
X184504857Y-97870978D01*
X184504856Y-97870978D01*
X184500000Y-97870209D01*
X184491373Y-97871576D01*
X184481220Y-97872344D01*
X184462836Y-97872231D01*
X184445838Y-97872127D01*
X184445836Y-97872127D01*
X184441385Y-97872100D01*
X184387011Y-97887641D01*
X184379623Y-97889275D01*
X184367187Y-97891244D01*
X184362804Y-97893477D01*
X184361870Y-97893781D01*
X184352155Y-97897603D01*
X184327929Y-97904526D01*
X184327927Y-97904527D01*
X184323644Y-97905751D01*
X184264119Y-97943309D01*
X184262819Y-97944129D01*
X184257842Y-97946959D01*
X184251757Y-97950059D01*
X184251756Y-97950060D01*
X184247375Y-97952292D01*
X184243897Y-97955770D01*
X184242445Y-97956825D01*
X184239058Y-97959120D01*
X184220080Y-97971095D01*
X184217137Y-97974427D01*
X184217135Y-97974429D01*
X184157156Y-98042342D01*
X184156032Y-98043538D01*
X184155775Y-98043892D01*
X184155554Y-98044113D01*
X184155405Y-98044204D01*
X184154504Y-98045163D01*
X184152292Y-98047375D01*
X184151509Y-98046592D01*
X184150362Y-98047296D01*
X184151721Y-98048496D01*
X184139018Y-98062879D01*
X184137127Y-98066907D01*
X184088868Y-98169695D01*
X184088867Y-98169698D01*
X184086976Y-98173726D01*
X184068136Y-98294724D01*
X180200000Y-98294724D01*
X180200000Y-97094724D01*
X188768136Y-97094724D01*
X188768713Y-97099137D01*
X188768713Y-97099138D01*
X188783436Y-97211726D01*
X188784014Y-97216145D01*
X188791185Y-97232443D01*
X188791244Y-97232813D01*
X188792007Y-97234311D01*
X188833333Y-97328230D01*
X188847272Y-97344813D01*
X188848029Y-97345713D01*
X188850157Y-97348434D01*
X188852292Y-97352625D01*
X188860081Y-97360414D01*
X188863729Y-97364391D01*
X188912127Y-97421968D01*
X188935399Y-97437459D01*
X188941836Y-97442733D01*
X188943899Y-97444232D01*
X188947375Y-97447708D01*
X188951753Y-97449939D01*
X188951756Y-97449941D01*
X188958730Y-97453494D01*
X188964977Y-97457148D01*
X189014064Y-97489823D01*
X189018313Y-97491151D01*
X189018314Y-97491151D01*
X189050296Y-97501143D01*
X189060027Y-97505109D01*
X189062799Y-97506521D01*
X189062803Y-97506522D01*
X189067187Y-97508756D01*
X189077852Y-97510445D01*
X189086713Y-97512520D01*
X189126696Y-97525012D01*
X189126699Y-97525012D01*
X189130948Y-97526340D01*
X189180069Y-97527241D01*
X189188683Y-97527999D01*
X189195140Y-97529022D01*
X189195144Y-97529022D01*
X189200000Y-97529791D01*
X189206947Y-97528690D01*
X189217853Y-97527933D01*
X189253383Y-97528584D01*
X189313532Y-97512185D01*
X189320190Y-97510755D01*
X189322147Y-97510445D01*
X189332813Y-97508756D01*
X189337196Y-97506522D01*
X189341875Y-97505002D01*
X189341878Y-97505010D01*
X189346727Y-97503136D01*
X189371527Y-97496375D01*
X189439709Y-97454511D01*
X189444037Y-97452085D01*
X189448240Y-97449944D01*
X189448248Y-97449938D01*
X189452625Y-97447708D01*
X189455427Y-97444906D01*
X189456264Y-97444346D01*
X189458891Y-97442733D01*
X189475881Y-97432301D01*
X189558058Y-97341513D01*
X189611451Y-97231311D01*
X189613317Y-97220224D01*
X189631367Y-97112928D01*
X189631767Y-97110552D01*
X189631896Y-97100000D01*
X189631140Y-97094724D01*
X207468136Y-97094724D01*
X207468713Y-97099137D01*
X207468713Y-97099138D01*
X207483436Y-97211726D01*
X207484014Y-97216145D01*
X207491185Y-97232443D01*
X207491244Y-97232813D01*
X207492007Y-97234311D01*
X207533333Y-97328230D01*
X207547272Y-97344813D01*
X207548029Y-97345713D01*
X207550157Y-97348434D01*
X207552292Y-97352625D01*
X207560081Y-97360414D01*
X207563729Y-97364391D01*
X207612127Y-97421968D01*
X207635399Y-97437459D01*
X207641836Y-97442733D01*
X207643899Y-97444232D01*
X207647375Y-97447708D01*
X207651753Y-97449939D01*
X207651756Y-97449941D01*
X207658730Y-97453494D01*
X207664977Y-97457148D01*
X207714064Y-97489823D01*
X207718313Y-97491151D01*
X207718314Y-97491151D01*
X207750296Y-97501143D01*
X207760027Y-97505109D01*
X207762799Y-97506521D01*
X207762803Y-97506522D01*
X207767187Y-97508756D01*
X207777852Y-97510445D01*
X207786713Y-97512520D01*
X207826696Y-97525012D01*
X207826699Y-97525012D01*
X207830948Y-97526340D01*
X207880069Y-97527241D01*
X207888683Y-97527999D01*
X207895140Y-97529022D01*
X207895144Y-97529022D01*
X207900000Y-97529791D01*
X207906947Y-97528690D01*
X207917853Y-97527933D01*
X207953383Y-97528584D01*
X208013532Y-97512185D01*
X208020190Y-97510755D01*
X208022147Y-97510445D01*
X208032813Y-97508756D01*
X208037196Y-97506522D01*
X208041875Y-97505002D01*
X208041878Y-97505010D01*
X208046727Y-97503136D01*
X208071527Y-97496375D01*
X208139709Y-97454511D01*
X208144037Y-97452085D01*
X208148240Y-97449944D01*
X208148248Y-97449938D01*
X208152625Y-97447708D01*
X208155427Y-97444906D01*
X208156264Y-97444346D01*
X208158891Y-97442733D01*
X208175881Y-97432301D01*
X208258058Y-97341513D01*
X208311451Y-97231311D01*
X208313317Y-97220224D01*
X208331367Y-97112928D01*
X208331767Y-97110552D01*
X208331896Y-97100000D01*
X208314536Y-96978781D01*
X208263852Y-96867307D01*
X208249199Y-96850302D01*
X208247708Y-96847375D01*
X208241900Y-96841567D01*
X208238746Y-96838170D01*
X208186826Y-96777914D01*
X208183918Y-96774539D01*
X208163741Y-96761461D01*
X208160155Y-96758559D01*
X208160081Y-96758661D01*
X208156106Y-96755773D01*
X208152625Y-96752292D01*
X208141343Y-96746543D01*
X208135736Y-96743309D01*
X208123408Y-96735318D01*
X208117225Y-96731311D01*
X208084893Y-96710354D01*
X208084890Y-96710353D01*
X208081160Y-96707935D01*
X208076901Y-96706661D01*
X208076898Y-96706660D01*
X208058345Y-96701112D01*
X208048839Y-96698269D01*
X208038377Y-96694079D01*
X208032813Y-96691244D01*
X208021067Y-96689384D01*
X208012951Y-96687536D01*
X207963838Y-96672848D01*
X207919496Y-96672577D01*
X207910103Y-96671809D01*
X207904857Y-96670978D01*
X207904856Y-96670978D01*
X207900000Y-96670209D01*
X207891373Y-96671576D01*
X207881220Y-96672344D01*
X207862836Y-96672231D01*
X207845838Y-96672127D01*
X207845836Y-96672127D01*
X207841385Y-96672100D01*
X207787011Y-96687641D01*
X207779623Y-96689275D01*
X207767187Y-96691244D01*
X207762804Y-96693477D01*
X207761870Y-96693781D01*
X207752155Y-96697603D01*
X207727929Y-96704526D01*
X207727927Y-96704527D01*
X207723644Y-96705751D01*
X207664119Y-96743309D01*
X207662819Y-96744129D01*
X207657842Y-96746959D01*
X207651757Y-96750059D01*
X207651756Y-96750060D01*
X207647375Y-96752292D01*
X207643897Y-96755770D01*
X207642445Y-96756825D01*
X207639058Y-96759120D01*
X207620080Y-96771095D01*
X207617137Y-96774427D01*
X207617135Y-96774429D01*
X207557156Y-96842342D01*
X207556032Y-96843538D01*
X207555775Y-96843892D01*
X207555554Y-96844113D01*
X207555405Y-96844204D01*
X207554504Y-96845163D01*
X207552292Y-96847375D01*
X207551509Y-96846592D01*
X207550362Y-96847296D01*
X207551721Y-96848496D01*
X207545002Y-96856104D01*
X207539018Y-96862879D01*
X207537127Y-96866907D01*
X207488868Y-96969695D01*
X207488867Y-96969698D01*
X207486976Y-96973726D01*
X207468136Y-97094724D01*
X189631140Y-97094724D01*
X189614536Y-96978781D01*
X189563852Y-96867307D01*
X189549199Y-96850302D01*
X189547708Y-96847375D01*
X189541900Y-96841567D01*
X189538746Y-96838170D01*
X189486826Y-96777914D01*
X189483918Y-96774539D01*
X189463741Y-96761461D01*
X189460155Y-96758559D01*
X189460081Y-96758661D01*
X189456106Y-96755773D01*
X189452625Y-96752292D01*
X189441343Y-96746543D01*
X189435736Y-96743309D01*
X189423408Y-96735318D01*
X189417225Y-96731311D01*
X189384893Y-96710354D01*
X189384890Y-96710353D01*
X189381160Y-96707935D01*
X189376901Y-96706661D01*
X189376898Y-96706660D01*
X189358345Y-96701112D01*
X189348839Y-96698269D01*
X189338377Y-96694079D01*
X189332813Y-96691244D01*
X189321067Y-96689384D01*
X189312951Y-96687536D01*
X189263838Y-96672848D01*
X189219496Y-96672577D01*
X189210103Y-96671809D01*
X189204857Y-96670978D01*
X189204856Y-96670978D01*
X189200000Y-96670209D01*
X189191373Y-96671576D01*
X189181220Y-96672344D01*
X189162836Y-96672231D01*
X189145838Y-96672127D01*
X189145836Y-96672127D01*
X189141385Y-96672100D01*
X189087011Y-96687641D01*
X189079623Y-96689275D01*
X189067187Y-96691244D01*
X189062804Y-96693477D01*
X189061870Y-96693781D01*
X189052155Y-96697603D01*
X189027929Y-96704526D01*
X189027927Y-96704527D01*
X189023644Y-96705751D01*
X188964119Y-96743309D01*
X188962819Y-96744129D01*
X188957842Y-96746959D01*
X188951757Y-96750059D01*
X188951756Y-96750060D01*
X188947375Y-96752292D01*
X188943897Y-96755770D01*
X188942445Y-96756825D01*
X188939058Y-96759120D01*
X188920080Y-96771095D01*
X188917137Y-96774427D01*
X188917135Y-96774429D01*
X188857156Y-96842342D01*
X188856032Y-96843538D01*
X188855775Y-96843892D01*
X188855554Y-96844113D01*
X188855405Y-96844204D01*
X188854504Y-96845163D01*
X188852292Y-96847375D01*
X188851509Y-96846592D01*
X188850362Y-96847296D01*
X188851721Y-96848496D01*
X188845002Y-96856104D01*
X188839018Y-96862879D01*
X188837127Y-96866907D01*
X188788868Y-96969695D01*
X188788867Y-96969698D01*
X188786976Y-96973726D01*
X188768136Y-97094724D01*
X180200000Y-97094724D01*
X180200000Y-96594724D01*
X186068136Y-96594724D01*
X186068713Y-96599137D01*
X186068713Y-96599138D01*
X186082655Y-96705751D01*
X186084014Y-96716145D01*
X186091185Y-96732443D01*
X186091244Y-96732813D01*
X186092007Y-96734311D01*
X186094031Y-96738910D01*
X186094031Y-96738911D01*
X186109660Y-96774429D01*
X186133333Y-96828230D01*
X186147272Y-96844813D01*
X186148029Y-96845713D01*
X186150157Y-96848434D01*
X186152292Y-96852625D01*
X186160081Y-96860414D01*
X186163729Y-96864391D01*
X186212127Y-96921968D01*
X186235399Y-96937459D01*
X186241836Y-96942733D01*
X186243899Y-96944232D01*
X186247375Y-96947708D01*
X186251753Y-96949939D01*
X186251756Y-96949941D01*
X186258730Y-96953494D01*
X186264977Y-96957148D01*
X186314064Y-96989823D01*
X186318313Y-96991151D01*
X186318314Y-96991151D01*
X186350296Y-97001143D01*
X186360027Y-97005109D01*
X186362799Y-97006521D01*
X186362803Y-97006522D01*
X186367187Y-97008756D01*
X186377852Y-97010445D01*
X186386713Y-97012520D01*
X186426696Y-97025012D01*
X186426699Y-97025012D01*
X186430948Y-97026340D01*
X186480069Y-97027241D01*
X186488683Y-97027999D01*
X186495140Y-97029022D01*
X186495144Y-97029022D01*
X186500000Y-97029791D01*
X186506947Y-97028690D01*
X186517853Y-97027933D01*
X186553383Y-97028584D01*
X186613532Y-97012185D01*
X186620190Y-97010755D01*
X186622147Y-97010445D01*
X186632813Y-97008756D01*
X186637196Y-97006522D01*
X186641875Y-97005002D01*
X186641878Y-97005010D01*
X186646727Y-97003136D01*
X186671527Y-96996375D01*
X186700182Y-96978781D01*
X186739709Y-96954511D01*
X186744037Y-96952085D01*
X186748240Y-96949944D01*
X186748248Y-96949938D01*
X186752625Y-96947708D01*
X186755427Y-96944906D01*
X186756264Y-96944346D01*
X186758891Y-96942733D01*
X186775881Y-96932301D01*
X186858058Y-96841513D01*
X186911451Y-96731311D01*
X186913317Y-96720224D01*
X186931367Y-96612928D01*
X186931767Y-96610552D01*
X186931896Y-96600000D01*
X186914536Y-96478781D01*
X186863852Y-96367307D01*
X186849199Y-96350302D01*
X186847708Y-96347375D01*
X186841900Y-96341567D01*
X186838746Y-96338170D01*
X186786826Y-96277914D01*
X186783918Y-96274539D01*
X186763741Y-96261461D01*
X186760155Y-96258559D01*
X186760081Y-96258661D01*
X186756106Y-96255773D01*
X186752625Y-96252292D01*
X186741343Y-96246543D01*
X186735736Y-96243309D01*
X186684893Y-96210354D01*
X186684890Y-96210353D01*
X186681160Y-96207935D01*
X186676901Y-96206661D01*
X186676898Y-96206660D01*
X186658345Y-96201112D01*
X186648839Y-96198269D01*
X186638377Y-96194079D01*
X186632813Y-96191244D01*
X186621067Y-96189384D01*
X186612951Y-96187536D01*
X186563838Y-96172848D01*
X186519496Y-96172577D01*
X186510103Y-96171809D01*
X186504857Y-96170978D01*
X186504856Y-96170978D01*
X186500000Y-96170209D01*
X186491373Y-96171576D01*
X186481220Y-96172344D01*
X186462836Y-96172231D01*
X186445838Y-96172127D01*
X186445836Y-96172127D01*
X186441385Y-96172100D01*
X186387011Y-96187641D01*
X186379623Y-96189275D01*
X186367187Y-96191244D01*
X186362804Y-96193477D01*
X186361870Y-96193781D01*
X186352155Y-96197603D01*
X186327929Y-96204526D01*
X186327927Y-96204527D01*
X186323644Y-96205751D01*
X186264119Y-96243309D01*
X186262819Y-96244129D01*
X186257842Y-96246959D01*
X186251757Y-96250059D01*
X186251756Y-96250060D01*
X186247375Y-96252292D01*
X186243897Y-96255770D01*
X186242445Y-96256825D01*
X186239058Y-96259120D01*
X186220080Y-96271095D01*
X186217137Y-96274427D01*
X186217135Y-96274429D01*
X186157156Y-96342342D01*
X186156032Y-96343538D01*
X186155775Y-96343892D01*
X186155554Y-96344113D01*
X186155405Y-96344204D01*
X186154504Y-96345163D01*
X186152292Y-96347375D01*
X186151509Y-96346592D01*
X186150362Y-96347296D01*
X186151721Y-96348496D01*
X186139018Y-96362879D01*
X186137127Y-96366907D01*
X186088868Y-96469695D01*
X186088867Y-96469698D01*
X186086976Y-96473726D01*
X186068136Y-96594724D01*
X180200000Y-96594724D01*
X180200000Y-95094724D01*
X210068136Y-95094724D01*
X210068713Y-95099137D01*
X210068713Y-95099138D01*
X210083436Y-95211726D01*
X210084014Y-95216145D01*
X210091185Y-95232443D01*
X210091244Y-95232813D01*
X210092007Y-95234311D01*
X210133333Y-95328230D01*
X210147272Y-95344813D01*
X210148029Y-95345713D01*
X210150157Y-95348434D01*
X210152292Y-95352625D01*
X210160081Y-95360414D01*
X210163729Y-95364391D01*
X210212127Y-95421968D01*
X210235399Y-95437459D01*
X210241836Y-95442733D01*
X210243899Y-95444232D01*
X210247375Y-95447708D01*
X210251753Y-95449939D01*
X210251756Y-95449941D01*
X210258730Y-95453494D01*
X210264977Y-95457148D01*
X210314064Y-95489823D01*
X210318313Y-95491151D01*
X210318314Y-95491151D01*
X210350296Y-95501143D01*
X210360027Y-95505109D01*
X210362799Y-95506521D01*
X210362803Y-95506522D01*
X210367187Y-95508756D01*
X210377852Y-95510445D01*
X210386713Y-95512520D01*
X210426696Y-95525012D01*
X210426699Y-95525012D01*
X210430948Y-95526340D01*
X210480069Y-95527241D01*
X210488683Y-95527999D01*
X210495140Y-95529022D01*
X210495144Y-95529022D01*
X210500000Y-95529791D01*
X210506947Y-95528690D01*
X210517853Y-95527933D01*
X210553383Y-95528584D01*
X210613532Y-95512185D01*
X210620190Y-95510755D01*
X210622147Y-95510445D01*
X210632813Y-95508756D01*
X210637196Y-95506522D01*
X210641875Y-95505002D01*
X210641878Y-95505010D01*
X210646727Y-95503136D01*
X210671527Y-95496375D01*
X210739709Y-95454511D01*
X210744037Y-95452085D01*
X210748240Y-95449944D01*
X210748248Y-95449938D01*
X210752625Y-95447708D01*
X210755427Y-95444906D01*
X210756264Y-95444346D01*
X210758891Y-95442733D01*
X210775881Y-95432301D01*
X210858058Y-95341513D01*
X210911451Y-95231311D01*
X210913317Y-95220224D01*
X210931367Y-95112928D01*
X210931767Y-95110552D01*
X210931896Y-95100000D01*
X210914536Y-94978781D01*
X210863852Y-94867307D01*
X210849199Y-94850302D01*
X210847708Y-94847375D01*
X210841900Y-94841567D01*
X210838746Y-94838170D01*
X210791047Y-94782813D01*
X210783918Y-94774539D01*
X210763741Y-94761461D01*
X210760155Y-94758559D01*
X210760081Y-94758661D01*
X210756106Y-94755773D01*
X210752625Y-94752292D01*
X210741343Y-94746543D01*
X210735736Y-94743309D01*
X210684893Y-94710354D01*
X210684890Y-94710353D01*
X210681160Y-94707935D01*
X210676901Y-94706661D01*
X210676898Y-94706660D01*
X210658345Y-94701112D01*
X210648839Y-94698269D01*
X210638377Y-94694079D01*
X210632813Y-94691244D01*
X210621067Y-94689384D01*
X210612951Y-94687536D01*
X210563838Y-94672848D01*
X210519496Y-94672577D01*
X210510103Y-94671809D01*
X210504857Y-94670978D01*
X210504856Y-94670978D01*
X210500000Y-94670209D01*
X210491373Y-94671576D01*
X210481220Y-94672344D01*
X210462836Y-94672231D01*
X210445838Y-94672127D01*
X210445836Y-94672127D01*
X210441385Y-94672100D01*
X210387011Y-94687641D01*
X210379623Y-94689275D01*
X210367187Y-94691244D01*
X210362804Y-94693477D01*
X210361870Y-94693781D01*
X210352155Y-94697603D01*
X210327929Y-94704526D01*
X210327927Y-94704527D01*
X210323644Y-94705751D01*
X210264119Y-94743309D01*
X210262819Y-94744129D01*
X210257842Y-94746959D01*
X210251757Y-94750059D01*
X210251756Y-94750060D01*
X210247375Y-94752292D01*
X210243897Y-94755770D01*
X210242445Y-94756825D01*
X210239058Y-94759120D01*
X210220080Y-94771095D01*
X210217137Y-94774427D01*
X210217135Y-94774429D01*
X210157156Y-94842342D01*
X210156032Y-94843538D01*
X210155775Y-94843892D01*
X210155554Y-94844113D01*
X210155405Y-94844204D01*
X210154504Y-94845163D01*
X210152292Y-94847375D01*
X210151509Y-94846592D01*
X210150362Y-94847296D01*
X210151721Y-94848496D01*
X210139018Y-94862879D01*
X210137127Y-94866907D01*
X210088868Y-94969695D01*
X210088867Y-94969698D01*
X210086976Y-94973726D01*
X210068136Y-95094724D01*
X180200000Y-95094724D01*
X180200000Y-94644724D01*
X204618136Y-94644724D01*
X204618713Y-94649137D01*
X204618713Y-94649138D01*
X204632202Y-94752292D01*
X204634014Y-94766145D01*
X204641185Y-94782443D01*
X204641244Y-94782813D01*
X204642007Y-94784311D01*
X204644031Y-94788910D01*
X204644031Y-94788911D01*
X204680309Y-94871357D01*
X204683333Y-94878230D01*
X204697272Y-94894813D01*
X204698029Y-94895713D01*
X204700157Y-94898434D01*
X204702292Y-94902625D01*
X204710081Y-94910414D01*
X204713729Y-94914391D01*
X204762127Y-94971968D01*
X204785399Y-94987459D01*
X204791836Y-94992733D01*
X204793899Y-94994232D01*
X204797375Y-94997708D01*
X204801753Y-94999939D01*
X204801756Y-94999941D01*
X204808730Y-95003494D01*
X204814977Y-95007148D01*
X204864064Y-95039823D01*
X204868313Y-95041151D01*
X204868314Y-95041151D01*
X204900296Y-95051143D01*
X204910027Y-95055109D01*
X204912799Y-95056521D01*
X204912803Y-95056522D01*
X204917187Y-95058756D01*
X204927852Y-95060445D01*
X204936713Y-95062520D01*
X204976696Y-95075012D01*
X204976699Y-95075012D01*
X204980948Y-95076340D01*
X205030069Y-95077241D01*
X205038683Y-95077999D01*
X205045140Y-95079022D01*
X205045144Y-95079022D01*
X205050000Y-95079791D01*
X205056947Y-95078690D01*
X205067853Y-95077933D01*
X205103383Y-95078584D01*
X205163532Y-95062185D01*
X205170190Y-95060755D01*
X205172147Y-95060445D01*
X205182813Y-95058756D01*
X205187196Y-95056522D01*
X205191875Y-95055002D01*
X205191878Y-95055010D01*
X205196727Y-95053136D01*
X205221527Y-95046375D01*
X205289709Y-95004511D01*
X205294037Y-95002085D01*
X205298240Y-94999944D01*
X205298248Y-94999938D01*
X205302625Y-94997708D01*
X205305427Y-94994906D01*
X205306264Y-94994346D01*
X205308891Y-94992733D01*
X205325881Y-94982301D01*
X205408058Y-94891513D01*
X205461451Y-94781311D01*
X205462591Y-94774539D01*
X205476228Y-94693476D01*
X205481767Y-94660552D01*
X205481896Y-94650000D01*
X205464536Y-94528781D01*
X205413852Y-94417307D01*
X205399199Y-94400302D01*
X205397708Y-94397375D01*
X205391900Y-94391567D01*
X205388746Y-94388170D01*
X205336826Y-94327914D01*
X205333918Y-94324539D01*
X205313741Y-94311461D01*
X205310155Y-94308559D01*
X205310081Y-94308661D01*
X205306106Y-94305773D01*
X205302625Y-94302292D01*
X205291343Y-94296543D01*
X205285736Y-94293309D01*
X205234893Y-94260354D01*
X205234890Y-94260353D01*
X205231160Y-94257935D01*
X205226901Y-94256661D01*
X205226898Y-94256660D01*
X205208345Y-94251112D01*
X205198839Y-94248269D01*
X205188377Y-94244079D01*
X205182813Y-94241244D01*
X205171067Y-94239384D01*
X205162951Y-94237536D01*
X205113838Y-94222848D01*
X205069496Y-94222577D01*
X205060103Y-94221809D01*
X205054857Y-94220978D01*
X205054856Y-94220978D01*
X205050000Y-94220209D01*
X205041373Y-94221576D01*
X205031220Y-94222344D01*
X205012836Y-94222231D01*
X204995838Y-94222127D01*
X204995836Y-94222127D01*
X204991385Y-94222100D01*
X204937011Y-94237641D01*
X204929623Y-94239275D01*
X204917187Y-94241244D01*
X204912804Y-94243477D01*
X204911870Y-94243781D01*
X204902155Y-94247603D01*
X204877929Y-94254526D01*
X204877927Y-94254527D01*
X204873644Y-94255751D01*
X204814119Y-94293309D01*
X204812819Y-94294129D01*
X204807842Y-94296959D01*
X204801757Y-94300059D01*
X204801756Y-94300060D01*
X204797375Y-94302292D01*
X204793897Y-94305770D01*
X204792445Y-94306825D01*
X204789058Y-94309120D01*
X204770080Y-94321095D01*
X204767137Y-94324427D01*
X204767135Y-94324429D01*
X204707156Y-94392342D01*
X204706032Y-94393538D01*
X204705775Y-94393892D01*
X204705554Y-94394113D01*
X204705405Y-94394204D01*
X204704504Y-94395163D01*
X204702292Y-94397375D01*
X204701509Y-94396592D01*
X204700362Y-94397296D01*
X204701721Y-94398496D01*
X204689018Y-94412879D01*
X204687127Y-94416907D01*
X204638868Y-94519695D01*
X204638867Y-94519698D01*
X204636976Y-94523726D01*
X204618136Y-94644724D01*
X180200000Y-94644724D01*
X180200000Y-91544724D01*
X185638136Y-91544724D01*
X185638713Y-91549137D01*
X185638713Y-91549138D01*
X185653436Y-91661726D01*
X185654014Y-91666145D01*
X185661185Y-91682443D01*
X185661244Y-91682813D01*
X185662007Y-91684311D01*
X185703333Y-91778230D01*
X185717272Y-91794813D01*
X185718029Y-91795713D01*
X185720157Y-91798434D01*
X185722292Y-91802625D01*
X185730081Y-91810414D01*
X185733729Y-91814391D01*
X185782127Y-91871968D01*
X185805399Y-91887459D01*
X185811836Y-91892733D01*
X185813899Y-91894232D01*
X185817375Y-91897708D01*
X185821753Y-91899939D01*
X185821756Y-91899941D01*
X185828730Y-91903494D01*
X185834977Y-91907148D01*
X185884064Y-91939823D01*
X185888313Y-91941151D01*
X185888314Y-91941151D01*
X185920296Y-91951143D01*
X185930027Y-91955109D01*
X185932799Y-91956521D01*
X185932803Y-91956522D01*
X185937187Y-91958756D01*
X185947852Y-91960445D01*
X185956713Y-91962520D01*
X185996696Y-91975012D01*
X185996699Y-91975012D01*
X186000948Y-91976340D01*
X186050069Y-91977241D01*
X186058683Y-91977999D01*
X186065140Y-91979022D01*
X186065144Y-91979022D01*
X186070000Y-91979791D01*
X186076947Y-91978690D01*
X186087853Y-91977933D01*
X186123383Y-91978584D01*
X186183532Y-91962185D01*
X186190190Y-91960755D01*
X186192147Y-91960445D01*
X186202813Y-91958756D01*
X186207196Y-91956522D01*
X186211875Y-91955002D01*
X186211878Y-91955010D01*
X186216727Y-91953136D01*
X186241527Y-91946375D01*
X186309709Y-91904511D01*
X186314037Y-91902085D01*
X186318240Y-91899944D01*
X186318248Y-91899938D01*
X186322625Y-91897708D01*
X186325427Y-91894906D01*
X186326264Y-91894346D01*
X186328891Y-91892733D01*
X186345881Y-91882301D01*
X186428058Y-91791513D01*
X186481451Y-91681311D01*
X186483317Y-91670224D01*
X186501367Y-91562928D01*
X186501767Y-91560552D01*
X186501896Y-91550000D01*
X186484536Y-91428781D01*
X186433852Y-91317307D01*
X186419199Y-91300302D01*
X186417708Y-91297375D01*
X186411900Y-91291567D01*
X186408746Y-91288170D01*
X186356826Y-91227914D01*
X186353918Y-91224539D01*
X186333741Y-91211461D01*
X186330155Y-91208559D01*
X186330081Y-91208661D01*
X186326106Y-91205773D01*
X186322625Y-91202292D01*
X186311343Y-91196543D01*
X186305736Y-91193309D01*
X186254893Y-91160354D01*
X186254890Y-91160353D01*
X186251160Y-91157935D01*
X186246901Y-91156661D01*
X186246898Y-91156660D01*
X186228345Y-91151112D01*
X186218839Y-91148269D01*
X186208377Y-91144079D01*
X186202813Y-91141244D01*
X186191067Y-91139384D01*
X186182951Y-91137536D01*
X186168252Y-91133140D01*
X186133838Y-91122848D01*
X186089496Y-91122577D01*
X186080103Y-91121809D01*
X186074857Y-91120978D01*
X186074856Y-91120978D01*
X186070000Y-91120209D01*
X186061373Y-91121576D01*
X186051220Y-91122344D01*
X186032836Y-91122231D01*
X186015838Y-91122127D01*
X186015836Y-91122127D01*
X186011385Y-91122100D01*
X185957011Y-91137641D01*
X185949623Y-91139275D01*
X185937187Y-91141244D01*
X185932804Y-91143477D01*
X185931870Y-91143781D01*
X185922155Y-91147603D01*
X185897929Y-91154526D01*
X185897927Y-91154527D01*
X185893644Y-91155751D01*
X185889875Y-91158129D01*
X185880499Y-91164045D01*
X185834119Y-91193309D01*
X185832819Y-91194129D01*
X185827842Y-91196959D01*
X185821757Y-91200059D01*
X185821756Y-91200060D01*
X185817375Y-91202292D01*
X185813897Y-91205770D01*
X185812445Y-91206825D01*
X185809058Y-91209120D01*
X185790080Y-91221095D01*
X185787137Y-91224427D01*
X185787135Y-91224429D01*
X185727156Y-91292342D01*
X185726032Y-91293538D01*
X185725775Y-91293892D01*
X185725554Y-91294113D01*
X185725405Y-91294204D01*
X185724504Y-91295163D01*
X185722292Y-91297375D01*
X185721509Y-91296592D01*
X185720362Y-91297296D01*
X185721721Y-91298496D01*
X185709018Y-91312879D01*
X185707127Y-91316907D01*
X185658868Y-91419695D01*
X185658867Y-91419698D01*
X185656976Y-91423726D01*
X185638136Y-91544724D01*
X180200000Y-91544724D01*
X180200000Y-90764724D01*
X185028136Y-90764724D01*
X185028713Y-90769137D01*
X185028713Y-90769138D01*
X185043436Y-90881726D01*
X185044014Y-90886145D01*
X185051185Y-90902443D01*
X185051244Y-90902813D01*
X185052007Y-90904311D01*
X185093333Y-90998230D01*
X185107272Y-91014813D01*
X185108029Y-91015713D01*
X185110157Y-91018434D01*
X185112292Y-91022625D01*
X185120081Y-91030414D01*
X185123729Y-91034391D01*
X185172127Y-91091968D01*
X185195399Y-91107459D01*
X185201836Y-91112733D01*
X185203899Y-91114232D01*
X185207375Y-91117708D01*
X185211753Y-91119939D01*
X185211756Y-91119941D01*
X185218730Y-91123494D01*
X185224977Y-91127148D01*
X185274064Y-91159823D01*
X185278313Y-91161151D01*
X185278314Y-91161151D01*
X185310296Y-91171143D01*
X185320027Y-91175109D01*
X185322799Y-91176521D01*
X185322803Y-91176522D01*
X185327187Y-91178756D01*
X185337852Y-91180445D01*
X185346713Y-91182520D01*
X185386696Y-91195012D01*
X185386699Y-91195012D01*
X185390948Y-91196340D01*
X185440069Y-91197241D01*
X185448683Y-91197999D01*
X185455140Y-91199022D01*
X185455144Y-91199022D01*
X185460000Y-91199791D01*
X185466947Y-91198690D01*
X185477853Y-91197933D01*
X185513383Y-91198584D01*
X185573532Y-91182185D01*
X185580190Y-91180755D01*
X185582147Y-91180445D01*
X185592813Y-91178756D01*
X185597196Y-91176522D01*
X185601875Y-91175002D01*
X185601878Y-91175010D01*
X185606727Y-91173136D01*
X185631527Y-91166375D01*
X185647350Y-91156660D01*
X185699709Y-91124511D01*
X185704037Y-91122085D01*
X185708240Y-91119944D01*
X185708248Y-91119938D01*
X185708668Y-91119724D01*
X204568136Y-91119724D01*
X204568713Y-91124137D01*
X204568713Y-91124138D01*
X204578606Y-91199791D01*
X204584014Y-91241145D01*
X204591185Y-91257443D01*
X204591244Y-91257813D01*
X204592007Y-91259311D01*
X204594031Y-91263910D01*
X204594031Y-91263911D01*
X204607783Y-91295163D01*
X204633333Y-91353230D01*
X204647272Y-91369813D01*
X204648029Y-91370713D01*
X204650157Y-91373434D01*
X204652292Y-91377625D01*
X204660081Y-91385414D01*
X204663730Y-91389392D01*
X204700546Y-91433190D01*
X204712127Y-91446968D01*
X204735399Y-91462459D01*
X204741836Y-91467733D01*
X204743899Y-91469232D01*
X204747375Y-91472708D01*
X204751753Y-91474939D01*
X204751756Y-91474941D01*
X204758730Y-91478494D01*
X204764977Y-91482148D01*
X204814064Y-91514823D01*
X204818313Y-91516151D01*
X204818314Y-91516151D01*
X204850296Y-91526143D01*
X204860027Y-91530109D01*
X204862799Y-91531521D01*
X204862803Y-91531522D01*
X204867187Y-91533756D01*
X204877852Y-91535445D01*
X204886713Y-91537520D01*
X204926696Y-91550012D01*
X204926699Y-91550012D01*
X204930948Y-91551340D01*
X204980069Y-91552241D01*
X204988683Y-91552999D01*
X204995140Y-91554022D01*
X204995144Y-91554022D01*
X205000000Y-91554791D01*
X205006947Y-91553690D01*
X205017853Y-91552933D01*
X205053383Y-91553584D01*
X205113532Y-91537185D01*
X205120190Y-91535755D01*
X205122147Y-91535445D01*
X205132813Y-91533756D01*
X205137196Y-91531522D01*
X205141875Y-91530002D01*
X205141878Y-91530010D01*
X205146727Y-91528136D01*
X205171527Y-91521375D01*
X205239709Y-91479511D01*
X205244037Y-91477085D01*
X205248240Y-91474944D01*
X205248248Y-91474938D01*
X205252625Y-91472708D01*
X205255427Y-91469906D01*
X205256264Y-91469346D01*
X205258891Y-91467733D01*
X205275881Y-91457301D01*
X205358058Y-91366513D01*
X205411451Y-91256311D01*
X205413317Y-91245224D01*
X205425130Y-91175002D01*
X205431767Y-91135552D01*
X205431896Y-91125000D01*
X205414536Y-91003781D01*
X205363852Y-90892307D01*
X205349199Y-90875302D01*
X205347708Y-90872375D01*
X205341900Y-90866567D01*
X205338746Y-90863170D01*
X205286826Y-90802914D01*
X205283918Y-90799539D01*
X205263741Y-90786461D01*
X205260155Y-90783559D01*
X205260081Y-90783661D01*
X205256106Y-90780773D01*
X205252625Y-90777292D01*
X205241343Y-90771543D01*
X205235736Y-90768309D01*
X205234663Y-90767613D01*
X205218916Y-90757407D01*
X205184893Y-90735354D01*
X205184890Y-90735353D01*
X205181160Y-90732935D01*
X205176901Y-90731661D01*
X205176898Y-90731660D01*
X205158345Y-90726112D01*
X205148839Y-90723269D01*
X205138377Y-90719079D01*
X205132813Y-90716244D01*
X205121067Y-90714384D01*
X205112951Y-90712536D01*
X205063838Y-90697848D01*
X205019496Y-90697577D01*
X205010103Y-90696809D01*
X205004857Y-90695978D01*
X205004856Y-90695978D01*
X205000000Y-90695209D01*
X204991373Y-90696576D01*
X204981220Y-90697344D01*
X204962836Y-90697231D01*
X204945838Y-90697127D01*
X204945836Y-90697127D01*
X204941385Y-90697100D01*
X204887011Y-90712641D01*
X204879623Y-90714275D01*
X204867187Y-90716244D01*
X204862804Y-90718477D01*
X204861870Y-90718781D01*
X204852155Y-90722603D01*
X204827929Y-90729526D01*
X204827927Y-90729527D01*
X204823644Y-90730751D01*
X204764119Y-90768309D01*
X204762819Y-90769129D01*
X204757842Y-90771959D01*
X204751757Y-90775059D01*
X204751756Y-90775060D01*
X204747375Y-90777292D01*
X204743897Y-90780770D01*
X204742445Y-90781825D01*
X204739058Y-90784120D01*
X204720080Y-90796095D01*
X204717137Y-90799427D01*
X204717135Y-90799429D01*
X204657156Y-90867342D01*
X204656032Y-90868538D01*
X204655775Y-90868892D01*
X204655554Y-90869113D01*
X204655405Y-90869204D01*
X204654504Y-90870163D01*
X204652292Y-90872375D01*
X204651509Y-90871592D01*
X204650362Y-90872296D01*
X204651721Y-90873496D01*
X204639018Y-90887879D01*
X204629519Y-90908112D01*
X204588868Y-90994695D01*
X204588867Y-90994698D01*
X204586976Y-90998726D01*
X204568136Y-91119724D01*
X185708668Y-91119724D01*
X185712625Y-91117708D01*
X185715427Y-91114906D01*
X185716264Y-91114346D01*
X185718891Y-91112733D01*
X185735881Y-91102301D01*
X185818058Y-91011513D01*
X185871451Y-90901311D01*
X185872285Y-90896357D01*
X185889152Y-90796095D01*
X185891767Y-90780552D01*
X185891896Y-90770000D01*
X185874536Y-90648781D01*
X185823852Y-90537307D01*
X185809199Y-90520302D01*
X185807708Y-90517375D01*
X185801900Y-90511567D01*
X185798746Y-90508170D01*
X185746826Y-90447914D01*
X185743918Y-90444539D01*
X185723741Y-90431461D01*
X185720155Y-90428559D01*
X185720081Y-90428661D01*
X185716106Y-90425773D01*
X185712625Y-90422292D01*
X185701343Y-90416543D01*
X185695736Y-90413309D01*
X185644893Y-90380354D01*
X185644890Y-90380353D01*
X185641160Y-90377935D01*
X185636901Y-90376661D01*
X185636898Y-90376660D01*
X185618345Y-90371112D01*
X185608839Y-90368269D01*
X185598377Y-90364079D01*
X185592813Y-90361244D01*
X185581067Y-90359384D01*
X185572951Y-90357536D01*
X185523838Y-90342848D01*
X185479496Y-90342577D01*
X185470103Y-90341809D01*
X185464857Y-90340978D01*
X185464856Y-90340978D01*
X185460000Y-90340209D01*
X185451373Y-90341576D01*
X185441220Y-90342344D01*
X185422836Y-90342231D01*
X185405838Y-90342127D01*
X185405836Y-90342127D01*
X185401385Y-90342100D01*
X185347011Y-90357641D01*
X185339623Y-90359275D01*
X185327187Y-90361244D01*
X185322804Y-90363477D01*
X185321870Y-90363781D01*
X185312155Y-90367603D01*
X185287929Y-90374526D01*
X185287927Y-90374527D01*
X185283644Y-90375751D01*
X185224119Y-90413309D01*
X185222819Y-90414129D01*
X185217842Y-90416959D01*
X185211757Y-90420059D01*
X185211756Y-90420060D01*
X185207375Y-90422292D01*
X185203897Y-90425770D01*
X185202445Y-90426825D01*
X185199058Y-90429120D01*
X185180080Y-90441095D01*
X185177137Y-90444427D01*
X185177135Y-90444429D01*
X185117156Y-90512342D01*
X185116032Y-90513538D01*
X185115775Y-90513892D01*
X185115554Y-90514113D01*
X185115405Y-90514204D01*
X185114504Y-90515163D01*
X185112292Y-90517375D01*
X185111509Y-90516592D01*
X185110362Y-90517296D01*
X185111721Y-90518496D01*
X185099018Y-90532879D01*
X185097127Y-90536907D01*
X185048868Y-90639695D01*
X185048867Y-90639698D01*
X185046976Y-90643726D01*
X185028136Y-90764724D01*
X180200000Y-90764724D01*
X180200000Y-88350000D01*
X181295207Y-88350000D01*
X181314349Y-88593223D01*
X181331143Y-88663173D01*
X181368253Y-88817747D01*
X181371304Y-88830457D01*
X181372243Y-88832724D01*
X181372244Y-88832727D01*
X181410465Y-88925000D01*
X181464669Y-89055861D01*
X181465951Y-89057953D01*
X181574663Y-89235354D01*
X181592146Y-89263884D01*
X181750595Y-89449405D01*
X181936116Y-89607854D01*
X181938211Y-89609138D01*
X181938214Y-89609140D01*
X181985192Y-89637928D01*
X182144139Y-89735331D01*
X182211209Y-89763112D01*
X182367273Y-89827756D01*
X182367276Y-89827757D01*
X182369543Y-89828696D01*
X182371934Y-89829270D01*
X182371937Y-89829271D01*
X182454765Y-89849156D01*
X182606777Y-89885651D01*
X182850000Y-89904793D01*
X183093223Y-89885651D01*
X183245235Y-89849156D01*
X183328063Y-89829271D01*
X183328066Y-89829270D01*
X183330457Y-89828696D01*
X183332724Y-89827757D01*
X183332727Y-89827756D01*
X183488791Y-89763112D01*
X183555861Y-89735331D01*
X183714808Y-89637928D01*
X183744514Y-89619724D01*
X206918136Y-89619724D01*
X206918713Y-89624137D01*
X206918713Y-89624138D01*
X206933086Y-89734049D01*
X206934014Y-89741145D01*
X206941185Y-89757443D01*
X206941244Y-89757813D01*
X206942007Y-89759311D01*
X206944031Y-89763910D01*
X206944031Y-89763911D01*
X206972791Y-89829271D01*
X206983333Y-89853230D01*
X206997272Y-89869813D01*
X206998029Y-89870713D01*
X207000157Y-89873434D01*
X207002292Y-89877625D01*
X207010081Y-89885414D01*
X207013729Y-89889391D01*
X207062127Y-89946968D01*
X207085399Y-89962459D01*
X207091836Y-89967733D01*
X207093899Y-89969232D01*
X207097375Y-89972708D01*
X207101753Y-89974939D01*
X207101756Y-89974941D01*
X207108730Y-89978494D01*
X207114977Y-89982148D01*
X207164064Y-90014823D01*
X207168313Y-90016151D01*
X207168314Y-90016151D01*
X207200296Y-90026143D01*
X207210027Y-90030109D01*
X207212799Y-90031521D01*
X207212803Y-90031522D01*
X207217187Y-90033756D01*
X207227852Y-90035445D01*
X207236713Y-90037520D01*
X207276696Y-90050012D01*
X207276699Y-90050012D01*
X207280948Y-90051340D01*
X207330069Y-90052241D01*
X207338683Y-90052999D01*
X207345140Y-90054022D01*
X207345144Y-90054022D01*
X207350000Y-90054791D01*
X207356947Y-90053690D01*
X207367853Y-90052933D01*
X207403383Y-90053584D01*
X207463532Y-90037185D01*
X207470190Y-90035755D01*
X207472147Y-90035445D01*
X207482813Y-90033756D01*
X207487196Y-90031522D01*
X207491875Y-90030002D01*
X207491878Y-90030010D01*
X207496727Y-90028136D01*
X207521527Y-90021375D01*
X207589709Y-89979511D01*
X207594037Y-89977085D01*
X207598240Y-89974944D01*
X207598248Y-89974938D01*
X207602625Y-89972708D01*
X207605427Y-89969906D01*
X207606264Y-89969346D01*
X207608891Y-89967733D01*
X207625881Y-89957301D01*
X207708058Y-89866513D01*
X207761451Y-89756311D01*
X207763317Y-89745224D01*
X207781367Y-89637928D01*
X207781767Y-89635552D01*
X207781896Y-89625000D01*
X207764536Y-89503781D01*
X207713852Y-89392307D01*
X207699199Y-89375302D01*
X207697708Y-89372375D01*
X207691900Y-89366567D01*
X207688746Y-89363170D01*
X207636826Y-89302914D01*
X207633918Y-89299539D01*
X207613741Y-89286461D01*
X207610155Y-89283559D01*
X207610081Y-89283661D01*
X207606106Y-89280773D01*
X207602625Y-89277292D01*
X207591343Y-89271543D01*
X207585736Y-89268309D01*
X207534893Y-89235354D01*
X207534890Y-89235353D01*
X207531160Y-89232935D01*
X207526901Y-89231661D01*
X207526898Y-89231660D01*
X207508345Y-89226112D01*
X207498839Y-89223269D01*
X207488377Y-89219079D01*
X207482813Y-89216244D01*
X207471067Y-89214384D01*
X207462951Y-89212536D01*
X207413838Y-89197848D01*
X207369496Y-89197577D01*
X207360103Y-89196809D01*
X207354857Y-89195978D01*
X207354856Y-89195978D01*
X207350000Y-89195209D01*
X207341373Y-89196576D01*
X207331220Y-89197344D01*
X207312836Y-89197231D01*
X207295838Y-89197127D01*
X207295836Y-89197127D01*
X207291385Y-89197100D01*
X207237011Y-89212641D01*
X207229623Y-89214275D01*
X207217187Y-89216244D01*
X207212804Y-89218477D01*
X207211870Y-89218781D01*
X207202155Y-89222603D01*
X207177929Y-89229526D01*
X207177927Y-89229527D01*
X207173644Y-89230751D01*
X207114119Y-89268309D01*
X207112819Y-89269129D01*
X207107842Y-89271959D01*
X207101757Y-89275059D01*
X207101756Y-89275060D01*
X207097375Y-89277292D01*
X207093897Y-89280770D01*
X207092445Y-89281825D01*
X207089058Y-89284120D01*
X207070080Y-89296095D01*
X207067137Y-89299427D01*
X207067135Y-89299429D01*
X207007156Y-89367342D01*
X207006032Y-89368538D01*
X207005775Y-89368892D01*
X207005554Y-89369113D01*
X207005405Y-89369204D01*
X207004504Y-89370163D01*
X207002292Y-89372375D01*
X207001509Y-89371592D01*
X207000362Y-89372296D01*
X207001721Y-89373496D01*
X206989018Y-89387879D01*
X206987127Y-89391907D01*
X206938868Y-89494695D01*
X206938867Y-89494698D01*
X206936976Y-89498726D01*
X206918136Y-89619724D01*
X183744514Y-89619724D01*
X183761786Y-89609140D01*
X183761789Y-89609138D01*
X183763884Y-89607854D01*
X183949405Y-89449405D01*
X184107854Y-89263884D01*
X184125338Y-89235354D01*
X184234049Y-89057953D01*
X184235331Y-89055861D01*
X184289535Y-88925000D01*
X184327756Y-88832727D01*
X184327757Y-88832724D01*
X184328696Y-88830457D01*
X184331748Y-88817747D01*
X184368857Y-88663173D01*
X184385651Y-88593223D01*
X184404793Y-88350000D01*
X184385651Y-88106777D01*
X184328696Y-87869543D01*
X184320602Y-87850000D01*
X208445207Y-87850000D01*
X208464349Y-88093223D01*
X208475682Y-88140429D01*
X208518253Y-88317747D01*
X208521304Y-88330457D01*
X208522243Y-88332724D01*
X208522244Y-88332727D01*
X208554329Y-88410186D01*
X208614669Y-88555861D01*
X208615951Y-88557953D01*
X208637565Y-88593223D01*
X208742146Y-88763884D01*
X208900595Y-88949405D01*
X209086116Y-89107854D01*
X209088211Y-89109138D01*
X209088214Y-89109140D01*
X209258891Y-89213731D01*
X209294139Y-89235331D01*
X209411927Y-89284120D01*
X209517273Y-89327756D01*
X209517276Y-89327757D01*
X209519543Y-89328696D01*
X209521934Y-89329270D01*
X209521937Y-89329271D01*
X209638160Y-89357174D01*
X209756777Y-89385651D01*
X210000000Y-89404793D01*
X210243223Y-89385651D01*
X210361840Y-89357174D01*
X210478063Y-89329271D01*
X210478066Y-89329270D01*
X210480457Y-89328696D01*
X210482724Y-89327757D01*
X210482727Y-89327756D01*
X210588073Y-89284120D01*
X210705861Y-89235331D01*
X210741109Y-89213731D01*
X210911786Y-89109140D01*
X210911789Y-89109138D01*
X210913884Y-89107854D01*
X211099405Y-88949405D01*
X211257854Y-88763884D01*
X211362436Y-88593223D01*
X211384049Y-88557953D01*
X211385331Y-88555861D01*
X211445671Y-88410186D01*
X211477756Y-88332727D01*
X211477757Y-88332724D01*
X211478696Y-88330457D01*
X211481748Y-88317747D01*
X211524318Y-88140429D01*
X211535651Y-88093223D01*
X211554793Y-87850000D01*
X211535651Y-87606777D01*
X211507173Y-87488160D01*
X211479271Y-87371937D01*
X211479270Y-87371934D01*
X211478696Y-87369543D01*
X211460388Y-87325342D01*
X211424700Y-87239185D01*
X211385331Y-87144139D01*
X211353470Y-87092146D01*
X211259140Y-86938214D01*
X211259138Y-86938211D01*
X211257854Y-86936116D01*
X211099405Y-86750595D01*
X210913884Y-86592146D01*
X210911789Y-86590862D01*
X210911786Y-86590860D01*
X210707953Y-86465951D01*
X210705861Y-86464669D01*
X210575320Y-86410597D01*
X210482727Y-86372244D01*
X210482724Y-86372243D01*
X210480457Y-86371304D01*
X210478066Y-86370730D01*
X210478063Y-86370729D01*
X210361840Y-86342826D01*
X210243223Y-86314349D01*
X210000000Y-86295207D01*
X209756777Y-86314349D01*
X209638160Y-86342826D01*
X209521937Y-86370729D01*
X209521934Y-86370730D01*
X209519543Y-86371304D01*
X209517276Y-86372243D01*
X209517273Y-86372244D01*
X209424680Y-86410597D01*
X209294139Y-86464669D01*
X209292047Y-86465951D01*
X209088214Y-86590860D01*
X209088211Y-86590862D01*
X209086116Y-86592146D01*
X208900595Y-86750595D01*
X208742146Y-86936116D01*
X208740862Y-86938211D01*
X208740860Y-86938214D01*
X208646530Y-87092146D01*
X208614669Y-87144139D01*
X208575300Y-87239185D01*
X208539613Y-87325342D01*
X208521304Y-87369543D01*
X208520730Y-87371934D01*
X208520729Y-87371937D01*
X208492827Y-87488160D01*
X208464349Y-87606777D01*
X208447576Y-87819897D01*
X208445207Y-87850000D01*
X184320602Y-87850000D01*
X184319586Y-87847548D01*
X184278818Y-87749127D01*
X184235331Y-87644139D01*
X184213940Y-87609232D01*
X184109140Y-87438214D01*
X184109138Y-87438211D01*
X184107854Y-87436116D01*
X183949405Y-87250595D01*
X183763884Y-87092146D01*
X183761789Y-87090862D01*
X183761786Y-87090860D01*
X183557953Y-86965951D01*
X183555861Y-86964669D01*
X183425320Y-86910597D01*
X183332727Y-86872244D01*
X183332724Y-86872243D01*
X183330457Y-86871304D01*
X183328066Y-86870730D01*
X183328063Y-86870729D01*
X183211840Y-86842827D01*
X183093223Y-86814349D01*
X182850000Y-86795207D01*
X182606777Y-86814349D01*
X182488160Y-86842826D01*
X182371937Y-86870729D01*
X182371934Y-86870730D01*
X182369543Y-86871304D01*
X182367276Y-86872243D01*
X182367273Y-86872244D01*
X182274680Y-86910597D01*
X182144139Y-86964669D01*
X182142047Y-86965951D01*
X181938214Y-87090860D01*
X181938211Y-87090862D01*
X181936116Y-87092146D01*
X181750595Y-87250595D01*
X181592146Y-87436116D01*
X181590862Y-87438211D01*
X181590860Y-87438214D01*
X181486060Y-87609232D01*
X181464669Y-87644139D01*
X181421182Y-87749127D01*
X181380415Y-87847548D01*
X181371304Y-87869543D01*
X181314349Y-88106777D01*
X181297576Y-88319897D01*
X181295207Y-88350000D01*
X180200000Y-88350000D01*
X180200000Y-86029816D01*
X180201590Y-86015810D01*
X180203565Y-86007220D01*
X180205143Y-86000358D01*
X180203589Y-85993493D01*
X180203593Y-85991497D01*
X180202526Y-85974353D01*
X180214768Y-85850056D01*
X180217158Y-85838039D01*
X180225149Y-85811698D01*
X180259110Y-85699741D01*
X180263799Y-85688422D01*
X180331923Y-85560972D01*
X180338730Y-85550785D01*
X180430409Y-85439073D01*
X180439073Y-85430409D01*
X180550785Y-85338730D01*
X180560972Y-85331923D01*
X180688422Y-85263799D01*
X180699741Y-85259110D01*
X180722765Y-85252126D01*
X180838043Y-85217157D01*
X180850052Y-85214769D01*
X180930907Y-85206805D01*
X180973920Y-85202569D01*
X180989399Y-85203559D01*
X180992780Y-85203565D01*
X180999642Y-85205143D01*
X181006505Y-85203590D01*
X181006507Y-85203590D01*
X181015561Y-85201541D01*
X181029354Y-85200000D01*
X211970184Y-85200000D01*
X211984190Y-85201590D01*
G37*
%TD.AperFunction*%
%TD*%
M02*
