%TF.GenerationSoftware,KiCad,Pcbnew,(6.0.1)*%
%TF.CreationDate,2022-10-07T00:00:46+07:00*%
%TF.ProjectId,rak3172,72616b33-3137-4322-9e6b-696361645f70,rev?*%
%TF.SameCoordinates,Original*%
%TF.FileFunction,Paste,Top*%
%TF.FilePolarity,Positive*%
%FSLAX46Y46*%
G04 Gerber Fmt 4.6, Leading zero omitted, Abs format (unit mm)*
G04 Created by KiCad (PCBNEW (6.0.1)) date 2022-10-07 00:00:46*
%MOMM*%
%LPD*%
G01*
G04 APERTURE LIST*
G04 Aperture macros list*
%AMRoundRect*
0 Rectangle with rounded corners*
0 $1 Rounding radius*
0 $2 $3 $4 $5 $6 $7 $8 $9 X,Y pos of 4 corners*
0 Add a 4 corners polygon primitive as box body*
4,1,4,$2,$3,$4,$5,$6,$7,$8,$9,$2,$3,0*
0 Add four circle primitives for the rounded corners*
1,1,$1+$1,$2,$3*
1,1,$1+$1,$4,$5*
1,1,$1+$1,$6,$7*
1,1,$1+$1,$8,$9*
0 Add four rect primitives between the rounded corners*
20,1,$1+$1,$2,$3,$4,$5,0*
20,1,$1+$1,$4,$5,$6,$7,0*
20,1,$1+$1,$6,$7,$8,$9,0*
20,1,$1+$1,$8,$9,$2,$3,0*%
%AMRotRect*
0 Rectangle, with rotation*
0 The origin of the aperture is its center*
0 $1 length*
0 $2 width*
0 $3 Rotation angle, in degrees counterclockwise*
0 Add horizontal line*
21,1,$1,$2,0,0,$3*%
%AMOutline5P*
0 Free polygon, 5 corners , with rotation*
0 The origin of the aperture is its center*
0 number of corners: always 5*
0 $1 to $10 corner X, Y*
0 $11 Rotation angle, in degrees counterclockwise*
0 create outline with 5 corners*
4,1,5,$1,$2,$3,$4,$5,$6,$7,$8,$9,$10,$1,$2,$11*%
%AMOutline6P*
0 Free polygon, 6 corners , with rotation*
0 The origin of the aperture is its center*
0 number of corners: always 6*
0 $1 to $12 corner X, Y*
0 $13 Rotation angle, in degrees counterclockwise*
0 create outline with 6 corners*
4,1,6,$1,$2,$3,$4,$5,$6,$7,$8,$9,$10,$11,$12,$1,$2,$13*%
%AMOutline7P*
0 Free polygon, 7 corners , with rotation*
0 The origin of the aperture is its center*
0 number of corners: always 7*
0 $1 to $14 corner X, Y*
0 $15 Rotation angle, in degrees counterclockwise*
0 create outline with 7 corners*
4,1,7,$1,$2,$3,$4,$5,$6,$7,$8,$9,$10,$11,$12,$13,$14,$1,$2,$15*%
%AMOutline8P*
0 Free polygon, 8 corners , with rotation*
0 The origin of the aperture is its center*
0 number of corners: always 8*
0 $1 to $16 corner X, Y*
0 $17 Rotation angle, in degrees counterclockwise*
0 create outline with 8 corners*
4,1,8,$1,$2,$3,$4,$5,$6,$7,$8,$9,$10,$11,$12,$13,$14,$15,$16,$1,$2,$17*%
%AMFreePoly0*
4,1,6,0.130000,0.115000,0.130000,-0.115000,-0.130000,-0.115000,-0.130000,0.275000,-0.020000,0.275000,0.130000,0.115000,0.130000,0.115000,$1*%
%AMFreePoly1*
4,1,6,0.130000,-0.115000,-0.130000,-0.115000,-0.130000,0.115000,0.020000,0.275000,0.130000,0.275000,0.130000,-0.115000,0.130000,-0.115000,$1*%
G04 Aperture macros list end*
%ADD10R,0.350000X0.580000*%
%ADD11R,0.580000X0.350000*%
%ADD12RoundRect,0.140000X0.140000X0.170000X-0.140000X0.170000X-0.140000X-0.170000X0.140000X-0.170000X0*%
%ADD13RoundRect,0.140000X0.170000X-0.140000X0.170000X0.140000X-0.170000X0.140000X-0.170000X-0.140000X0*%
%ADD14RoundRect,0.135000X0.135000X0.185000X-0.135000X0.185000X-0.135000X-0.185000X0.135000X-0.185000X0*%
%ADD15Outline5P,-0.585000X0.185000X0.474000X0.185000X0.585000X0.074000X0.585000X-0.185000X-0.585000X-0.185000X0.000000*%
%ADD16R,1.170000X0.370000*%
%ADD17R,0.370000X1.170000*%
%ADD18R,1.600000X1.600000*%
%ADD19R,0.700000X0.600000*%
%ADD20RoundRect,0.135000X0.185000X-0.135000X0.185000X0.135000X-0.185000X0.135000X-0.185000X-0.135000X0*%
%ADD21RoundRect,0.140000X-0.140000X-0.170000X0.140000X-0.170000X0.140000X0.170000X-0.140000X0.170000X0*%
%ADD22RoundRect,0.140000X-0.170000X0.140000X-0.170000X-0.140000X0.170000X-0.140000X0.170000X0.140000X0*%
%ADD23RoundRect,0.135000X-0.135000X-0.185000X0.135000X-0.185000X0.135000X0.185000X-0.135000X0.185000X0*%
%ADD24RoundRect,0.218750X-0.256250X0.218750X-0.256250X-0.218750X0.256250X-0.218750X0.256250X0.218750X0*%
%ADD25RoundRect,0.150000X-0.587500X-0.150000X0.587500X-0.150000X0.587500X0.150000X-0.587500X0.150000X0*%
%ADD26RotRect,0.520000X0.520000X225.000000*%
%ADD27FreePoly0,180.000000*%
%ADD28FreePoly1,180.000000*%
%ADD29FreePoly0,0.000000*%
%ADD30FreePoly1,0.000000*%
%ADD31RoundRect,0.135000X-0.185000X0.135000X-0.185000X-0.135000X0.185000X-0.135000X0.185000X0.135000X0*%
%ADD32C,0.250000*%
%ADD33R,2.500000X2.500000*%
%ADD34RoundRect,0.147500X-0.147500X-0.172500X0.147500X-0.172500X0.147500X0.172500X-0.147500X0.172500X0*%
%ADD35RoundRect,0.250000X-0.425000X0.450000X-0.425000X-0.450000X0.425000X-0.450000X0.425000X0.450000X0*%
%ADD36RotRect,0.520000X0.520000X45.000000*%
%ADD37RoundRect,0.250000X0.450000X0.425000X-0.450000X0.425000X-0.450000X-0.425000X0.450000X-0.425000X0*%
%ADD38RoundRect,0.218750X0.381250X-0.218750X0.381250X0.218750X-0.381250X0.218750X-0.381250X-0.218750X0*%
%ADD39R,2.200000X1.050000*%
%ADD40R,1.050000X1.000000*%
%ADD41RoundRect,0.150000X0.150000X-0.587500X0.150000X0.587500X-0.150000X0.587500X-0.150000X-0.587500X0*%
%ADD42RoundRect,0.237500X0.387500X0.237500X-0.387500X0.237500X-0.387500X-0.237500X0.387500X-0.237500X0*%
G04 APERTURE END LIST*
D10*
%TO.C,U7*%
X207600000Y-95175000D03*
X207100000Y-95175000D03*
X206600000Y-95175000D03*
D11*
X205925000Y-95000000D03*
X205925000Y-94500000D03*
X205925000Y-94000000D03*
X205925000Y-93500000D03*
D10*
X206600000Y-93325000D03*
X207100000Y-93325000D03*
X207600000Y-93325000D03*
D11*
X208275000Y-93500000D03*
X208275000Y-94000000D03*
X208275000Y-94500000D03*
X208275000Y-95000000D03*
%TD*%
D12*
%TO.C,C19*%
X190330000Y-111200000D03*
X189370000Y-111200000D03*
%TD*%
D13*
%TO.C,C4*%
X210700000Y-98880000D03*
X210700000Y-97920000D03*
%TD*%
D14*
%TO.C,R18*%
X191210000Y-95900000D03*
X190190000Y-95900000D03*
%TD*%
D15*
%TO.C,U2*%
X193650000Y-103000000D03*
D16*
X193650000Y-103600000D03*
X193650000Y-104200000D03*
X193650000Y-104800000D03*
X193650000Y-105400000D03*
X193650000Y-106000000D03*
X193650000Y-106600000D03*
X193650000Y-107200000D03*
X193650000Y-107800000D03*
X193650000Y-108400000D03*
X193650000Y-109000000D03*
X193650000Y-109600000D03*
X193650000Y-110200000D03*
X193650000Y-110800000D03*
X193650000Y-111400000D03*
X193650000Y-112000000D03*
D17*
X194800000Y-113150000D03*
X195400000Y-113150000D03*
X196000000Y-113150000D03*
X196600000Y-113150000D03*
X197200000Y-113150000D03*
X197800000Y-113150000D03*
X198400000Y-113150000D03*
X199000000Y-113150000D03*
X199600000Y-113150000D03*
X200200000Y-113150000D03*
X200800000Y-113150000D03*
X201400000Y-113150000D03*
X202000000Y-113150000D03*
X202600000Y-113150000D03*
X203200000Y-113150000D03*
X203800000Y-113150000D03*
D16*
X204950000Y-112000000D03*
X204950000Y-111400000D03*
X204950000Y-110800000D03*
X204950000Y-110200000D03*
X204950000Y-109600000D03*
X204950000Y-109000000D03*
X204950000Y-108400000D03*
X204950000Y-107800000D03*
X204950000Y-107200000D03*
X204950000Y-106600000D03*
X204950000Y-106000000D03*
X204950000Y-105400000D03*
X204950000Y-104800000D03*
X204950000Y-104200000D03*
X204950000Y-103600000D03*
X204950000Y-103000000D03*
D17*
X203800000Y-101850000D03*
X203200000Y-101850000D03*
X202600000Y-101850000D03*
X202000000Y-101850000D03*
X201400000Y-101850000D03*
X200800000Y-101850000D03*
X200200000Y-101850000D03*
X199600000Y-101850000D03*
X199000000Y-101850000D03*
X198400000Y-101850000D03*
X197800000Y-101850000D03*
X197200000Y-101850000D03*
X196600000Y-101850000D03*
X196000000Y-101850000D03*
X195400000Y-101850000D03*
X194800000Y-101850000D03*
D18*
X196500000Y-104700000D03*
X199300000Y-104700000D03*
X202100000Y-104700000D03*
X196500000Y-107500000D03*
X199300000Y-107500000D03*
X202100000Y-107500000D03*
X196500000Y-110300000D03*
X199300000Y-110300000D03*
X202100000Y-110300000D03*
%TD*%
D19*
%TO.C,D3*%
X193300000Y-89500000D03*
X193300000Y-90900000D03*
%TD*%
D20*
%TO.C,R15*%
X210000000Y-94060000D03*
X210000000Y-93040000D03*
%TD*%
D21*
%TO.C,C21*%
X181780000Y-96000000D03*
X180820000Y-96000000D03*
%TD*%
D22*
%TO.C,C13*%
X189350000Y-108220000D03*
X189350000Y-109180000D03*
%TD*%
D21*
%TO.C,C30*%
X205620000Y-92050000D03*
X206580000Y-92050000D03*
%TD*%
D23*
%TO.C,R17*%
X187140000Y-97100000D03*
X188160000Y-97100000D03*
%TD*%
D20*
%TO.C,R6*%
X188800000Y-107010000D03*
X188800000Y-105990000D03*
%TD*%
D22*
%TO.C,C11*%
X190800000Y-106020000D03*
X190800000Y-106980000D03*
%TD*%
D24*
%TO.C,D1*%
X181600000Y-93687500D03*
X181600000Y-92112500D03*
%TD*%
D22*
%TO.C,C7*%
X185900000Y-93880000D03*
X185900000Y-92920000D03*
%TD*%
D25*
%TO.C,U4*%
X183237500Y-98300000D03*
X181362500Y-99250000D03*
X181362500Y-97350000D03*
%TD*%
D26*
%TO.C,U3*%
X187400000Y-93400000D03*
D27*
X187725000Y-92915000D03*
D28*
X187075000Y-92915000D03*
D29*
X187075000Y-93885000D03*
D30*
X187725000Y-93885000D03*
%TD*%
D14*
%TO.C,R19*%
X191200000Y-91300000D03*
X190180000Y-91300000D03*
%TD*%
D31*
%TO.C,R3*%
X189800000Y-105990000D03*
X189800000Y-107010000D03*
%TD*%
D14*
%TO.C,R8*%
X190360000Y-112250000D03*
X189340000Y-112250000D03*
%TD*%
D21*
%TO.C,C22*%
X202330000Y-99250000D03*
X201370000Y-99250000D03*
%TD*%
D23*
%TO.C,R9*%
X189340000Y-114250000D03*
X190360000Y-114250000D03*
%TD*%
%TO.C,R14*%
X199340000Y-97100000D03*
X200360000Y-97100000D03*
%TD*%
%TO.C,R12*%
X199340000Y-98100000D03*
X200360000Y-98100000D03*
%TD*%
D32*
%TO.C,U5*%
X212000000Y-93750000D03*
X212400000Y-93750000D03*
X212000000Y-94150000D03*
X212400000Y-94150000D03*
%TD*%
D33*
%TO.C,BZ1*%
X196200000Y-86900000D03*
X196200000Y-93900000D03*
X203200000Y-93900000D03*
X203200000Y-86900000D03*
%TD*%
D22*
%TO.C,C14*%
X190100000Y-104020000D03*
X190100000Y-104980000D03*
%TD*%
D34*
%TO.C,L1*%
X207615000Y-109600000D03*
X208585000Y-109600000D03*
%TD*%
D35*
%TO.C,C32*%
X185600000Y-97650000D03*
X185600000Y-100350000D03*
%TD*%
D31*
%TO.C,R1*%
X211700000Y-97890000D03*
X211700000Y-98910000D03*
%TD*%
D13*
%TO.C,C12*%
X188700000Y-93880000D03*
X188700000Y-92920000D03*
%TD*%
D31*
%TO.C,R4*%
X207700000Y-97890000D03*
X207700000Y-98910000D03*
%TD*%
D12*
%TO.C,C33*%
X208480000Y-91050000D03*
X207520000Y-91050000D03*
%TD*%
D23*
%TO.C,R7*%
X181810000Y-100600000D03*
X180790000Y-100600000D03*
%TD*%
D36*
%TO.C,U1*%
X184400000Y-93400000D03*
D29*
X184075000Y-93885000D03*
D30*
X184725000Y-93885000D03*
D27*
X184725000Y-92915000D03*
D28*
X184075000Y-92915000D03*
%TD*%
D37*
%TO.C,C17*%
X185950000Y-95500000D03*
X188650000Y-95500000D03*
%TD*%
D38*
%TO.C,L2*%
X191850000Y-110562500D03*
X191850000Y-108437500D03*
%TD*%
D23*
%TO.C,R10*%
X189340000Y-113250000D03*
X190360000Y-113250000D03*
%TD*%
D12*
%TO.C,C24*%
X199390000Y-100250000D03*
X200350000Y-100250000D03*
%TD*%
D23*
%TO.C,R13*%
X199340000Y-96100000D03*
X200360000Y-96100000D03*
%TD*%
D14*
%TO.C,R5*%
X184410000Y-94900000D03*
X183390000Y-94900000D03*
%TD*%
D13*
%TO.C,C6*%
X208700000Y-98880000D03*
X208700000Y-97920000D03*
%TD*%
D25*
%TO.C,Q2*%
X190762500Y-92650000D03*
X190762500Y-94550000D03*
X192637500Y-93600000D03*
%TD*%
D13*
%TO.C,C26*%
X211000000Y-94030000D03*
X211000000Y-93070000D03*
%TD*%
D22*
%TO.C,C10*%
X191100000Y-104020000D03*
X191100000Y-104980000D03*
%TD*%
%TO.C,C2*%
X206600000Y-109620000D03*
X206600000Y-110580000D03*
%TD*%
D12*
%TO.C,C31*%
X208480000Y-92050000D03*
X207520000Y-92050000D03*
%TD*%
D39*
%TO.C,ANT2*%
X213975000Y-108125000D03*
X213975000Y-111075000D03*
D40*
X212450000Y-109600000D03*
%TD*%
D22*
%TO.C,C9*%
X191800000Y-106020000D03*
X191800000Y-106980000D03*
%TD*%
D12*
%TO.C,C23*%
X200330000Y-99250000D03*
X199370000Y-99250000D03*
%TD*%
D41*
%TO.C,Q1*%
X187500000Y-100537500D03*
X189400000Y-100537500D03*
X188450000Y-98662500D03*
%TD*%
D24*
%TO.C,D2*%
X188800000Y-103162500D03*
X188800000Y-104737500D03*
%TD*%
D21*
%TO.C,C3*%
X183820000Y-91900000D03*
X184780000Y-91900000D03*
%TD*%
D22*
%TO.C,C8*%
X192100000Y-104020000D03*
X192100000Y-104980000D03*
%TD*%
D42*
%TO.C,SW2*%
X211535232Y-106175000D03*
X207185232Y-106175000D03*
X211535232Y-104025000D03*
X207185232Y-104025000D03*
%TD*%
D21*
%TO.C,C20*%
X201370000Y-100250000D03*
X202330000Y-100250000D03*
%TD*%
D22*
%TO.C,C1*%
X209600000Y-109620000D03*
X209600000Y-110580000D03*
%TD*%
D31*
%TO.C,R16*%
X190700000Y-100090000D03*
X190700000Y-101110000D03*
%TD*%
D20*
%TO.C,R2*%
X209700000Y-98910000D03*
X209700000Y-97890000D03*
%TD*%
D42*
%TO.C,SW1*%
X211535232Y-102400000D03*
X207185232Y-102400000D03*
X211535232Y-100250000D03*
X207185232Y-100250000D03*
%TD*%
D22*
%TO.C,C5*%
X183000000Y-93880000D03*
X183000000Y-92920000D03*
%TD*%
%TO.C,C16*%
X190350000Y-108220000D03*
X190350000Y-109180000D03*
%TD*%
D23*
%TO.C,R11*%
X211190000Y-95050000D03*
X212210000Y-95050000D03*
%TD*%
D12*
%TO.C,C18*%
X190330000Y-110200000D03*
X189370000Y-110200000D03*
%TD*%
M02*
