%TF.GenerationSoftware,KiCad,Pcbnew,(6.0.1)*%
%TF.CreationDate,2022-10-07T00:00:46+07:00*%
%TF.ProjectId,rak3172,72616b33-3137-4322-9e6b-696361645f70,rev?*%
%TF.SameCoordinates,Original*%
%TF.FileFunction,Paste,Bot*%
%TF.FilePolarity,Positive*%
%FSLAX46Y46*%
G04 Gerber Fmt 4.6, Leading zero omitted, Abs format (unit mm)*
G04 Created by KiCad (PCBNEW (6.0.1)) date 2022-10-07 00:00:46*
%MOMM*%
%LPD*%
G01*
G04 APERTURE LIST*
G04 Aperture macros list*
%AMRoundRect*
0 Rectangle with rounded corners*
0 $1 Rounding radius*
0 $2 $3 $4 $5 $6 $7 $8 $9 X,Y pos of 4 corners*
0 Add a 4 corners polygon primitive as box body*
4,1,4,$2,$3,$4,$5,$6,$7,$8,$9,$2,$3,0*
0 Add four circle primitives for the rounded corners*
1,1,$1+$1,$2,$3*
1,1,$1+$1,$4,$5*
1,1,$1+$1,$6,$7*
1,1,$1+$1,$8,$9*
0 Add four rect primitives between the rounded corners*
20,1,$1+$1,$2,$3,$4,$5,0*
20,1,$1+$1,$4,$5,$6,$7,0*
20,1,$1+$1,$6,$7,$8,$9,0*
20,1,$1+$1,$8,$9,$2,$3,0*%
G04 Aperture macros list end*
%ADD10C,0.000100*%
%ADD11R,1.800000X0.800000*%
%ADD12R,2.900000X1.800000*%
%ADD13RoundRect,0.140000X0.140000X0.170000X-0.140000X0.170000X-0.140000X-0.170000X0.140000X-0.170000X0*%
G04 APERTURE END LIST*
D10*
%TO.C,U6*%
X188500000Y-101770000D02*
X189400000Y-101770000D01*
X189400000Y-101770000D02*
X189452000Y-101767000D01*
X189452000Y-101767000D02*
X189504000Y-101759000D01*
X189504000Y-101759000D02*
X189555000Y-101746000D01*
X189555000Y-101746000D02*
X189603000Y-101727000D01*
X189603000Y-101727000D02*
X189650000Y-101703000D01*
X189650000Y-101703000D02*
X189694000Y-101675000D01*
X189694000Y-101675000D02*
X189735000Y-101642000D01*
X189735000Y-101642000D02*
X189772000Y-101605000D01*
X189772000Y-101605000D02*
X189805000Y-101564000D01*
X189805000Y-101564000D02*
X189833000Y-101520000D01*
X189833000Y-101520000D02*
X189857000Y-101473000D01*
X189857000Y-101473000D02*
X189876000Y-101425000D01*
X189876000Y-101425000D02*
X189889000Y-101374000D01*
X189889000Y-101374000D02*
X189897000Y-101322000D01*
X189897000Y-101322000D02*
X189900000Y-101270000D01*
X189900000Y-101270000D02*
X189897000Y-101218000D01*
X189897000Y-101218000D02*
X189889000Y-101166000D01*
X189889000Y-101166000D02*
X189876000Y-101115000D01*
X189876000Y-101115000D02*
X189857000Y-101067000D01*
X189857000Y-101067000D02*
X189833000Y-101020000D01*
X189833000Y-101020000D02*
X189805000Y-100976000D01*
X189805000Y-100976000D02*
X189772000Y-100935000D01*
X189772000Y-100935000D02*
X189735000Y-100898000D01*
X189735000Y-100898000D02*
X189694000Y-100865000D01*
X189694000Y-100865000D02*
X189650000Y-100837000D01*
X189650000Y-100837000D02*
X189603000Y-100813000D01*
X189603000Y-100813000D02*
X189555000Y-100794000D01*
X189555000Y-100794000D02*
X189504000Y-100781000D01*
X189504000Y-100781000D02*
X189452000Y-100773000D01*
X189452000Y-100773000D02*
X189400000Y-100770000D01*
X189400000Y-100770000D02*
X187600000Y-100770000D01*
X187600000Y-100770000D02*
X187548000Y-100773000D01*
X187548000Y-100773000D02*
X187496000Y-100781000D01*
X187496000Y-100781000D02*
X187445000Y-100794000D01*
X187445000Y-100794000D02*
X187397000Y-100813000D01*
X187397000Y-100813000D02*
X187350000Y-100837000D01*
X187350000Y-100837000D02*
X187306000Y-100865000D01*
X187306000Y-100865000D02*
X187265000Y-100898000D01*
X187265000Y-100898000D02*
X187228000Y-100935000D01*
X187228000Y-100935000D02*
X187195000Y-100976000D01*
X187195000Y-100976000D02*
X187167000Y-101020000D01*
X187167000Y-101020000D02*
X187143000Y-101067000D01*
X187143000Y-101067000D02*
X187124000Y-101115000D01*
X187124000Y-101115000D02*
X187111000Y-101166000D01*
X187111000Y-101166000D02*
X187103000Y-101218000D01*
X187103000Y-101218000D02*
X187100000Y-101270000D01*
X187100000Y-101270000D02*
X187103000Y-101322000D01*
X187103000Y-101322000D02*
X187111000Y-101374000D01*
X187111000Y-101374000D02*
X187124000Y-101425000D01*
X187124000Y-101425000D02*
X187143000Y-101473000D01*
X187143000Y-101473000D02*
X187167000Y-101520000D01*
X187167000Y-101520000D02*
X187195000Y-101564000D01*
X187195000Y-101564000D02*
X187228000Y-101605000D01*
X187228000Y-101605000D02*
X187265000Y-101642000D01*
X187265000Y-101642000D02*
X187306000Y-101675000D01*
X187306000Y-101675000D02*
X187350000Y-101703000D01*
X187350000Y-101703000D02*
X187397000Y-101727000D01*
X187397000Y-101727000D02*
X187445000Y-101746000D01*
X187445000Y-101746000D02*
X187496000Y-101759000D01*
X187496000Y-101759000D02*
X187548000Y-101767000D01*
X187548000Y-101767000D02*
X187600000Y-101770000D01*
X187600000Y-101770000D02*
X188500000Y-101770000D01*
X188500000Y-101770000D02*
X188500000Y-101770000D01*
G36*
X189452000Y-100773000D02*
G01*
X189504000Y-100781000D01*
X189555000Y-100794000D01*
X189603000Y-100813000D01*
X189650000Y-100837000D01*
X189694000Y-100865000D01*
X189735000Y-100898000D01*
X189772000Y-100935000D01*
X189805000Y-100976000D01*
X189833000Y-101020000D01*
X189857000Y-101067000D01*
X189876000Y-101115000D01*
X189889000Y-101166000D01*
X189897000Y-101218000D01*
X189900000Y-101270000D01*
X189897000Y-101322000D01*
X189889000Y-101374000D01*
X189876000Y-101425000D01*
X189857000Y-101473000D01*
X189833000Y-101520000D01*
X189805000Y-101564000D01*
X189772000Y-101605000D01*
X189735000Y-101642000D01*
X189694000Y-101675000D01*
X189650000Y-101703000D01*
X189603000Y-101727000D01*
X189555000Y-101746000D01*
X189504000Y-101759000D01*
X189452000Y-101767000D01*
X189400000Y-101770000D01*
X187600000Y-101770000D01*
X187548000Y-101767000D01*
X187496000Y-101759000D01*
X187445000Y-101746000D01*
X187397000Y-101727000D01*
X187350000Y-101703000D01*
X187306000Y-101675000D01*
X187265000Y-101642000D01*
X187228000Y-101605000D01*
X187195000Y-101564000D01*
X187167000Y-101520000D01*
X187143000Y-101473000D01*
X187124000Y-101425000D01*
X187111000Y-101374000D01*
X187103000Y-101322000D01*
X187100000Y-101270000D01*
X187103000Y-101218000D01*
X187111000Y-101166000D01*
X187124000Y-101115000D01*
X187143000Y-101067000D01*
X187167000Y-101020000D01*
X187195000Y-100976000D01*
X187228000Y-100935000D01*
X187265000Y-100898000D01*
X187306000Y-100865000D01*
X187350000Y-100837000D01*
X187397000Y-100813000D01*
X187445000Y-100794000D01*
X187496000Y-100781000D01*
X187548000Y-100773000D01*
X187600000Y-100770000D01*
X189400000Y-100770000D01*
X189452000Y-100773000D01*
G37*
X189452000Y-100773000D02*
X189504000Y-100781000D01*
X189555000Y-100794000D01*
X189603000Y-100813000D01*
X189650000Y-100837000D01*
X189694000Y-100865000D01*
X189735000Y-100898000D01*
X189772000Y-100935000D01*
X189805000Y-100976000D01*
X189833000Y-101020000D01*
X189857000Y-101067000D01*
X189876000Y-101115000D01*
X189889000Y-101166000D01*
X189897000Y-101218000D01*
X189900000Y-101270000D01*
X189897000Y-101322000D01*
X189889000Y-101374000D01*
X189876000Y-101425000D01*
X189857000Y-101473000D01*
X189833000Y-101520000D01*
X189805000Y-101564000D01*
X189772000Y-101605000D01*
X189735000Y-101642000D01*
X189694000Y-101675000D01*
X189650000Y-101703000D01*
X189603000Y-101727000D01*
X189555000Y-101746000D01*
X189504000Y-101759000D01*
X189452000Y-101767000D01*
X189400000Y-101770000D01*
X187600000Y-101770000D01*
X187548000Y-101767000D01*
X187496000Y-101759000D01*
X187445000Y-101746000D01*
X187397000Y-101727000D01*
X187350000Y-101703000D01*
X187306000Y-101675000D01*
X187265000Y-101642000D01*
X187228000Y-101605000D01*
X187195000Y-101564000D01*
X187167000Y-101520000D01*
X187143000Y-101473000D01*
X187124000Y-101425000D01*
X187111000Y-101374000D01*
X187103000Y-101322000D01*
X187100000Y-101270000D01*
X187103000Y-101218000D01*
X187111000Y-101166000D01*
X187124000Y-101115000D01*
X187143000Y-101067000D01*
X187167000Y-101020000D01*
X187195000Y-100976000D01*
X187228000Y-100935000D01*
X187265000Y-100898000D01*
X187306000Y-100865000D01*
X187350000Y-100837000D01*
X187397000Y-100813000D01*
X187445000Y-100794000D01*
X187496000Y-100781000D01*
X187548000Y-100773000D01*
X187600000Y-100770000D01*
X189400000Y-100770000D01*
X189452000Y-100773000D01*
X188500000Y-96690000D02*
X189400000Y-96690000D01*
X189400000Y-96690000D02*
X189452000Y-96687000D01*
X189452000Y-96687000D02*
X189504000Y-96679000D01*
X189504000Y-96679000D02*
X189555000Y-96666000D01*
X189555000Y-96666000D02*
X189603000Y-96647000D01*
X189603000Y-96647000D02*
X189650000Y-96623000D01*
X189650000Y-96623000D02*
X189694000Y-96595000D01*
X189694000Y-96595000D02*
X189735000Y-96562000D01*
X189735000Y-96562000D02*
X189772000Y-96525000D01*
X189772000Y-96525000D02*
X189805000Y-96484000D01*
X189805000Y-96484000D02*
X189833000Y-96440000D01*
X189833000Y-96440000D02*
X189857000Y-96393000D01*
X189857000Y-96393000D02*
X189876000Y-96345000D01*
X189876000Y-96345000D02*
X189889000Y-96294000D01*
X189889000Y-96294000D02*
X189897000Y-96242000D01*
X189897000Y-96242000D02*
X189900000Y-96190000D01*
X189900000Y-96190000D02*
X189897000Y-96138000D01*
X189897000Y-96138000D02*
X189889000Y-96086000D01*
X189889000Y-96086000D02*
X189876000Y-96035000D01*
X189876000Y-96035000D02*
X189857000Y-95987000D01*
X189857000Y-95987000D02*
X189833000Y-95940000D01*
X189833000Y-95940000D02*
X189805000Y-95896000D01*
X189805000Y-95896000D02*
X189772000Y-95855000D01*
X189772000Y-95855000D02*
X189735000Y-95818000D01*
X189735000Y-95818000D02*
X189694000Y-95785000D01*
X189694000Y-95785000D02*
X189650000Y-95757000D01*
X189650000Y-95757000D02*
X189603000Y-95733000D01*
X189603000Y-95733000D02*
X189555000Y-95714000D01*
X189555000Y-95714000D02*
X189504000Y-95701000D01*
X189504000Y-95701000D02*
X189452000Y-95693000D01*
X189452000Y-95693000D02*
X189400000Y-95690000D01*
X189400000Y-95690000D02*
X187600000Y-95690000D01*
X187600000Y-95690000D02*
X187548000Y-95693000D01*
X187548000Y-95693000D02*
X187496000Y-95701000D01*
X187496000Y-95701000D02*
X187445000Y-95714000D01*
X187445000Y-95714000D02*
X187397000Y-95733000D01*
X187397000Y-95733000D02*
X187350000Y-95757000D01*
X187350000Y-95757000D02*
X187306000Y-95785000D01*
X187306000Y-95785000D02*
X187265000Y-95818000D01*
X187265000Y-95818000D02*
X187228000Y-95855000D01*
X187228000Y-95855000D02*
X187195000Y-95896000D01*
X187195000Y-95896000D02*
X187167000Y-95940000D01*
X187167000Y-95940000D02*
X187143000Y-95987000D01*
X187143000Y-95987000D02*
X187124000Y-96035000D01*
X187124000Y-96035000D02*
X187111000Y-96086000D01*
X187111000Y-96086000D02*
X187103000Y-96138000D01*
X187103000Y-96138000D02*
X187100000Y-96190000D01*
X187100000Y-96190000D02*
X187103000Y-96242000D01*
X187103000Y-96242000D02*
X187111000Y-96294000D01*
X187111000Y-96294000D02*
X187124000Y-96345000D01*
X187124000Y-96345000D02*
X187143000Y-96393000D01*
X187143000Y-96393000D02*
X187167000Y-96440000D01*
X187167000Y-96440000D02*
X187195000Y-96484000D01*
X187195000Y-96484000D02*
X187228000Y-96525000D01*
X187228000Y-96525000D02*
X187265000Y-96562000D01*
X187265000Y-96562000D02*
X187306000Y-96595000D01*
X187306000Y-96595000D02*
X187350000Y-96623000D01*
X187350000Y-96623000D02*
X187397000Y-96647000D01*
X187397000Y-96647000D02*
X187445000Y-96666000D01*
X187445000Y-96666000D02*
X187496000Y-96679000D01*
X187496000Y-96679000D02*
X187548000Y-96687000D01*
X187548000Y-96687000D02*
X187600000Y-96690000D01*
X187600000Y-96690000D02*
X188500000Y-96690000D01*
X188500000Y-96690000D02*
X188500000Y-96690000D01*
G36*
X189452000Y-95693000D02*
G01*
X189504000Y-95701000D01*
X189555000Y-95714000D01*
X189603000Y-95733000D01*
X189650000Y-95757000D01*
X189694000Y-95785000D01*
X189735000Y-95818000D01*
X189772000Y-95855000D01*
X189805000Y-95896000D01*
X189833000Y-95940000D01*
X189857000Y-95987000D01*
X189876000Y-96035000D01*
X189889000Y-96086000D01*
X189897000Y-96138000D01*
X189900000Y-96190000D01*
X189897000Y-96242000D01*
X189889000Y-96294000D01*
X189876000Y-96345000D01*
X189857000Y-96393000D01*
X189833000Y-96440000D01*
X189805000Y-96484000D01*
X189772000Y-96525000D01*
X189735000Y-96562000D01*
X189694000Y-96595000D01*
X189650000Y-96623000D01*
X189603000Y-96647000D01*
X189555000Y-96666000D01*
X189504000Y-96679000D01*
X189452000Y-96687000D01*
X189400000Y-96690000D01*
X187600000Y-96690000D01*
X187548000Y-96687000D01*
X187496000Y-96679000D01*
X187445000Y-96666000D01*
X187397000Y-96647000D01*
X187350000Y-96623000D01*
X187306000Y-96595000D01*
X187265000Y-96562000D01*
X187228000Y-96525000D01*
X187195000Y-96484000D01*
X187167000Y-96440000D01*
X187143000Y-96393000D01*
X187124000Y-96345000D01*
X187111000Y-96294000D01*
X187103000Y-96242000D01*
X187100000Y-96190000D01*
X187103000Y-96138000D01*
X187111000Y-96086000D01*
X187124000Y-96035000D01*
X187143000Y-95987000D01*
X187167000Y-95940000D01*
X187195000Y-95896000D01*
X187228000Y-95855000D01*
X187265000Y-95818000D01*
X187306000Y-95785000D01*
X187350000Y-95757000D01*
X187397000Y-95733000D01*
X187445000Y-95714000D01*
X187496000Y-95701000D01*
X187548000Y-95693000D01*
X187600000Y-95690000D01*
X189400000Y-95690000D01*
X189452000Y-95693000D01*
G37*
X189452000Y-95693000D02*
X189504000Y-95701000D01*
X189555000Y-95714000D01*
X189603000Y-95733000D01*
X189650000Y-95757000D01*
X189694000Y-95785000D01*
X189735000Y-95818000D01*
X189772000Y-95855000D01*
X189805000Y-95896000D01*
X189833000Y-95940000D01*
X189857000Y-95987000D01*
X189876000Y-96035000D01*
X189889000Y-96086000D01*
X189897000Y-96138000D01*
X189900000Y-96190000D01*
X189897000Y-96242000D01*
X189889000Y-96294000D01*
X189876000Y-96345000D01*
X189857000Y-96393000D01*
X189833000Y-96440000D01*
X189805000Y-96484000D01*
X189772000Y-96525000D01*
X189735000Y-96562000D01*
X189694000Y-96595000D01*
X189650000Y-96623000D01*
X189603000Y-96647000D01*
X189555000Y-96666000D01*
X189504000Y-96679000D01*
X189452000Y-96687000D01*
X189400000Y-96690000D01*
X187600000Y-96690000D01*
X187548000Y-96687000D01*
X187496000Y-96679000D01*
X187445000Y-96666000D01*
X187397000Y-96647000D01*
X187350000Y-96623000D01*
X187306000Y-96595000D01*
X187265000Y-96562000D01*
X187228000Y-96525000D01*
X187195000Y-96484000D01*
X187167000Y-96440000D01*
X187143000Y-96393000D01*
X187124000Y-96345000D01*
X187111000Y-96294000D01*
X187103000Y-96242000D01*
X187100000Y-96190000D01*
X187103000Y-96138000D01*
X187111000Y-96086000D01*
X187124000Y-96035000D01*
X187143000Y-95987000D01*
X187167000Y-95940000D01*
X187195000Y-95896000D01*
X187228000Y-95855000D01*
X187265000Y-95818000D01*
X187306000Y-95785000D01*
X187350000Y-95757000D01*
X187397000Y-95733000D01*
X187445000Y-95714000D01*
X187496000Y-95701000D01*
X187548000Y-95693000D01*
X187600000Y-95690000D01*
X189400000Y-95690000D01*
X189452000Y-95693000D01*
X204500000Y-99230000D02*
X205400000Y-99230000D01*
X205400000Y-99230000D02*
X205452000Y-99227000D01*
X205452000Y-99227000D02*
X205504000Y-99219000D01*
X205504000Y-99219000D02*
X205555000Y-99206000D01*
X205555000Y-99206000D02*
X205603000Y-99187000D01*
X205603000Y-99187000D02*
X205650000Y-99163000D01*
X205650000Y-99163000D02*
X205694000Y-99135000D01*
X205694000Y-99135000D02*
X205735000Y-99102000D01*
X205735000Y-99102000D02*
X205772000Y-99065000D01*
X205772000Y-99065000D02*
X205805000Y-99024000D01*
X205805000Y-99024000D02*
X205833000Y-98980000D01*
X205833000Y-98980000D02*
X205857000Y-98933000D01*
X205857000Y-98933000D02*
X205876000Y-98885000D01*
X205876000Y-98885000D02*
X205889000Y-98834000D01*
X205889000Y-98834000D02*
X205897000Y-98782000D01*
X205897000Y-98782000D02*
X205900000Y-98730000D01*
X205900000Y-98730000D02*
X205897000Y-98678000D01*
X205897000Y-98678000D02*
X205889000Y-98626000D01*
X205889000Y-98626000D02*
X205876000Y-98575000D01*
X205876000Y-98575000D02*
X205857000Y-98527000D01*
X205857000Y-98527000D02*
X205833000Y-98480000D01*
X205833000Y-98480000D02*
X205805000Y-98436000D01*
X205805000Y-98436000D02*
X205772000Y-98395000D01*
X205772000Y-98395000D02*
X205735000Y-98358000D01*
X205735000Y-98358000D02*
X205694000Y-98325000D01*
X205694000Y-98325000D02*
X205650000Y-98297000D01*
X205650000Y-98297000D02*
X205603000Y-98273000D01*
X205603000Y-98273000D02*
X205555000Y-98254000D01*
X205555000Y-98254000D02*
X205504000Y-98241000D01*
X205504000Y-98241000D02*
X205452000Y-98233000D01*
X205452000Y-98233000D02*
X205400000Y-98230000D01*
X205400000Y-98230000D02*
X203600000Y-98230000D01*
X203600000Y-98230000D02*
X203548000Y-98233000D01*
X203548000Y-98233000D02*
X203496000Y-98241000D01*
X203496000Y-98241000D02*
X203445000Y-98254000D01*
X203445000Y-98254000D02*
X203397000Y-98273000D01*
X203397000Y-98273000D02*
X203350000Y-98297000D01*
X203350000Y-98297000D02*
X203306000Y-98325000D01*
X203306000Y-98325000D02*
X203265000Y-98358000D01*
X203265000Y-98358000D02*
X203228000Y-98395000D01*
X203228000Y-98395000D02*
X203195000Y-98436000D01*
X203195000Y-98436000D02*
X203167000Y-98480000D01*
X203167000Y-98480000D02*
X203143000Y-98527000D01*
X203143000Y-98527000D02*
X203124000Y-98575000D01*
X203124000Y-98575000D02*
X203111000Y-98626000D01*
X203111000Y-98626000D02*
X203103000Y-98678000D01*
X203103000Y-98678000D02*
X203100000Y-98730000D01*
X203100000Y-98730000D02*
X203103000Y-98782000D01*
X203103000Y-98782000D02*
X203111000Y-98834000D01*
X203111000Y-98834000D02*
X203124000Y-98885000D01*
X203124000Y-98885000D02*
X203143000Y-98933000D01*
X203143000Y-98933000D02*
X203167000Y-98980000D01*
X203167000Y-98980000D02*
X203195000Y-99024000D01*
X203195000Y-99024000D02*
X203228000Y-99065000D01*
X203228000Y-99065000D02*
X203265000Y-99102000D01*
X203265000Y-99102000D02*
X203306000Y-99135000D01*
X203306000Y-99135000D02*
X203350000Y-99163000D01*
X203350000Y-99163000D02*
X203397000Y-99187000D01*
X203397000Y-99187000D02*
X203445000Y-99206000D01*
X203445000Y-99206000D02*
X203496000Y-99219000D01*
X203496000Y-99219000D02*
X203548000Y-99227000D01*
X203548000Y-99227000D02*
X203600000Y-99230000D01*
X203600000Y-99230000D02*
X204500000Y-99230000D01*
X204500000Y-99230000D02*
X204500000Y-99230000D01*
G36*
X205452000Y-98233000D02*
G01*
X205504000Y-98241000D01*
X205555000Y-98254000D01*
X205603000Y-98273000D01*
X205650000Y-98297000D01*
X205694000Y-98325000D01*
X205735000Y-98358000D01*
X205772000Y-98395000D01*
X205805000Y-98436000D01*
X205833000Y-98480000D01*
X205857000Y-98527000D01*
X205876000Y-98575000D01*
X205889000Y-98626000D01*
X205897000Y-98678000D01*
X205900000Y-98730000D01*
X205897000Y-98782000D01*
X205889000Y-98834000D01*
X205876000Y-98885000D01*
X205857000Y-98933000D01*
X205833000Y-98980000D01*
X205805000Y-99024000D01*
X205772000Y-99065000D01*
X205735000Y-99102000D01*
X205694000Y-99135000D01*
X205650000Y-99163000D01*
X205603000Y-99187000D01*
X205555000Y-99206000D01*
X205504000Y-99219000D01*
X205452000Y-99227000D01*
X205400000Y-99230000D01*
X203600000Y-99230000D01*
X203548000Y-99227000D01*
X203496000Y-99219000D01*
X203445000Y-99206000D01*
X203397000Y-99187000D01*
X203350000Y-99163000D01*
X203306000Y-99135000D01*
X203265000Y-99102000D01*
X203228000Y-99065000D01*
X203195000Y-99024000D01*
X203167000Y-98980000D01*
X203143000Y-98933000D01*
X203124000Y-98885000D01*
X203111000Y-98834000D01*
X203103000Y-98782000D01*
X203100000Y-98730000D01*
X203103000Y-98678000D01*
X203111000Y-98626000D01*
X203124000Y-98575000D01*
X203143000Y-98527000D01*
X203167000Y-98480000D01*
X203195000Y-98436000D01*
X203228000Y-98395000D01*
X203265000Y-98358000D01*
X203306000Y-98325000D01*
X203350000Y-98297000D01*
X203397000Y-98273000D01*
X203445000Y-98254000D01*
X203496000Y-98241000D01*
X203548000Y-98233000D01*
X203600000Y-98230000D01*
X205400000Y-98230000D01*
X205452000Y-98233000D01*
G37*
X205452000Y-98233000D02*
X205504000Y-98241000D01*
X205555000Y-98254000D01*
X205603000Y-98273000D01*
X205650000Y-98297000D01*
X205694000Y-98325000D01*
X205735000Y-98358000D01*
X205772000Y-98395000D01*
X205805000Y-98436000D01*
X205833000Y-98480000D01*
X205857000Y-98527000D01*
X205876000Y-98575000D01*
X205889000Y-98626000D01*
X205897000Y-98678000D01*
X205900000Y-98730000D01*
X205897000Y-98782000D01*
X205889000Y-98834000D01*
X205876000Y-98885000D01*
X205857000Y-98933000D01*
X205833000Y-98980000D01*
X205805000Y-99024000D01*
X205772000Y-99065000D01*
X205735000Y-99102000D01*
X205694000Y-99135000D01*
X205650000Y-99163000D01*
X205603000Y-99187000D01*
X205555000Y-99206000D01*
X205504000Y-99219000D01*
X205452000Y-99227000D01*
X205400000Y-99230000D01*
X203600000Y-99230000D01*
X203548000Y-99227000D01*
X203496000Y-99219000D01*
X203445000Y-99206000D01*
X203397000Y-99187000D01*
X203350000Y-99163000D01*
X203306000Y-99135000D01*
X203265000Y-99102000D01*
X203228000Y-99065000D01*
X203195000Y-99024000D01*
X203167000Y-98980000D01*
X203143000Y-98933000D01*
X203124000Y-98885000D01*
X203111000Y-98834000D01*
X203103000Y-98782000D01*
X203100000Y-98730000D01*
X203103000Y-98678000D01*
X203111000Y-98626000D01*
X203124000Y-98575000D01*
X203143000Y-98527000D01*
X203167000Y-98480000D01*
X203195000Y-98436000D01*
X203228000Y-98395000D01*
X203265000Y-98358000D01*
X203306000Y-98325000D01*
X203350000Y-98297000D01*
X203397000Y-98273000D01*
X203445000Y-98254000D01*
X203496000Y-98241000D01*
X203548000Y-98233000D01*
X203600000Y-98230000D01*
X205400000Y-98230000D01*
X205452000Y-98233000D01*
X204500000Y-96690000D02*
X205400000Y-96690000D01*
X205400000Y-96690000D02*
X205452000Y-96687000D01*
X205452000Y-96687000D02*
X205504000Y-96679000D01*
X205504000Y-96679000D02*
X205555000Y-96666000D01*
X205555000Y-96666000D02*
X205603000Y-96647000D01*
X205603000Y-96647000D02*
X205650000Y-96623000D01*
X205650000Y-96623000D02*
X205694000Y-96595000D01*
X205694000Y-96595000D02*
X205735000Y-96562000D01*
X205735000Y-96562000D02*
X205772000Y-96525000D01*
X205772000Y-96525000D02*
X205805000Y-96484000D01*
X205805000Y-96484000D02*
X205833000Y-96440000D01*
X205833000Y-96440000D02*
X205857000Y-96393000D01*
X205857000Y-96393000D02*
X205876000Y-96345000D01*
X205876000Y-96345000D02*
X205889000Y-96294000D01*
X205889000Y-96294000D02*
X205897000Y-96242000D01*
X205897000Y-96242000D02*
X205900000Y-96190000D01*
X205900000Y-96190000D02*
X205897000Y-96138000D01*
X205897000Y-96138000D02*
X205889000Y-96086000D01*
X205889000Y-96086000D02*
X205876000Y-96035000D01*
X205876000Y-96035000D02*
X205857000Y-95987000D01*
X205857000Y-95987000D02*
X205833000Y-95940000D01*
X205833000Y-95940000D02*
X205805000Y-95896000D01*
X205805000Y-95896000D02*
X205772000Y-95855000D01*
X205772000Y-95855000D02*
X205735000Y-95818000D01*
X205735000Y-95818000D02*
X205694000Y-95785000D01*
X205694000Y-95785000D02*
X205650000Y-95757000D01*
X205650000Y-95757000D02*
X205603000Y-95733000D01*
X205603000Y-95733000D02*
X205555000Y-95714000D01*
X205555000Y-95714000D02*
X205504000Y-95701000D01*
X205504000Y-95701000D02*
X205452000Y-95693000D01*
X205452000Y-95693000D02*
X205400000Y-95690000D01*
X205400000Y-95690000D02*
X203600000Y-95690000D01*
X203600000Y-95690000D02*
X203548000Y-95693000D01*
X203548000Y-95693000D02*
X203496000Y-95701000D01*
X203496000Y-95701000D02*
X203445000Y-95714000D01*
X203445000Y-95714000D02*
X203397000Y-95733000D01*
X203397000Y-95733000D02*
X203350000Y-95757000D01*
X203350000Y-95757000D02*
X203306000Y-95785000D01*
X203306000Y-95785000D02*
X203265000Y-95818000D01*
X203265000Y-95818000D02*
X203228000Y-95855000D01*
X203228000Y-95855000D02*
X203195000Y-95896000D01*
X203195000Y-95896000D02*
X203167000Y-95940000D01*
X203167000Y-95940000D02*
X203143000Y-95987000D01*
X203143000Y-95987000D02*
X203124000Y-96035000D01*
X203124000Y-96035000D02*
X203111000Y-96086000D01*
X203111000Y-96086000D02*
X203103000Y-96138000D01*
X203103000Y-96138000D02*
X203100000Y-96190000D01*
X203100000Y-96190000D02*
X203103000Y-96242000D01*
X203103000Y-96242000D02*
X203111000Y-96294000D01*
X203111000Y-96294000D02*
X203124000Y-96345000D01*
X203124000Y-96345000D02*
X203143000Y-96393000D01*
X203143000Y-96393000D02*
X203167000Y-96440000D01*
X203167000Y-96440000D02*
X203195000Y-96484000D01*
X203195000Y-96484000D02*
X203228000Y-96525000D01*
X203228000Y-96525000D02*
X203265000Y-96562000D01*
X203265000Y-96562000D02*
X203306000Y-96595000D01*
X203306000Y-96595000D02*
X203350000Y-96623000D01*
X203350000Y-96623000D02*
X203397000Y-96647000D01*
X203397000Y-96647000D02*
X203445000Y-96666000D01*
X203445000Y-96666000D02*
X203496000Y-96679000D01*
X203496000Y-96679000D02*
X203548000Y-96687000D01*
X203548000Y-96687000D02*
X203600000Y-96690000D01*
X203600000Y-96690000D02*
X204500000Y-96690000D01*
X204500000Y-96690000D02*
X204500000Y-96690000D01*
G36*
X205452000Y-95693000D02*
G01*
X205504000Y-95701000D01*
X205555000Y-95714000D01*
X205603000Y-95733000D01*
X205650000Y-95757000D01*
X205694000Y-95785000D01*
X205735000Y-95818000D01*
X205772000Y-95855000D01*
X205805000Y-95896000D01*
X205833000Y-95940000D01*
X205857000Y-95987000D01*
X205876000Y-96035000D01*
X205889000Y-96086000D01*
X205897000Y-96138000D01*
X205900000Y-96190000D01*
X205897000Y-96242000D01*
X205889000Y-96294000D01*
X205876000Y-96345000D01*
X205857000Y-96393000D01*
X205833000Y-96440000D01*
X205805000Y-96484000D01*
X205772000Y-96525000D01*
X205735000Y-96562000D01*
X205694000Y-96595000D01*
X205650000Y-96623000D01*
X205603000Y-96647000D01*
X205555000Y-96666000D01*
X205504000Y-96679000D01*
X205452000Y-96687000D01*
X205400000Y-96690000D01*
X203600000Y-96690000D01*
X203548000Y-96687000D01*
X203496000Y-96679000D01*
X203445000Y-96666000D01*
X203397000Y-96647000D01*
X203350000Y-96623000D01*
X203306000Y-96595000D01*
X203265000Y-96562000D01*
X203228000Y-96525000D01*
X203195000Y-96484000D01*
X203167000Y-96440000D01*
X203143000Y-96393000D01*
X203124000Y-96345000D01*
X203111000Y-96294000D01*
X203103000Y-96242000D01*
X203100000Y-96190000D01*
X203103000Y-96138000D01*
X203111000Y-96086000D01*
X203124000Y-96035000D01*
X203143000Y-95987000D01*
X203167000Y-95940000D01*
X203195000Y-95896000D01*
X203228000Y-95855000D01*
X203265000Y-95818000D01*
X203306000Y-95785000D01*
X203350000Y-95757000D01*
X203397000Y-95733000D01*
X203445000Y-95714000D01*
X203496000Y-95701000D01*
X203548000Y-95693000D01*
X203600000Y-95690000D01*
X205400000Y-95690000D01*
X205452000Y-95693000D01*
G37*
X205452000Y-95693000D02*
X205504000Y-95701000D01*
X205555000Y-95714000D01*
X205603000Y-95733000D01*
X205650000Y-95757000D01*
X205694000Y-95785000D01*
X205735000Y-95818000D01*
X205772000Y-95855000D01*
X205805000Y-95896000D01*
X205833000Y-95940000D01*
X205857000Y-95987000D01*
X205876000Y-96035000D01*
X205889000Y-96086000D01*
X205897000Y-96138000D01*
X205900000Y-96190000D01*
X205897000Y-96242000D01*
X205889000Y-96294000D01*
X205876000Y-96345000D01*
X205857000Y-96393000D01*
X205833000Y-96440000D01*
X205805000Y-96484000D01*
X205772000Y-96525000D01*
X205735000Y-96562000D01*
X205694000Y-96595000D01*
X205650000Y-96623000D01*
X205603000Y-96647000D01*
X205555000Y-96666000D01*
X205504000Y-96679000D01*
X205452000Y-96687000D01*
X205400000Y-96690000D01*
X203600000Y-96690000D01*
X203548000Y-96687000D01*
X203496000Y-96679000D01*
X203445000Y-96666000D01*
X203397000Y-96647000D01*
X203350000Y-96623000D01*
X203306000Y-96595000D01*
X203265000Y-96562000D01*
X203228000Y-96525000D01*
X203195000Y-96484000D01*
X203167000Y-96440000D01*
X203143000Y-96393000D01*
X203124000Y-96345000D01*
X203111000Y-96294000D01*
X203103000Y-96242000D01*
X203100000Y-96190000D01*
X203103000Y-96138000D01*
X203111000Y-96086000D01*
X203124000Y-96035000D01*
X203143000Y-95987000D01*
X203167000Y-95940000D01*
X203195000Y-95896000D01*
X203228000Y-95855000D01*
X203265000Y-95818000D01*
X203306000Y-95785000D01*
X203350000Y-95757000D01*
X203397000Y-95733000D01*
X203445000Y-95714000D01*
X203496000Y-95701000D01*
X203548000Y-95693000D01*
X203600000Y-95690000D01*
X205400000Y-95690000D01*
X205452000Y-95693000D01*
X204500000Y-101770000D02*
X205400000Y-101770000D01*
X205400000Y-101770000D02*
X205452000Y-101767000D01*
X205452000Y-101767000D02*
X205504000Y-101759000D01*
X205504000Y-101759000D02*
X205555000Y-101746000D01*
X205555000Y-101746000D02*
X205603000Y-101727000D01*
X205603000Y-101727000D02*
X205650000Y-101703000D01*
X205650000Y-101703000D02*
X205694000Y-101675000D01*
X205694000Y-101675000D02*
X205735000Y-101642000D01*
X205735000Y-101642000D02*
X205772000Y-101605000D01*
X205772000Y-101605000D02*
X205805000Y-101564000D01*
X205805000Y-101564000D02*
X205833000Y-101520000D01*
X205833000Y-101520000D02*
X205857000Y-101473000D01*
X205857000Y-101473000D02*
X205876000Y-101425000D01*
X205876000Y-101425000D02*
X205889000Y-101374000D01*
X205889000Y-101374000D02*
X205897000Y-101322000D01*
X205897000Y-101322000D02*
X205900000Y-101270000D01*
X205900000Y-101270000D02*
X205897000Y-101218000D01*
X205897000Y-101218000D02*
X205889000Y-101166000D01*
X205889000Y-101166000D02*
X205876000Y-101115000D01*
X205876000Y-101115000D02*
X205857000Y-101067000D01*
X205857000Y-101067000D02*
X205833000Y-101020000D01*
X205833000Y-101020000D02*
X205805000Y-100976000D01*
X205805000Y-100976000D02*
X205772000Y-100935000D01*
X205772000Y-100935000D02*
X205735000Y-100898000D01*
X205735000Y-100898000D02*
X205694000Y-100865000D01*
X205694000Y-100865000D02*
X205650000Y-100837000D01*
X205650000Y-100837000D02*
X205603000Y-100813000D01*
X205603000Y-100813000D02*
X205555000Y-100794000D01*
X205555000Y-100794000D02*
X205504000Y-100781000D01*
X205504000Y-100781000D02*
X205452000Y-100773000D01*
X205452000Y-100773000D02*
X205400000Y-100770000D01*
X205400000Y-100770000D02*
X203600000Y-100770000D01*
X203600000Y-100770000D02*
X203548000Y-100773000D01*
X203548000Y-100773000D02*
X203496000Y-100781000D01*
X203496000Y-100781000D02*
X203445000Y-100794000D01*
X203445000Y-100794000D02*
X203397000Y-100813000D01*
X203397000Y-100813000D02*
X203350000Y-100837000D01*
X203350000Y-100837000D02*
X203306000Y-100865000D01*
X203306000Y-100865000D02*
X203265000Y-100898000D01*
X203265000Y-100898000D02*
X203228000Y-100935000D01*
X203228000Y-100935000D02*
X203195000Y-100976000D01*
X203195000Y-100976000D02*
X203167000Y-101020000D01*
X203167000Y-101020000D02*
X203143000Y-101067000D01*
X203143000Y-101067000D02*
X203124000Y-101115000D01*
X203124000Y-101115000D02*
X203111000Y-101166000D01*
X203111000Y-101166000D02*
X203103000Y-101218000D01*
X203103000Y-101218000D02*
X203100000Y-101270000D01*
X203100000Y-101270000D02*
X203103000Y-101322000D01*
X203103000Y-101322000D02*
X203111000Y-101374000D01*
X203111000Y-101374000D02*
X203124000Y-101425000D01*
X203124000Y-101425000D02*
X203143000Y-101473000D01*
X203143000Y-101473000D02*
X203167000Y-101520000D01*
X203167000Y-101520000D02*
X203195000Y-101564000D01*
X203195000Y-101564000D02*
X203228000Y-101605000D01*
X203228000Y-101605000D02*
X203265000Y-101642000D01*
X203265000Y-101642000D02*
X203306000Y-101675000D01*
X203306000Y-101675000D02*
X203350000Y-101703000D01*
X203350000Y-101703000D02*
X203397000Y-101727000D01*
X203397000Y-101727000D02*
X203445000Y-101746000D01*
X203445000Y-101746000D02*
X203496000Y-101759000D01*
X203496000Y-101759000D02*
X203548000Y-101767000D01*
X203548000Y-101767000D02*
X203600000Y-101770000D01*
X203600000Y-101770000D02*
X204500000Y-101770000D01*
X204500000Y-101770000D02*
X204500000Y-101770000D01*
G36*
X205452000Y-100773000D02*
G01*
X205504000Y-100781000D01*
X205555000Y-100794000D01*
X205603000Y-100813000D01*
X205650000Y-100837000D01*
X205694000Y-100865000D01*
X205735000Y-100898000D01*
X205772000Y-100935000D01*
X205805000Y-100976000D01*
X205833000Y-101020000D01*
X205857000Y-101067000D01*
X205876000Y-101115000D01*
X205889000Y-101166000D01*
X205897000Y-101218000D01*
X205900000Y-101270000D01*
X205897000Y-101322000D01*
X205889000Y-101374000D01*
X205876000Y-101425000D01*
X205857000Y-101473000D01*
X205833000Y-101520000D01*
X205805000Y-101564000D01*
X205772000Y-101605000D01*
X205735000Y-101642000D01*
X205694000Y-101675000D01*
X205650000Y-101703000D01*
X205603000Y-101727000D01*
X205555000Y-101746000D01*
X205504000Y-101759000D01*
X205452000Y-101767000D01*
X205400000Y-101770000D01*
X203600000Y-101770000D01*
X203548000Y-101767000D01*
X203496000Y-101759000D01*
X203445000Y-101746000D01*
X203397000Y-101727000D01*
X203350000Y-101703000D01*
X203306000Y-101675000D01*
X203265000Y-101642000D01*
X203228000Y-101605000D01*
X203195000Y-101564000D01*
X203167000Y-101520000D01*
X203143000Y-101473000D01*
X203124000Y-101425000D01*
X203111000Y-101374000D01*
X203103000Y-101322000D01*
X203100000Y-101270000D01*
X203103000Y-101218000D01*
X203111000Y-101166000D01*
X203124000Y-101115000D01*
X203143000Y-101067000D01*
X203167000Y-101020000D01*
X203195000Y-100976000D01*
X203228000Y-100935000D01*
X203265000Y-100898000D01*
X203306000Y-100865000D01*
X203350000Y-100837000D01*
X203397000Y-100813000D01*
X203445000Y-100794000D01*
X203496000Y-100781000D01*
X203548000Y-100773000D01*
X203600000Y-100770000D01*
X205400000Y-100770000D01*
X205452000Y-100773000D01*
G37*
X205452000Y-100773000D02*
X205504000Y-100781000D01*
X205555000Y-100794000D01*
X205603000Y-100813000D01*
X205650000Y-100837000D01*
X205694000Y-100865000D01*
X205735000Y-100898000D01*
X205772000Y-100935000D01*
X205805000Y-100976000D01*
X205833000Y-101020000D01*
X205857000Y-101067000D01*
X205876000Y-101115000D01*
X205889000Y-101166000D01*
X205897000Y-101218000D01*
X205900000Y-101270000D01*
X205897000Y-101322000D01*
X205889000Y-101374000D01*
X205876000Y-101425000D01*
X205857000Y-101473000D01*
X205833000Y-101520000D01*
X205805000Y-101564000D01*
X205772000Y-101605000D01*
X205735000Y-101642000D01*
X205694000Y-101675000D01*
X205650000Y-101703000D01*
X205603000Y-101727000D01*
X205555000Y-101746000D01*
X205504000Y-101759000D01*
X205452000Y-101767000D01*
X205400000Y-101770000D01*
X203600000Y-101770000D01*
X203548000Y-101767000D01*
X203496000Y-101759000D01*
X203445000Y-101746000D01*
X203397000Y-101727000D01*
X203350000Y-101703000D01*
X203306000Y-101675000D01*
X203265000Y-101642000D01*
X203228000Y-101605000D01*
X203195000Y-101564000D01*
X203167000Y-101520000D01*
X203143000Y-101473000D01*
X203124000Y-101425000D01*
X203111000Y-101374000D01*
X203103000Y-101322000D01*
X203100000Y-101270000D01*
X203103000Y-101218000D01*
X203111000Y-101166000D01*
X203124000Y-101115000D01*
X203143000Y-101067000D01*
X203167000Y-101020000D01*
X203195000Y-100976000D01*
X203228000Y-100935000D01*
X203265000Y-100898000D01*
X203306000Y-100865000D01*
X203350000Y-100837000D01*
X203397000Y-100813000D01*
X203445000Y-100794000D01*
X203496000Y-100781000D01*
X203548000Y-100773000D01*
X203600000Y-100770000D01*
X205400000Y-100770000D01*
X205452000Y-100773000D01*
X188500000Y-99230000D02*
X189400000Y-99230000D01*
X189400000Y-99230000D02*
X189452000Y-99227000D01*
X189452000Y-99227000D02*
X189504000Y-99219000D01*
X189504000Y-99219000D02*
X189555000Y-99206000D01*
X189555000Y-99206000D02*
X189603000Y-99187000D01*
X189603000Y-99187000D02*
X189650000Y-99163000D01*
X189650000Y-99163000D02*
X189694000Y-99135000D01*
X189694000Y-99135000D02*
X189735000Y-99102000D01*
X189735000Y-99102000D02*
X189772000Y-99065000D01*
X189772000Y-99065000D02*
X189805000Y-99024000D01*
X189805000Y-99024000D02*
X189833000Y-98980000D01*
X189833000Y-98980000D02*
X189857000Y-98933000D01*
X189857000Y-98933000D02*
X189876000Y-98885000D01*
X189876000Y-98885000D02*
X189889000Y-98834000D01*
X189889000Y-98834000D02*
X189897000Y-98782000D01*
X189897000Y-98782000D02*
X189900000Y-98730000D01*
X189900000Y-98730000D02*
X189897000Y-98678000D01*
X189897000Y-98678000D02*
X189889000Y-98626000D01*
X189889000Y-98626000D02*
X189876000Y-98575000D01*
X189876000Y-98575000D02*
X189857000Y-98527000D01*
X189857000Y-98527000D02*
X189833000Y-98480000D01*
X189833000Y-98480000D02*
X189805000Y-98436000D01*
X189805000Y-98436000D02*
X189772000Y-98395000D01*
X189772000Y-98395000D02*
X189735000Y-98358000D01*
X189735000Y-98358000D02*
X189694000Y-98325000D01*
X189694000Y-98325000D02*
X189650000Y-98297000D01*
X189650000Y-98297000D02*
X189603000Y-98273000D01*
X189603000Y-98273000D02*
X189555000Y-98254000D01*
X189555000Y-98254000D02*
X189504000Y-98241000D01*
X189504000Y-98241000D02*
X189452000Y-98233000D01*
X189452000Y-98233000D02*
X189400000Y-98230000D01*
X189400000Y-98230000D02*
X187600000Y-98230000D01*
X187600000Y-98230000D02*
X187548000Y-98233000D01*
X187548000Y-98233000D02*
X187496000Y-98241000D01*
X187496000Y-98241000D02*
X187445000Y-98254000D01*
X187445000Y-98254000D02*
X187397000Y-98273000D01*
X187397000Y-98273000D02*
X187350000Y-98297000D01*
X187350000Y-98297000D02*
X187306000Y-98325000D01*
X187306000Y-98325000D02*
X187265000Y-98358000D01*
X187265000Y-98358000D02*
X187228000Y-98395000D01*
X187228000Y-98395000D02*
X187195000Y-98436000D01*
X187195000Y-98436000D02*
X187167000Y-98480000D01*
X187167000Y-98480000D02*
X187143000Y-98527000D01*
X187143000Y-98527000D02*
X187124000Y-98575000D01*
X187124000Y-98575000D02*
X187111000Y-98626000D01*
X187111000Y-98626000D02*
X187103000Y-98678000D01*
X187103000Y-98678000D02*
X187100000Y-98730000D01*
X187100000Y-98730000D02*
X187103000Y-98782000D01*
X187103000Y-98782000D02*
X187111000Y-98834000D01*
X187111000Y-98834000D02*
X187124000Y-98885000D01*
X187124000Y-98885000D02*
X187143000Y-98933000D01*
X187143000Y-98933000D02*
X187167000Y-98980000D01*
X187167000Y-98980000D02*
X187195000Y-99024000D01*
X187195000Y-99024000D02*
X187228000Y-99065000D01*
X187228000Y-99065000D02*
X187265000Y-99102000D01*
X187265000Y-99102000D02*
X187306000Y-99135000D01*
X187306000Y-99135000D02*
X187350000Y-99163000D01*
X187350000Y-99163000D02*
X187397000Y-99187000D01*
X187397000Y-99187000D02*
X187445000Y-99206000D01*
X187445000Y-99206000D02*
X187496000Y-99219000D01*
X187496000Y-99219000D02*
X187548000Y-99227000D01*
X187548000Y-99227000D02*
X187600000Y-99230000D01*
X187600000Y-99230000D02*
X188500000Y-99230000D01*
X188500000Y-99230000D02*
X188500000Y-99230000D01*
G36*
X189452000Y-98233000D02*
G01*
X189504000Y-98241000D01*
X189555000Y-98254000D01*
X189603000Y-98273000D01*
X189650000Y-98297000D01*
X189694000Y-98325000D01*
X189735000Y-98358000D01*
X189772000Y-98395000D01*
X189805000Y-98436000D01*
X189833000Y-98480000D01*
X189857000Y-98527000D01*
X189876000Y-98575000D01*
X189889000Y-98626000D01*
X189897000Y-98678000D01*
X189900000Y-98730000D01*
X189897000Y-98782000D01*
X189889000Y-98834000D01*
X189876000Y-98885000D01*
X189857000Y-98933000D01*
X189833000Y-98980000D01*
X189805000Y-99024000D01*
X189772000Y-99065000D01*
X189735000Y-99102000D01*
X189694000Y-99135000D01*
X189650000Y-99163000D01*
X189603000Y-99187000D01*
X189555000Y-99206000D01*
X189504000Y-99219000D01*
X189452000Y-99227000D01*
X189400000Y-99230000D01*
X187600000Y-99230000D01*
X187548000Y-99227000D01*
X187496000Y-99219000D01*
X187445000Y-99206000D01*
X187397000Y-99187000D01*
X187350000Y-99163000D01*
X187306000Y-99135000D01*
X187265000Y-99102000D01*
X187228000Y-99065000D01*
X187195000Y-99024000D01*
X187167000Y-98980000D01*
X187143000Y-98933000D01*
X187124000Y-98885000D01*
X187111000Y-98834000D01*
X187103000Y-98782000D01*
X187100000Y-98730000D01*
X187103000Y-98678000D01*
X187111000Y-98626000D01*
X187124000Y-98575000D01*
X187143000Y-98527000D01*
X187167000Y-98480000D01*
X187195000Y-98436000D01*
X187228000Y-98395000D01*
X187265000Y-98358000D01*
X187306000Y-98325000D01*
X187350000Y-98297000D01*
X187397000Y-98273000D01*
X187445000Y-98254000D01*
X187496000Y-98241000D01*
X187548000Y-98233000D01*
X187600000Y-98230000D01*
X189400000Y-98230000D01*
X189452000Y-98233000D01*
G37*
X189452000Y-98233000D02*
X189504000Y-98241000D01*
X189555000Y-98254000D01*
X189603000Y-98273000D01*
X189650000Y-98297000D01*
X189694000Y-98325000D01*
X189735000Y-98358000D01*
X189772000Y-98395000D01*
X189805000Y-98436000D01*
X189833000Y-98480000D01*
X189857000Y-98527000D01*
X189876000Y-98575000D01*
X189889000Y-98626000D01*
X189897000Y-98678000D01*
X189900000Y-98730000D01*
X189897000Y-98782000D01*
X189889000Y-98834000D01*
X189876000Y-98885000D01*
X189857000Y-98933000D01*
X189833000Y-98980000D01*
X189805000Y-99024000D01*
X189772000Y-99065000D01*
X189735000Y-99102000D01*
X189694000Y-99135000D01*
X189650000Y-99163000D01*
X189603000Y-99187000D01*
X189555000Y-99206000D01*
X189504000Y-99219000D01*
X189452000Y-99227000D01*
X189400000Y-99230000D01*
X187600000Y-99230000D01*
X187548000Y-99227000D01*
X187496000Y-99219000D01*
X187445000Y-99206000D01*
X187397000Y-99187000D01*
X187350000Y-99163000D01*
X187306000Y-99135000D01*
X187265000Y-99102000D01*
X187228000Y-99065000D01*
X187195000Y-99024000D01*
X187167000Y-98980000D01*
X187143000Y-98933000D01*
X187124000Y-98885000D01*
X187111000Y-98834000D01*
X187103000Y-98782000D01*
X187100000Y-98730000D01*
X187103000Y-98678000D01*
X187111000Y-98626000D01*
X187124000Y-98575000D01*
X187143000Y-98527000D01*
X187167000Y-98480000D01*
X187195000Y-98436000D01*
X187228000Y-98395000D01*
X187265000Y-98358000D01*
X187306000Y-98325000D01*
X187350000Y-98297000D01*
X187397000Y-98273000D01*
X187445000Y-98254000D01*
X187496000Y-98241000D01*
X187548000Y-98233000D01*
X187600000Y-98230000D01*
X189400000Y-98230000D01*
X189452000Y-98233000D01*
X188500000Y-106850000D02*
X189400000Y-106850000D01*
X189400000Y-106850000D02*
X189452000Y-106847000D01*
X189452000Y-106847000D02*
X189504000Y-106839000D01*
X189504000Y-106839000D02*
X189555000Y-106826000D01*
X189555000Y-106826000D02*
X189603000Y-106807000D01*
X189603000Y-106807000D02*
X189650000Y-106783000D01*
X189650000Y-106783000D02*
X189694000Y-106755000D01*
X189694000Y-106755000D02*
X189735000Y-106722000D01*
X189735000Y-106722000D02*
X189772000Y-106685000D01*
X189772000Y-106685000D02*
X189805000Y-106644000D01*
X189805000Y-106644000D02*
X189833000Y-106600000D01*
X189833000Y-106600000D02*
X189857000Y-106553000D01*
X189857000Y-106553000D02*
X189876000Y-106505000D01*
X189876000Y-106505000D02*
X189889000Y-106454000D01*
X189889000Y-106454000D02*
X189897000Y-106402000D01*
X189897000Y-106402000D02*
X189900000Y-106350000D01*
X189900000Y-106350000D02*
X189897000Y-106298000D01*
X189897000Y-106298000D02*
X189889000Y-106246000D01*
X189889000Y-106246000D02*
X189876000Y-106195000D01*
X189876000Y-106195000D02*
X189857000Y-106147000D01*
X189857000Y-106147000D02*
X189833000Y-106100000D01*
X189833000Y-106100000D02*
X189805000Y-106056000D01*
X189805000Y-106056000D02*
X189772000Y-106015000D01*
X189772000Y-106015000D02*
X189735000Y-105978000D01*
X189735000Y-105978000D02*
X189694000Y-105945000D01*
X189694000Y-105945000D02*
X189650000Y-105917000D01*
X189650000Y-105917000D02*
X189603000Y-105893000D01*
X189603000Y-105893000D02*
X189555000Y-105874000D01*
X189555000Y-105874000D02*
X189504000Y-105861000D01*
X189504000Y-105861000D02*
X189452000Y-105853000D01*
X189452000Y-105853000D02*
X189400000Y-105850000D01*
X189400000Y-105850000D02*
X187600000Y-105850000D01*
X187600000Y-105850000D02*
X187548000Y-105853000D01*
X187548000Y-105853000D02*
X187496000Y-105861000D01*
X187496000Y-105861000D02*
X187445000Y-105874000D01*
X187445000Y-105874000D02*
X187397000Y-105893000D01*
X187397000Y-105893000D02*
X187350000Y-105917000D01*
X187350000Y-105917000D02*
X187306000Y-105945000D01*
X187306000Y-105945000D02*
X187265000Y-105978000D01*
X187265000Y-105978000D02*
X187228000Y-106015000D01*
X187228000Y-106015000D02*
X187195000Y-106056000D01*
X187195000Y-106056000D02*
X187167000Y-106100000D01*
X187167000Y-106100000D02*
X187143000Y-106147000D01*
X187143000Y-106147000D02*
X187124000Y-106195000D01*
X187124000Y-106195000D02*
X187111000Y-106246000D01*
X187111000Y-106246000D02*
X187103000Y-106298000D01*
X187103000Y-106298000D02*
X187100000Y-106350000D01*
X187100000Y-106350000D02*
X187103000Y-106402000D01*
X187103000Y-106402000D02*
X187111000Y-106454000D01*
X187111000Y-106454000D02*
X187124000Y-106505000D01*
X187124000Y-106505000D02*
X187143000Y-106553000D01*
X187143000Y-106553000D02*
X187167000Y-106600000D01*
X187167000Y-106600000D02*
X187195000Y-106644000D01*
X187195000Y-106644000D02*
X187228000Y-106685000D01*
X187228000Y-106685000D02*
X187265000Y-106722000D01*
X187265000Y-106722000D02*
X187306000Y-106755000D01*
X187306000Y-106755000D02*
X187350000Y-106783000D01*
X187350000Y-106783000D02*
X187397000Y-106807000D01*
X187397000Y-106807000D02*
X187445000Y-106826000D01*
X187445000Y-106826000D02*
X187496000Y-106839000D01*
X187496000Y-106839000D02*
X187548000Y-106847000D01*
X187548000Y-106847000D02*
X187600000Y-106850000D01*
X187600000Y-106850000D02*
X188500000Y-106850000D01*
X188500000Y-106850000D02*
X188500000Y-106850000D01*
G36*
X189452000Y-105853000D02*
G01*
X189504000Y-105861000D01*
X189555000Y-105874000D01*
X189603000Y-105893000D01*
X189650000Y-105917000D01*
X189694000Y-105945000D01*
X189735000Y-105978000D01*
X189772000Y-106015000D01*
X189805000Y-106056000D01*
X189833000Y-106100000D01*
X189857000Y-106147000D01*
X189876000Y-106195000D01*
X189889000Y-106246000D01*
X189897000Y-106298000D01*
X189900000Y-106350000D01*
X189897000Y-106402000D01*
X189889000Y-106454000D01*
X189876000Y-106505000D01*
X189857000Y-106553000D01*
X189833000Y-106600000D01*
X189805000Y-106644000D01*
X189772000Y-106685000D01*
X189735000Y-106722000D01*
X189694000Y-106755000D01*
X189650000Y-106783000D01*
X189603000Y-106807000D01*
X189555000Y-106826000D01*
X189504000Y-106839000D01*
X189452000Y-106847000D01*
X189400000Y-106850000D01*
X187600000Y-106850000D01*
X187548000Y-106847000D01*
X187496000Y-106839000D01*
X187445000Y-106826000D01*
X187397000Y-106807000D01*
X187350000Y-106783000D01*
X187306000Y-106755000D01*
X187265000Y-106722000D01*
X187228000Y-106685000D01*
X187195000Y-106644000D01*
X187167000Y-106600000D01*
X187143000Y-106553000D01*
X187124000Y-106505000D01*
X187111000Y-106454000D01*
X187103000Y-106402000D01*
X187100000Y-106350000D01*
X187103000Y-106298000D01*
X187111000Y-106246000D01*
X187124000Y-106195000D01*
X187143000Y-106147000D01*
X187167000Y-106100000D01*
X187195000Y-106056000D01*
X187228000Y-106015000D01*
X187265000Y-105978000D01*
X187306000Y-105945000D01*
X187350000Y-105917000D01*
X187397000Y-105893000D01*
X187445000Y-105874000D01*
X187496000Y-105861000D01*
X187548000Y-105853000D01*
X187600000Y-105850000D01*
X189400000Y-105850000D01*
X189452000Y-105853000D01*
G37*
X189452000Y-105853000D02*
X189504000Y-105861000D01*
X189555000Y-105874000D01*
X189603000Y-105893000D01*
X189650000Y-105917000D01*
X189694000Y-105945000D01*
X189735000Y-105978000D01*
X189772000Y-106015000D01*
X189805000Y-106056000D01*
X189833000Y-106100000D01*
X189857000Y-106147000D01*
X189876000Y-106195000D01*
X189889000Y-106246000D01*
X189897000Y-106298000D01*
X189900000Y-106350000D01*
X189897000Y-106402000D01*
X189889000Y-106454000D01*
X189876000Y-106505000D01*
X189857000Y-106553000D01*
X189833000Y-106600000D01*
X189805000Y-106644000D01*
X189772000Y-106685000D01*
X189735000Y-106722000D01*
X189694000Y-106755000D01*
X189650000Y-106783000D01*
X189603000Y-106807000D01*
X189555000Y-106826000D01*
X189504000Y-106839000D01*
X189452000Y-106847000D01*
X189400000Y-106850000D01*
X187600000Y-106850000D01*
X187548000Y-106847000D01*
X187496000Y-106839000D01*
X187445000Y-106826000D01*
X187397000Y-106807000D01*
X187350000Y-106783000D01*
X187306000Y-106755000D01*
X187265000Y-106722000D01*
X187228000Y-106685000D01*
X187195000Y-106644000D01*
X187167000Y-106600000D01*
X187143000Y-106553000D01*
X187124000Y-106505000D01*
X187111000Y-106454000D01*
X187103000Y-106402000D01*
X187100000Y-106350000D01*
X187103000Y-106298000D01*
X187111000Y-106246000D01*
X187124000Y-106195000D01*
X187143000Y-106147000D01*
X187167000Y-106100000D01*
X187195000Y-106056000D01*
X187228000Y-106015000D01*
X187265000Y-105978000D01*
X187306000Y-105945000D01*
X187350000Y-105917000D01*
X187397000Y-105893000D01*
X187445000Y-105874000D01*
X187496000Y-105861000D01*
X187548000Y-105853000D01*
X187600000Y-105850000D01*
X189400000Y-105850000D01*
X189452000Y-105853000D01*
X188500000Y-104310000D02*
X189400000Y-104310000D01*
X189400000Y-104310000D02*
X189452000Y-104307000D01*
X189452000Y-104307000D02*
X189504000Y-104299000D01*
X189504000Y-104299000D02*
X189555000Y-104286000D01*
X189555000Y-104286000D02*
X189603000Y-104267000D01*
X189603000Y-104267000D02*
X189650000Y-104243000D01*
X189650000Y-104243000D02*
X189694000Y-104215000D01*
X189694000Y-104215000D02*
X189735000Y-104182000D01*
X189735000Y-104182000D02*
X189772000Y-104145000D01*
X189772000Y-104145000D02*
X189805000Y-104104000D01*
X189805000Y-104104000D02*
X189833000Y-104060000D01*
X189833000Y-104060000D02*
X189857000Y-104013000D01*
X189857000Y-104013000D02*
X189876000Y-103965000D01*
X189876000Y-103965000D02*
X189889000Y-103914000D01*
X189889000Y-103914000D02*
X189897000Y-103862000D01*
X189897000Y-103862000D02*
X189900000Y-103810000D01*
X189900000Y-103810000D02*
X189897000Y-103758000D01*
X189897000Y-103758000D02*
X189889000Y-103706000D01*
X189889000Y-103706000D02*
X189876000Y-103655000D01*
X189876000Y-103655000D02*
X189857000Y-103607000D01*
X189857000Y-103607000D02*
X189833000Y-103560000D01*
X189833000Y-103560000D02*
X189805000Y-103516000D01*
X189805000Y-103516000D02*
X189772000Y-103475000D01*
X189772000Y-103475000D02*
X189735000Y-103438000D01*
X189735000Y-103438000D02*
X189694000Y-103405000D01*
X189694000Y-103405000D02*
X189650000Y-103377000D01*
X189650000Y-103377000D02*
X189603000Y-103353000D01*
X189603000Y-103353000D02*
X189555000Y-103334000D01*
X189555000Y-103334000D02*
X189504000Y-103321000D01*
X189504000Y-103321000D02*
X189452000Y-103313000D01*
X189452000Y-103313000D02*
X189400000Y-103310000D01*
X189400000Y-103310000D02*
X187600000Y-103310000D01*
X187600000Y-103310000D02*
X187548000Y-103313000D01*
X187548000Y-103313000D02*
X187496000Y-103321000D01*
X187496000Y-103321000D02*
X187445000Y-103334000D01*
X187445000Y-103334000D02*
X187397000Y-103353000D01*
X187397000Y-103353000D02*
X187350000Y-103377000D01*
X187350000Y-103377000D02*
X187306000Y-103405000D01*
X187306000Y-103405000D02*
X187265000Y-103438000D01*
X187265000Y-103438000D02*
X187228000Y-103475000D01*
X187228000Y-103475000D02*
X187195000Y-103516000D01*
X187195000Y-103516000D02*
X187167000Y-103560000D01*
X187167000Y-103560000D02*
X187143000Y-103607000D01*
X187143000Y-103607000D02*
X187124000Y-103655000D01*
X187124000Y-103655000D02*
X187111000Y-103706000D01*
X187111000Y-103706000D02*
X187103000Y-103758000D01*
X187103000Y-103758000D02*
X187100000Y-103810000D01*
X187100000Y-103810000D02*
X187103000Y-103862000D01*
X187103000Y-103862000D02*
X187111000Y-103914000D01*
X187111000Y-103914000D02*
X187124000Y-103965000D01*
X187124000Y-103965000D02*
X187143000Y-104013000D01*
X187143000Y-104013000D02*
X187167000Y-104060000D01*
X187167000Y-104060000D02*
X187195000Y-104104000D01*
X187195000Y-104104000D02*
X187228000Y-104145000D01*
X187228000Y-104145000D02*
X187265000Y-104182000D01*
X187265000Y-104182000D02*
X187306000Y-104215000D01*
X187306000Y-104215000D02*
X187350000Y-104243000D01*
X187350000Y-104243000D02*
X187397000Y-104267000D01*
X187397000Y-104267000D02*
X187445000Y-104286000D01*
X187445000Y-104286000D02*
X187496000Y-104299000D01*
X187496000Y-104299000D02*
X187548000Y-104307000D01*
X187548000Y-104307000D02*
X187600000Y-104310000D01*
X187600000Y-104310000D02*
X188500000Y-104310000D01*
X188500000Y-104310000D02*
X188500000Y-104310000D01*
G36*
X189452000Y-103313000D02*
G01*
X189504000Y-103321000D01*
X189555000Y-103334000D01*
X189603000Y-103353000D01*
X189650000Y-103377000D01*
X189694000Y-103405000D01*
X189735000Y-103438000D01*
X189772000Y-103475000D01*
X189805000Y-103516000D01*
X189833000Y-103560000D01*
X189857000Y-103607000D01*
X189876000Y-103655000D01*
X189889000Y-103706000D01*
X189897000Y-103758000D01*
X189900000Y-103810000D01*
X189897000Y-103862000D01*
X189889000Y-103914000D01*
X189876000Y-103965000D01*
X189857000Y-104013000D01*
X189833000Y-104060000D01*
X189805000Y-104104000D01*
X189772000Y-104145000D01*
X189735000Y-104182000D01*
X189694000Y-104215000D01*
X189650000Y-104243000D01*
X189603000Y-104267000D01*
X189555000Y-104286000D01*
X189504000Y-104299000D01*
X189452000Y-104307000D01*
X189400000Y-104310000D01*
X187600000Y-104310000D01*
X187548000Y-104307000D01*
X187496000Y-104299000D01*
X187445000Y-104286000D01*
X187397000Y-104267000D01*
X187350000Y-104243000D01*
X187306000Y-104215000D01*
X187265000Y-104182000D01*
X187228000Y-104145000D01*
X187195000Y-104104000D01*
X187167000Y-104060000D01*
X187143000Y-104013000D01*
X187124000Y-103965000D01*
X187111000Y-103914000D01*
X187103000Y-103862000D01*
X187100000Y-103810000D01*
X187103000Y-103758000D01*
X187111000Y-103706000D01*
X187124000Y-103655000D01*
X187143000Y-103607000D01*
X187167000Y-103560000D01*
X187195000Y-103516000D01*
X187228000Y-103475000D01*
X187265000Y-103438000D01*
X187306000Y-103405000D01*
X187350000Y-103377000D01*
X187397000Y-103353000D01*
X187445000Y-103334000D01*
X187496000Y-103321000D01*
X187548000Y-103313000D01*
X187600000Y-103310000D01*
X189400000Y-103310000D01*
X189452000Y-103313000D01*
G37*
X189452000Y-103313000D02*
X189504000Y-103321000D01*
X189555000Y-103334000D01*
X189603000Y-103353000D01*
X189650000Y-103377000D01*
X189694000Y-103405000D01*
X189735000Y-103438000D01*
X189772000Y-103475000D01*
X189805000Y-103516000D01*
X189833000Y-103560000D01*
X189857000Y-103607000D01*
X189876000Y-103655000D01*
X189889000Y-103706000D01*
X189897000Y-103758000D01*
X189900000Y-103810000D01*
X189897000Y-103862000D01*
X189889000Y-103914000D01*
X189876000Y-103965000D01*
X189857000Y-104013000D01*
X189833000Y-104060000D01*
X189805000Y-104104000D01*
X189772000Y-104145000D01*
X189735000Y-104182000D01*
X189694000Y-104215000D01*
X189650000Y-104243000D01*
X189603000Y-104267000D01*
X189555000Y-104286000D01*
X189504000Y-104299000D01*
X189452000Y-104307000D01*
X189400000Y-104310000D01*
X187600000Y-104310000D01*
X187548000Y-104307000D01*
X187496000Y-104299000D01*
X187445000Y-104286000D01*
X187397000Y-104267000D01*
X187350000Y-104243000D01*
X187306000Y-104215000D01*
X187265000Y-104182000D01*
X187228000Y-104145000D01*
X187195000Y-104104000D01*
X187167000Y-104060000D01*
X187143000Y-104013000D01*
X187124000Y-103965000D01*
X187111000Y-103914000D01*
X187103000Y-103862000D01*
X187100000Y-103810000D01*
X187103000Y-103758000D01*
X187111000Y-103706000D01*
X187124000Y-103655000D01*
X187143000Y-103607000D01*
X187167000Y-103560000D01*
X187195000Y-103516000D01*
X187228000Y-103475000D01*
X187265000Y-103438000D01*
X187306000Y-103405000D01*
X187350000Y-103377000D01*
X187397000Y-103353000D01*
X187445000Y-103334000D01*
X187496000Y-103321000D01*
X187548000Y-103313000D01*
X187600000Y-103310000D01*
X189400000Y-103310000D01*
X189452000Y-103313000D01*
X204500000Y-106850000D02*
X205400000Y-106850000D01*
X205400000Y-106850000D02*
X205452000Y-106847000D01*
X205452000Y-106847000D02*
X205504000Y-106839000D01*
X205504000Y-106839000D02*
X205555000Y-106826000D01*
X205555000Y-106826000D02*
X205603000Y-106807000D01*
X205603000Y-106807000D02*
X205650000Y-106783000D01*
X205650000Y-106783000D02*
X205694000Y-106755000D01*
X205694000Y-106755000D02*
X205735000Y-106722000D01*
X205735000Y-106722000D02*
X205772000Y-106685000D01*
X205772000Y-106685000D02*
X205805000Y-106644000D01*
X205805000Y-106644000D02*
X205833000Y-106600000D01*
X205833000Y-106600000D02*
X205857000Y-106553000D01*
X205857000Y-106553000D02*
X205876000Y-106505000D01*
X205876000Y-106505000D02*
X205889000Y-106454000D01*
X205889000Y-106454000D02*
X205897000Y-106402000D01*
X205897000Y-106402000D02*
X205900000Y-106350000D01*
X205900000Y-106350000D02*
X205897000Y-106298000D01*
X205897000Y-106298000D02*
X205889000Y-106246000D01*
X205889000Y-106246000D02*
X205876000Y-106195000D01*
X205876000Y-106195000D02*
X205857000Y-106147000D01*
X205857000Y-106147000D02*
X205833000Y-106100000D01*
X205833000Y-106100000D02*
X205805000Y-106056000D01*
X205805000Y-106056000D02*
X205772000Y-106015000D01*
X205772000Y-106015000D02*
X205735000Y-105978000D01*
X205735000Y-105978000D02*
X205694000Y-105945000D01*
X205694000Y-105945000D02*
X205650000Y-105917000D01*
X205650000Y-105917000D02*
X205603000Y-105893000D01*
X205603000Y-105893000D02*
X205555000Y-105874000D01*
X205555000Y-105874000D02*
X205504000Y-105861000D01*
X205504000Y-105861000D02*
X205452000Y-105853000D01*
X205452000Y-105853000D02*
X205400000Y-105850000D01*
X205400000Y-105850000D02*
X203600000Y-105850000D01*
X203600000Y-105850000D02*
X203548000Y-105853000D01*
X203548000Y-105853000D02*
X203496000Y-105861000D01*
X203496000Y-105861000D02*
X203445000Y-105874000D01*
X203445000Y-105874000D02*
X203397000Y-105893000D01*
X203397000Y-105893000D02*
X203350000Y-105917000D01*
X203350000Y-105917000D02*
X203306000Y-105945000D01*
X203306000Y-105945000D02*
X203265000Y-105978000D01*
X203265000Y-105978000D02*
X203228000Y-106015000D01*
X203228000Y-106015000D02*
X203195000Y-106056000D01*
X203195000Y-106056000D02*
X203167000Y-106100000D01*
X203167000Y-106100000D02*
X203143000Y-106147000D01*
X203143000Y-106147000D02*
X203124000Y-106195000D01*
X203124000Y-106195000D02*
X203111000Y-106246000D01*
X203111000Y-106246000D02*
X203103000Y-106298000D01*
X203103000Y-106298000D02*
X203100000Y-106350000D01*
X203100000Y-106350000D02*
X203103000Y-106402000D01*
X203103000Y-106402000D02*
X203111000Y-106454000D01*
X203111000Y-106454000D02*
X203124000Y-106505000D01*
X203124000Y-106505000D02*
X203143000Y-106553000D01*
X203143000Y-106553000D02*
X203167000Y-106600000D01*
X203167000Y-106600000D02*
X203195000Y-106644000D01*
X203195000Y-106644000D02*
X203228000Y-106685000D01*
X203228000Y-106685000D02*
X203265000Y-106722000D01*
X203265000Y-106722000D02*
X203306000Y-106755000D01*
X203306000Y-106755000D02*
X203350000Y-106783000D01*
X203350000Y-106783000D02*
X203397000Y-106807000D01*
X203397000Y-106807000D02*
X203445000Y-106826000D01*
X203445000Y-106826000D02*
X203496000Y-106839000D01*
X203496000Y-106839000D02*
X203548000Y-106847000D01*
X203548000Y-106847000D02*
X203600000Y-106850000D01*
X203600000Y-106850000D02*
X204500000Y-106850000D01*
X204500000Y-106850000D02*
X204500000Y-106850000D01*
G36*
X205452000Y-105853000D02*
G01*
X205504000Y-105861000D01*
X205555000Y-105874000D01*
X205603000Y-105893000D01*
X205650000Y-105917000D01*
X205694000Y-105945000D01*
X205735000Y-105978000D01*
X205772000Y-106015000D01*
X205805000Y-106056000D01*
X205833000Y-106100000D01*
X205857000Y-106147000D01*
X205876000Y-106195000D01*
X205889000Y-106246000D01*
X205897000Y-106298000D01*
X205900000Y-106350000D01*
X205897000Y-106402000D01*
X205889000Y-106454000D01*
X205876000Y-106505000D01*
X205857000Y-106553000D01*
X205833000Y-106600000D01*
X205805000Y-106644000D01*
X205772000Y-106685000D01*
X205735000Y-106722000D01*
X205694000Y-106755000D01*
X205650000Y-106783000D01*
X205603000Y-106807000D01*
X205555000Y-106826000D01*
X205504000Y-106839000D01*
X205452000Y-106847000D01*
X205400000Y-106850000D01*
X203600000Y-106850000D01*
X203548000Y-106847000D01*
X203496000Y-106839000D01*
X203445000Y-106826000D01*
X203397000Y-106807000D01*
X203350000Y-106783000D01*
X203306000Y-106755000D01*
X203265000Y-106722000D01*
X203228000Y-106685000D01*
X203195000Y-106644000D01*
X203167000Y-106600000D01*
X203143000Y-106553000D01*
X203124000Y-106505000D01*
X203111000Y-106454000D01*
X203103000Y-106402000D01*
X203100000Y-106350000D01*
X203103000Y-106298000D01*
X203111000Y-106246000D01*
X203124000Y-106195000D01*
X203143000Y-106147000D01*
X203167000Y-106100000D01*
X203195000Y-106056000D01*
X203228000Y-106015000D01*
X203265000Y-105978000D01*
X203306000Y-105945000D01*
X203350000Y-105917000D01*
X203397000Y-105893000D01*
X203445000Y-105874000D01*
X203496000Y-105861000D01*
X203548000Y-105853000D01*
X203600000Y-105850000D01*
X205400000Y-105850000D01*
X205452000Y-105853000D01*
G37*
X205452000Y-105853000D02*
X205504000Y-105861000D01*
X205555000Y-105874000D01*
X205603000Y-105893000D01*
X205650000Y-105917000D01*
X205694000Y-105945000D01*
X205735000Y-105978000D01*
X205772000Y-106015000D01*
X205805000Y-106056000D01*
X205833000Y-106100000D01*
X205857000Y-106147000D01*
X205876000Y-106195000D01*
X205889000Y-106246000D01*
X205897000Y-106298000D01*
X205900000Y-106350000D01*
X205897000Y-106402000D01*
X205889000Y-106454000D01*
X205876000Y-106505000D01*
X205857000Y-106553000D01*
X205833000Y-106600000D01*
X205805000Y-106644000D01*
X205772000Y-106685000D01*
X205735000Y-106722000D01*
X205694000Y-106755000D01*
X205650000Y-106783000D01*
X205603000Y-106807000D01*
X205555000Y-106826000D01*
X205504000Y-106839000D01*
X205452000Y-106847000D01*
X205400000Y-106850000D01*
X203600000Y-106850000D01*
X203548000Y-106847000D01*
X203496000Y-106839000D01*
X203445000Y-106826000D01*
X203397000Y-106807000D01*
X203350000Y-106783000D01*
X203306000Y-106755000D01*
X203265000Y-106722000D01*
X203228000Y-106685000D01*
X203195000Y-106644000D01*
X203167000Y-106600000D01*
X203143000Y-106553000D01*
X203124000Y-106505000D01*
X203111000Y-106454000D01*
X203103000Y-106402000D01*
X203100000Y-106350000D01*
X203103000Y-106298000D01*
X203111000Y-106246000D01*
X203124000Y-106195000D01*
X203143000Y-106147000D01*
X203167000Y-106100000D01*
X203195000Y-106056000D01*
X203228000Y-106015000D01*
X203265000Y-105978000D01*
X203306000Y-105945000D01*
X203350000Y-105917000D01*
X203397000Y-105893000D01*
X203445000Y-105874000D01*
X203496000Y-105861000D01*
X203548000Y-105853000D01*
X203600000Y-105850000D01*
X205400000Y-105850000D01*
X205452000Y-105853000D01*
X204500000Y-104310000D02*
X205400000Y-104310000D01*
X205400000Y-104310000D02*
X205452000Y-104307000D01*
X205452000Y-104307000D02*
X205504000Y-104299000D01*
X205504000Y-104299000D02*
X205555000Y-104286000D01*
X205555000Y-104286000D02*
X205603000Y-104267000D01*
X205603000Y-104267000D02*
X205650000Y-104243000D01*
X205650000Y-104243000D02*
X205694000Y-104215000D01*
X205694000Y-104215000D02*
X205735000Y-104182000D01*
X205735000Y-104182000D02*
X205772000Y-104145000D01*
X205772000Y-104145000D02*
X205805000Y-104104000D01*
X205805000Y-104104000D02*
X205833000Y-104060000D01*
X205833000Y-104060000D02*
X205857000Y-104013000D01*
X205857000Y-104013000D02*
X205876000Y-103965000D01*
X205876000Y-103965000D02*
X205889000Y-103914000D01*
X205889000Y-103914000D02*
X205897000Y-103862000D01*
X205897000Y-103862000D02*
X205900000Y-103810000D01*
X205900000Y-103810000D02*
X205897000Y-103758000D01*
X205897000Y-103758000D02*
X205889000Y-103706000D01*
X205889000Y-103706000D02*
X205876000Y-103655000D01*
X205876000Y-103655000D02*
X205857000Y-103607000D01*
X205857000Y-103607000D02*
X205833000Y-103560000D01*
X205833000Y-103560000D02*
X205805000Y-103516000D01*
X205805000Y-103516000D02*
X205772000Y-103475000D01*
X205772000Y-103475000D02*
X205735000Y-103438000D01*
X205735000Y-103438000D02*
X205694000Y-103405000D01*
X205694000Y-103405000D02*
X205650000Y-103377000D01*
X205650000Y-103377000D02*
X205603000Y-103353000D01*
X205603000Y-103353000D02*
X205555000Y-103334000D01*
X205555000Y-103334000D02*
X205504000Y-103321000D01*
X205504000Y-103321000D02*
X205452000Y-103313000D01*
X205452000Y-103313000D02*
X205400000Y-103310000D01*
X205400000Y-103310000D02*
X203600000Y-103310000D01*
X203600000Y-103310000D02*
X203548000Y-103313000D01*
X203548000Y-103313000D02*
X203496000Y-103321000D01*
X203496000Y-103321000D02*
X203445000Y-103334000D01*
X203445000Y-103334000D02*
X203397000Y-103353000D01*
X203397000Y-103353000D02*
X203350000Y-103377000D01*
X203350000Y-103377000D02*
X203306000Y-103405000D01*
X203306000Y-103405000D02*
X203265000Y-103438000D01*
X203265000Y-103438000D02*
X203228000Y-103475000D01*
X203228000Y-103475000D02*
X203195000Y-103516000D01*
X203195000Y-103516000D02*
X203167000Y-103560000D01*
X203167000Y-103560000D02*
X203143000Y-103607000D01*
X203143000Y-103607000D02*
X203124000Y-103655000D01*
X203124000Y-103655000D02*
X203111000Y-103706000D01*
X203111000Y-103706000D02*
X203103000Y-103758000D01*
X203103000Y-103758000D02*
X203100000Y-103810000D01*
X203100000Y-103810000D02*
X203103000Y-103862000D01*
X203103000Y-103862000D02*
X203111000Y-103914000D01*
X203111000Y-103914000D02*
X203124000Y-103965000D01*
X203124000Y-103965000D02*
X203143000Y-104013000D01*
X203143000Y-104013000D02*
X203167000Y-104060000D01*
X203167000Y-104060000D02*
X203195000Y-104104000D01*
X203195000Y-104104000D02*
X203228000Y-104145000D01*
X203228000Y-104145000D02*
X203265000Y-104182000D01*
X203265000Y-104182000D02*
X203306000Y-104215000D01*
X203306000Y-104215000D02*
X203350000Y-104243000D01*
X203350000Y-104243000D02*
X203397000Y-104267000D01*
X203397000Y-104267000D02*
X203445000Y-104286000D01*
X203445000Y-104286000D02*
X203496000Y-104299000D01*
X203496000Y-104299000D02*
X203548000Y-104307000D01*
X203548000Y-104307000D02*
X203600000Y-104310000D01*
X203600000Y-104310000D02*
X204500000Y-104310000D01*
X204500000Y-104310000D02*
X204500000Y-104310000D01*
G36*
X205452000Y-103313000D02*
G01*
X205504000Y-103321000D01*
X205555000Y-103334000D01*
X205603000Y-103353000D01*
X205650000Y-103377000D01*
X205694000Y-103405000D01*
X205735000Y-103438000D01*
X205772000Y-103475000D01*
X205805000Y-103516000D01*
X205833000Y-103560000D01*
X205857000Y-103607000D01*
X205876000Y-103655000D01*
X205889000Y-103706000D01*
X205897000Y-103758000D01*
X205900000Y-103810000D01*
X205897000Y-103862000D01*
X205889000Y-103914000D01*
X205876000Y-103965000D01*
X205857000Y-104013000D01*
X205833000Y-104060000D01*
X205805000Y-104104000D01*
X205772000Y-104145000D01*
X205735000Y-104182000D01*
X205694000Y-104215000D01*
X205650000Y-104243000D01*
X205603000Y-104267000D01*
X205555000Y-104286000D01*
X205504000Y-104299000D01*
X205452000Y-104307000D01*
X205400000Y-104310000D01*
X203600000Y-104310000D01*
X203548000Y-104307000D01*
X203496000Y-104299000D01*
X203445000Y-104286000D01*
X203397000Y-104267000D01*
X203350000Y-104243000D01*
X203306000Y-104215000D01*
X203265000Y-104182000D01*
X203228000Y-104145000D01*
X203195000Y-104104000D01*
X203167000Y-104060000D01*
X203143000Y-104013000D01*
X203124000Y-103965000D01*
X203111000Y-103914000D01*
X203103000Y-103862000D01*
X203100000Y-103810000D01*
X203103000Y-103758000D01*
X203111000Y-103706000D01*
X203124000Y-103655000D01*
X203143000Y-103607000D01*
X203167000Y-103560000D01*
X203195000Y-103516000D01*
X203228000Y-103475000D01*
X203265000Y-103438000D01*
X203306000Y-103405000D01*
X203350000Y-103377000D01*
X203397000Y-103353000D01*
X203445000Y-103334000D01*
X203496000Y-103321000D01*
X203548000Y-103313000D01*
X203600000Y-103310000D01*
X205400000Y-103310000D01*
X205452000Y-103313000D01*
G37*
X205452000Y-103313000D02*
X205504000Y-103321000D01*
X205555000Y-103334000D01*
X205603000Y-103353000D01*
X205650000Y-103377000D01*
X205694000Y-103405000D01*
X205735000Y-103438000D01*
X205772000Y-103475000D01*
X205805000Y-103516000D01*
X205833000Y-103560000D01*
X205857000Y-103607000D01*
X205876000Y-103655000D01*
X205889000Y-103706000D01*
X205897000Y-103758000D01*
X205900000Y-103810000D01*
X205897000Y-103862000D01*
X205889000Y-103914000D01*
X205876000Y-103965000D01*
X205857000Y-104013000D01*
X205833000Y-104060000D01*
X205805000Y-104104000D01*
X205772000Y-104145000D01*
X205735000Y-104182000D01*
X205694000Y-104215000D01*
X205650000Y-104243000D01*
X205603000Y-104267000D01*
X205555000Y-104286000D01*
X205504000Y-104299000D01*
X205452000Y-104307000D01*
X205400000Y-104310000D01*
X203600000Y-104310000D01*
X203548000Y-104307000D01*
X203496000Y-104299000D01*
X203445000Y-104286000D01*
X203397000Y-104267000D01*
X203350000Y-104243000D01*
X203306000Y-104215000D01*
X203265000Y-104182000D01*
X203228000Y-104145000D01*
X203195000Y-104104000D01*
X203167000Y-104060000D01*
X203143000Y-104013000D01*
X203124000Y-103965000D01*
X203111000Y-103914000D01*
X203103000Y-103862000D01*
X203100000Y-103810000D01*
X203103000Y-103758000D01*
X203111000Y-103706000D01*
X203124000Y-103655000D01*
X203143000Y-103607000D01*
X203167000Y-103560000D01*
X203195000Y-103516000D01*
X203228000Y-103475000D01*
X203265000Y-103438000D01*
X203306000Y-103405000D01*
X203350000Y-103377000D01*
X203397000Y-103353000D01*
X203445000Y-103334000D01*
X203496000Y-103321000D01*
X203548000Y-103313000D01*
X203600000Y-103310000D01*
X205400000Y-103310000D01*
X205452000Y-103313000D01*
X204500000Y-94150000D02*
X205400000Y-94150000D01*
X205400000Y-94150000D02*
X205452000Y-94147000D01*
X205452000Y-94147000D02*
X205504000Y-94139000D01*
X205504000Y-94139000D02*
X205555000Y-94126000D01*
X205555000Y-94126000D02*
X205603000Y-94107000D01*
X205603000Y-94107000D02*
X205650000Y-94083000D01*
X205650000Y-94083000D02*
X205694000Y-94055000D01*
X205694000Y-94055000D02*
X205735000Y-94022000D01*
X205735000Y-94022000D02*
X205772000Y-93985000D01*
X205772000Y-93985000D02*
X205805000Y-93944000D01*
X205805000Y-93944000D02*
X205833000Y-93900000D01*
X205833000Y-93900000D02*
X205857000Y-93853000D01*
X205857000Y-93853000D02*
X205876000Y-93805000D01*
X205876000Y-93805000D02*
X205889000Y-93754000D01*
X205889000Y-93754000D02*
X205897000Y-93702000D01*
X205897000Y-93702000D02*
X205900000Y-93650000D01*
X205900000Y-93650000D02*
X205897000Y-93598000D01*
X205897000Y-93598000D02*
X205889000Y-93546000D01*
X205889000Y-93546000D02*
X205876000Y-93495000D01*
X205876000Y-93495000D02*
X205857000Y-93447000D01*
X205857000Y-93447000D02*
X205833000Y-93400000D01*
X205833000Y-93400000D02*
X205805000Y-93356000D01*
X205805000Y-93356000D02*
X205772000Y-93315000D01*
X205772000Y-93315000D02*
X205735000Y-93278000D01*
X205735000Y-93278000D02*
X205694000Y-93245000D01*
X205694000Y-93245000D02*
X205650000Y-93217000D01*
X205650000Y-93217000D02*
X205603000Y-93193000D01*
X205603000Y-93193000D02*
X205555000Y-93174000D01*
X205555000Y-93174000D02*
X205504000Y-93161000D01*
X205504000Y-93161000D02*
X205452000Y-93153000D01*
X205452000Y-93153000D02*
X205400000Y-93150000D01*
X205400000Y-93150000D02*
X203600000Y-93150000D01*
X203600000Y-93150000D02*
X203548000Y-93153000D01*
X203548000Y-93153000D02*
X203496000Y-93161000D01*
X203496000Y-93161000D02*
X203445000Y-93174000D01*
X203445000Y-93174000D02*
X203397000Y-93193000D01*
X203397000Y-93193000D02*
X203350000Y-93217000D01*
X203350000Y-93217000D02*
X203306000Y-93245000D01*
X203306000Y-93245000D02*
X203265000Y-93278000D01*
X203265000Y-93278000D02*
X203228000Y-93315000D01*
X203228000Y-93315000D02*
X203195000Y-93356000D01*
X203195000Y-93356000D02*
X203167000Y-93400000D01*
X203167000Y-93400000D02*
X203143000Y-93447000D01*
X203143000Y-93447000D02*
X203124000Y-93495000D01*
X203124000Y-93495000D02*
X203111000Y-93546000D01*
X203111000Y-93546000D02*
X203103000Y-93598000D01*
X203103000Y-93598000D02*
X203100000Y-93650000D01*
X203100000Y-93650000D02*
X203103000Y-93702000D01*
X203103000Y-93702000D02*
X203111000Y-93754000D01*
X203111000Y-93754000D02*
X203124000Y-93805000D01*
X203124000Y-93805000D02*
X203143000Y-93853000D01*
X203143000Y-93853000D02*
X203167000Y-93900000D01*
X203167000Y-93900000D02*
X203195000Y-93944000D01*
X203195000Y-93944000D02*
X203228000Y-93985000D01*
X203228000Y-93985000D02*
X203265000Y-94022000D01*
X203265000Y-94022000D02*
X203306000Y-94055000D01*
X203306000Y-94055000D02*
X203350000Y-94083000D01*
X203350000Y-94083000D02*
X203397000Y-94107000D01*
X203397000Y-94107000D02*
X203445000Y-94126000D01*
X203445000Y-94126000D02*
X203496000Y-94139000D01*
X203496000Y-94139000D02*
X203548000Y-94147000D01*
X203548000Y-94147000D02*
X203600000Y-94150000D01*
X203600000Y-94150000D02*
X204500000Y-94150000D01*
X204500000Y-94150000D02*
X204500000Y-94150000D01*
G36*
X205452000Y-93153000D02*
G01*
X205504000Y-93161000D01*
X205555000Y-93174000D01*
X205603000Y-93193000D01*
X205650000Y-93217000D01*
X205694000Y-93245000D01*
X205735000Y-93278000D01*
X205772000Y-93315000D01*
X205805000Y-93356000D01*
X205833000Y-93400000D01*
X205857000Y-93447000D01*
X205876000Y-93495000D01*
X205889000Y-93546000D01*
X205897000Y-93598000D01*
X205900000Y-93650000D01*
X205897000Y-93702000D01*
X205889000Y-93754000D01*
X205876000Y-93805000D01*
X205857000Y-93853000D01*
X205833000Y-93900000D01*
X205805000Y-93944000D01*
X205772000Y-93985000D01*
X205735000Y-94022000D01*
X205694000Y-94055000D01*
X205650000Y-94083000D01*
X205603000Y-94107000D01*
X205555000Y-94126000D01*
X205504000Y-94139000D01*
X205452000Y-94147000D01*
X205400000Y-94150000D01*
X203600000Y-94150000D01*
X203548000Y-94147000D01*
X203496000Y-94139000D01*
X203445000Y-94126000D01*
X203397000Y-94107000D01*
X203350000Y-94083000D01*
X203306000Y-94055000D01*
X203265000Y-94022000D01*
X203228000Y-93985000D01*
X203195000Y-93944000D01*
X203167000Y-93900000D01*
X203143000Y-93853000D01*
X203124000Y-93805000D01*
X203111000Y-93754000D01*
X203103000Y-93702000D01*
X203100000Y-93650000D01*
X203103000Y-93598000D01*
X203111000Y-93546000D01*
X203124000Y-93495000D01*
X203143000Y-93447000D01*
X203167000Y-93400000D01*
X203195000Y-93356000D01*
X203228000Y-93315000D01*
X203265000Y-93278000D01*
X203306000Y-93245000D01*
X203350000Y-93217000D01*
X203397000Y-93193000D01*
X203445000Y-93174000D01*
X203496000Y-93161000D01*
X203548000Y-93153000D01*
X203600000Y-93150000D01*
X205400000Y-93150000D01*
X205452000Y-93153000D01*
G37*
X205452000Y-93153000D02*
X205504000Y-93161000D01*
X205555000Y-93174000D01*
X205603000Y-93193000D01*
X205650000Y-93217000D01*
X205694000Y-93245000D01*
X205735000Y-93278000D01*
X205772000Y-93315000D01*
X205805000Y-93356000D01*
X205833000Y-93400000D01*
X205857000Y-93447000D01*
X205876000Y-93495000D01*
X205889000Y-93546000D01*
X205897000Y-93598000D01*
X205900000Y-93650000D01*
X205897000Y-93702000D01*
X205889000Y-93754000D01*
X205876000Y-93805000D01*
X205857000Y-93853000D01*
X205833000Y-93900000D01*
X205805000Y-93944000D01*
X205772000Y-93985000D01*
X205735000Y-94022000D01*
X205694000Y-94055000D01*
X205650000Y-94083000D01*
X205603000Y-94107000D01*
X205555000Y-94126000D01*
X205504000Y-94139000D01*
X205452000Y-94147000D01*
X205400000Y-94150000D01*
X203600000Y-94150000D01*
X203548000Y-94147000D01*
X203496000Y-94139000D01*
X203445000Y-94126000D01*
X203397000Y-94107000D01*
X203350000Y-94083000D01*
X203306000Y-94055000D01*
X203265000Y-94022000D01*
X203228000Y-93985000D01*
X203195000Y-93944000D01*
X203167000Y-93900000D01*
X203143000Y-93853000D01*
X203124000Y-93805000D01*
X203111000Y-93754000D01*
X203103000Y-93702000D01*
X203100000Y-93650000D01*
X203103000Y-93598000D01*
X203111000Y-93546000D01*
X203124000Y-93495000D01*
X203143000Y-93447000D01*
X203167000Y-93400000D01*
X203195000Y-93356000D01*
X203228000Y-93315000D01*
X203265000Y-93278000D01*
X203306000Y-93245000D01*
X203350000Y-93217000D01*
X203397000Y-93193000D01*
X203445000Y-93174000D01*
X203496000Y-93161000D01*
X203548000Y-93153000D01*
X203600000Y-93150000D01*
X205400000Y-93150000D01*
X205452000Y-93153000D01*
X188500000Y-94150000D02*
X189400000Y-94150000D01*
X189400000Y-94150000D02*
X189452000Y-94147000D01*
X189452000Y-94147000D02*
X189504000Y-94139000D01*
X189504000Y-94139000D02*
X189555000Y-94126000D01*
X189555000Y-94126000D02*
X189603000Y-94107000D01*
X189603000Y-94107000D02*
X189650000Y-94083000D01*
X189650000Y-94083000D02*
X189694000Y-94055000D01*
X189694000Y-94055000D02*
X189735000Y-94022000D01*
X189735000Y-94022000D02*
X189772000Y-93985000D01*
X189772000Y-93985000D02*
X189805000Y-93944000D01*
X189805000Y-93944000D02*
X189833000Y-93900000D01*
X189833000Y-93900000D02*
X189857000Y-93853000D01*
X189857000Y-93853000D02*
X189876000Y-93805000D01*
X189876000Y-93805000D02*
X189889000Y-93754000D01*
X189889000Y-93754000D02*
X189897000Y-93702000D01*
X189897000Y-93702000D02*
X189900000Y-93650000D01*
X189900000Y-93650000D02*
X189897000Y-93598000D01*
X189897000Y-93598000D02*
X189889000Y-93546000D01*
X189889000Y-93546000D02*
X189876000Y-93495000D01*
X189876000Y-93495000D02*
X189857000Y-93447000D01*
X189857000Y-93447000D02*
X189833000Y-93400000D01*
X189833000Y-93400000D02*
X189805000Y-93356000D01*
X189805000Y-93356000D02*
X189772000Y-93315000D01*
X189772000Y-93315000D02*
X189735000Y-93278000D01*
X189735000Y-93278000D02*
X189694000Y-93245000D01*
X189694000Y-93245000D02*
X189650000Y-93217000D01*
X189650000Y-93217000D02*
X189603000Y-93193000D01*
X189603000Y-93193000D02*
X189555000Y-93174000D01*
X189555000Y-93174000D02*
X189504000Y-93161000D01*
X189504000Y-93161000D02*
X189452000Y-93153000D01*
X189452000Y-93153000D02*
X189400000Y-93150000D01*
X189400000Y-93150000D02*
X187600000Y-93150000D01*
X187600000Y-93150000D02*
X187548000Y-93153000D01*
X187548000Y-93153000D02*
X187496000Y-93161000D01*
X187496000Y-93161000D02*
X187445000Y-93174000D01*
X187445000Y-93174000D02*
X187397000Y-93193000D01*
X187397000Y-93193000D02*
X187350000Y-93217000D01*
X187350000Y-93217000D02*
X187306000Y-93245000D01*
X187306000Y-93245000D02*
X187265000Y-93278000D01*
X187265000Y-93278000D02*
X187228000Y-93315000D01*
X187228000Y-93315000D02*
X187195000Y-93356000D01*
X187195000Y-93356000D02*
X187167000Y-93400000D01*
X187167000Y-93400000D02*
X187143000Y-93447000D01*
X187143000Y-93447000D02*
X187124000Y-93495000D01*
X187124000Y-93495000D02*
X187111000Y-93546000D01*
X187111000Y-93546000D02*
X187103000Y-93598000D01*
X187103000Y-93598000D02*
X187100000Y-93650000D01*
X187100000Y-93650000D02*
X187103000Y-93702000D01*
X187103000Y-93702000D02*
X187111000Y-93754000D01*
X187111000Y-93754000D02*
X187124000Y-93805000D01*
X187124000Y-93805000D02*
X187143000Y-93853000D01*
X187143000Y-93853000D02*
X187167000Y-93900000D01*
X187167000Y-93900000D02*
X187195000Y-93944000D01*
X187195000Y-93944000D02*
X187228000Y-93985000D01*
X187228000Y-93985000D02*
X187265000Y-94022000D01*
X187265000Y-94022000D02*
X187306000Y-94055000D01*
X187306000Y-94055000D02*
X187350000Y-94083000D01*
X187350000Y-94083000D02*
X187397000Y-94107000D01*
X187397000Y-94107000D02*
X187445000Y-94126000D01*
X187445000Y-94126000D02*
X187496000Y-94139000D01*
X187496000Y-94139000D02*
X187548000Y-94147000D01*
X187548000Y-94147000D02*
X187600000Y-94150000D01*
X187600000Y-94150000D02*
X188500000Y-94150000D01*
X188500000Y-94150000D02*
X188500000Y-94150000D01*
G36*
X189452000Y-93153000D02*
G01*
X189504000Y-93161000D01*
X189555000Y-93174000D01*
X189603000Y-93193000D01*
X189650000Y-93217000D01*
X189694000Y-93245000D01*
X189735000Y-93278000D01*
X189772000Y-93315000D01*
X189805000Y-93356000D01*
X189833000Y-93400000D01*
X189857000Y-93447000D01*
X189876000Y-93495000D01*
X189889000Y-93546000D01*
X189897000Y-93598000D01*
X189900000Y-93650000D01*
X189897000Y-93702000D01*
X189889000Y-93754000D01*
X189876000Y-93805000D01*
X189857000Y-93853000D01*
X189833000Y-93900000D01*
X189805000Y-93944000D01*
X189772000Y-93985000D01*
X189735000Y-94022000D01*
X189694000Y-94055000D01*
X189650000Y-94083000D01*
X189603000Y-94107000D01*
X189555000Y-94126000D01*
X189504000Y-94139000D01*
X189452000Y-94147000D01*
X189400000Y-94150000D01*
X187600000Y-94150000D01*
X187548000Y-94147000D01*
X187496000Y-94139000D01*
X187445000Y-94126000D01*
X187397000Y-94107000D01*
X187350000Y-94083000D01*
X187306000Y-94055000D01*
X187265000Y-94022000D01*
X187228000Y-93985000D01*
X187195000Y-93944000D01*
X187167000Y-93900000D01*
X187143000Y-93853000D01*
X187124000Y-93805000D01*
X187111000Y-93754000D01*
X187103000Y-93702000D01*
X187100000Y-93650000D01*
X187103000Y-93598000D01*
X187111000Y-93546000D01*
X187124000Y-93495000D01*
X187143000Y-93447000D01*
X187167000Y-93400000D01*
X187195000Y-93356000D01*
X187228000Y-93315000D01*
X187265000Y-93278000D01*
X187306000Y-93245000D01*
X187350000Y-93217000D01*
X187397000Y-93193000D01*
X187445000Y-93174000D01*
X187496000Y-93161000D01*
X187548000Y-93153000D01*
X187600000Y-93150000D01*
X189400000Y-93150000D01*
X189452000Y-93153000D01*
G37*
X189452000Y-93153000D02*
X189504000Y-93161000D01*
X189555000Y-93174000D01*
X189603000Y-93193000D01*
X189650000Y-93217000D01*
X189694000Y-93245000D01*
X189735000Y-93278000D01*
X189772000Y-93315000D01*
X189805000Y-93356000D01*
X189833000Y-93400000D01*
X189857000Y-93447000D01*
X189876000Y-93495000D01*
X189889000Y-93546000D01*
X189897000Y-93598000D01*
X189900000Y-93650000D01*
X189897000Y-93702000D01*
X189889000Y-93754000D01*
X189876000Y-93805000D01*
X189857000Y-93853000D01*
X189833000Y-93900000D01*
X189805000Y-93944000D01*
X189772000Y-93985000D01*
X189735000Y-94022000D01*
X189694000Y-94055000D01*
X189650000Y-94083000D01*
X189603000Y-94107000D01*
X189555000Y-94126000D01*
X189504000Y-94139000D01*
X189452000Y-94147000D01*
X189400000Y-94150000D01*
X187600000Y-94150000D01*
X187548000Y-94147000D01*
X187496000Y-94139000D01*
X187445000Y-94126000D01*
X187397000Y-94107000D01*
X187350000Y-94083000D01*
X187306000Y-94055000D01*
X187265000Y-94022000D01*
X187228000Y-93985000D01*
X187195000Y-93944000D01*
X187167000Y-93900000D01*
X187143000Y-93853000D01*
X187124000Y-93805000D01*
X187111000Y-93754000D01*
X187103000Y-93702000D01*
X187100000Y-93650000D01*
X187103000Y-93598000D01*
X187111000Y-93546000D01*
X187124000Y-93495000D01*
X187143000Y-93447000D01*
X187167000Y-93400000D01*
X187195000Y-93356000D01*
X187228000Y-93315000D01*
X187265000Y-93278000D01*
X187306000Y-93245000D01*
X187350000Y-93217000D01*
X187397000Y-93193000D01*
X187445000Y-93174000D01*
X187496000Y-93161000D01*
X187548000Y-93153000D01*
X187600000Y-93150000D01*
X189400000Y-93150000D01*
X189452000Y-93153000D01*
%TD*%
D11*
%TO.C,BAT2*%
X208437500Y-101650000D03*
X208437500Y-102900000D03*
D12*
X210587500Y-99100000D03*
X210587500Y-105450000D03*
%TD*%
%TO.C,BAT1*%
X210650000Y-96800000D03*
X210650000Y-90450000D03*
D11*
X208500000Y-94250000D03*
X208500000Y-93000000D03*
%TD*%
D13*
%TO.C,C27*%
X186600000Y-95600000D03*
X185640000Y-95600000D03*
%TD*%
%TO.C,C29*%
X186600000Y-99000000D03*
X185640000Y-99000000D03*
%TD*%
%TO.C,C28*%
X186580000Y-100000000D03*
X185620000Y-100000000D03*
%TD*%
M02*
